<?xml version="1.0" encoding="utf-8"?>
<!-- Generator: Adobe Illustrator 17.1.0, SVG Export Plug-In . SVG Version: 6.00 Build 0)  -->
<!DOCTYPE svg PUBLIC "-//W3C//DTD SVG 1.1//EN" "http://www.w3.org/Graphics/SVG/1.1/DTD/svg11.dtd">
<svg version="1.1" id="Calque_1" xmlns="http://www.w3.org/2000/svg" xmlns:xlink="http://www.w3.org/1999/xlink" x="0px" y="0px"
	 viewBox="0 0 140 127" enable-background="new 0 0 140 127" xml:space="preserve">
<g>
	<path fill="#802489" d="M34,23.4h17l25.5,78.6H58.9l-4.8-15.8l-23.3,0l-4.8,15.8l-17.5,0L34,23.4z M42.5,47.7l-7,23.2h14.1
		L42.5,47.7z"/>
	<path fill="#802489" d="M84.2,43.7c7.7-3,14.7-4.5,21.1-4.5c16.5,0,24.7,7.8,24.7,23.5v35.4c-4.7,2.6-12.9,3.9-24.7,3.9
		c-16.5,0-24.7-6.8-24.7-20.4c0-14.3,11.1-21.4,33.3-21.4c0-3.8-2.9-5.7-8.6-5.7c-4.7,0-10.2,1-16.4,3L84.2,43.7z M114,75.7
		c-11.5,0-17.2,2-17.2,6c0,3.3,2.9,4.9,8.6,4.9c1.8,0,3.4-0.1,4.8-0.2c1.4-0.1,2.7-0.3,3.8-0.4V75.7z"/>
</g>
</svg>
