<?xml version="1.0" encoding="utf-8"?>
<!-- Generator: Adobe Illustrator 17.1.0, SVG Export Plug-In . SVG Version: 6.00 Build 0)  -->
<!DOCTYPE svg PUBLIC "-//W3C//DTD SVG 1.1//EN" "http://www.w3.org/Graphics/SVG/1.1/DTD/svg11.dtd">
<svg version="1.1" id="Calque_1" xmlns="http://www.w3.org/2000/svg" xmlns:xlink="http://www.w3.org/1999/xlink" x="0px" y="0px"
	 viewBox="0 0 135.6 112.3" enable-background="new 0 0 135.6 112.3" xml:space="preserve">
<path fill="#C84B24" d="M79.4,3.1c-17.2,0-32.5,8.3-42,21l-26,26.2c-4.4,5-6.7,11.2-6.9,18l23.9,0c5.7,22.9,26.3,39.8,51,39.8
	c29,0,52.5-23.5,52.5-52.5C131.9,26.6,108.4,3.1,79.4,3.1z M79.4,88.8c-18.3,0-33.1-14.8-33.1-33.1c0-18.3,14.8-33.1,33.1-33.1
	s33.1,14.8,33.1,33.1C112.5,73.9,97.7,88.8,79.4,88.8z"/>
<polyline fill="none" stroke="#0C6D95" stroke-width="14" stroke-miterlimit="10" points="61,54.2 73.9,67.2 98.5,42.6 "/>
</svg>
