<?xml version="1.0" encoding="utf-8"?>
<!-- Generator: Adobe Illustrator 17.1.0, SVG Export Plug-In . SVG Version: 6.00 Build 0)  -->
<!DOCTYPE svg PUBLIC "-//W3C//DTD SVG 1.1//EN" "http://www.w3.org/Graphics/SVG/1.1/DTD/svg11.dtd">
<svg version="1.1" id="Calque_1" xmlns="http://www.w3.org/2000/svg" xmlns:xlink="http://www.w3.org/1999/xlink" x="0px" y="0px"
	 viewBox="0 0 152.5 139.2" enable-background="new 0 0 152.5 139.2" xml:space="preserve">
<g>
	<path fill="#0C6D95" d="M93.1,100.1c0-22,9.2-33,27.7-33s27.7,11,27.7,33s-9.2,33-27.7,33S93.1,122.1,93.1,100.1z M120.6,87.9
		c-5.9,0-10.4,2.7-10.4,12.6s3.5,14.8,10.4,14.8c7,0,8.9-6.4,8.9-14.8S126.5,87.9,120.6,87.9z"/>
</g>
<g>
	<path fill="#802489" d="M125.1,55.4c1.4,0,2.8,0.6,4.1,0.7l11.2-47.7h-23.6L106,59.4C111.4,57.2,117.8,55.4,125.1,55.4z"/>
	<path fill="#802489" d="M98.5,63.6L82,8.5H61.6L41.3,77.1L26.9,8.5H3.1l25,106h23.5l20.2-63.9L83.9,89
		C86.2,77.4,91.1,69.2,98.5,63.6z"/>
</g>
</svg>
