<?xml version="1.0" encoding="utf-8"?>
<!-- Generator: Adobe Illustrator 17.1.0, SVG Export Plug-In . SVG Version: 6.00 Build 0)  -->
<!DOCTYPE svg PUBLIC "-//W3C//DTD SVG 1.1//EN" "http://www.w3.org/Graphics/SVG/1.1/DTD/svg11.dtd">
<svg version="1.1" id="Calque_1" xmlns="http://www.w3.org/2000/svg" xmlns:xlink="http://www.w3.org/1999/xlink" x="0px" y="0px"
	 viewBox="0 0 131.7 127" enable-background="new 0 0 131.7 127" xml:space="preserve">
<path fill="#C84B24" d="M51.4,52c-5.6,5.6-8,13.3-9,20l-4.7,4.7l0.4-0.3l0.2-40.7c0.4-6.5,3.1-12.3,7.7-17l24.9,24.9
	c0.3,0,0.2-0.4,0.5-0.4l0.4-0.3L71.4,43C64.7,44,57,46.4,51.4,52z"/>
<path fill="#C84B24" d="M95.2,6.4L18,83.7l0,0L7.6,122.2l38.6-10.3l0,0l77.2-77.2L95.2,6.4z M36.3,95.7c-2.6,2.6-6.9,2.6-9.5,0
	c-2.6-2.6-2.6-6.9,0-9.5s6.9-2.6,9.5,0C39,88.8,39,93.1,36.3,95.7z"/>
</svg>
