<?xml version="1.0" encoding="utf-8"?>
<!-- Generator: Adobe Illustrator 17.1.0, SVG Export Plug-In . SVG Version: 6.00 Build 0)  -->
<!DOCTYPE svg PUBLIC "-//W3C//DTD SVG 1.1//EN" "http://www.w3.org/Graphics/SVG/1.1/DTD/svg11.dtd">
<svg version="1.1" id="Calque_1" xmlns="http://www.w3.org/2000/svg" xmlns:xlink="http://www.w3.org/1999/xlink" x="0px" y="0px"
	 viewBox="0 0 152.5 139.2" enable-background="new 0 0 152.5 139.2" xml:space="preserve">
<path fill="#C84B24" d="M72.1,49.7c-9.6,0-18.4,3.4-25.4,9l0,0c-2.4,1.9-4.5,4.1-6.4,6.6L13.7,92.1c-4.9,5.6-7.4,12.5-7.6,20.1
	l32.4,0c4.7,10.7,22.6,17.9,29.4,17.9c10.8,0,29.9-2.8,29.9-16.5c-25.4-1.3-34.3-9.6-34.4-12.8c-0.3-13.6,45.9-9.4,45.9-9.4
	S112.9,49.7,72.1,49.7z M72.1,81.3c-5.5,0-10-4.5-10-10c0-5.5,4.5-10,10-10c5.5,0,10,4.5,10,10C82.2,76.8,77.7,81.3,72.1,81.3z"/>
<g>
	<path fill="#0C6D95" d="M122,69.1h17.8l0,17H122L122,69.1z M122.7,12.2l16.4,0L137,55l-12.5,0L122.7,12.2z"/>
</g>
</svg>
