<?xml version="1.0" encoding="utf-8"?>
<!-- Generator: Adobe Illustrator 17.1.0, SVG Export Plug-In . SVG Version: 6.00 Build 0)  -->
<!DOCTYPE svg PUBLIC "-//W3C//DTD SVG 1.1//EN" "http://www.w3.org/Graphics/SVG/1.1/DTD/svg11.dtd">
<svg version="1.1" id="Calque_1" xmlns="http://www.w3.org/2000/svg" xmlns:xlink="http://www.w3.org/1999/xlink" x="0px" y="0px"
	 viewBox="0 0 140 127" enable-background="new 0 0 140 127" xml:space="preserve">
<g>
	<path fill="#C84B24" d="M120.3,57.4c-0.1-5.8-2.1-11.2-5.9-15.5L95.6,23C90.8,11.8,80.2,6.2,61.4,6.2c-8.7,0-37,2-29.7,41.4
		c0,0,5.3-9.5,22-9.5c3.8,0,10.2,2.2,10.9,7.5c0.7,5.5,1.9,9.6-14.7,12.2L52,88h20l1.7-12.6c10.8-3.4,18-9.4,21.9-17.9L120.3,57.4z
		 M57.1,31c-4.2,0-7.6-3.4-7.6-7.6s3.4-7.6,7.6-7.6c4.2,0,7.6,3.4,7.6,7.6S61.3,31,57.1,31z"/>
	<rect x="48" y="97" fill="#C84B24" width="28" height="27"/>
</g>
</svg>
