<?xml version="1.0" encoding="utf-8"?>
<!-- Generator: Adobe Illustrator 17.1.0, SVG Export Plug-In . SVG Version: 6.00 Build 0)  -->
<!DOCTYPE svg PUBLIC "-//W3C//DTD SVG 1.1//EN" "http://www.w3.org/Graphics/SVG/1.1/DTD/svg11.dtd">
<svg version="1.1" id="Calque_1" xmlns="http://www.w3.org/2000/svg" xmlns:xlink="http://www.w3.org/1999/xlink" x="0px" y="0px"
	 viewBox="0 0 152.5 139.2" enable-background="new 0 0 152.5 139.2" xml:space="preserve">
<g>
	<path fill="#C84B24" d="M59.3,52.2c-0.1,2.8-8.1,10.4-31,11.5c0,8.1,7.4,12,15.2,13.7l13.7-13.8c2.2-2.9,4.8-5.5,7.6-7.8l0,0
		c8.2-6.6,18.6-10.6,30-10.6c3.9,0,7.4,0.3,10.6,0.9c-0.4-0.6-0.9-1.1-1.3-1.7L80.3,20.2c-1.7-2.2-3.6-4.2-5.8-5.9l0,0
		c-6.2-5.1-14.2-8.1-22.8-8.1C14.8,6.2,18,43.7,18,43.7S59.6,40,59.3,52.2z M51.6,16.6c5,0,9,4,9,9c0,5-4,9-9,9s-9-4-9-9
		C42.5,20.7,46.6,16.6,51.6,16.6z"/>
	<path fill="#C84B24" d="M95,58.9c-3.3,0-6.3,1.4-8.5,3.6l17,0C101.3,60.3,98.3,58.9,95,58.9z"/>
</g>
<path fill="#802489" d="M97,55.3c-9.4,0-18.1,3.3-24.9,8.8l0,0c-2.3,1.9-4.5,4.1-6.3,6.4L39.7,96.9c-4.8,5.5-7.3,12.3-7.5,19.7
	l31.8,0c4.6,10.5,22.2,17.5,28.9,17.5c10.6,0,29.4-2.7,29.4-16.2c-24.9-1.3-33.6-9.5-33.7-12.6c-0.3-13.3,45-9.2,45-9.2
	S137,55.3,97,55.3z M97,86.3c-5.4,0-9.8-4.4-9.8-9.8c0-5.4,4.4-9.8,9.8-9.8s9.8,4.4,9.8,9.8C106.9,81.9,102.5,86.3,97,86.3z"/>
</svg>
