<?xml version="1.0" encoding="utf-8"?>
<!-- Generator: Adobe Illustrator 17.1.0, SVG Export Plug-In . SVG Version: 6.00 Build 0)  -->
<!DOCTYPE svg PUBLIC "-//W3C//DTD SVG 1.1//EN" "http://www.w3.org/Graphics/SVG/1.1/DTD/svg11.dtd">
<svg version="1.1" id="Calque_1" xmlns="http://www.w3.org/2000/svg" xmlns:xlink="http://www.w3.org/1999/xlink" x="0px" y="0px"
	 viewBox="0 0 500 500" enable-background="new 0 0 500 500" xml:space="preserve">
<g>
	<g>
		<path fill="#C84B24" d="M251.7,274.9c-18.7,0-28.2,8.8-28.2,26.4c0,17.7,7.2,26.6,21.4,26.6c16.6,0,28.1-3.2,35.1-9.6v-10.4
			C280,285.9,270.4,274.9,251.7,274.9z"/>
	</g>
	<g>
		<path fill="#C84B24" d="M7.6,199.5V478h487.7V199.5H7.6z M319.3,347c0,56.1-24.9,84.1-74.7,84.1c-14.4,0-30.6-2.9-48.5-8.6
			l10.1-36.6c12.5,4.8,25.3,7.1,38.4,7.1c23.3,0,34.9-10.6,34.9-31.8c-3.5,3.2-15.1,4.8-34.9,4.8c-40.6,0-61-21.6-61-64.7
			c0-43,22.6-64.5,67.8-64.5c45.2,0,67.8,23.7,67.8,71.1V347z"/>
	</g>
	<g>
		<path fill="#C84B24" d="M7.6,22.5v120.9h487.7V22.5H7.6z"/>
	</g>
</g>
</svg>
