<?xml version="1.0" encoding="utf-8"?>
<!-- Generator: Adobe Illustrator 17.1.0, SVG Export Plug-In . SVG Version: 6.00 Build 0)  -->
<!DOCTYPE svg PUBLIC "-//W3C//DTD SVG 1.1//EN" "http://www.w3.org/Graphics/SVG/1.1/DTD/svg11.dtd">
<svg version="1.1" id="Calque_1" xmlns="http://www.w3.org/2000/svg" xmlns:xlink="http://www.w3.org/1999/xlink" x="0px" y="0px"
	 viewBox="0 0 152.5 139.2" enable-background="new 0 0 152.5 139.2" xml:space="preserve">
<path fill="#C84B24" d="M136,24.2c0,7.9-6.4,14.3-14.3,14.3H35.3c-7.9,0-14.3-6.4-14.3-14.3v-0.4c0-7.9,6.4-14.3,14.3-14.3h86.4
	c7.9,0,14.3,6.4,14.3,14.3V24.2z"/>
<path fill="#C84B24" d="M136,70.2c0,7.9-6.4,14.3-14.3,14.3H35.3c-7.9,0-14.3-6.4-14.3-14.3v-0.4c0-7.9,6.4-14.3,14.3-14.3h86.4
	c7.9,0,14.3,6.4,14.3,14.3V70.2z"/>
<path fill="#C84B24" d="M136,116.2c0,7.9-6.4,14.3-14.3,14.3H35.3c-7.9,0-14.3-6.4-14.3-14.3v-0.4c0-7.9,6.4-14.3,14.3-14.3h86.4
	c7.9,0,14.3,6.4,14.3,14.3V116.2z"/>
</svg>
