<?xml version="1.0" encoding="utf-8"?>
<!-- Generator: Adobe Illustrator 17.1.0, SVG Export Plug-In . SVG Version: 6.00 Build 0)  -->
<!DOCTYPE svg PUBLIC "-//W3C//DTD SVG 1.1//EN" "http://www.w3.org/Graphics/SVG/1.1/DTD/svg11.dtd">
<svg version="1.1" id="Calque_1" xmlns="http://www.w3.org/2000/svg" xmlns:xlink="http://www.w3.org/1999/xlink" x="0px" y="0px"
	 viewBox="0 0 152.5 139.2" enable-background="new 0 0 152.5 139.2" xml:space="preserve">
<g id="g9322" transform="matrix(0.450417,0,0,0.450417,-64.12249,-55.85942)">
	<g id="g7525" transform="translate(81.05585,-16.77018)">
		<path id="path1308" fill="#AFA70E" d="M133.4,214.8c0,0,79.6,19.5,83,4c3.3-15.1-14.2-16.7-15.7-34.3c-1.4-17,12.5-33.9,37-33.6
			c24.4,0.3,38.2,15.5,39.3,32.5c1.3,22.6-17.8,22.5-11.7,35.4c6.6,13.9,80.2-3.8,89.7,7.9c10.6,12.9,8.6,48.5-2.5,66.2
			c-11.1,17.7-19.7-7.4-36.3-3.4c-16.7,4-15.6,16.3-14.6,33c1,16.7,3.1,25.5,19.7,28c16.7,2.5,24.9-29.6,31.2-14.6
			c6.3,15,7,75.7-6.1,91.5c-11.9,14.5-84.3,17.1-87.5,2c-3.6-17.3,14.5-11.1,13.5-26.2c-1-15.1-19-21.7-37.7-24.2
			c-18.7-2.5-30.4-1-37,14.1c-6.6,15.1,16.9,21.6,11.9,36.3c-5.3,15.5-89.3,0-89.3,0s19.6-80.8,1.3-91.3
			c-16.5-9.5-17.7,12.7-33.9,5.2c-16.1-7.6-11.8-25-8.3-42.2c3.5-17.2,13.7-27.4,25.8-26.5c9.8,0.7,30.8,29.8,35.9,18.2
			C146.3,281.3,133.4,214.8,133.4,214.8z"/>
	</g>
</g>
</svg>
