<?xml version="1.0" encoding="utf-8"?>
<!-- Generator: Adobe Illustrator 17.1.0, SVG Export Plug-In . SVG Version: 6.00 Build 0)  -->
<!DOCTYPE svg PUBLIC "-//W3C//DTD SVG 1.1//EN" "http://www.w3.org/Graphics/SVG/1.1/DTD/svg11.dtd">
<svg version="1.1" id="Calque_1" xmlns="http://www.w3.org/2000/svg" xmlns:xlink="http://www.w3.org/1999/xlink" x="0px" y="0px"
	 viewBox="0 0 131.7 127" enable-background="new 0 0 131.7 127" xml:space="preserve">
<path fill="#802489" d="M65.8,11C35,11,9.9,29.7,9.9,52.9s25,41.9,55.8,41.9c0.8,0,1.9,0,2.6,0L90,116V90.8c19-6.7,32-21.1,32-38
	C122,29.7,96.7,11,65.8,11z M36.2,63.5c-5.7,0-10.3-4.6-10.3-10.3c0-5.7,4.6-10.3,10.3-10.3c5.7,0,10.3,4.6,10.3,10.3
	C46.4,58.9,41.8,63.5,36.2,63.5z M66,63.5c-5.7,0-10.3-4.6-10.3-10.3c0-5.7,4.6-10.3,10.3-10.3s10.3,4.6,10.3,10.3
	C76.3,58.9,71.7,63.5,66,63.5z M95.8,63.5c-5.7,0-10.3-4.6-10.3-10.3c0-5.7,4.6-10.3,10.3-10.3s10.3,4.6,10.3,10.3
	C106.1,58.9,101.5,63.5,95.8,63.5z"/>
</svg>
