<?xml version="1.0" encoding="utf-8"?>
<!-- Generator: Adobe Illustrator 17.1.0, SVG Export Plug-In . SVG Version: 6.00 Build 0)  -->
<!DOCTYPE svg PUBLIC "-//W3C//DTD SVG 1.1//EN" "http://www.w3.org/Graphics/SVG/1.1/DTD/svg11.dtd">
<svg version="1.1" id="Calque_1" xmlns="http://www.w3.org/2000/svg" xmlns:xlink="http://www.w3.org/1999/xlink" x="0px" y="0px"
	 viewBox="0 0 140 127" enable-background="new 0 0 140 127" xml:space="preserve">
<g>
	<path fill="#AFA70E" d="M115.2,16.4C109,9.9,100.6,6.2,91.5,5.9c-0.3,0-0.6,0-0.9,0c-8.9,0-17.5,3.8-24.4,10.6L52.6,30.2
		c6.6-3.1,16.1-4.2,28.8,3.9l1.3-1.1c1.2-1.2,3.7-3.3,7-3.4l0.2,0c0.3,0,0.6,0,1,0c3.1,0,5.8,1.3,7.9,3.9c3.5,4.1,3,10.5-1.1,14.6
		L79.8,65.7c-1.1,1.1-2.8,2.1-4.8,2.8c-1.6,0.7-4.1,0.4-4.7,0.3c-2.1-0.5-3.9-1.5-5.3-2.9c-0.1-0.1-0.2-0.3-0.4-0.4c0,0,0,0,0,0
		c-2.8-0.7-5.9,0.9-7.1,2.4c-1.1,1.3-6.6,6.9-11.2,12.1c0.5,0.8,1.1,1.6,1.8,2.4c2.7,2.7,5.7,4.8,9.2,6.5c1.5,0.8,3.1,1.4,5,1.9
		l0.5,0.1c1.4,0.4,3,0.9,4.9,0.9c1.6,0.2,3.1,0.2,4.4,0.2c5.5,0,11-1.3,15.8-3.9c2.9-1.5,5.2-3.3,6.7-4.8c0.3-0.2,0.5-0.4,0.7-0.6
		l0.2-0.1l18.1-18.1C127.3,51,127.9,29.9,115.2,16.4z"/>
	<path fill="#AFA70E" d="M51.3,94.2l-0.6,0.6c-1.9,1.9-4.4,3.1-7,3.5c-0.3,0-0.7,0-1,0c-2.8,0-5.2-1-7-2.9l-0.1-0.1
		c-2.2-2.2-3.3-5.2-3-8.2l0-0.2c0.1-2.2,1.4-4.7,3.4-6.8l17.8-17.8c1.1-1.1,2.8-2.1,4.8-2.8c0,0,3.1-0.7,4.8-0.3
		c3,0.7,5.8,2.5,5.9,2.6c5.1-2.5,12.4-9,17.4-14.1c-0.5-0.7-1-1.4-1.6-2c-2.7-2.7-5.7-4.8-9.2-6.5c-1.5-0.8-3.1-1.4-5-1.9l-0.5-0.1
		c-1.4-0.4-3-0.9-4.9-0.9c-1.5-0.2-3-0.3-4.5-0.3c-5.5,0-11,1.4-15.8,4c-2,1-4.1,2.4-6.3,4.3c-0.8,0.5-1.3,1-1.8,1.5L19.6,63.2
		C6.4,76.4,5.9,97.8,18.4,110.9c6.2,6.5,14.6,10.2,23.7,10.4c0.3,0,0.6,0,0.9,0c8.9,0,17.5-3.8,24.4-10.6l11.9-11.9
		C72.7,100.7,63.5,101.1,51.3,94.2z"/>
</g>
</svg>
