<?xml version="1.0" encoding="utf-8"?>
<!-- Generator: Adobe Illustrator 18.1.1, SVG Export Plug-In . SVG Version: 6.00 Build 0)  -->
<svg version="1.1" id="Calque_2" xmlns="http://www.w3.org/2000/svg" xmlns:xlink="http://www.w3.org/1999/xlink" x="0px" y="0px"
	 viewBox="0 0 1500 300" enable-background="new 0 0 1500 300" xml:space="preserve">
<path fill="#C94B24" d="M281.2,153.9h22.6v55.3c0,7.6,4,11.4,12.1,11.4c2.5,0,4.7-0.1,6.7-0.2s3.8-0.4,5.4-0.6v-65.9h22.6v82.9
	c-6.6,3.7-18.2,5.5-34.7,5.5c-23.2,0-34.7-11-34.7-33.1V153.9z"/>
<path fill="#C94B24" d="M366.3,132.4l22.6-5.3v115.3h-22.6V132.4z"/>
<path fill="#C94B24" d="M416.3,132.4l22.6-5.3v26.8h23.4v21.7h-23.4v33.6c0,7.6,2.7,11.4,8.2,11.4c3,0,7.4-1.1,13.2-3.4l5.7,19.4
	c-5.7,3.8-12,5.8-18.9,5.8c-20.6,0-30.8-11-30.8-33.1v-33.6h-11.7v-21.7h11.7V132.4z"/>
<path fill="#C94B24" d="M478.1,153.9h22.6v55.3c0,7.6,4,11.4,12.1,11.4c2.5,0,4.7-0.1,6.7-0.2s3.8-0.4,5.4-0.6v-65.9h22.6v82.9
	c-6.6,3.7-18.2,5.5-34.7,5.5c-23.2,0-34.7-11-34.7-33.1V153.9z"/>
<path fill="#C94B24" d="M563.1,158.9c6.8-3.3,18.4-5,34.7-5c3.8,0,8.5,0.5,14,1.6l-5.1,21.5c-3.8-1-6.8-1.5-9-1.5
	c-2.5,0-4.7,0.1-6.7,0.2s-3.8,0.4-5.4,0.6v65.9h-22.6V158.9z"/>
<path fill="#C94B24" d="M627.5,194.4c0-27,12.4-40.5,37.1-40.5c23.7,0,35.5,13.5,35.5,40.5c0,9.7-2.5,14.5-7.4,14.5h-42.5
	c0,7.8,4,11.7,12.1,11.7c9.9,0,19-1.5,27.2-4.4l4.3,20.1c-7.4,4.1-17.9,6.1-31.5,6.1c-23.2,0-34.7-13.5-34.7-40.5V194.4z M677.5,188
	c0-8.3-4.3-12.4-12.9-12.4c-9.6,0-14.4,4.1-14.4,12.4H677.5z"/>
<path fill="#0F6E96" d="M756.4,131.7h21.1l37.4,63.9v-63.9h22.6v110.7h-21.1l-37.4-63.9v63.9h-22.6V131.7z"/>
<path fill="#0F6E96" d="M853.2,153.9h22.6v55.3c0,7.6,4,11.4,12.1,11.4c2.5,0,4.7-0.1,6.7-0.2s3.8-0.4,5.4-0.6v-65.9h22.6v82.9
	c-6.6,3.7-18.2,5.5-34.7,5.5c-23.2,0-34.7-11-34.7-33.1V153.9z"/>
<path fill="#0F6E96" d="M938.3,158.9c6.8-3.3,18.4-5,34.7-5c8.5,0,14.6,1.5,18.4,4.5c4.9-3,13.1-4.5,24.5-4.5
	c20.6,0,30.8,11,30.8,33.1v55.3h-22.6V187c0-7.6-2.7-11.4-8.2-11.4c-4.8,0-8.9,0.8-12.1,2.4v64.3h-22.6V187c0-7.6-2.7-11.4-8.2-11.4
	c-2.5,0-4.7,0.1-6.7,0.2s-3.8,0.4-5.4,0.6v65.9h-22.6V158.9z"/>
<path fill="#0F6E96" d="M1062.3,194.4c0-27,12.4-40.5,37.1-40.5c23.7,0,35.5,13.5,35.5,40.5c0,9.7-2.5,14.5-7.4,14.5H1085
	c0,7.8,4,11.7,12.1,11.7c9.9,0,19-1.5,27.2-4.4l4.3,20.1c-7.4,4.1-17.9,6.1-31.5,6.1c-23.2,0-34.7-13.5-34.7-40.5V194.4z
	 M1112.3,188c0-8.3-4.3-12.4-12.9-12.4c-9.6,0-14.4,4.1-14.4,12.4H1112.3z M1093.6,117.5h25.4l-12.3,29h-18.2L1093.6,117.5z"/>
<path fill="#0F6E96" d="M1148.2,158.9c6.8-3.3,18.4-5,34.7-5c3.8,0,8.5,0.5,14,1.6l-5.1,21.5c-3.8-1-6.8-1.5-9-1.5
	c-2.5,0-4.7,0.1-6.7,0.2c-2,0.2-3.8,0.4-5.4,0.6v65.9h-22.6V158.9z"/>
<path fill="#0F6E96" d="M1212.6,120.4h22.6v25.4h-22.6V120.4z M1212.6,153.9h22.6v88.4h-22.6V153.9z"/>
<path fill="#0F6E96" d="M1250.8,190.7c0-24.5,11.6-36.8,34.7-36.8c16.5,0,28.1,1.8,34.7,5.5v112.3l-22.6,5.3v-35.7
	c-2.7,0.7-6.7,1.1-12.1,1.1c-23.2,0-34.7-12.3-34.7-36.8V190.7z M1297.6,176.5c-1.6-0.3-3.4-0.5-5.4-0.6s-4.2-0.2-6.7-0.2
	c-8.1,0-12.1,5-12.1,15.1v14.8c0,10.1,4,15.1,12.1,15.1c2.5,0,4.7-0.1,6.7-0.2s3.8-0.4,5.4-0.6V176.5z"/>
<path fill="#0F6E96" d="M1335.9,153.9h22.6v55.3c0,7.6,4,11.4,12.1,11.4c2.5,0,4.7-0.1,6.7-0.2c2-0.2,3.8-0.4,5.4-0.6v-65.9h22.6
	v82.9c-6.6,3.7-18.2,5.5-34.7,5.5c-23.2,0-34.7-11-34.7-33.1V153.9z"/>
<path fill="#0F6E96" d="M1420.9,194.4c0-27,12.4-40.5,37.1-40.5c23.7,0,35.5,13.5,35.5,40.5c0,9.7-2.5,14.5-7.4,14.5h-42.5
	c0,7.8,4,11.7,12.1,11.7c9.9,0,19-1.5,27.2-4.4l4.3,20.1c-7.4,4.1-17.9,6.1-31.5,6.1c-23.2,0-34.7-13.5-34.7-40.5V194.4z
	 M1470.9,188c0-8.3-4.3-12.4-12.9-12.4c-9.6,0-14.4,4.1-14.4,12.4H1470.9z"/>
<g>
	<path fill="#C8BEBE" d="M253.2,52.3c-12.3,0-24,2.4-34.8,6.8c4.2,8.8,13.1,24.9,21,23.8c8.5-1.1,13-21.9,14.5-30.6
		C253.7,52.3,253.5,52.3,253.2,52.3z"/>
	<path fill="#C8BEBE" d="M179.3,89.4c5.6,3,22.2,11.2,27.3,6.1c5-5-2.7-20.8-5.9-26.8C192.5,74.4,185.3,81.4,179.3,89.4z"/>
	<path fill="#C8BEBE" d="M253.2,236.6c-12.3,0-24-2.4-34.8-6.8c4.2-8.8,13.1-24.9,21-23.8c8.5,1.1,13,21.9,14.5,30.6
		C253.7,236.6,253.5,236.6,253.2,236.6z"/>
	<path fill="#C8BEBE" d="M179.3,199.5c5.6-3,22.2-11.2,27.3-6.1c5,5-2.7,20.8-5.9,26.8C192.5,214.4,185.3,207.5,179.3,199.5z"/>
	<path fill="#0F6E96" d="M154.9,144.4c0-54.3,44-98.3,98.3-98.3c0.5,0,0.9,0,1.4,0c-35.5-32.5-91-31.5-125.3,2.8l-5.6,5.6h0
		l-97.3,97.3c-14,14-22.7,33.3-22.8,54.6H96c0.7,0.7,1.3,1.4,2,2.1l31.3,31.3c34.3,34.3,89.9,35.2,125.3,2.8c-0.5,0-0.9,0-1.4,0
		C198.9,242.7,154.9,198.7,154.9,144.4z M113.3,158.2c-7.6,0-13.8-6.2-13.8-13.8c0-7.6,6.2-13.8,13.8-13.8c7.6,0,13.8,6.2,13.8,13.8
		C127,152,120.9,158.2,113.3,158.2z"/>
</g>
</svg>
