<?xml version="1.0" encoding="utf-8"?>
<!-- Generator: Adobe Illustrator 18.1.1, SVG Export Plug-In . SVG Version: 6.00 Build 0)  -->
<svg version="1.1" xmlns="http://www.w3.org/2000/svg" xmlns:xlink="http://www.w3.org/1999/xlink" x="0px" y="0px"
	 viewBox="0 0 800 800" enable-background="new 0 0 800 800" xml:space="preserve">
<g id="Reperes">
</g>
<g id="Calque_1">
	<g>
		<g>
			<g>
				<path fill="#C8BEBE" d="M471.7,233.4c-11.5,0-22.5,2.3-32.6,6.4c4,8.2,12.3,23.3,19.6,22.3c8-1,12.2-20.5,13.6-28.7
					C472.2,233.5,471.9,233.4,471.7,233.4z"/>
				<path fill="#C8BEBE" d="M402.5,268.2c5.2,2.8,20.8,10.5,25.5,5.7c4.6-4.6-2.5-19.5-5.5-25.1
					C414.9,254.2,408.1,260.7,402.5,268.2z"/>
				<path fill="#C8BEBE" d="M471.7,406c-11.5,0-22.5-2.3-32.6-6.4c4-8.2,12.3-23.3,19.6-22.3c8,1,12.2,20.5,13.6,28.7
					C472.2,405.9,471.9,406,471.7,406z"/>
				<path fill="#C8BEBE" d="M402.5,371.2c5.2-2.8,20.8-10.5,25.5-5.7c4.6,4.6-2.5,19.5-5.5,25.1
					C414.9,385.2,408.1,378.7,402.5,371.2z"/>
				<path fill="#0F6E96" d="M379.7,319.7c0-50.8,41.2-92,92-92c0.4,0,0.9,0,1.3,0c-33.2-30.4-85.2-29.5-117.3,2.6l-5.2,5.2h0
					l-91.1,91.1c-13.1,13.1-21.2,31.1-21.3,51.1h86.5c0.6,0.6,1.2,1.3,1.8,1.9l29.3,29.3c32.1,32.1,84.1,33,117.3,2.6
					c-0.4,0-0.9,0-1.3,0C420.9,411.7,379.7,370.5,379.7,319.7z M340.7,332.6c-7.1,0-12.9-5.8-12.9-12.9c0-7.1,5.8-12.9,12.9-12.9
					s12.9,5.8,12.9,12.9C353.6,326.8,347.8,332.6,340.7,332.6z"/>
			</g>
			<path fill="#AFA715" d="M400.8,148c-94.7,0-171.7,77-171.7,171.7c0,5.7,0.3,11.4,0.8,17c4.3-8.4,9.9-16.1,16.7-22.9l12.8-12.8
				c9.2-69.8,69.1-123.9,141.4-123.9c78.7,0,142.7,64,142.7,142.7s-64,142.7-142.7,142.7c-50.6,0-95.1-26.5-120.5-66.4H247
				c28.1,56.5,86.5,95.4,153.8,95.4c94.7,0,171.7-77,171.7-171.7S495.5,148,400.8,148z"/>
		</g>
		<path fill="#AFA715" d="M51.1,580.5c-5.1-1.8-10.8-2.6-17.1-2.6c-9.6,0-14.4,6.8-14.4,20.4s4.8,20.4,14.4,20.4
			c6.2,0,12-0.9,17.2-2.6l4.4,11.7c-7,2.7-14.1,4.1-21.5,4.1c-18.8,0-28.1-11.2-28.1-33.5c0-22.4,9.4-33.5,28.1-33.5
			c7.5,0,14.8,1.4,21.7,4.2L51.1,580.5z"/>
		<path fill="#AFA715" d="M62.6,578.2h13.7v33.5c0,4.6,2.4,6.9,7.3,6.9c1.5,0,2.9,0,4.1-0.1c1.2-0.1,2.3-0.2,3.3-0.4v-39.9h13.7
			v50.2c-4,2.2-11,3.4-21,3.4c-14,0-21-6.7-21-20.1V578.2z"/>
		<path fill="#AFA715" d="M114.1,565.1l13.7-3.2v69.9h-13.7V565.1z"/>
		<path fill="#AFA715" d="M144.4,565.1l13.7-3.2v16.3h14.2v13.1h-14.2v20.4c0,4.6,1.7,6.9,5,6.9c1.8,0,4.5-0.7,8-2.1l3.5,11.7
			c-3.5,2.3-7.3,3.5-11.4,3.5c-12.5,0-18.7-6.7-18.7-20.1v-20.4h-7.1v-13.1h7.1V565.1z"/>
		<path fill="#AFA715" d="M181.8,578.2h13.7v33.5c0,4.6,2.4,6.9,7.3,6.9c1.5,0,2.9,0,4.1-0.1c1.2-0.1,2.3-0.2,3.3-0.4v-39.9h13.7
			v50.2c-4,2.2-11,3.4-21,3.4c-14,0-21-6.7-21-20.1V578.2z"/>
		<path fill="#AFA715" d="M233.4,581.2c4.1-2,11.1-3,21-3c2.3,0,5.1,0.3,8.5,1l-3.1,13.1c-2.3-0.6-4.1-0.9-5.4-0.9
			c-1.5,0-2.9,0-4.1,0.1c-1.2,0.1-2.3,0.2-3.3,0.4v39.9h-13.7V581.2z"/>
		<path fill="#AFA715" d="M272.4,602.7c0-16.4,7.5-24.5,22.5-24.5c14.3,0,21.5,8.2,21.5,24.5c0,5.9-1.5,8.8-4.5,8.8h-25.8
			c0,4.7,2.4,7.1,7.3,7.1c6,0,11.5-0.9,16.5-2.7l2.6,12.2c-4.5,2.5-10.9,3.7-19.1,3.7c-14,0-21-8.2-21-24.5V602.7z M302.7,598.8
			c0-5-2.6-7.5-7.8-7.5c-5.8,0-8.7,2.5-8.7,7.5H302.7z"/>
		<path fill="#0F6E96" d="M350.5,564.7h12.8l22.7,38.7v-38.7h13.7v67.1h-12.8L364.2,593v38.7h-13.7V564.7z"/>
		<path fill="#0F6E96" d="M409.2,578.2h13.7v33.5c0,4.6,2.4,6.9,7.3,6.9c1.5,0,2.9,0,4.1-0.1c1.2-0.1,2.3-0.2,3.3-0.4v-39.9h13.7
			v50.2c-4,2.2-11,3.4-21,3.4c-14,0-21-6.7-21-20.1V578.2z"/>
		<path fill="#0F6E96" d="M460.7,581.2c4.1-2,11.1-3,21-3c5.1,0,8.9,0.9,11.2,2.7c3-1.8,7.9-2.7,14.8-2.7c12.5,0,18.7,6.7,18.7,20.1
			v33.5h-13.7v-33.5c0-4.6-1.7-6.9-5-6.9c-2.9,0-5.4,0.5-7.3,1.5v39h-13.7v-33.5c0-4.6-1.7-6.9-5-6.9c-1.5,0-2.9,0-4.1,0.1
			c-1.2,0.1-2.3,0.2-3.3,0.4v39.9h-13.7V581.2z"/>
		<path fill="#0F6E96" d="M535.9,602.7c0-16.4,7.5-24.5,22.5-24.5c14.3,0,21.5,8.2,21.5,24.5c0,5.9-1.5,8.8-4.5,8.8h-25.8
			c0,4.7,2.4,7.1,7.3,7.1c6,0,11.5-0.9,16.5-2.7l2.6,12.2c-4.5,2.5-10.9,3.7-19.1,3.7c-14,0-21-8.2-21-24.5V602.7z M566.2,598.8
			c0-5-2.6-7.5-7.8-7.5c-5.8,0-8.7,2.5-8.7,7.5H566.2z M554.8,556.1h15.4l-7.4,17.6h-11L554.8,556.1z"/>
		<path fill="#0F6E96" d="M587.9,581.2c4.1-2,11.1-3,21-3c2.3,0,5.1,0.3,8.5,1l-3.1,13.1c-2.3-0.6-4.1-0.9-5.4-0.9
			c-1.5,0-2.9,0-4.1,0.1c-1.2,0.1-2.3,0.2-3.3,0.4v39.9h-13.7V581.2z"/>
		<path fill="#0F6E96" d="M626.9,557.8h13.7v15.4h-13.7V557.8z M626.9,578.2h13.7v53.6h-13.7V578.2z"/>
		<path fill="#0F6E96" d="M650.1,600.4c0-14.8,7-22.3,21-22.3c10,0,17,1.1,21,3.3v68.1l-13.7,3.2v-21.7c-1.6,0.4-4.1,0.7-7.3,0.7
			c-14,0-21-7.4-21-22.3V600.4z M678.5,591.8c-1-0.2-2.1-0.3-3.3-0.4c-1.2-0.1-2.6-0.1-4.1-0.1c-4.9,0-7.3,3-7.3,9.1v9
			c0,6.1,2.4,9.2,7.3,9.2c1.5,0,2.9,0,4.1-0.1c1.2-0.1,2.3-0.2,3.3-0.4V591.8z"/>
		<path fill="#0F6E96" d="M701.7,578.2h13.7v33.5c0,4.6,2.4,6.9,7.3,6.9c1.5,0,2.9,0,4.1-0.1c1.2-0.1,2.3-0.2,3.3-0.4v-39.9h13.7
			v50.2c-4,2.2-11,3.4-21,3.4c-14,0-21-6.7-21-20.1V578.2z"/>
		<path fill="#0F6E96" d="M753.2,602.7c0-16.4,7.5-24.5,22.5-24.5c14.3,0,21.5,8.2,21.5,24.5c0,5.9-1.5,8.8-4.5,8.8h-25.8
			c0,4.7,2.4,7.1,7.3,7.1c6,0,11.5-0.9,16.5-2.7l2.6,12.2c-4.5,2.5-10.9,3.7-19.1,3.7c-14,0-21-8.2-21-24.5V602.7z M783.5,598.8
			c0-5-2.6-7.5-7.8-7.5c-5.8,0-8.7,2.5-8.7,7.5H783.5z"/>
	</g>
</g>
</svg>
