<?xml version="1.0" encoding="utf-8"?>
<!-- Generator: Adobe Illustrator 18.1.1, SVG Export Plug-In . SVG Version: 6.00 Build 0)  -->
<svg version="1.1" id="Calque_1" xmlns="http://www.w3.org/2000/svg" xmlns:xlink="http://www.w3.org/1999/xlink" x="0px" y="0px"
	 viewBox="0 0 1500 300" enable-background="new 0 0 1500 300" xml:space="preserve">
<g>
	<path fill="#AFA715" d="M281.8,154.5h22.7v55.4c0,7.6,4,11.4,12.1,11.4c2.5,0,4.7-0.1,6.7-0.2c2-0.2,3.8-0.4,5.4-0.6v-66h22.7v83
		c-6.6,3.7-18.2,5.6-34.8,5.6c-23.2,0-34.8-11-34.8-33.1V154.5z"/>
	<path fill="#AFA715" d="M367,132.9l22.7-5.3v115.5H367V132.9z"/>
	<path fill="#AFA715" d="M417,132.9l22.7-5.3v26.9h23.5v21.7h-23.5v33.7c0,7.6,2.7,11.4,8.2,11.4c3,0,7.4-1.1,13.2-3.4l5.7,19.4
		c-5.7,3.9-12,5.8-18.9,5.8c-20.6,0-30.9-11-30.9-33.1v-33.7h-11.7v-21.7H417V132.9z"/>
	<path fill="#AFA715" d="M478.9,154.5h22.7v55.4c0,7.6,4,11.4,12.1,11.4c2.5,0,4.7-0.1,6.7-0.2c2-0.2,3.8-0.4,5.4-0.6v-66h22.7v83
		c-6.6,3.7-18.2,5.6-34.8,5.6c-23.2,0-34.8-11-34.8-33.1V154.5z"/>
	<path fill="#AFA715" d="M564.1,159.5c6.8-3.3,18.4-5,34.8-5c3.8,0,8.5,0.5,14.1,1.6l-5.1,21.6c-3.8-1-6.8-1.5-9-1.5
		c-2.5,0-4.7,0.1-6.7,0.2c-2,0.2-3.8,0.4-5.4,0.6v66h-22.7V159.5z"/>
	<path fill="#AFA715" d="M628.6,195.1c0-27,12.4-40.6,37.1-40.6c23.7,0,35.6,13.5,35.6,40.6c0,9.7-2.5,14.5-7.4,14.5h-42.6
		c0,7.8,4,11.7,12.1,11.7c10,0,19-1.5,27.3-4.5L695,237c-7.5,4.1-18,6.1-31.6,6.1c-23.2,0-34.8-13.5-34.8-40.6V195.1z M678.7,188.7
		c0-8.3-4.3-12.4-12.9-12.4c-9.6,0-14.5,4.1-14.5,12.4H678.7z"/>
	<path fill="#0F6E96" d="M757.8,132.2H779l37.4,64v-64h22.7v110.9h-21.2l-37.4-64v64h-22.7V132.2z"/>
	<path fill="#0F6E96" d="M854.7,154.5h22.7v55.4c0,7.6,4,11.4,12.1,11.4c2.5,0,4.7-0.1,6.7-0.2c2-0.2,3.8-0.4,5.4-0.6v-66h22.7v83
		c-6.6,3.7-18.2,5.6-34.8,5.6c-23.2,0-34.8-11-34.8-33.1V154.5z"/>
	<path fill="#0F6E96" d="M939.9,159.5c6.8-3.3,18.4-5,34.8-5c8.5,0,14.6,1.5,18.4,4.5c4.9-3,13.1-4.5,24.5-4.5
		c20.6,0,30.9,11,30.9,33.1v55.4h-22.7v-55.4c0-7.6-2.7-11.4-8.2-11.4c-4.8,0-8.9,0.8-12.1,2.4v64.4h-22.7v-55.4
		c0-7.6-2.7-11.4-8.2-11.4c-2.5,0-4.7,0.1-6.7,0.2c-2,0.2-3.8,0.4-5.4,0.6v66h-22.7V159.5z"/>
	<path fill="#0F6E96" d="M1064.2,195.1c0-27,12.4-40.6,37.1-40.6c23.7,0,35.6,13.5,35.6,40.6c0,9.7-2.5,14.5-7.4,14.5h-42.6
		c0,7.8,4,11.7,12.1,11.7c10,0,19-1.5,27.3-4.5l4.3,20.1c-7.5,4.1-18,6.1-31.6,6.1c-23.2,0-34.8-13.5-34.8-40.6V195.1z
		 M1114.2,188.7c0-8.3-4.3-12.4-12.9-12.4c-9.6,0-14.5,4.1-14.5,12.4H1114.2z M1095.5,118h25.4l-12.3,29.1h-18.2L1095.5,118z"/>
	<path fill="#0F6E96" d="M1150.2,159.5c6.8-3.3,18.4-5,34.8-5c3.8,0,8.5,0.5,14.1,1.6l-5.1,21.6c-3.8-1-6.8-1.5-9-1.5
		c-2.5,0-4.7,0.1-6.7,0.2c-2,0.2-3.8,0.4-5.4,0.6v66h-22.7V159.5z"/>
	<path fill="#0F6E96" d="M1214.7,120.9h22.7v25.4h-22.7V120.9z M1214.7,154.5h22.7v88.6h-22.7V154.5z"/>
	<path fill="#0F6E96" d="M1253,191.3c0-24.5,11.6-36.8,34.8-36.8c16.5,0,28.1,1.8,34.8,5.5v112.5l-22.7,5.3V242
		c-2.7,0.7-6.7,1.1-12.1,1.1c-23.2,0-34.8-12.3-34.8-36.9V191.3z M1299.9,177.1c-1.6-0.3-3.4-0.5-5.4-0.6c-2-0.2-4.2-0.2-6.7-0.2
		c-8.1,0-12.1,5-12.1,15.1v14.9c0,10.1,4,15.2,12.1,15.2c2.5,0,4.7-0.1,6.7-0.2c2-0.2,3.8-0.4,5.4-0.6V177.1z"/>
	<path fill="#0F6E96" d="M1338.2,154.5h22.7v55.4c0,7.6,4,11.4,12.1,11.4c2.5,0,4.7-0.1,6.7-0.2c2-0.2,3.8-0.4,5.4-0.6v-66h22.7v83
		c-6.6,3.7-18.2,5.6-34.8,5.6c-23.2,0-34.8-11-34.8-33.1V154.5z"/>
	<path fill="#0F6E96" d="M1423.4,195.1c0-27,12.4-40.6,37.1-40.6c23.7,0,35.6,13.5,35.6,40.6c0,9.7-2.5,14.5-7.4,14.5h-42.6
		c0,7.8,4,11.7,12.1,11.7c10,0,19-1.5,27.3-4.5l4.3,20.1c-7.5,4.1-18,6.1-31.6,6.1c-23.2,0-34.8-13.5-34.8-40.6V195.1z
		 M1473.5,188.7c0-8.3-4.3-12.4-12.9-12.4c-9.6,0-14.5,4.1-14.5,12.4H1473.5z"/>
	<g>
		<path fill="#C8BEBE" d="M253.7,52.7c-12.3,0-24.1,2.4-34.8,6.8c4.2,8.8,13.1,24.9,21,23.9c8.6-1.1,13.1-22,14.6-30.7
			C254.2,52.7,253.9,52.7,253.7,52.7z"/>
		<path fill="#C8BEBE" d="M179.6,89.8c5.6,3,22.2,11.3,27.3,6.1c5-5-2.7-20.8-5.9-26.8C192.8,74.9,185.6,81.8,179.6,89.8z"/>
		<path fill="#C8BEBE" d="M253.7,237.3c-12.3,0-24.1-2.4-34.8-6.8c4.2-8.8,13.1-24.9,21-23.9c8.6,1.1,13.1,22,14.6,30.7
			C254.2,237.3,253.9,237.3,253.7,237.3z"/>
		<path fill="#C8BEBE" d="M179.6,200.1c5.6-3,22.2-11.3,27.3-6.1c5,5-2.7,20.8-5.9,26.8C192.8,215.1,185.6,208.1,179.6,200.1z"/>
		<path fill="#0F6E96" d="M155.2,145c0-54.4,44.1-98.5,98.5-98.5c0.5,0,0.9,0,1.4,0c-35.5-32.5-91.2-31.6-125.6,2.8l-5.6,5.6h0
			l-97.5,97.5c-14,14-22.7,33.3-22.8,54.7h92.6c0.7,0.7,1.3,1.4,2,2.1l31.4,31.4c34.4,34.4,90,35.3,125.6,2.8c-0.5,0-0.9,0-1.4,0
			C199.3,243.5,155.2,199.4,155.2,145z M113.5,158.8c-7.6,0-13.8-6.2-13.8-13.8c0-7.6,6.2-13.8,13.8-13.8s13.8,6.2,13.8,13.8
			C127.3,152.6,121.1,158.8,113.5,158.8z"/>
	</g>
</g>
</svg>
