<?xml version="1.0" encoding="utf-8"?>
<!-- Generator: Adobe Illustrator 18.1.1, SVG Export Plug-In . SVG Version: 6.00 Build 0)  -->
<svg version="1.1" xmlns="http://www.w3.org/2000/svg" xmlns:xlink="http://www.w3.org/1999/xlink" x="0px" y="0px"
	 viewBox="0 0 500 500" enable-background="new 0 0 500 500" xml:space="preserve">
<g id="Reperes">
</g>
<g id="Calque_2">
	<g>
		<g>
			<path fill="#C8BEBE" d="M350,128.3c-16.3,0-31.7,3.2-45.9,9c5.6,11.6,17.3,32.8,27.7,31.5c11.3-1.5,17.2-28.9,19.2-40.4
				C350.7,128.3,350.3,128.3,350,128.3z"/>
			<path fill="#C8BEBE" d="M252.4,177.3c7.3,3.9,29.3,14.8,36,8.1c6.5-6.5-3.6-27.5-7.8-35.4C269.9,157.5,260.3,166.7,252.4,177.3z"
				/>
			<path fill="#C8BEBE" d="M350,371.6c-16.3,0-31.7-3.2-45.9-9c5.6-11.6,17.3-32.8,27.7-31.5c11.3,1.5,17.2,28.9,19.2,40.4
				C350.7,371.6,350.3,371.6,350,371.6z"/>
			<path fill="#C8BEBE" d="M252.4,322.6c7.3-3.9,29.3-14.8,36-8.1c6.5,6.5-3.6,27.5-7.8,35.4C269.9,342.3,260.3,333.1,252.4,322.6z"
				/>
			<path fill="#0F6E96" d="M220.3,249.9c0-71.7,58.1-129.7,129.7-129.7c0.6,0,1.2,0,1.9,0c-46.8-42.8-120.2-41.6-165.4,3.7l-7.4,7.4
				h0L50.6,259.8c-18.5,18.5-29.9,43.9-30.1,72.1h122c0.9,0.9,1.7,1.8,2.6,2.7l41.4,41.4c45.3,45.3,118.6,46.5,165.4,3.7
				c-0.6,0-1.2,0-1.9,0C278.4,379.7,220.3,321.6,220.3,249.9z M165.3,268.1c-10,0-18.2-8.1-18.2-18.2c0-10,8.1-18.2,18.2-18.2
				s18.2,8.1,18.2,18.2C183.4,260,175.3,268.1,165.3,268.1z"/>
		</g>
		<path fill="#AFA715" d="M250,7.7C116.5,7.7,7.8,116.4,7.8,249.9c0,8.1,0.4,16.1,1.2,24c6-11.8,13.9-22.7,23.6-32.4l18-18
			C63.6,125,148,48.7,250,48.7c110.9,0,201.2,90.3,201.2,201.2S360.9,451.1,250,451.1c-71.4,0-134.2-37.4-169.9-93.6h-47
			c39.7,79.7,122,134.6,216.9,134.6c133.5,0,242.2-108.6,242.2-242.2S383.5,7.7,250,7.7z"/>
	</g>
</g>
</svg>
