<?xml version="1.0" encoding="utf-8"?>
<!-- Generator: Adobe Illustrator 19.1.0, SVG Export Plug-In . SVG Version: 6.00 Build 0)  -->
<svg version="1.1" xmlns="http://www.w3.org/2000/svg" xmlns:xlink="http://www.w3.org/1999/xlink" x="0px" y="0px"
	 viewBox="0 0 758 293" enable-background="new 0 0 758 293" xml:space="preserve">
<g id="TEXTES">
	<g>
		<g>
			<g>
				<path fill="#AB2574" d="M242.6,37.8H56.7v128.4c0,53.5,40,89.5,92.8,89.5c14.2,0,27.5-2.6,39.4-7.5l0,0l22.2-9.3l31.6,14.4V37.8
					z"/>
			</g>
			<g>
				<polygon fill="#FFFFFF" points="149.6,208.2 108.4,189.4 108.4,79.2 149.6,79.2 				"/>
				<polygon fill="#FFFFFF" points="202.8,168 162.7,186.3 162.7,208.2 202.8,189.9 				"/>
			</g>
		</g>
	</g>
	<g>
		<path d="M409.8,91.5c-4.1-8.1-9.4-21.9-10.6-36.4c-1.5,0-8.4,0-8.4,0s2,26,14.6,43.3h8.8c12.6-17.3,14.6-43.3,14.6-43.3
			s-6.9,0-8.4,0C419.3,69.5,413.9,83.4,409.8,91.5z"/>
		<path d="M582.3,37.8h-8.7v17.3h-5.3v6.6h5.3V86c0,6.7,3.4,12.4,12.1,12.4h4.6v-7.7h-3.1c-3.6,0-4.9-1.8-4.9-5.2V61.7h8v-6.6h-8
			V37.8z"/>
		<path d="M306.4,77.6c0,8-5,13.3-12.7,13.3c-7.7,0-12.7-5.2-12.7-13.3V37.8h-8.8v40.3c0,5.9,2.2,11.3,6.2,15
			c3.9,3.7,9.4,5.7,15.3,5.7c4.9,0,9.4-1.4,13-3.9l8.5,3.9v-61h-8.8V77.6z"/>
		<path d="M357.4,58.8c-2.5-2.4-6.8-4.3-13-4.3c-4.1,0-7.9,1.6-10.2,3.2l-7.1-3.2v44h8.7V72.2c0-6.7,3.8-9.6,8.6-9.6
			c4.8,0,8.6,2.9,8.6,9.6v26.3h8.7V70.9C361.7,66.1,360.7,62,357.4,58.8z"/>
		<path d="M487.2,72.2c0-6.7,3.8-9.6,8.6-9.6c1.7,0,3.3,0.4,4.6,1.1c1.5-2.4,3.1-5.1,4.6-7.5c-2.4-1.1-5.4-1.8-9.2-1.8
			c-4.1,0-7.9,1.6-10.2,3.2l-7.1-3.2v44h8.7V72.2z"/>
		<rect x="372.6" y="55.1" width="8.7" height="43.4"/>
		<rect x="372.6" y="37.8" width="8.7" height="8.7"/>
		<rect x="550.2" y="55.1" width="8.7" height="43.4"/>
		<rect x="550.2" y="37.8" width="8.7" height="8.7"/>
		<rect x="416.2" y="135.1" width="8.7" height="43.3"/>
		<rect x="416.2" y="117.8" width="8.7" height="8.7"/>
		<path d="M454,99.1c3.7,0,6.6-0.5,9.3-1.7c2.3-1,4.5-2.6,6.9-5.1l-5.1-4.9c-1.6,1.6-3.1,2.6-4.7,3.2c-1.7,0.6-3.6,0.9-6.1,0.9
			c-5.3,0-9-2.7-10.4-7.6l0,0l0,0c4.3-0.6,12.3-1.3,18.9-4.9c3.2-1.8,5.6-3.8,6.7-6.8c0.9-2.3,1.2-5.2,0.5-7.8
			c-1-3.6-2.6-5.6-5.2-7.4c-2.9-2-7-2.6-11.7-2.6c-2.9,0-5.5,0.5-7.8,1.5c-2.3,1-4.2,2.4-5.7,4.3c-1.6,1.9-2.8,4.3-3.5,7
			c-0.8,2.8-1.2,5.9-1.2,9.4c0,7.8,1.9,13.6,5.7,17.4C443.5,97.4,448.1,99.1,454,99.1z M443.1,73.2c0-1.3,0.1-2.3,0.3-3.2
			c0.2-0.9,0.4-1.7,0.8-2.7c1.3-3,4.6-4.9,8.7-4.9c2.9,0,6.7,0.5,8.5,3.1c0.4,0.6,1,2.1,0.5,3.7c-0.6,2-2.6,3.8-6,5
			c-4.4,1.6-9.5,2.4-12.7,2.8l0,0V73.2z"/>
		<path d="M344.5,159c3.2-1.8,5.6-3.8,6.7-6.7c0.9-2.3,1.2-5.2,0.5-7.8c-1-3.6-2.6-5.6-5.2-7.4c-2.9-2-7-2.6-11.7-2.6
			c-2.9,0-5.5,0.5-7.8,1.5c-2.3,1-4.2,2.4-5.7,4.3c-1.6,1.9-2.8,4.3-3.5,7c-0.8,2.8-1.2,5.9-1.2,9.4c0,7.8,1.9,13.6,5.7,17.4
			c3.3,3.3,7.9,5,13.8,5c3.7,0,6.6-0.5,9.3-1.7c2.3-1,4.5-2.6,6.9-5.1l-5.1-4.9c-1.6,1.6-3.1,2.6-4.7,3.2c-1.7,0.6-3.6,0.9-6.1,0.9
			c-5.3,0-9-2.7-10.4-7.6l0,0l0,0C329.9,163.4,337.8,162.7,344.5,159z M325,156.9L325,156.9l0-3.7c0-1.3,0.1-2.3,0.3-3.2
			c0.2-0.9,0.4-1.7,0.8-2.7c1.3-3,4.6-4.9,8.7-4.9c2.9,0,6.7,0.5,8.5,3.1c0.4,0.6,1,2.1,0.5,3.7c-0.6,2-2.6,3.8-6,5
			C333.3,155.8,328.2,156.6,325,156.9z"/>
		<path d="M511.5,159c3.2-1.8,5.6-3.8,6.7-6.7c0.9-2.3,1.2-5.2,0.5-7.8c-1-3.6-2.6-5.6-5.2-7.4c-2.9-2-7-2.6-11.7-2.6
			c-2.9,0-5.5,0.5-7.8,1.5c-2.3,1-4.2,2.4-5.7,4.3c-1.6,1.9-2.7,4.3-3.5,7c-0.8,2.8-1.2,5.9-1.2,9.4c0,7.8,1.9,13.6,5.7,17.4
			c3.3,3.3,7.9,5,13.8,5c3.7,0,6.6-0.5,9.3-1.7c2.3-1,4.5-2.6,6.9-5.1l-5.1-4.9c-1.6,1.6-3.1,2.6-4.7,3.2c-1.7,0.6-3.6,0.9-6.1,0.9
			c-5.3,0-9-2.7-10.4-7.6l0,0l0,0C496.9,163.4,504.9,162.7,511.5,159z M492,156.9L492,156.9l0-3.7c0-1.3,0.1-2.3,0.3-3.2
			c0.2-0.9,0.4-1.7,0.8-2.7c1.3-3,4.6-4.9,8.7-4.9c2.9,0,6.7,0.5,8.5,3.1c0.4,0.6,1,2.1,0.5,3.7c-0.6,2-2.6,3.8-6,5
			C500.3,155.8,495.3,156.6,492,156.9z"/>
		<path d="M621.9,90.7c-1.7,0.6-3.6,0.9-6.1,0.9c-5.3,0-9-2.7-10.4-7.6l0,0l0,0c4.3-0.6,12.3-1.3,18.9-4.9c3.2-1.8,5.6-3.8,6.7-6.8
			c0.9-2.3,1.2-5.2,0.5-7.8c-1-3.6-2.6-5.6-5.2-7.4c-2.9-2-7-2.6-11.7-2.6c-2.9,0-5.5,0.5-7.8,1.5c-2.3,1-4.2,2.4-5.7,4.3
			c-1.6,1.9-2.8,4.3-3.5,7c-0.8,2.8-1.2,5.9-1.2,9.4c0,7.8,1.9,13.6,5.7,17.4c3.3,3.3,7.9,5,13.8,5c3.7,0,6.6-0.5,9.3-1.7
			c2.3-1,4.5-2.6,6.9-5.1l-5.1-4.9C625.1,89,623.6,90,621.9,90.7z M604.7,77v-3.7c0-1.3,0.1-2.3,0.3-3.2c0.2-0.9,0.4-1.7,0.8-2.7
			c1.3-3,4.6-4.9,8.7-4.9c2.9,0,6.7,0.5,8.5,3.1c0.4,0.6,1,2.1,0.5,3.7c-0.6,2-2.6,3.8-6,5C613.1,75.8,608,76.6,604.7,77L604.7,77z"
			/>
		<path d="M528.9,73l-6.8-0.6c-4.6-0.4-5.9-2.4-5.9-5c0-3.3,2.6-5.6,7.8-5.6c4.1,0,7.9,0.9,10.6,3.2l5.4-5.6c-4-3.5-9.5-4.9-16-4.9
			c-9,0-16.2,4.8-16.2,13.3c0,7.7,4.7,11.3,12.7,12l6.9,0.6c4.2,0.3,5.8,2.2,5.8,5.2c0,4.1-4.2,6-9.4,6c-4.3,0-8.9-0.9-12.4-4.6
			l-5.7,5.8c5.1,5.1,11,6.3,18.1,6.3c10.3,0,17.9-4.7,17.9-13.8C541.7,77.5,537,73.6,528.9,73z"/>
		<path d="M299.5,136.3c-2.5-1.1-5.6-1.7-9.4-1.7c-12.5,0-18.3,8.1-18.3,22c0,16.4,8.6,22.1,19.4,22.1c4,0,7.1-1.4,9.7-3.3l7.2,3.3
			v-60.9h-8.7V136.3z M299.5,164.7c0,3.1-2.9,6.5-8.1,6.5c-7.1,0-11-4.7-11-12.1v-6c0.1-2.6,0.3-3.9,1.1-5.9
			c1.4-3.2,4.9-4.8,8.6-4.8c5.3,0,9.3,1.7,9.4,6.2C299.5,152.6,299.5,160.7,299.5,164.7z"/>
		<path d="M387.8,166v-48.3h-8.7v48.8c0,6.4,3.6,11.9,11.8,11.9h18.5v-7.4h-16.9C389,171.1,387.8,169.3,387.8,166z"/>
		<path d="M446.1,165.5v-47.7h-8.7V166c0,6.7,3.4,12.4,12.1,12.4h4.6v-7.7H451C447.3,170.7,446.1,169,446.1,165.5z"/>
		<path d="M470.6,165.5v-47.7h-8.7V166c0,6.7,3.4,12.4,12.1,12.4h4.6v-7.7h-3.1C471.8,170.7,470.6,169,470.6,165.5z"/>
		<polygon points="624.5,35.6 604.7,44.6 604.7,52.2 624.5,43.1 		"/>
	</g>
	<g>
		<rect x="242.6" y="54.7" fill="none" width="8.5" height="42.3"/>
		<rect x="242.6" y="37.8" fill="none" width="8.5" height="8.5"/>
		<rect x="251.1" y="54.7" fill="none" width="8.5" height="42.3"/>
		<rect x="251.1" y="37.8" fill="none" width="8.5" height="8.5"/>
		<rect x="259.5" y="54.7" fill="none" width="8.5" height="42.3"/>
		<rect x="259.5" y="37.8" fill="none" width="8.5" height="8.5"/>
		<rect x="268" y="54.7" fill="none" width="4.2" height="42.3"/>
		<rect x="268" y="37.8" fill="none" width="4.2" height="8.5"/>
	</g>
	<g>
		<path d="M339.5,215.3c0-2.7-1.6-4.5-5.5-5.9c-3.7-1.3-3.9-2.2-3.9-3.3c0-1.3,1.2-2.3,2.9-2.3c1.4,0,2.8,0.5,4.1,1.7l0.5,0.4
			l1.9-2.5L339,203c-1.8-1.5-3.6-2.2-5.9-2.2c-3.5,0-6.2,2.4-6.2,5.5c0,3.2,2.2,4.7,5.7,6c3.4,1.2,3.7,2.1,3.7,3.2
			c0,1.5-1.3,2.5-3.1,2.5c-1.8,0-3.2-0.6-4.8-2.1l-0.5-0.4l-2,2.4l0.4,0.4c2,1.9,4.2,2.8,6.8,2.8C336.9,221,339.5,218.7,339.5,215.3
			z"/>
		<path d="M357.2,216.1c-1.4,1.4-2.6,1.9-4.2,1.9c-3.2,0-5.5-3-5.5-7.1v-0.1c0-4.1,2.3-7,5.5-7c1.5,0,2.8,0.6,4,1.8l0.5,0.4l2-2.4
			l-0.4-0.4c-1.2-1.1-3-2.4-6-2.4c-5.1,0-8.7,4.2-8.7,10.1v0.2c0,5.8,3.6,10,8.6,10c2.4,0,4.4-0.8,6.3-2.7l0.4-0.4l-2-2.3
			L357.2,216.1z"/>
		<rect x="364.7" y="201.1" width="3.2" height="19.7"/>
		<polygon points="377.7,212.3 386,212.3 386,209.3 377.7,209.3 377.7,204 387,204 387,201.1 374.5,201.1 374.5,220.8 387.1,220.8 
			387.1,217.8 377.7,217.8 		"/>
		<polygon points="404.2,214.3 395.4,201.1 392.7,201.1 392.7,220.8 395.8,220.8 395.8,207.2 404.8,220.8 407.4,220.8 407.4,201.1 
			404.2,201.1 		"/>
		<path d="M426,216.1c-1.4,1.4-2.6,1.9-4.2,1.9c-3.2,0-5.5-3-5.5-7.1v-0.1c0-4.1,2.3-7,5.5-7c1.5,0,2.8,0.6,4,1.8l0.5,0.4l2-2.4
			l-0.4-0.4c-1.2-1.1-3-2.4-6-2.4c-5.1,0-8.7,4.2-8.7,10.1v0.2c0,5.8,3.6,10,8.6,10c2.4,0,4.4-0.8,6.3-2.7l0.4-0.4l-2-2.3L426,216.1
			z"/>
		<polygon points="445.9,217.8 436.4,217.8 436.4,212.3 444.8,212.3 444.8,209.3 436.4,209.3 436.4,204 445.8,204 445.8,201.1 
			433.3,201.1 433.3,220.8 445.9,220.8 		"/>
		<path d="M458,209.4c-3.7-1.3-3.9-2.2-3.9-3.3c0-1.3,1.2-2.3,2.9-2.3c1.4,0,2.8,0.5,4.1,1.7l0.5,0.4l1.9-2.5L463,203
			c-1.8-1.5-3.6-2.2-5.9-2.2c-3.5,0-6.2,2.4-6.2,5.5c0,3.2,2.2,4.7,5.7,6c3.4,1.2,3.7,2.1,3.7,3.2c0,1.5-1.3,2.5-3.1,2.5
			c-1.8,0-3.2-0.6-4.8-2.1l-0.5-0.4l-2,2.4l0.4,0.4c2,1.9,4.2,2.8,6.8,2.8c3.7,0,6.3-2.4,6.3-5.7C463.6,212.6,462,210.9,458,209.4z"
			/>
		<polygon points="490.1,209.3 482.3,209.3 482.3,201.1 479.2,201.1 479.2,220.8 482.3,220.8 482.3,212.4 490.1,212.4 490.1,220.8 
			493.2,220.8 493.2,201.1 490.1,201.1 		"/>
		<path d="M510.8,213.3c0,3.1-1.4,4.8-4,4.8c-2.6,0-4.1-1.7-4.1-4.8v-12.2h-3.2v12.2c0,4.8,2.8,7.8,7.2,7.8c4.5,0,7.3-3,7.3-7.9
			v-12.1h-3.2V213.3z"/>
		<polygon points="528.5,210.4 523.2,201.1 520.2,201.1 520.2,220.8 523.3,220.8 523.3,207.4 527.9,215.4 528.2,215.7 528.9,215.7 
			533.7,207.4 533.7,220.8 536.8,220.8 536.8,201.1 533.8,201.1 		"/>
		<path d="M549.2,200.9l-7.5,19.8h3.3l1.8-4.9h7.5l1.8,4.9h3.4l-7.5-19.8H549.2z M553.2,212.9h-5.3l2.7-7.1L553.2,212.9z"/>
		<rect x="564.5" y="201.1" width="3.2" height="19.7"/>
		<polygon points="585.8,214.3 577,201.1 574.2,201.1 574.2,220.8 577.4,220.8 577.4,207.2 586.4,220.8 589,220.8 589,201.1 
			585.8,201.1 		"/>
		<polygon points="598.6,212.3 606.9,212.3 606.9,209.3 598.6,209.3 598.6,204 607.9,204 607.9,201.1 595.4,201.1 595.4,220.8 
			608,220.8 608,217.8 598.6,217.8 		"/>
		<path d="M620.2,209.4c-3.7-1.3-3.9-2.2-3.9-3.3c0-1.3,1.2-2.3,2.9-2.3c1.4,0,2.8,0.5,4.1,1.7l0.5,0.4l1.9-2.5l-0.4-0.4
			c-1.8-1.5-3.6-2.2-5.9-2.2c-3.5,0-6.2,2.4-6.2,5.5c0,3.2,2.2,4.7,5.7,6c3.4,1.2,3.7,2.1,3.7,3.2c0,1.5-1.3,2.5-3.1,2.5
			c-1.8,0-3.2-0.6-4.8-2.1l-0.5-0.4l-2,2.4l0.4,0.4c2,1.9,4.2,2.8,6.8,2.8c3.7,0,6.3-2.4,6.3-5.7
			C625.7,212.6,624.1,210.9,620.2,209.4z"/>
		<polygon points="330.6,244.9 339,244.9 339,241.9 330.6,241.9 330.6,236.6 339.9,236.6 339.9,233.6 327.4,233.6 327.4,253.4 
			340,253.4 340,250.4 330.6,250.4 		"/>
		<polygon points="344.4,236.7 349.6,236.7 349.6,253.4 352.7,253.4 352.7,236.7 358,236.7 358,233.6 344.4,233.6 		"/>
		<path d="M379.8,242c-3.7-1.3-3.9-2.2-3.9-3.3c0-1.3,1.2-2.3,2.9-2.3c1.4,0,2.8,0.5,4.1,1.7l0.5,0.4l1.9-2.5l-0.4-0.4
			c-1.8-1.5-3.6-2.2-5.9-2.2c-3.5,0-6.2,2.4-6.2,5.5c0,3.2,2.2,4.7,5.7,6c3.4,1.2,3.7,2.1,3.7,3.2c0,1.5-1.3,2.5-3.1,2.5
			c-1.8,0-3.2-0.6-4.8-2.1l-0.5-0.4l-2,2.4l0.4,0.4c2,1.9,4.2,2.8,6.8,2.8c3.7,0,6.3-2.4,6.3-5.7C385.3,245.2,383.7,243.5,379.8,242
			z"/>
		<path d="M398.7,233.4c-5,0-8.6,4.2-8.6,10.1v0.2c0,5.8,3.6,10,8.6,10c5,0,8.6-4.2,8.6-10.1v-0.2
			C407.3,237.6,403.7,233.4,398.7,233.4z M398.7,250.7c-3.1,0-5.3-3-5.3-7.1v-0.2c0-4.1,2.2-7,5.3-7c3.1,0,5.3,3,5.3,7.1v0.2
			C404.1,247.7,401.8,250.7,398.7,250.7z"/>
		<path d="M425.2,248.7c-1.4,1.4-2.6,1.9-4.2,1.9c-3.2,0-5.5-3-5.5-7.1v-0.1c0-4.1,2.3-7,5.5-7c1.5,0,2.8,0.6,4,1.8l0.5,0.4l2-2.4
			l-0.4-0.4c-1.2-1.1-3-2.4-6-2.4c-5.1,0-8.7,4.2-8.7,10.1v0.2c0,5.8,3.6,10,8.6,10c2.4,0,4.4-0.8,6.3-2.7l0.4-0.4l-2-2.3
			L425.2,248.7z"/>
		<rect x="432.6" y="233.6" width="3.2" height="19.7"/>
		<path d="M448.3,233.5l-7.5,19.8h3.3l1.8-4.9h7.5l1.8,4.9h3.4l-7.5-19.8H448.3z M452.3,245.5H447l2.7-7.1L452.3,245.5z"/>
		<polygon points="466.6,233.6 463.4,233.6 463.4,253.4 475.2,253.4 475.2,250.4 466.6,250.4 		"/>
		<polygon points="483.5,244.9 491.9,244.9 491.9,241.9 483.5,241.9 483.5,236.6 492.9,236.6 492.9,233.6 480.4,233.6 480.4,253.4 
			493,253.4 493,250.4 483.5,250.4 		"/>
		<path d="M505.1,242c-3.7-1.3-3.9-2.2-3.9-3.3c0-1.3,1.2-2.3,2.9-2.3c1.4,0,2.8,0.5,4.1,1.7l0.5,0.4l1.9-2.5l-0.4-0.4
			c-1.8-1.5-3.6-2.2-5.9-2.2c-3.5,0-6.2,2.4-6.2,5.5c0,3.2,2.2,4.7,5.7,6c3.4,1.2,3.7,2.1,3.7,3.2c0,1.5-1.3,2.5-3.1,2.5
			c-1.8,0-3.2-0.6-4.8-2.1l-0.5-0.4l-2,2.4l0.4,0.4c2,1.9,4.2,2.8,6.8,2.8c3.7,0,6.3-2.4,6.3-5.7C510.6,245.2,509,243.5,505.1,242z"
			/>
	</g>
	<g>
		<g>
			<path d="M273.8,247l6.4-7.6c2.7,2.8,5.9,5,10.4,5c4.1,0,7.2-2.6,7.2-6.7v-0.1c0-4.4-3.7-7-10.4-7h-3.1l-1.3-6.8l11.4-12.7h-18
				v-9.6h31.2v8.5l-12.1,12.7c6.7,1.3,12.9,5.5,12.9,14.4v0.2c0,9.9-7,16.8-17.6,16.8C283.4,254.3,277.8,251.3,273.8,247z"/>
		</g>
	</g>
</g>
<g id="TEXTES_-_NON-VECTO" display="none">
	<g display="inline">
		<g>
			<g>
				<g>
					<path fill="#AB2574" d="M242.6,37.8H56.7v128.4c0,53.5,40,89.5,92.8,89.5c14.2,0,27.5-2.6,39.4-7.5l0,0l22.2-9.3l31.6,14.4
						V37.8z"/>
				</g>
				<g>
					<polygon fill="#FFFFFF" points="149.6,208.2 108.4,189.4 108.4,79.2 149.6,79.2 					"/>
					<polygon fill="#FFFFFF" points="202.8,168 162.7,186.3 162.7,208.2 202.8,189.9 					"/>
				</g>
			</g>
		</g>
		<g>
			<path d="M409.8,91.5c-4.1-8.1-9.4-21.9-10.6-36.4c-1.5,0-8.4,0-8.4,0s2,26,14.6,43.3h8.8c12.6-17.3,14.6-43.3,14.6-43.3
				s-6.9,0-8.4,0C419.3,69.5,413.9,83.4,409.8,91.5z"/>
			<path d="M582.3,37.8h-8.7v17.3h-5.3v6.6h5.3V86c0,6.7,3.4,12.4,12.1,12.4h4.6v-7.7h-3.1c-3.6,0-4.9-1.8-4.9-5.2V61.7h8v-6.6h-8
				V37.8z"/>
			<path d="M306.4,77.6c0,8-5,13.3-12.7,13.3c-7.7,0-12.7-5.2-12.7-13.3V37.8h-8.8v40.3c0,5.9,2.2,11.3,6.2,15
				c3.9,3.7,9.4,5.7,15.3,5.7c4.9,0,9.4-1.4,13-3.9l8.5,3.9v-61h-8.8V77.6z"/>
			<path d="M357.4,58.8c-2.5-2.4-6.8-4.3-13-4.3c-4.1,0-7.9,1.6-10.2,3.2l-7.1-3.2v44h8.7V72.2c0-6.7,3.8-9.6,8.6-9.6
				c4.8,0,8.6,2.9,8.6,9.6v26.3h8.7V70.9C361.7,66.1,360.7,62,357.4,58.8z"/>
			<path d="M487.2,72.2c0-6.7,3.8-9.6,8.6-9.6c1.7,0,3.3,0.4,4.6,1.1c1.5-2.4,3.1-5.1,4.6-7.5c-2.4-1.1-5.4-1.8-9.2-1.8
				c-4.1,0-7.9,1.6-10.2,3.2l-7.1-3.2v44h8.7V72.2z"/>
			<rect x="372.6" y="55.1" width="8.7" height="43.4"/>
			<rect x="372.6" y="37.8" width="8.7" height="8.7"/>
			<rect x="550.2" y="55.1" width="8.7" height="43.4"/>
			<rect x="550.2" y="37.8" width="8.7" height="8.7"/>
			<rect x="416.2" y="135.1" width="8.7" height="43.3"/>
			<rect x="416.2" y="117.8" width="8.7" height="8.7"/>
			<path d="M454,99.1c3.7,0,6.6-0.5,9.3-1.7c2.3-1,4.5-2.6,6.9-5.1l-5.1-4.9c-1.6,1.6-3.1,2.6-4.7,3.2c-1.7,0.6-3.6,0.9-6.1,0.9
				c-5.3,0-9-2.7-10.4-7.6l0,0l0,0c4.3-0.6,12.3-1.3,18.9-4.9c3.2-1.8,5.6-3.8,6.7-6.8c0.9-2.3,1.2-5.2,0.5-7.8
				c-1-3.6-2.6-5.6-5.2-7.4c-2.9-2-7-2.6-11.7-2.6c-2.9,0-5.5,0.5-7.8,1.5c-2.3,1-4.2,2.4-5.7,4.3c-1.6,1.9-2.8,4.3-3.5,7
				c-0.8,2.8-1.2,5.9-1.2,9.4c0,7.8,1.9,13.6,5.7,17.4C443.5,97.4,448.1,99.1,454,99.1z M443.1,73.2c0-1.3,0.1-2.3,0.3-3.2
				c0.2-0.9,0.4-1.7,0.8-2.7c1.3-3,4.6-4.9,8.7-4.9c2.9,0,6.7,0.5,8.5,3.1c0.4,0.6,1,2.1,0.5,3.7c-0.6,2-2.6,3.8-6,5
				c-4.4,1.6-9.5,2.4-12.7,2.8l0,0V73.2z"/>
			<path d="M344.5,159c3.2-1.8,5.6-3.8,6.7-6.7c0.9-2.3,1.2-5.2,0.5-7.8c-1-3.6-2.6-5.6-5.2-7.4c-2.9-2-7-2.6-11.7-2.6
				c-2.9,0-5.5,0.5-7.8,1.5c-2.3,1-4.2,2.4-5.7,4.3c-1.6,1.9-2.8,4.3-3.5,7c-0.8,2.8-1.2,5.9-1.2,9.4c0,7.8,1.9,13.6,5.7,17.4
				c3.3,3.3,7.9,5,13.8,5c3.7,0,6.6-0.5,9.3-1.7c2.3-1,4.5-2.6,6.9-5.1l-5.1-4.9c-1.6,1.6-3.1,2.6-4.7,3.2c-1.7,0.6-3.6,0.9-6.1,0.9
				c-5.3,0-9-2.7-10.4-7.6l0,0l0,0C329.9,163.4,337.8,162.7,344.5,159z M325,156.9L325,156.9l0-3.7c0-1.3,0.1-2.3,0.3-3.2
				c0.2-0.9,0.4-1.7,0.8-2.7c1.3-3,4.6-4.9,8.7-4.9c2.9,0,6.7,0.5,8.5,3.1c0.4,0.6,1,2.1,0.5,3.7c-0.6,2-2.6,3.8-6,5
				C333.3,155.8,328.2,156.6,325,156.9z"/>
			<path d="M511.5,159c3.2-1.8,5.6-3.8,6.7-6.7c0.9-2.3,1.2-5.2,0.5-7.8c-1-3.6-2.6-5.6-5.2-7.4c-2.9-2-7-2.6-11.7-2.6
				c-2.9,0-5.5,0.5-7.8,1.5c-2.3,1-4.2,2.4-5.7,4.3c-1.6,1.9-2.7,4.3-3.5,7c-0.8,2.8-1.2,5.9-1.2,9.4c0,7.8,1.9,13.6,5.7,17.4
				c3.3,3.3,7.9,5,13.8,5c3.7,0,6.6-0.5,9.3-1.7c2.3-1,4.5-2.6,6.9-5.1l-5.1-4.9c-1.6,1.6-3.1,2.6-4.7,3.2c-1.7,0.6-3.6,0.9-6.1,0.9
				c-5.3,0-9-2.7-10.4-7.6l0,0l0,0C496.9,163.4,504.9,162.7,511.5,159z M492,156.9L492,156.9l0-3.7c0-1.3,0.1-2.3,0.3-3.2
				c0.2-0.9,0.4-1.7,0.8-2.7c1.3-3,4.6-4.9,8.7-4.9c2.9,0,6.7,0.5,8.5,3.1c0.4,0.6,1,2.1,0.5,3.7c-0.6,2-2.6,3.8-6,5
				C500.3,155.8,495.3,156.6,492,156.9z"/>
			<path d="M621.9,90.7c-1.7,0.6-3.6,0.9-6.1,0.9c-5.3,0-9-2.7-10.4-7.6l0,0l0,0c4.3-0.6,12.3-1.3,18.9-4.9c3.2-1.8,5.6-3.8,6.7-6.8
				c0.9-2.3,1.2-5.2,0.5-7.8c-1-3.6-2.6-5.6-5.2-7.4c-2.9-2-7-2.6-11.7-2.6c-2.9,0-5.5,0.5-7.8,1.5c-2.3,1-4.2,2.4-5.7,4.3
				c-1.6,1.9-2.8,4.3-3.5,7c-0.8,2.8-1.2,5.9-1.2,9.4c0,7.8,1.9,13.6,5.7,17.4c3.3,3.3,7.9,5,13.8,5c3.7,0,6.6-0.5,9.3-1.7
				c2.3-1,4.5-2.6,6.9-5.1l-5.1-4.9C625.1,89,623.6,90,621.9,90.7z M604.7,77v-3.7c0-1.3,0.1-2.3,0.3-3.2c0.2-0.9,0.4-1.7,0.8-2.7
				c1.3-3,4.6-4.9,8.7-4.9c2.9,0,6.7,0.5,8.5,3.1c0.4,0.6,1,2.1,0.5,3.7c-0.6,2-2.6,3.8-6,5C613.1,75.8,608,76.6,604.7,77L604.7,77z
				"/>
			<path d="M528.9,73l-6.8-0.6c-4.6-0.4-5.9-2.4-5.9-5c0-3.3,2.6-5.6,7.8-5.6c4.1,0,7.9,0.9,10.6,3.2l5.4-5.6c-4-3.5-9.5-4.9-16-4.9
				c-9,0-16.2,4.8-16.2,13.3c0,7.7,4.7,11.3,12.7,12l6.9,0.6c4.2,0.3,5.8,2.2,5.8,5.2c0,4.1-4.2,6-9.4,6c-4.3,0-8.9-0.9-12.4-4.6
				l-5.7,5.8c5.1,5.1,11,6.3,18.1,6.3c10.3,0,17.9-4.7,17.9-13.8C541.7,77.5,537,73.6,528.9,73z"/>
			<path d="M299.5,136.3c-2.5-1.1-5.6-1.7-9.4-1.7c-12.5,0-18.3,8.1-18.3,22c0,16.4,8.6,22.1,19.4,22.1c4,0,7.1-1.4,9.7-3.3l7.2,3.3
				v-60.9h-8.7V136.3z M299.5,164.7c0,3.1-2.9,6.5-8.1,6.5c-7.1,0-11-4.7-11-12.1v-6c0.1-2.6,0.3-3.9,1.1-5.9
				c1.4-3.2,4.9-4.8,8.6-4.8c5.3,0,9.3,1.7,9.4,6.2C299.5,152.6,299.5,160.7,299.5,164.7z"/>
			<path d="M387.8,166v-48.3h-8.7v48.8c0,6.4,3.6,11.9,11.8,11.9h18.5v-7.4h-16.9C389,171.1,387.8,169.3,387.8,166z"/>
			<path d="M446.1,165.5v-47.7h-8.7V166c0,6.7,3.4,12.4,12.1,12.4h4.6v-7.7H451C447.3,170.7,446.1,169,446.1,165.5z"/>
			<path d="M470.6,165.5v-47.7h-8.7V166c0,6.7,3.4,12.4,12.1,12.4h4.6v-7.7h-3.1C471.8,170.7,470.6,169,470.6,165.5z"/>
			<polygon points="624.5,35.6 604.7,44.6 604.7,52.2 624.5,43.1 			"/>
		</g>
		<g>
			<rect x="242.6" y="54.7" fill="none" width="8.5" height="42.3"/>
			<rect x="242.6" y="37.8" fill="none" width="8.5" height="8.5"/>
			<rect x="251.1" y="54.7" fill="none" width="8.5" height="42.3"/>
			<rect x="251.1" y="37.8" fill="none" width="8.5" height="8.5"/>
			<rect x="259.5" y="54.7" fill="none" width="8.5" height="42.3"/>
			<rect x="259.5" y="37.8" fill="none" width="8.5" height="8.5"/>
			<rect x="268" y="54.7" fill="none" width="4.2" height="42.3"/>
			<rect x="268" y="37.8" fill="none" width="4.2" height="8.5"/>
		</g>
		<g>
			<text transform="matrix(1 0 0 1 325.7939 220.7637)"><tspan x="0" y="0" stroke="#000000" stroke-width="1.1727" stroke-miterlimit="10" font-family="'GothamNarrow-Book'" font-size="26.4827px" letter-spacing="3">SCIENCES HUMAINES</tspan><tspan x="0" y="32.6" stroke="#000000" stroke-width="1.1727" stroke-miterlimit="10" font-family="'GothamNarrow-Book'" font-size="26.4827px" letter-spacing="3">ET SOCIALES</tspan></text>
		</g>
		<g>
			<text transform="matrix(1 0 0 1 271.874 253.3633)" font-family="'GothamNarrow-Bold'" font-size="74.087px">3</text>
		</g>
	</g>
</g>
</svg>
