<?xml version="1.0" encoding="utf-8"?>
<!-- Generator: Adobe Illustrator 18.1.1, SVG Export Plug-In . SVG Version: 6.00 Build 0)  -->
<svg version="1.1" xmlns="http://www.w3.org/2000/svg" xmlns:xlink="http://www.w3.org/1999/xlink" x="0px" y="0px"
	 viewBox="0 0 500 500" enable-background="new 0 0 500 500" xml:space="preserve">
<g id="Reperes">
</g>
<g id="Calque_3">
	<g>
		<g>
			<path fill="#C8BEBE" d="M350,128.5c-16.3,0-31.9,3.2-46.1,9c5.6,11.7,17.4,33,27.8,31.6c11.3-1.5,17.3-29,19.3-40.6
				C350.6,128.5,350.3,128.5,350,128.5z"/>
			<path fill="#C8BEBE" d="M252,177.7c7.4,3.9,29.4,14.9,36.1,8.1c6.6-6.6-3.6-27.6-7.8-35.5C269.5,157.8,259.9,167.1,252,177.7z"/>
			<path fill="#C8BEBE" d="M350,372.7c-16.3,0-31.9-3.2-46.1-9c5.6-11.7,17.4-33,27.8-31.6c11.3,1.5,17.3,29,19.3,40.6
				C350.6,372.7,350.3,372.7,350,372.7z"/>
			<path fill="#C8BEBE" d="M252,323.6c7.4-3.9,29.4-14.9,36.1-8.1c6.6,6.6-3.6,27.6-7.8,35.5C269.5,343.4,259.9,334.2,252,323.6z"/>
			<path fill="#0F6E96" d="M219.7,250.6c0-71.9,58.3-130.2,130.2-130.2c0.6,0,1.2,0,1.9,0c-47-43-120.6-41.8-166.1,3.7l-7.4,7.4h0
				l-129,129c-18.5,18.5-30,44.1-30.2,72.3h122.5c0.9,0.9,1.7,1.8,2.6,2.7l41.5,41.5c45.5,45.5,119.1,46.7,166.1,3.7
				c-0.6,0-1.2,0-1.9,0C278,380.9,219.7,322.5,219.7,250.6z M164.5,268.8c-10.1,0-18.2-8.2-18.2-18.2c0-10.1,8.2-18.2,18.2-18.2
				c10.1,0,18.2,8.2,18.2,18.2C182.7,260.7,174.6,268.8,164.5,268.8z"/>
		</g>
		<path fill="#C94B24" d="M249.5,7.5C115.5,7.5,6.4,116.5,6.4,250.6c0,8.1,0.4,16.1,1.2,24c6.1-11.8,14-22.8,23.7-32.5l18.1-18.1
			c13-98.9,97.8-175.5,200.2-175.5c111.4,0,202,90.6,202,202s-90.6,202-202,202c-71.7,0-134.7-37.6-170.6-94H31.8
			c39.8,80,122.5,135.1,217.8,135.1c134.1,0,243.1-109.1,243.1-243.1S383.6,7.5,249.5,7.5z"/>
	</g>
</g>
</svg>
