<?xml version="1.0" encoding="utf-8"?>
<!-- Generator: Adobe Illustrator 18.1.1, SVG Export Plug-In . SVG Version: 6.00 Build 0)  -->
<svg version="1.1" xmlns="http://www.w3.org/2000/svg" xmlns:xlink="http://www.w3.org/1999/xlink" x="0px" y="0px"
	 viewBox="0 0 800 800" enable-background="new 0 0 800 800" xml:space="preserve">
<g id="Reperes">
</g>
<g id="Calque_3">
	<g>
		<g>
			<g>
				<path fill="#C8BEBE" d="M471,232.2c-11.5,0-22.5,2.3-32.6,6.4c4,8.2,12.3,23.3,19.7,22.3c8-1.1,12.2-20.5,13.6-28.7
					C471.5,232.2,471.3,232.2,471,232.2z"/>
				<path fill="#C8BEBE" d="M401.7,266.9c5.2,2.8,20.8,10.5,25.6,5.8c4.6-4.6-2.5-19.5-5.5-25.1
					C414.1,252.9,407.3,259.4,401.7,266.9z"/>
				<path fill="#C8BEBE" d="M471,404.9c-11.5,0-22.5-2.3-32.6-6.4c4-8.2,12.3-23.3,19.7-22.3c8,1.1,12.2,20.5,13.6,28.7
					C471.5,404.9,471.3,404.9,471,404.9z"/>
				<path fill="#C8BEBE" d="M401.7,370.1c5.2-2.8,20.8-10.5,25.6-5.8c4.6,4.6-2.5,19.5-5.5,25.1
					C414.1,384.2,407.3,377.6,401.7,370.1z"/>
				<path fill="#0F6E96" d="M378.9,318.5c0-50.9,41.2-92.1,92.1-92.1c0.4,0,0.9,0,1.3,0c-33.2-30.4-85.3-29.6-117.5,2.6l-5.3,5.3h0
					l-91.2,91.2c-13.1,13.1-21.2,31.2-21.4,51.2h86.6c0.6,0.7,1.2,1.3,1.8,1.9l29.4,29.4c32.2,32.2,84.2,33,117.5,2.6
					c-0.4,0-0.9,0-1.3,0C420.1,410.7,378.9,369.4,378.9,318.5z M339.8,331.4c-7.1,0-12.9-5.8-12.9-12.9c0-7.1,5.8-12.9,12.9-12.9
					c7.1,0,12.9,5.8,12.9,12.9C352.7,325.7,347,331.4,339.8,331.4z"/>
			</g>
			<path fill="#C94B24" d="M400,146.6c-94.8,0-172,77.1-172,172c0,5.7,0.3,11.4,0.8,17c4.3-8.4,9.9-16.1,16.7-23l12.8-12.8
				c9.2-69.9,69.2-124.1,141.6-124.1c78.8,0,142.9,64.1,142.9,142.9S478.8,461.4,400,461.4c-50.7,0-95.3-26.6-120.6-66.5H246
				c28.2,56.6,86.6,95.6,154,95.6c94.8,0,172-77.1,172-172S494.8,146.6,400,146.6z"/>
		</g>
		<g>
			<path fill="#C94B24" d="M49.7,579.7c-5.1-1.8-10.9-2.7-17.1-2.7c-9.6,0-14.4,6.8-14.4,20.4s4.8,20.4,14.4,20.4
				c6.3,0,12-0.9,17.2-2.7l4.4,11.7c-7,2.7-14.2,4.1-21.6,4.1c-18.8,0-28.2-11.2-28.2-33.6s9.4-33.6,28.2-33.6
				c7.5,0,14.8,1.4,21.7,4.2L49.7,579.7z"/>
			<path fill="#C94B24" d="M61.3,577.4H75V611c0,4.6,2.4,6.9,7.3,6.9c1.5,0,2.9,0,4.1-0.1c1.2-0.1,2.3-0.2,3.3-0.4v-40h13.7v50.3
				c-4,2.2-11,3.4-21.1,3.4c-14.1,0-21.1-6.7-21.1-20.1V577.4z"/>
			<path fill="#C94B24" d="M112.9,564.3l13.7-3.2v70h-13.7V564.3z"/>
			<path fill="#C94B24" d="M143.2,564.3l13.7-3.2v16.3h14.2v13.2h-14.2V611c0,4.6,1.7,6.9,5,6.9c1.8,0,4.5-0.7,8-2.1l3.5,11.7
				c-3.5,2.3-7.3,3.5-11.5,3.5c-12.5,0-18.7-6.7-18.7-20.1v-20.4h-7.1v-13.2h7.1V564.3z"/>
			<path fill="#C94B24" d="M180.7,577.4h13.7V611c0,4.6,2.4,6.9,7.3,6.9c1.5,0,2.9,0,4.1-0.1c1.2-0.1,2.3-0.2,3.3-0.4v-40h13.7v50.3
				c-4,2.2-11,3.4-21.1,3.4c-14.1,0-21.1-6.7-21.1-20.1V577.4z"/>
			<path fill="#C94B24" d="M232.3,580.4c4.1-2,11.2-3,21.1-3c2.3,0,5.1,0.3,8.5,1l-3.1,13.1c-2.3-0.6-4.1-0.9-5.4-0.9
				c-1.5,0-2.9,0-4.1,0.1c-1.2,0.1-2.3,0.2-3.3,0.4v40h-13.7V580.4z"/>
			<path fill="#C94B24" d="M271.4,602c0-16.4,7.5-24.6,22.5-24.6c14.4,0,21.6,8.2,21.6,24.6c0,5.9-1.5,8.8-4.5,8.8h-25.8
				c0,4.7,2.4,7.1,7.3,7.1c6,0,11.5-0.9,16.5-2.7l2.6,12.2c-4.5,2.5-10.9,3.7-19.1,3.7c-14.1,0-21.1-8.2-21.1-24.6V602z
				 M301.7,598.1c0-5-2.6-7.5-7.8-7.5c-5.8,0-8.8,2.5-8.8,7.5H301.7z"/>
			<path fill="#0F6E96" d="M349.7,563.9h12.8l22.7,38.8v-38.8h13.7V631h-12.8l-22.7-38.8V631h-13.7V563.9z"/>
			<path fill="#0F6E96" d="M408.4,577.4h13.7V611c0,4.6,2.4,6.9,7.3,6.9c1.5,0,2.9,0,4.1-0.1c1.2-0.1,2.3-0.2,3.3-0.4v-40h13.7v50.3
				c-4,2.2-11,3.4-21.1,3.4c-14.1,0-21.1-6.7-21.1-20.1V577.4z"/>
			<path fill="#0F6E96" d="M460,580.4c4.1-2,11.2-3,21.1-3c5.1,0,8.9,0.9,11.2,2.7c3-1.8,7.9-2.7,14.9-2.7
				c12.5,0,18.7,6.7,18.7,20.1V631h-13.7v-33.6c0-4.6-1.7-6.9-5-6.9c-2.9,0-5.4,0.5-7.3,1.5v39h-13.7v-33.6c0-4.6-1.7-6.9-5-6.9
				c-1.5,0-2.9,0-4.1,0.1s-2.3,0.2-3.3,0.4v40H460V580.4z"/>
			<path fill="#0F6E96" d="M535.3,602c0-16.4,7.5-24.6,22.5-24.6c14.4,0,21.6,8.2,21.6,24.6c0,5.9-1.5,8.8-4.5,8.8H549
				c0,4.7,2.4,7.1,7.3,7.1c6,0,11.5-0.9,16.5-2.7l2.6,12.2c-4.5,2.5-10.9,3.7-19.1,3.7c-14.1,0-21.1-8.2-21.1-24.6V602z
				 M565.6,598.1c0-5-2.6-7.5-7.8-7.5c-5.8,0-8.8,2.5-8.8,7.5H565.6z M554.3,555.3h15.4l-7.4,17.6h-11L554.3,555.3z"/>
			<path fill="#0F6E96" d="M587.4,580.4c4.1-2,11.2-3,21.1-3c2.3,0,5.1,0.3,8.5,1l-3.1,13.1c-2.3-0.6-4.1-0.9-5.4-0.9
				c-1.5,0-2.9,0-4.1,0.1s-2.3,0.2-3.3,0.4v40h-13.7V580.4z"/>
			<path fill="#0F6E96" d="M626.5,557h13.7v15.4h-13.7V557z M626.5,577.4h13.7V631h-13.7V577.4z"/>
			<path fill="#0F6E96" d="M649.7,599.7c0-14.9,7-22.3,21.1-22.3c10,0,17,1.1,21.1,3.3v68.2l-13.7,3.2v-21.7
				c-1.6,0.4-4.1,0.7-7.3,0.7c-14.1,0-21.1-7.5-21.1-22.4V599.7z M678.1,591.1c-1-0.2-2.1-0.3-3.3-0.4s-2.6-0.1-4.1-0.1
				c-4.9,0-7.3,3-7.3,9.1v9c0,6.1,2.4,9.2,7.3,9.2c1.5,0,2.9,0,4.1-0.1s2.3-0.2,3.3-0.4V591.1z"/>
			<path fill="#0F6E96" d="M701.3,577.4h13.7V611c0,4.6,2.4,6.9,7.3,6.9c1.5,0,2.9,0,4.1-0.1s2.3-0.2,3.3-0.4v-40h13.7v50.3
				c-4,2.2-11,3.4-21.1,3.4c-14.1,0-21.1-6.7-21.1-20.1V577.4z"/>
			<path fill="#0F6E96" d="M753,602c0-16.4,7.5-24.6,22.5-24.6c14.4,0,21.6,8.2,21.6,24.6c0,5.9-1.5,8.8-4.5,8.8h-25.8
				c0,4.7,2.4,7.1,7.3,7.1c6,0,11.5-0.9,16.5-2.7l2.6,12.2c-4.5,2.5-10.9,3.7-19.1,3.7c-14.1,0-21.1-8.2-21.1-24.6V602z
				 M783.3,598.1c0-5-2.6-7.5-7.8-7.5c-5.8,0-8.8,2.5-8.8,7.5H783.3z"/>
		</g>
	</g>
</g>
</svg>
