<?xml version="1.0" encoding="utf-8"?>
<!-- Generator: Adobe Illustrator 19.1.0, SVG Export Plug-In . SVG Version: 6.00 Build 0)  -->
<svg version="1.1" id="Calque_1" xmlns="http://www.w3.org/2000/svg" xmlns:xlink="http://www.w3.org/1999/xlink" x="0px" y="0px"
	 viewBox="0 0 500 500" enable-background="new 0 0 500 500" xml:space="preserve">
<polygon fill="#0C6D95" points="246,173.2 381.8,251.6 246,330 "/>
<path fill="#AFA70E" d="M292.4,47.8c-65.7,0-124.1,31.6-160.7,80.5L32.4,228.3c-16.8,19.2-25.6,42.9-26.2,68.7l91.4,0
	c21.7,87.4,100.7,152.1,194.8,152.1c110.9,0,200.7-89.9,200.7-200.7C493.1,137.7,403.2,47.8,292.4,47.8z M292.4,375.2
	c-70,0-126.7-56.7-126.7-126.7c0-70,56.7-126.7,126.7-126.7s126.7,56.7,126.7,126.7C419.1,318.5,362.3,375.2,292.4,375.2z"/>
</svg>
