<?xml version="1.0" encoding="utf-8"?>
<!-- Generator: Adobe Illustrator 19.1.0, SVG Export Plug-In . SVG Version: 6.00 Build 0)  -->
<svg version="1.1" id="Calque_1" xmlns="http://www.w3.org/2000/svg" xmlns:xlink="http://www.w3.org/1999/xlink" x="0px" y="0px"
	 viewBox="0 0 500 500" enable-background="new 0 0 500 500" xml:space="preserve">
<path fill="#0C6D95" d="M366,316V192c-67,0.4-120.3,54.9-120.3,122.1c0,67.4,55.1,122.1,122.6,122.1s122.3-53.4,122.3-120.8
	c0-0.2,0.2,0.7,0.2,0.7H366z"/>
<path fill="#AFA70E" d="M223.5,310.8c0-28.2,8.5-55.1,21.5-77.6V227h6.1c14.8-22,35.5-37,61.6-47H245v-62h136v45.7
	c5-0.2,10-0.4,12-0.4V291h35v-65.4v-47V71H12v107.6v47V333h186h27.5C224.4,326,223.5,318.2,223.5,310.8z M198,286H59v-59h139V286z
	 M198,180H59v-62h139V180z"/>
</svg>
