<?xml version="1.0" encoding="utf-8"?>
<!-- Generator: Adobe Illustrator 19.1.0, SVG Export Plug-In . SVG Version: 6.00 Build 0)  -->
<svg version="1.1" id="Calque_1" xmlns="http://www.w3.org/2000/svg" xmlns:xlink="http://www.w3.org/1999/xlink" x="0px" y="0px"
	 viewBox="0 0 500 500" enable-background="new 0 0 500 500" xml:space="preserve">
<path fill="#AFA70E" d="M118.9,489H32.7c0-37,0-123.2,58.9-179.2c37.3-35.5,90.4-51.9,157.6-48.5c43.9,2.2,78.4-7.9,92.2-26.9
	c8.4-11.5,9-26.9,1.8-45.9c-14.4-38-9.2-82.1,15.6-118C385.2,32.2,427.5,9.3,472,9.3v86.2c-12.1,0-31.9,9-42.3,24
	c-8.7,12.6-10.7,26.9-6.4,38.4c17.6,46.5,13.3,91.7-12.5,127.1c-31.9,43.8-90.9,65.9-166.1,62.2c-42.7-2.1-74.2,6.4-93.7,25
	C118.9,402.8,118.9,461,118.9,489z"/>
</svg>
