<?xml version="1.0" encoding="utf-8"?>
<!-- Generator: Adobe Illustrator 19.1.0, SVG Export Plug-In . SVG Version: 6.00 Build 0)  -->
<svg version="1.1" id="Calque_1" xmlns="http://www.w3.org/2000/svg" xmlns:xlink="http://www.w3.org/1999/xlink" x="0px" y="0px"
	 viewBox="0 0 500 500" enable-background="new 0 0 500 500" xml:space="preserve">
<g>
	<path fill="#AFA70E" d="M117.5,235.5h90.2v116.4l-2.8,4.5c-21.3,8.5-47.9,12.7-79.8,12.7c-66.2,0-99.3-39.5-99.3-118.4
		c0-78.9,33.1-118.4,99.3-118.4c26.6,0,52.1,4.9,76.5,14.7l-16,41.1c-18.1-6.2-38.3-9.3-60.4-9.3c-33.9,0-50.9,24-50.9,72
		s17,72,50.9,72c15.9,0,27.3-0.7,34.2-2.2v-38.7h-41.7V235.5z"/>
	<path fill="#AFA70E" d="M241,132.3h48.4l0,236.7H241L241,132.3z"/>
	<path fill="#AFA70E" d="M322.8,132.3h148.6l0,46.4H371.2v48.7H463v46.4h-91.8v95.2h-48.4L322.8,132.3z"/>
</g>
</svg>
