<?xml version="1.0" encoding="utf-8"?>
<!-- Generator: Adobe Illustrator 19.1.0, SVG Export Plug-In . SVG Version: 6.00 Build 0)  -->
<svg version="1.1" id="Calque_1" xmlns="http://www.w3.org/2000/svg" xmlns:xlink="http://www.w3.org/1999/xlink" x="0px" y="0px"
	 viewBox="0 0 500 500" enable-background="new 0 0 500 500" xml:space="preserve">
<path fill="#AFA70E" d="M345.9,315.1c10,16.2,25.2,36.8,37,34.3c12.5-2.6,18-30.4,20.4-49.5c8.5-1.5,17.4-2.9,26.5-4
	c7.1,17.6,18.5,40.1,30.4,39.7c12.3-0.5,23-25.2,28.7-43.5c1.8,0,1-0.1,6-0.1V118H182.3c-4-49-42-81-88.2-81H11v79.9V461h484v-21.6
	c-114-0.4-204.9-33.2-204.9-73.7C290.1,346.1,310.9,328.3,345.9,315.1z M343.2,199.2c17.9,0,32.4,14.5,32.4,32.4
	S361.1,264,343.2,264c-17.9,0-32.4-14.5-32.4-32.4S325.3,199.2,343.2,199.2z"/>
</svg>
