<?xml version="1.0" encoding="utf-8"?>
<!-- Generator: Adobe Illustrator 19.1.0, SVG Export Plug-In . SVG Version: 6.00 Build 0)  -->
<svg version="1.1" id="Calque_1" xmlns="http://www.w3.org/2000/svg" xmlns:xlink="http://www.w3.org/1999/xlink" x="0px" y="0px"
	 viewBox="0 0 500 500" enable-background="new 0 0 500 500" xml:space="preserve">
<path fill="#AFA70E" d="M248.8,162.9c-48.6,0-88,39.4-88,88c0,48.6,39.4,88,88,88c48.6,0,87.7-39.5,87.7-88
	C336.5,202.3,297.4,162.9,248.8,162.9z M425.2,301.4l-15.9,38.2l28.3,55.5l3.7,7.3l-39.2,39.2l-64.3-30.4L299.6,427l-19.4,59.3
	l-2.5,7.9h-55.4l-24-67l-38.2-15.8l-55.6,28.2l-7.3,3.7L58,404.2l30.4-64.4l-15.7-38.2l-59.2-19.4l-7.9-2.5v-55.4l67-24l15.7-38.1
	l-28.2-55.7l-3.7-7.3l39.1-39.1l64.4,30.3l38.1-15.8l19.4-59.3l2.5-7.9h55.4l24,67.1l38.1,15.8l55.6-28.2l7.4-3.7l39.2,39.1
	l-30.4,64.3l15.7,38.2l59.4,19.4l7.8,2.5v55.4L425.2,301.4z"/>
</svg>
