<?xml version="1.0" encoding="utf-8"?>
<!-- Generator: Adobe Illustrator 19.1.0, SVG Export Plug-In . SVG Version: 6.00 Build 0)  -->
<svg version="1.1" id="Calque_1" xmlns="http://www.w3.org/2000/svg" xmlns:xlink="http://www.w3.org/1999/xlink" x="0px" y="0px"
	 viewBox="0 0 500 500" enable-background="new 0 0 500 500" xml:space="preserve">
<path fill="#AFA70E" d="M121.7,366.1c0,0,6-2.1,17.1-6.1c11.2-3.8,27.7-9.4,48.8-16.2c10.5-3.5,22.2-7.2,35-11.1
	c12.7-4.1,26.6-8.3,41.4-12.8c7.4-2.3,15.1-4.4,23-6.7c7.9-2.3,16-4.7,24.6-6.7c4.2-1.1,8.5-2.2,12.9-3.3c2.2-0.6,4.4-1.1,6.6-1.7
	c2.2-0.5,4.5-0.9,6.8-1.4c9.2-1.8,18.6-3.9,28.4-4.9c19.5-2.1,39.8-3.4,61.5-1.7c10.9,0.9,22,2.3,34.1,6.1c6.1,2,12.5,4.6,19.4,10.3
	c3.4,3,7,7.2,9.3,12.8c1.1,2.9,1.7,5.9,2,9c0.1,2.9-0.1,6-0.7,8.5l-0.4,2c0.2-0.4-0.5,1.7-0.5,1.6l-0.2,0.5l-0.7,1.9
	c-0.5,1.3-0.7,2.3-1.8,4.7c-1.9,4.2-4.2,7.9-7.1,11.5c-3.1,3.6-7.2,6.9-11.6,9.1c-2.2,1.1-4.5,2.2-6.7,2.7c-2.3,0.7-4.5,1.2-6.5,1.4
	c-8.5,1.1-15.4,0.3-21.9-0.6c-6.3-1-12.3-2.3-18-3.6c-2.8-0.7-5.7-1.4-8.5-2c-2.9-0.7-5.7-1.4-8.6-2.1c-2.6-0.7-6.5-1.8-9.2-2.7
	c-3-1-5.9-2-8.8-3c-11.6-4.3-22.9-9.1-34-14.5c-22.2-10.9-43.9-23.8-64.3-39.6c-20.3-15.7-39.4-34.3-54.8-56.5
	c-7.7-11.1-14.4-23.1-19.6-35.9l-1.9-4.8l-1.7-4.9l-1.6-4.9l-1.3-5l-1.3-5.1l-1-4.6l-2-9.3c-5.4-24.8-10.5-49.8-13.9-75.6
	c-1.7-12.9-3-26-2.9-39.7c0.1-6.9,0.5-14,2.2-21.6c0.8-3.8,2.1-7.8,4.2-12c2-4.1,5.2-8.6,9.9-11.9c4.7-3.4,10.5-5.1,15.5-5.4
	l1.9-0.1l0.9,0c-0.3,0,1.4,0.1,1.4,0.1l2.3,0.2c0.9,0.1,2.6,0.4,3.9,0.6c1.4,0.2,2.5,0.7,3.7,1c4.7,1.6,9.3,4.4,12.8,7.9
	c3.5,3.5,6,7.5,7.8,11.3c3.5,7.8,4.8,15.2,5.4,22.3c0.6,7.1,0.5,13.9,0,20.5c-1,13.3-3.1,26-6.2,38.6l-2.2,9l-2.6,9.2l-2.6,9.1
	l-2.8,8.8c-7.3,23.6-15.8,46.4-24.4,68.7c-4.6,11-8.8,22.1-13.6,32.8c-4.8,10.7-9.3,21.4-14.3,31.8c-5.1,10.3-9.9,20.6-15,30.7
	c-5.2,10-10.6,19.8-16,29.2c-10.9,19-22.3,37-34,54c-11.6,17-23.8,32.9-36.3,47.4c-6.3,7.2-12.8,14.1-19.6,20.4
	c-6.8,6.3-13.9,12.1-21.9,16.5c-4.1,2.1-8.3,4.1-13.1,4.7c-4.7,0.7-10,0-14.1-2.7l-2.8-2.2c-0.1,0-0.6-0.6-0.5-0.5l-0.2-0.3
	l-0.5-0.6l-1-1.2c-0.7-0.6-1.3-2-1.9-3c-0.7-1.1-1.1-2.2-1.4-3.3c-1.3-4.4-1-9.1,0.3-13c2.5-8,7.1-14.2,11.7-19.9
	c4.7-5.6,9.7-10.5,14.7-15.1c9.9-9.1,19.7-16.5,28.8-22.9c18.2-12.7,33.3-21.5,43.9-26.9c5.3-2.7,9.5-4.6,12.4-5.8
	C120.2,366.7,121.7,366.1,121.7,366.1L121.7,366.1z M122.9,369.4c0,0-1.4,0.6-4.3,1.6c-2.8,1.1-6.9,2.9-12.2,5.5
	c-10.5,5.3-25.8,13.6-43.6,26.4c-8.9,6.5-18.6,13.9-28.2,23c-4.8,4.6-9.5,9.6-13.9,15.1c-4.3,5.5-8.4,11.7-10.3,18.6
	c-1,3.4-1,7,0.1,10.1c0.3,0.8,0.5,1.6,1,2.2c0.5,0.7,0.6,1.3,1.4,2l1,1.1l0.5,0.6l0.3,0.3c0.3,0.3-0.1-0.1,0.1,0l2.1,1.4
	c5.8,3.4,13.7,1,20.5-3.2c6.9-4.3,13.3-10.2,19.5-16.5c6.1-6.4,12-13.4,17.7-20.8c22.8-29.7,43.7-64.8,63.9-102.8
	c20-38,38.1-79.7,54.3-123.8c7.9-22.1,15.6-44.7,22.1-67.9l2.5-8.7l2.2-8.6l2.2-8.6l2-9c2.5-11.4,4.2-23.3,4.7-34.8
	c0.2-5.7,0.2-11.4-0.4-16.8c-0.6-5.3-1.8-10.3-3.6-13.9c-1.9-3.6-3.7-5-6-5.7c-0.3-0.1-0.7-0.2-0.8-0.2c-0.3,0-0.1-0.1-0.8-0.2
	l-2.4-0.1c-0.4,0,0.9,0,0.3,0l-0.2,0l-0.5,0c-1.3,0.2-1.7,0.4-2.1,0.7c-0.8,0.4-2.7,3.8-3.5,8.5c-0.9,4.7-1.2,10.3-1.1,16
	c0.2,11.5,1.7,23.6,3.6,35.7c4,24.2,9.7,48.6,15.7,72.8l2.3,9.1l1.2,4.5l1.2,4l1.2,4l1.5,3.9l1.4,3.9l1.7,3.8
	c4.6,10.2,10.4,20,17.3,29.1c13.6,18.2,30.9,33.9,49.4,47.5c18.6,13.5,38.5,25.2,58.9,35c10.1,5,20.5,9.4,30.7,13.2
	c2.6,0.9,5.1,1.9,7.6,2.7c2.8,0.9,4.5,1.4,7.4,2.3c5.4,1.4,10.8,2.9,16.2,4.3c5.3,1.4,10.4,2.6,15.2,3.4c4.6,0.8,8.9,1.1,11.5,0.8
	c2.7-0.5,2.9-0.5,4-1.4c0.6-0.6,1.3-1.6,1.7-2.3c0.2,0,0.8-1.6,1.3-2.8l0.7-1.9l-0.4-0.5c0.2-0.4-0.8,1.4-0.8,0.7v0
	c0-0.2,0.7,0.9,1,1.6c0.3,0.6,0.8,0.5,0.2-0.1c-1.2-1.3-4.5-3.2-8.3-4.8c-7.8-3.2-17.2-5.3-26.6-6.7c-19-2.8-38.2-3.9-56.5-3.6
	c-18.3,0.4-35.7,2.5-52.7,5c-8.5,1.1-16.7,2.6-24.7,4c-8,1.4-15.8,2.6-23.3,4.2c-30.1,5.9-56.3,11.9-77.6,17.5
	c-5.3,1.4-10.4,2.7-15.2,3.9c-4.7,1.3-9.1,2.6-13.3,3.8c-8.2,2.4-15.3,4.3-20.9,6.2C128.8,367.4,122.8,369.4,122.9,369.4
	L122.9,369.4z"/>
</svg>
