<?xml version="1.0" encoding="utf-8"?>
<!-- Generator: Adobe Illustrator 19.1.0, SVG Export Plug-In . SVG Version: 6.00 Build 0)  -->
<svg version="1.1" id="Calque_1" xmlns="http://www.w3.org/2000/svg" xmlns:xlink="http://www.w3.org/1999/xlink" x="0px" y="0px"
	 viewBox="0 0 500 500" enable-background="new 0 0 500 500" xml:space="preserve">
<g>
	<path fill="#AFA70E" d="M386,260c-24,4.1-41,22-41,43.4v100.4c0,21.4,17,39.3,41,43.4V260z"/>
	<path fill="#AFA70E" d="M408.7,244H402v218h6.7c45.9,0,82.3-21.8,82.3-50.2V295.3C491,266.9,454.6,244,408.7,244z"/>
</g>
<path fill="#AFA70E" d="M92.3,260c-0.3,0-0.5-5.8-0.5-9.2c0-45.1,28-148.8,61.2-148.8h188.8h1.7c33.2,0,61.2,103.7,61.2,148.8
	c0,3.5-0.2,9.2-0.5,9.2h64.8c0.2,0,0.3-6,0.3-9.4c0-81.6-56.4-213.6-125.9-213.6H153C83.5,37,27.1,168.9,27.1,250.6
	c0,3.4,0.1,9.4,0.3,9.4H92.3z"/>
<g>
	<path fill="#AFA70E" d="M110,260c25,4.1,41,22,41,43.4v100.4c0,21.4-16,39.3-41,43.4V260z"/>
	<path fill="#AFA70E" d="M87.9,244H94v218h-6.1C42,462,5,440.2,5,411.8V295.3C5,266.9,42,244,87.9,244z"/>
</g>
</svg>
