<?xml version="1.0" encoding="utf-8"?>
<!-- Generator: Adobe Illustrator 19.1.0, SVG Export Plug-In . SVG Version: 6.00 Build 0)  -->
<svg version="1.1" id="Calque_1" xmlns="http://www.w3.org/2000/svg" xmlns:xlink="http://www.w3.org/1999/xlink" x="0px" y="0px"
	 viewBox="0 0 500 500" enable-background="new 0 0 500 500" xml:space="preserve">
<path fill="#AFA70E" d="M442.1,213.1l50.4-17.1l-4.1-12.3l-44.2,15L256,62.2V24h-13v36.5L53.3,197.9l-41.6-14l-4.2,12.3L53,211.5
	l69.5,213.8l-33,43.1l10.3,7.6l32.7-43h234.9l32.7,43l10.3-7.7l-36-47L442.1,213.1z M336.2,371.5L288,308.6l16-48.8l77.1-26.1
	L336.2,371.5z M256,262.6v-24.2l23.1,16.4L256,262.6z M243,261.9l-23.9-8.1l23.9-17V261.9z M238.3,274.2L221.6,296l-10.2-30.9
	L238.3,274.2z M250,279.1l18.3,23.9h-36.7L250,279.1z M261.6,274.2l22-7.4l-8.3,25.3L261.6,274.2z M384.2,219.2L299,248.1l-43-30.9
	v-91L384.2,219.2z M243,124.5v91l-44.3,31.5l-85.3-28.9L243,124.5z M114.1,232.2l77,26.1l17.8,54.4l-48.2,62.9L114.1,232.2z
	 M172.2,382l46.3-61h63.1l46.3,61H172.2z"/>
</svg>
