<?xml version="1.0" encoding="utf-8"?>
<!-- Generator: Adobe Illustrator 19.1.0, SVG Export Plug-In . SVG Version: 6.00 Build 0)  -->
<svg version="1.1" id="Calque_1" xmlns="http://www.w3.org/2000/svg" xmlns:xlink="http://www.w3.org/1999/xlink" x="0px" y="0px"
	 viewBox="0 0 500 500" enable-background="new 0 0 500 500" xml:space="preserve">
<g>
	<path fill="#AFA70E" d="M44.4,171.1h32.4l0,110.9c0,31.5-16.6,47.3-49.7,47.3H16.5v-31h10.6c11.5,0,17.3-5.4,17.3-16.3L44.4,171.1z
		"/>
	<path fill="#AFA70E" d="M99.1,171.1h55.2c40.6,0,60.8,17.5,60.8,52.6c0,35.1-20.3,52.7-60.8,52.7h-22.9v53H99.1L99.1,171.1z
		 M131.5,202.1v43.2h22.9c19,0,28.5-7.2,28.5-21.7c0-14.4-9.5-21.5-28.5-21.5H131.5z"/>
	<path fill="#AFA70E" d="M237.5,171.1h99.3l0,31h-67v32.6h61.4v31h-61.4v32.6h67v31h-99.3L237.5,171.1z"/>
	<path fill="#AFA70E" d="M420.6,240h60.3v77.8l-1.9,3c-14.2,5.7-32,8.5-53.4,8.5c-44.3,0-66.4-26.4-66.4-79.1
		c0-52.8,22.1-79.1,66.4-79.1c17.8,0,34.8,3.3,51.1,9.8L466,208.3c-12.1-4.2-25.6-6.3-40.4-6.3c-22.7,0-34,16-34,48.1
		s11.3,48.1,34,48.1c10.6,0,18.3-0.5,22.9-1.5V271h-27.9V240z"/>
</g>
</svg>
