<?xml version="1.0" encoding="utf-8"?>
<!-- Generator: Adobe Illustrator 19.1.0, SVG Export Plug-In . SVG Version: 6.00 Build 0)  -->
<svg version="1.1" id="Calque_1" xmlns="http://www.w3.org/2000/svg" xmlns:xlink="http://www.w3.org/1999/xlink" x="0px" y="0px"
	 viewBox="0 0 500 500" enable-background="new 0 0 500 500" xml:space="preserve">
<path fill="#AFA70E" d="M478,65.5c0,31.8-25.7,57.5-57.5,57.5h-346C42.7,123,17,97.3,17,65.5l0,0C17,33.7,42.7,8,74.5,8h346
	C452.3,8,478,33.7,478,65.5L478,65.5z"/>
<path fill="#AFA70E" d="M478,249.5c0,31.8-25.7,57.5-57.5,57.5h-346C42.7,307,17,281.3,17,249.5l0,0c0-31.8,25.7-57.5,57.5-57.5h346
	C452.3,192,478,217.7,478,249.5L478,249.5z"/>
<path fill="#AFA70E" d="M478,433.5c0,31.8-25.7,57.5-57.5,57.5h-346C42.7,491,17,465.3,17,433.5l0,0c0-31.8,25.7-57.5,57.5-57.5h346
	C452.3,376,478,401.7,478,433.5L478,433.5z"/>
</svg>
