<?xml version="1.0" encoding="utf-8"?>
<!-- Generator: Adobe Illustrator 19.1.0, SVG Export Plug-In . SVG Version: 6.00 Build 0)  -->
<svg version="1.1" id="Calque_1" xmlns="http://www.w3.org/2000/svg" xmlns:xlink="http://www.w3.org/1999/xlink" x="0px" y="0px"
	 viewBox="0 0 500 500" enable-background="new 0 0 500 500" xml:space="preserve">
<g>
	<path fill="#AFA70E" d="M129.9,57.8l82.8,0L337,441.5l-85.2,0l-23.3-77.1l-113.9,0l-23.3,77.1H6L129.9,57.8z M171.3,176L137,289.1
		l68.7,0L171.3,176z"/>
</g>
<path fill="#0C6D95" d="M337.7,137.5c-0.2,33.5,20.3,62.3,49.5,74.3l-0.5,96.1l-32.1-0.2l-0.2,46.3l32.9,0.2
	c2.9,12.3,13.9,21.4,27.1,21.5l1,0c15.5,0.1,28-12.4,28.1-27.8l0.6-134.4c31-10.9,53.4-40.3,53.5-75.1c0.2-44.2-35.4-80.2-79.6-80.4
	S337.9,93.4,337.7,137.5z M445.9,109.6c-0.1,15.5-12.7,28-28.2,28c-15.5-0.1-28.1-12.7-28-28.2s12.7-28,28.2-28
	C433.5,81.4,446,94,445.9,109.6z"/>
</svg>
