<?xml version="1.0" encoding="utf-8"?>
<!-- Generator: Adobe Illustrator 19.1.0, SVG Export Plug-In . SVG Version: 6.00 Build 0)  -->
<svg version="1.1" id="Calque_1" xmlns="http://www.w3.org/2000/svg" xmlns:xlink="http://www.w3.org/1999/xlink" x="0px" y="0px"
	 viewBox="0 0 500 500" enable-background="new 0 0 500 500" xml:space="preserve">
<path fill="#AFA70E" d="M8,9v479h483V9H8z M455,447H49V50h406V447z"/>
<path fill="#AFA70E" d="M128.4,142.6c0,0,30.7-0.8,55.9-0.8c25.5,0,43.7,6,55.9,16.5c11.7,10,19.5,27,19.5,46.3s-6,35.2-16.8,46.3
	c-14.1,14.4-30.6,22.9-58.6,24c-7.8,0.3-14.9,0.4-14.9,0.4v62.9h-41L128.4,142.6L128.4,142.6z M169.3,240.5
	c4.5,0.4,7.2,0.2,13.8,0.1c22-0.3,35.6-13.6,35.6-33.9c0-18.2-11.2-33.1-32.3-33.9c-8.4-0.3-17.1,0-17.1,0V240.5z"/>
<g>
	<path fill="#AFA70E" d="M275.4,294.4c8.3,5.1,27.8,12.7,41,12.7c13.6,0,19.2-4.8,19.2-12.2c0-7.5-4.4-15.3-21.3-21
		c-29.8-10.2-41.3-22.3-41-39.3c0-27.5,23-48.1,58.7-48.1c16.8,0,30.3,5.5,39.1,10v33c-6.5-3.6-25.2-11.6-37.6-11.6
		c-10.9,0-17.1,4.5-17.1,11.9c0,6.9,5.6,10.5,23.3,16.7c27.4,9.6,39,23.6,39.3,45.1c0,27.2-20.9,48.8-62.6,47.5
		c-14.3-0.4-30.1-6.1-41-12.1L275.4,294.4L275.4,294.4z"/>
</g>
</svg>
