<?xml version="1.0" encoding="utf-8"?>
<!-- Generator: Adobe Illustrator 19.1.0, SVG Export Plug-In . SVG Version: 6.00 Build 0)  -->
<svg version="1.1" id="Calque_1" xmlns="http://www.w3.org/2000/svg" xmlns:xlink="http://www.w3.org/1999/xlink" x="0px" y="0px"
	 viewBox="0 0 500 500" enable-background="new 0 0 500 500" xml:space="preserve">
<g>
	<path fill="#AFA70E" d="M15.1,164.2h69.5c35.8,0,53.8,17.1,53.8,51.2c0,18.6-9.7,30-29.2,34.3c21.1,3.6,31.7,15.1,31.7,34.6
		c0,34.2-17.9,51.2-53.8,51.2H15.1L15.1,164.2z M50.1,197.8V233h34.4c12.5,0,18.7-5.8,18.7-17.4c0-11.9-6.2-17.9-18.7-17.9H50.1z
		 M50.1,266.6v35.3H87c12.5,0,18.7-5.8,18.7-17.4c0-11.9-6.2-17.9-18.7-17.9H50.1z"/>
	<path fill="#AFA70E" d="M164.9,164.2h54l30,115.6l30-115.6h54l0,171.3h-35V223.4l-30.6,112.1h-36.7l-30.6-112.1v112.1h-35
		L164.9,164.2z"/>
	<path fill="#AFA70E" d="M357,164.2h59.8c43.9,0,65.9,19,65.8,56.9c0,38-22,57-65.9,57H392v57.4h-35L357,164.2z M392,197.8v46.8
		h24.8c20.5,0,30.8-7.8,30.8-23.4c0-15.5-10.3-23.3-30.8-23.3H392z"/>
</g>
</svg>
