<?xml version="1.0" encoding="utf-8"?>
<!-- Generator: Adobe Illustrator 19.1.0, SVG Export Plug-In . SVG Version: 6.00 Build 0)  -->
<svg version="1.1" id="Calque_1" xmlns="http://www.w3.org/2000/svg" xmlns:xlink="http://www.w3.org/1999/xlink" x="0px" y="0px"
	 viewBox="0 0 500 500" enable-background="new 0 0 500 500" xml:space="preserve">
<path fill="#0C6D95" d="M415,231v146H204V231H415 M431.4,158H189.3c-31.8,0-58.3,22.2-58.3,54.1v176.8c0,31.8,26.4,61.1,58.3,61.1
	h242.1c31.8,0,56.6-29.3,56.6-61.1V212.1C488,180.2,463.3,158,431.4,158L431.4,158z"/>
<path fill="#AFA70E" d="M292,123v146H81V123H292 M308.4,50H66.3C34.5,50,8,72.6,8,104.4v176.8C8,313.1,34.5,342,66.3,342h242.1
	c31.8,0,56.6-28.9,56.6-60.8V104.4c0-31.8-24.9-54.4-56.8-54.4H308.4z"/>
</svg>
