<?xml version="1.0" encoding="utf-8"?>
<!-- Generator: Adobe Illustrator 19.1.0, SVG Export Plug-In . SVG Version: 6.00 Build 0)  -->
<svg version="1.1" id="Calque_1" xmlns="http://www.w3.org/2000/svg" xmlns:xlink="http://www.w3.org/1999/xlink" x="0px" y="0px"
	 viewBox="0 0 500 500" enable-background="new 0 0 500 500" xml:space="preserve">
<path fill="#AFA70E" d="M495,410l-33.9-36.9c20.5-35.8,33.7-77.4,33.7-121.6C494.8,116,385.8,6.2,250.3,6.2
	C114.9,6.2,5.4,116,5.4,251.5c0,135.5,110,245.3,245.5,245.3c49.2,0,95-14.5,133.4-39.4l31.7,34.6l79.1-0.1V410z M107.7,247.3
	c0-80.5,65.3-145.8,145.8-145.8c25.9,0,50.2,6.8,71.3,18.6l-102,102c-12.8,12.8-11.4,34.9,3.1,49.3c14.5,14.5,36.6,15.8,49.3,3.1
	l102.9-102.9c13.4,22.1,21.1,48,21.1,75.7c0,80.5-65.3,145.8-145.8,145.8C172.9,393,107.7,327.8,107.7,247.3z"/>
</svg>
