<?xml version="1.0" encoding="utf-8"?>
<!-- Generator: Adobe Illustrator 19.1.0, SVG Export Plug-In . SVG Version: 6.00 Build 0)  -->
<svg version="1.1" id="Calque_1" xmlns="http://www.w3.org/2000/svg" xmlns:xlink="http://www.w3.org/1999/xlink" x="0px" y="0px"
	 viewBox="0 0 500 500" enable-background="new 0 0 500 500" xml:space="preserve">
<path fill="#AFA70E" d="M417.5,122.8c3.6,0,6.5,2.7,6.5,6.4v239.9c0,3.6-3.1,5.9-6.7,5.9H88.8c-3.6,0-7.8-2.3-7.8-5.9V129.2
	c0-3.6,4.1-6.2,7.8-6.2H416 M417.3,51H88.8C45.6,51,9,86,9,129.2v239.9C9,412.3,45.6,447,88.8,447h328.5c43.2,0,77.7-34.7,77.7-77.9
	V129.2C495,86,460.4,51,417.3,51L417.3,51z"/>
<rect x="130" y="213" fill="#0C6D95" width="245" height="72"/>
</svg>
