<?xml version="1.0" encoding="utf-8"?>
<!-- Generator: Adobe Illustrator 19.1.0, SVG Export Plug-In . SVG Version: 6.00 Build 0)  -->
<svg version="1.1" id="Calque_1" xmlns="http://www.w3.org/2000/svg" xmlns:xlink="http://www.w3.org/1999/xlink" x="0px" y="0px"
	 viewBox="0 0 500 500" enable-background="new 0 0 500 500" xml:space="preserve">
<g>
	<rect x="312" y="181" fill="#AFA70E" width="44" height="160"/>
	<path fill="#AFA70E" d="M178.4,289H236l15.6,52h43.6l-63.3-208H178v20.3L123.4,341h39.4L178.4,289z M206.9,172.5l21.3,82.5h-42.5
		L206.9,172.5z"/>
	<path fill="#AFA70E" d="M335.3,163.7c12.1,0,22-9.8,22-21.8c0-12-9.9-21.8-22-21.8c-12.1,0-22,9.8-22,21.8
		C313.3,154,323.1,163.7,335.3,163.7z"/>
	<path fill="#AFA70E" d="M9,12v472h481V12H9z M455,445H48V51h407V445z"/>
</g>
</svg>
