<?xml version="1.0" encoding="utf-8"?>
<!-- Generator: Adobe Illustrator 19.1.0, SVG Export Plug-In . SVG Version: 6.00 Build 0)  -->
<svg version="1.1" id="Calque_1" xmlns="http://www.w3.org/2000/svg" xmlns:xlink="http://www.w3.org/1999/xlink" x="0px" y="0px"
	 viewBox="0 0 500 500" enable-background="new 0 0 500 500" xml:space="preserve">
<g>
	<path fill="#AFA70E" d="M13.4,155.9H79c48.2,0,72.2,20.8,72.2,62.4c0,41.7-24.1,62.6-72.2,62.6H51.8l0,63H13.4L13.4,155.9z
		 M51.8,192.7V244H79c22.5,0,33.8-8.6,33.8-25.7c0-17.1-11.3-25.6-33.8-25.6H51.8z"/>
	<path fill="#AFA70E" d="M177.8,155.9h35.9l63.5,108.5V155.9h38.4l0,187.9h-35.9l-63.5-108.5l0,108.5h-38.4L177.8,155.9z"/>
	<path fill="#AFA70E" d="M415,237.8h71.6l0,92.4l-2.3,3.6c-16.9,6.7-38,10.1-63.4,10.1c-52.6,0-78.9-31.3-78.9-94
		c0-62.6,26.3-94,78.9-94c21.1,0,41.4,3.9,60.7,11.7l-12.7,32.6c-14.4-4.9-30.4-7.4-48-7.4c-27,0-40.4,19-40.4,57.1
		s13.5,57.1,40.4,57.1c12.6,0,21.7-0.6,27.2-1.7v-30.8H415V237.8z"/>
</g>
</svg>
