<?xml version="1.0" encoding="utf-8"?>
<!-- Generator: Adobe Illustrator 14.0.0, SVG Export Plug-In . SVG Version: 6.00 Build 43363)  -->
<!DOCTYPE svg PUBLIC "-//W3C//DTD SVG 1.1//EN" "http://www.w3.org/Graphics/SVG/1.1/DTD/svg11.dtd">
<svg version="1.1" id="Capa_1" xmlns="http://www.w3.org/2000/svg" xmlns:xlink="http://www.w3.org/1999/xlink" x="0px" y="0px"
	 width="595.28px" height="148.039px" viewBox="0 0 595.28 148.039" enable-background="new 0 0 595.28 148.039"
	 xml:space="preserve">
<path fill="#F7AE00" d="M147.921,46.641c-2.014-0.332-4.066-0.503-6.139-0.503c-0.165,0-0.331,0.003-0.495,0.006
	c1.337,0.018,2.685,0.084,4.035,0.203C146.203,46.424,147.068,46.523,147.921,46.641z"/>
<path fill="#F7AE00" d="M177.372,126.276v-22.878c-0.038,8.868-0.271,22.878-0.271,22.878H177.372z"/>
<path fill="#F7AE00" d="M177.372,79.688c0-0.447-0.013-0.893-0.032-1.338c0.013,0.663,0.023,1.328,0.032,1.997V79.688z"/>
<path fill="#F7AE00" d="M56.725,84.316c0-1.782-0.034-3.584-0.052-5.356c-0.006,0.242-0.009,0.485-0.009,0.728v46.588h0.061
	C56.725,126.276,56.725,97.973,56.725,84.316z"/>
<path fill="#F7AE00" d="M222.569,45.646c-23.164,0-41.942,18.067-41.942,40.354c0,22.285,18.778,40.352,41.942,40.352
	c23.163,0,41.941-18.066,41.941-40.352C264.51,63.713,245.732,45.646,222.569,45.646z M222.525,109.158
	c-9.918,0-17.958-9.872-17.958-22.051c0-12.178,8.04-22.051,17.958-22.051c9.917,0,17.958,9.873,17.958,22.051
	C240.482,99.286,232.442,109.158,222.525,109.158z"/>
<path fill="#F7AE00" d="M309.924,45.646c-23.162,0-41.94,18.067-41.94,40.354c0,22.285,18.778,40.352,41.94,40.352
	c23.164,0,41.942-18.066,41.942-40.352C351.866,63.713,333.088,45.646,309.924,45.646z M309.881,109.158
	c-9.918,0-17.959-9.872-17.959-22.051c0-12.178,8.041-22.051,17.959-22.051c9.917,0,17.957,9.873,17.957,22.051
	C327.838,99.286,319.798,109.158,309.881,109.158z"/>
<path fill="#F7AE00" d="M417.439,5.763v49.728c-6.55-6.134-15.094-9.845-24.44-9.845c-20.621,0-37.34,18.067-37.34,40.354
	c0,22.285,16.719,40.352,37.34,40.352c9.347,0,17.891-3.711,24.44-9.843v9.96h25.737V5.763H417.439z M398.882,109.158
	c-10.648,0-19.282-9.872-19.282-22.051c0-12.178,8.634-22.051,19.282-22.051s19.282,9.873,19.282,22.051
	C418.164,99.286,409.53,109.158,398.882,109.158z"/>
<rect x="453.759" y="5.763" fill="#F7AE00" width="23.248" height="120.376"/>
<path fill="#F7AE00" d="M568.792,94.36c0.613-2.698,0.939-5.494,0.939-8.36c0-22.287-19.515-40.354-43.588-40.354
	S482.557,63.713,482.557,86c0,22.285,19.514,40.352,43.587,40.352c17.633,0,32.819-9.694,39.683-23.637h-23.141
	c-3.612,5.893-9.221,9.678-15.521,9.678c-8.928,0-16.468-7.602-18.902-18.032h37.804H568.792z M527.165,61.799
	c8.92,0,16.455,7.59,18.896,18.007h-37.793C510.71,69.389,518.245,61.799,527.165,61.799z"/>
<path fill="none" d="M83.751,69.498c3.713,3.873,4.971,7.006,4.971,7.006c-0.445-3.629-0.026-7.257,0.945-10.762
	C87.343,66.404,85.301,67.727,83.751,69.498z"/>
<path fill="none" d="M109.084,37.221l-13.303,9.085c1.406,0.132,2.791,0.368,4.161,0.654
	C104.675,41.028,109.084,37.221,109.084,37.221z"/>
<path fill="#F7AE00" d="M62.497,61.317c-3.626,5.222-5.678,11.322-5.824,17.643c0.018,1.772,0.052,3.575,0.052,5.356
	c0,13.656,0,41.96,0,41.96h23.956V77.642c0-1.802,0.394-3.509,1.086-5.054C78.471,68.941,72.554,64.236,62.497,61.317z"/>
<path fill="#F7AE00" d="M177.34,78.35c-0.355-8.411-4.054-16.41-10.393-22.386c-5.209-4.91-11.866-8.141-19.026-9.323
	c-0.853-0.118-1.718-0.217-2.599-0.294c-1.35-0.118-2.698-0.185-4.035-0.203c-9.073,0.119-17.754,3.5-24.27,9.452
	c-3.805-3.476-8.362-6.041-13.291-7.626c-3.82,4.583-8.056,10.72-10.198,17.312c6.623,0.246,11.919,5.677,11.919,12.36v48.635h0.746
	h21.648h0.367V77.642c0-6.839,5.543-12.383,12.383-12.383s12.383,5.544,12.383,12.383v48.635h24.126c0,0,0.233-14.01,0.271-22.878
	V80.347C177.363,79.678,177.353,79.013,177.34,78.35z"/>
<g>
	<path fill="#0058A4" d="M39.468,60.375c-0.95,0-1.72,0.771-1.72,1.72v28.374c0,0.95,0.77,1.72,1.72,1.72
		c0.95,0,1.719-0.77,1.719-1.72V62.095C41.188,61.145,40.418,60.375,39.468,60.375z"/>
	<circle fill="#0058A4" cx="39.422" cy="56.491" r="2"/>
	<path fill="#0058A4" d="M67.933,55.242H47.939c6.601,0.448,12.175,1.567,16.894,3.063c4.667,1.479,8.482,3.328,11.586,5.279
		c0.015,0.01,0.031,0.019,0.045,0.028c0.758,0.478,1.472,0.961,2.147,1.448c0.034,0.024,0.066,0.049,0.1,0.074
		c0.645,0.466,1.251,0.936,1.822,1.402c0.024,0.02,0.052,0.041,0.076,0.06c0.555,0.456,1.069,0.909,1.557,1.358
		c0.09,0.082,0.177,0.165,0.265,0.247c0.467,0.438,0.914,0.874,1.321,1.298c3.713,3.873,4.971,7.006,4.971,7.006
		c-0.445-3.629-0.026-7.257,0.945-10.762c0.232-0.838,0.501-1.667,0.793-2.489c0.043-0.12,0.087-0.24,0.131-0.359
		c0.591-1.62,1.287-3.204,2.059-4.74c0.059-0.116,0.118-0.231,0.178-0.346c0.78-1.524,1.63-3,2.521-4.413
		c0.072-0.114,0.144-0.227,0.217-0.34c0.438-0.685,0.883-1.359,1.335-2.013c0.004-0.005,0.008-0.012,0.012-0.017
		c0.466-0.673,0.937-1.324,1.41-1.959c0.079-0.107,0.158-0.212,0.238-0.318c0.461-0.613,0.922-1.213,1.38-1.787
		c4.733-5.933,9.142-9.739,9.142-9.739L82.696,55.242H67.933z"/>
	<path fill="#0058A4" d="M83.769,50.178l5.728-3.912c-0.052,0.003-0.104,0.012-0.156,0.016l28.099-19.643H69.341L29.993,52.248
		h50.815L83.769,50.178z"/>
</g>
</svg>
