<svg id="Calque_1" data-name="Calque 1" xmlns="http://www.w3.org/2000/svg" viewBox="0 0 595.28 131.51"><defs><style>.cls-1{fill:#c8bebe;}.cls-2{fill:#0f6e96;}.cls-3{fill:#fff;}.cls-4{fill:#afa715;}.cls-5{fill:#c94b24;}.cls-6{fill:#d29f3a;}</style></defs><title>3_1_illustrations</title><polygon class="cls-1" points="87.59 34.2 71.25 17.58 70.28 17.58 70.28 34.97 87.59 34.97 87.59 34.2"/><path class="cls-1" d="M64.84,40.41V17.58H40.49V74.72h47.1V40.41H64.84Zm14.41,28H48.82V60.27H79.25v8.16Zm0-13.61H48.82V46.67H79.25v8.16Z"/><g id="g3103"><path id="path6" class="cls-2" d="M181.08,18.24H185v5.19c6.95,0,13.88-.07,20.82,0A2.19,2.19,0,0,1,208.29,26c0.11,12.79,0,25.58.06,38.37-0.06,1.31.08,3.23-.63,3.93s-3.28.63-3.28,0.63H185v5.18h-4.06c-9.88-1.8-19.78-3.46-29.68-5.19q0-22.71,0-45.42C161.18,21.71,171.13,20,181.08,18.24Z"/><path id="path46" class="cls-3" d="M185,25.38h21.42V66.92H185V61.73h16.88v-2.6H185V55.89h16.88v-2.6H185V50h16.88v-2.6H185V44.2h16.88v-2.6H185V38.36h16.88v-2.6H185V32.52h16.88v-2.6H185V25.38Z"/><path id="path88" class="cls-3" d="M164.64,36.85l3.7-.19c0.86,4.38,1.75,8.76,2.68,13.12,0.73-4.5,1.54-9,2.33-13.49,1.3,0,2.6-.12,3.89-0.19-1.47,6.29-4.35,19.29-4.35,19.29l-4-.35s-1.87-8.57-2.64-12.88c-0.76,4.19-2.62,12.51-2.62,12.51l-3.75-.23s-2.34-11.38-3.35-17.11l3.34-.14c0.67,4.13,1.43,8.25,2,12.39C162.79,45.34,163.73,41.09,164.64,36.85Z"/></g><g id="g2977"><path id="path2979" class="cls-4" d="M305.8,17.59a1.37,1.37,0,0,0-1,2.34l11.71,11.9a1.37,1.37,0,0,0,2.35-1V19a1.42,1.42,0,0,0-1.37-1.37H305.8Z"/><path id="path2981" class="cls-4" d="M273.6,17.59A1.4,1.4,0,0,0,272.23,19V73.3a1.4,1.4,0,0,0,1.37,1.41h43.87a1.4,1.4,0,0,0,1.39-1.4h0v-35a1.41,1.41,0,0,0-.4-1L299.48,18a1.38,1.38,0,0,0-1-.43H273.6ZM275,20.4h22.92l18.17,18.5v33H275V20.4Z"/></g><path class="cls-5" d="M439.86,55.08a2.75,2.75,0,0,0-.79-1.8c-1.06-1-3.67-1.57-7.23-1.62a63.13,63.13,0,0,0-9.39.71,25,25,0,0,1-4.63-3.18,32.05,32.05,0,0,1-8-12.5c0.12-.47.24-0.93,0.34-1.4,0.49-2.21.84-9.5,0.84-9.5s-1.4,5.48-1.62,6.31c-0.14.52-.32,1.08-0.52,1.67a39.19,39.19,0,0,1-1.62-10.18,22,22,0,0,1,.29-3.5,2,2,0,0,1,.74-1.52c0.64,0.15,1.35,1.13,2.1,2.77a9.84,9.84,0,0,1,.6,4.07,14.35,14.35,0,0,0,.53-4c-0.1-.89-0.95-3.19-2.75-3.16h-1A2.82,2.82,0,0,0,405,19.94c-1.11,4.08.13,10.39,2.2,18.26l-0.63,1.52c-1.58,3.86-3.56,7.7-5.3,11.11-7.18,14-12.76,21.63-16.49,22.16l0-.15c-0.08-1.75,3.16-6.27,7.54-9.86,0.46-.37,2.41-2.26,2.41-2.26s-2.63,1.39-3.22,1.75c-5.49,3.28-8.23,6.56-8.67,8.74a1.63,1.63,0,0,0,.53,1.77l1.41,0.71c3.82,1.91,8.52-3.12,14.77-14.07A136.74,136.74,0,0,1,421,54.49c6.47,3.7,13.89,5.45,16.74,4.69a2.85,2.85,0,0,0,1.41-1,10.14,10.14,0,0,0,.55-1.81,3.8,3.8,0,0,1-1,.95c-1.8.85-7.5-.57-13.34-3.43,5.05-.54,9.26-0.56,11.51.16,2.86,0.91,2.86,1.85,2.82,2A5.44,5.44,0,0,0,439.86,55.08Zm-39.8,3.18c1.08-1.92,2.25-4,3.45-6.27a87.12,87.12,0,0,0,4.91-11,31.84,31.84,0,0,0,7.82,10.18c0.75,0.64,1.55,1.24,2.38,1.81A91.75,91.75,0,0,0,400.06,58.26Z"/><path class="cls-6" d="M498.48,43.12l19-8.57v6.5l-10.54,5.1,10.54,5.1v6.5l-19-8.57V43.12Z"/><path class="cls-6" d="M529.62,27h6.23L524.67,65.32H518.4Z"/><path class="cls-6" d="M536.64,34.55l19,8.57v6.06l-19,8.57v-6.5l10.54-5.1-10.54-5.1v-6.5Z"/><path class="cls-2" d="M55.09,88.4l2.55-.6v3h2.64v2.44H57.64v3.79q0,1.28.92,1.28A4.47,4.47,0,0,0,60,98l0.64,2.18a3.73,3.73,0,0,1-2.13.65q-3.47,0-3.47-3.73V93.27H53.77V90.83h1.32V88.4Z"/><path class="cls-2" d="M62,90.83H65l1.71,3.08,1.7-3.08H71.3l-2.85,5,2.85,5H68.38l-1.7-3.08L65,100.78H62l2.87-5Z"/><path class="cls-2" d="M74.38,88.4l2.55-.6v3h2.64v2.44H76.93v3.79q0,1.28.92,1.28A4.47,4.47,0,0,0,79.34,98L80,100.13a3.73,3.73,0,0,1-2.13.65q-3.47,0-3.47-3.73V93.27H73.06V90.83h1.32V88.4Z"/><path class="cls-2" d="M171.62,88.4l2.55-.6v12.36a8.68,8.68,0,0,1-3.91.62q-3.91,0-3.91-4.15V95q0-4.14,3.91-4.14a5.55,5.55,0,0,1,1.36.12V88.4Zm0,5L171,93.3l-0.76,0q-1.36,0-1.36,1.7v1.67q0,1.71,1.36,1.71l0.76,0,0.61-.07V93.37Z"/><path class="cls-2" d="M175.93,95.39q0-4.56,4.35-4.56t4.35,4.56v0.83q0,4.56-4.35,4.56t-4.35-4.56V95.39Zm2.55,0.83q0,2.12,1.8,2.12t1.8-2.12V95.39q0-2.12-1.8-2.12t-1.8,2.12v0.83Z"/><path class="cls-2" d="M186.39,95.39q0-4.56,4.35-4.56a7.27,7.27,0,0,1,3.1.6l-0.64,2.3a6.88,6.88,0,0,0-2.46-.46q-1.8,0-1.8,2.12v0.83q0,2.12,1.8,2.12a6.88,6.88,0,0,0,2.46-.46l0.64,2.3a7.27,7.27,0,0,1-3.1.6q-4.35,0-4.35-4.56V95.39Z"/><path class="cls-2" d="M166.12,110l2.55-.6v12.36a8.68,8.68,0,0,1-3.91.62q-3.91,0-3.91-4.15v-1.67q0-4.14,3.91-4.14a5.55,5.55,0,0,1,1.36.12V110Zm0,5-0.61-.07-0.76,0q-1.36,0-1.36,1.7v1.67q0,1.71,1.36,1.71l0.76,0,0.61-.07V115Z"/><path class="cls-2" d="M170.42,117q0-4.56,4.35-4.56t4.35,4.56v0.83q0,4.56-4.35,4.56t-4.35-4.56V117Zm2.55,0.83q0,2.12,1.8,2.12t1.8-2.12V117q0-2.12-1.8-2.12T173,117v0.83Z"/><path class="cls-2" d="M180.88,117q0-4.56,4.35-4.56a7.27,7.27,0,0,1,3.1.6l-0.64,2.3a6.88,6.88,0,0,0-2.46-.46q-1.8,0-1.8,2.12v0.83q0,2.12,1.8,2.12a6.88,6.88,0,0,0,2.46-.46l0.64,2.3a7.27,7.27,0,0,1-3.1.6q-4.35,0-4.35-4.56V117Z"/><path class="cls-2" d="M189.67,112.43h2.93l1.71,3.08,1.7-3.08h2.93l-2.85,5,2.85,5H196l-1.7-3.08-1.71,3.08h-2.93l2.87-5Z"/><path class="cls-2" d="M281.36,95.39q0-4.56,4.35-4.56t4.35,4.56v0.83q0,4.56-4.35,4.56t-4.35-4.56V95.39Zm2.55,0.83q0,2.12,1.8,2.12t1.8-2.12V95.39q0-2.12-1.8-2.12t-1.8,2.12v0.83Z"/><path class="cls-2" d="M297.09,88.4l2.55-.6v12.36a8.68,8.68,0,0,1-3.91.62q-3.91,0-3.91-4.15V95q0-4.14,3.91-4.14a5.55,5.55,0,0,1,1.36.12V88.4Zm0,5-0.61-.07-0.76,0q-1.36,0-1.36,1.7v1.67q0,1.71,1.36,1.71l0.76,0,0.61-.07V93.37Z"/><path class="cls-2" d="M302.72,88.4l2.55-.6v3h2.64v2.44h-2.64v3.79q0,1.28.92,1.28a4.47,4.47,0,0,0,1.49-.39l0.64,2.18a3.73,3.73,0,0,1-2.13.65q-3.47,0-3.47-3.73V93.27H301.4V90.83h1.32V88.4Z"/><path class="cls-2" d="M396.46,91.44a8.79,8.79,0,0,1,3.91-.62q3.91,0,3.91,4.14v1.67q0,4.15-3.91,4.15a5.55,5.55,0,0,1-1.36-.12v3.43l-2.55.6V91.44ZM401.74,95q0-1.7-1.36-1.7l-0.76,0-0.61.07v4.88l0.61,0.07,0.76,0q1.36,0,1.36-1.71V95Z"/><path class="cls-2" d="M411.32,88.4l2.55-.6v12.36a8.68,8.68,0,0,1-3.91.62q-3.91,0-3.91-4.15V95q0-4.14,3.91-4.14a5.55,5.55,0,0,1,1.36.12V88.4Zm0,5-0.61-.07-0.76,0q-1.36,0-1.36,1.7v1.67q0,1.71,1.36,1.71l0.76,0,0.61-.07V93.37Z"/><path class="cls-2" d="M415.62,91.25h1.32q0-3.34,3.47-3.34a4.69,4.69,0,0,1,2.13.47l-0.64,2.18a7.66,7.66,0,0,0-1.49-.21,0.81,0.81,0,0,0-.92.91h2.64v2.43h-2.64v7.1h-2.55v-7.1h-1.32V91.25Z"/><path class="cls-2" d="M509.93,88.44l2.55-.6V91a5.55,5.55,0,0,1,1.36-.12q3.91,0,3.91,4.14v5.77h-2.55V95q0-1.71-1.36-1.71l-0.76,0-0.61.07v7.38h-2.55V88.44Z"/><path class="cls-2" d="M520.83,88.4l2.55-.6v3H526v2.44h-2.64v3.79q0,1.28.92,1.28a4.47,4.47,0,0,0,1.49-.39l0.64,2.18a3.73,3.73,0,0,1-2.13.65q-3.47,0-3.47-3.73V93.27h-1.32V90.83h1.32V88.4Z"/><path class="cls-2" d="M527.79,91.39a9.68,9.68,0,0,1,3.91-.56,3.35,3.35,0,0,1,2.07.51,5.52,5.52,0,0,1,2.76-.51q3.47,0,3.47,3.73v6.23h-2.55V94.55q0-1.28-.92-1.28a3,3,0,0,0-1.36.27v7.24h-2.55V94.55q0-1.28-.92-1.28l-0.76,0-0.61.07v7.42h-2.55v-9.4Z"/><path class="cls-2" d="M541.77,88.4l2.55-.6v13h-2.55V88.4Z"/></svg>