<svg id="Calque_1" data-name="Calque 1" xmlns="http://www.w3.org/2000/svg" viewBox="0 0 370.98 400.9"><defs><style>.cls-1,.cls-7{fill:none;}.cls-1{stroke:#0f6e96;stroke-width:8px;}.cls-2{fill:#0f6e96;}.cls-3{fill:#afa715;}.cls-4{fill:#afa714;}.cls-5{fill:#968a1b;}.cls-6{fill:#106e96;}.cls-10,.cls-8,.cls-9{fill:#115661;}.cls-8{opacity:0.41;}.cls-9{opacity:0.46;}.cls-10{opacity:0.63;}.cls-11{fill:#c94b24;}.cls-12{fill:#c8bebe;}</style></defs><title>3_2_HTML</title><line class="cls-1" x1="191.28" y1="132.12" x2="191.2" y2="174.04"/><polygon class="cls-2" points="179.24 170.52 191.16 191.27 203.17 170.57 179.24 170.52"/><line class="cls-1" x1="142.05" y1="132.12" x2="120.79" y2="168.25"/><polygon class="cls-2" points="112.25 159.17 112.05 183.1 132.88 171.31 112.25 159.17"/><line class="cls-1" x1="240.72" y1="132.12" x2="261.98" y2="168.25"/><polygon class="cls-2" points="249.89 171.31 270.71 183.1 270.52 159.17 249.89 171.31"/><path class="cls-2" d="M143.28,63.83h7.39v2.31h-5v2.42h4.57v2.31h-4.57V75.6h-2.41V63.83Z"/><path class="cls-2" d="M152.33,62.62h2.41v2.7h-2.41v-2.7Zm0,3.57h2.41v9.4h-2.41v-9.4Z"/><path class="cls-2" d="M156.4,70.5q0-4.31,4.11-4.31a6.87,6.87,0,0,1,2.93.56l-0.61,2.17a6.5,6.5,0,0,0-2.32-.43q-1.7,0-1.7,2v0.79q0,2,1.7,2a6.5,6.5,0,0,0,2.32-.43L163.44,75a6.87,6.87,0,0,1-2.93.56q-4.11,0-4.11-4.31V70.5Z"/><path class="cls-2" d="M164.7,63.94l2.41-.56v3a5.24,5.24,0,0,1,1.29-.12q3.69,0,3.69,3.91V75.6h-2.41V70.14q0-1.61-1.29-1.61l-0.71,0-0.57.07v7H164.7V63.94Z"/><path class="cls-2" d="M173.75,62.62h2.41v2.7h-2.41v-2.7Zm0,3.57h2.41v9.4h-2.41v-9.4Z"/><path class="cls-2" d="M177.81,70.5q0-4.31,3.94-4.31,3.78,0,3.78,4.31,0,1.54-.79,1.54h-4.52a1.12,1.12,0,0,0,1.29,1.25,8.49,8.49,0,0,0,2.9-.47l0.46,2.13a7.1,7.1,0,0,1-3.35.65q-3.69,0-3.69-4.31V70.5Zm5.31-.68a1.19,1.19,0,0,0-1.37-1.32,1.27,1.27,0,0,0-1.54,1.32h2.91Z"/><path class="cls-2" d="M186.94,66.72a9.14,9.14,0,0,1,3.69-.53,8,8,0,0,1,1.49.17l-0.54,2.29a4.06,4.06,0,0,0-1-.16l-0.71,0-0.57.07v7h-2.41V66.72Z"/><path class="cls-2" d="M198.37,63.83h2.41v4.73h3.82V63.83H207V75.6H204.6V70.87h-3.82V75.6h-2.41V63.83Z"/><path class="cls-2" d="M208.67,63.83h8.22v2.31H214V75.6h-2.41V66.13h-2.91V63.83Z"/><path class="cls-2" d="M218.55,63.83h3.71l2.06,7.94,2.06-7.94h3.71V75.6h-2.41v-7.7l-2.1,7.7h-2.52l-2.1-7.7v7.7h-2.41V63.83Z"/><path class="cls-2" d="M231.74,63.83h2.41v9.46h5V75.6h-7.39V63.83Z"/><path class="cls-3" d="M163.69,34.34l18.18-8.21v6.23l-10.09,4.88,10.09,4.88v6.23l-18.18-8.21v-5.8Z"/><path class="cls-3" d="M193.51,18.87h6L188.77,55.6h-6Z"/><path class="cls-3" d="M200.23,26.12l18.18,8.21v5.8l-18.18,8.21V42.12l10.09-4.88-10.09-4.88V26.12Z"/><path class="cls-2" d="M160,281.64h1.85l3.27,5.6v-5.6h2v9.69h-1.85l-3.27-5.6v5.6h-2v-9.69Z"/><path class="cls-2" d="M168.93,284.14a7.24,7.24,0,0,1,2.6-.55q3,0,3,2.9v4.36a6.75,6.75,0,0,1-3,.49q-3,0-3-2.51t4.1-2.64q0-.7-1.06-0.7a6.78,6.78,0,0,0-2,.37Zm3.66,3.94q-2.12,0-2.12.74t1.06,0.61l0.59,0,0.47-.05v-1.27Z"/><path class="cls-2" d="M175.26,283.59h2.15l1.34,4.7,1.33-4.7h2.16l-2.45,7.75h-2.09Z"/><path class="cls-2" d="M182.78,280.65h2v2.22h-2v-2.22Zm0,2.94h2v7.75h-2v-7.75Z"/><path class="cls-2" d="M186.13,286.81q0-3.22,3-3.22a6.87,6.87,0,0,1,3,.48v7.29q0,2.93-3,2.93a9,9,0,0,1-2.76-.43l0.51-1.91a5.21,5.21,0,0,0,2.26.45,0.93,0.93,0,0,0,1.06-1V291a1.59,1.59,0,0,1-1.06.3q-3,0-3-3.23v-1.3Zm4.1-1.24-0.47-.05-0.59,0a1.07,1.07,0,0,0-1.06,1.32v1.3a1.07,1.07,0,0,0,1.06,1.33,1.78,1.78,0,0,0,1.06-.28v-3.59Z"/><path class="cls-2" d="M194,284.14a7.24,7.24,0,0,1,2.6-.55q3,0,3,2.9v4.36a6.75,6.75,0,0,1-3,.49q-3,0-3-2.51t4.1-2.64q0-.7-1.06-0.7a6.78,6.78,0,0,0-2,.37Zm3.66,3.94q-2.12,0-2.12.74t1.06,0.61l0.59,0,0.47-.05v-1.27Z"/><path class="cls-2" d="M202.06,281.7l2-.46v2.35h2.05v1.9H204v2.95q0,1,.72,1a3.48,3.48,0,0,0,1.16-.3l0.5,1.7a2.9,2.9,0,0,1-1.65.51q-2.7,0-2.7-2.9v-2.95h-1v-1.9h1V281.7Z"/><path class="cls-2" d="M207.47,287.13q0-3.55,3.25-3.55t3.11,3.55q0,1.27-.65,1.27h-3.73a0.92,0.92,0,0,0,1.06,1,7,7,0,0,0,2.39-.39l0.38,1.76a5.85,5.85,0,0,1-2.76.53q-3,0-3-3.55v-0.65Zm4.38-.56a1,1,0,0,0-1.13-1.09,1,1,0,0,0-1.26,1.09h2.39Z"/><path class="cls-2" d="M215,283.59h2v4.85a0.91,0.91,0,0,0,1.06,1l0.59,0,0.47-.05v-5.77h2v7.26a6.75,6.75,0,0,1-3,.49q-3,0-3-2.9v-4.85Z"/><path class="cls-2" d="M222.44,284a7.53,7.53,0,0,1,3-.44,6.6,6.6,0,0,1,1.23.14l-0.44,1.89a3.34,3.34,0,0,0-.79-0.13l-0.59,0-0.47.05v5.77h-2V284Z"/><circle class="cls-4" cx="191.39" cy="234.63" r="28.34"/><path class="cls-5" d="M163.63,230.65l-0.16.18a28.51,28.51,0,0,0-.26,3,1.6,1.6,0,0,1,.88.35c0.69,0.66,1.52-.5.85-0.82,0.07-.58.78-1.71-0.37-1.39-0.67.43-1-.6-0.37-0.86,0.3-.84,1.23-2,0.18-2.68a0.63,0.63,0,0,0-.34-0.55,28.2,28.2,0,0,0-.55,2.78h0.14Z"/><path class="cls-5" d="M189.64,221.43a12,12,0,0,1,2.32-.85c1.11-.28.23-1.6-0.56-1.37s-2-.11-2.74.46a1,1,0,0,0-1-.5c-0.63,0-1.45,1.11-.32.75,0.81-.15-0.4.66,0.32,0.82C187.29,221.47,189.08,221.28,189.64,221.43Z"/><path class="cls-5" d="M172.19,215.25c-0.33.89,1.62,0.13,1.28,1-0.46-.12-1.32-0.12-0.76.54,0.93,0.87-.89.64-1.22,1.22a2,2,0,0,0-.32,2.26,3.69,3.69,0,0,0,.81,2.86c0.68,0,1.44-.1,1.84.64,0.8,0.42,1.33-.62,1.84-1.08,0.16-.87,1.26-1,1.54-1.83s1.51-.79,2.19-1.22c0.86,0.36,2-.36,2.77-0.85,0.65-.76,1.43-0.62,2.32-0.75a14,14,0,0,0,3.59-1.13c0.7-.58-1.43-0.44-0.61-0.91,0.43,0.78,2,.63,1.46-0.46-0.27-.36-1.59-0.79-0.49-0.93a2.93,2.93,0,0,0,2.58-1.15c0.64-.41-0.58-1.31.5-1.2,0.76-.24-0.06-0.8-0.13-0.9a6.5,6.5,0,0,1,2-1.05c0.68-.4,2.1-0.14,2.3-1a20.4,20.4,0,0,0-3.47-.12c-0.56.21-.37-0.58-1-0.5a13.83,13.83,0,0,0-3.7-.34,16.09,16.09,0,0,1-3.18.21c-1.49-.09-2.92.44-4.41,0.41h-0.17a28.38,28.38,0,0,0-7.31,4.84A2,2,0,0,1,172.19,215.25Z"/><path class="cls-5" d="M217.24,246.74a11.47,11.47,0,0,1-1.92-.57,2.24,2.24,0,0,0-2.07-.44,1.2,1.2,0,0,0-.8,1.66c-0.87.66-1.59-.83-2.58-0.57-0.49-.48-0.84-1.38-1.76-1.16a2.73,2.73,0,0,1-2.25-.95,1.6,1.6,0,0,0,.3-1.75c0.57-.42,0-0.88-0.39-0.87-0.76-.16-1.59.26-2.43,0.09-0.73.42-1.47-.13-2.26,0.18s-1.84,0-2.47.67a3,3,0,0,1-2.52.64c-0.72.46-1.22-1.11-1.7-.05-0.3,1.21-1.57,1.55-2.3,2.43s-0.15,2-1.05,2.72c-0.56.86-2,.58-2,1.81-0.56.4-1.36,0.78-1.08,1.67a7,7,0,0,0-1.74,2.91c-0.09.65,0.75,1,.36,1.76a4.08,4.08,0,0,1-.41,3.06c-0.52.51-.29,1,0.1,1.45a1.24,1.24,0,0,0,0,1.2A28.37,28.37,0,0,0,217.24,246.74Z"/><path class="cls-5" d="M204.64,240.75c1.39,0.11.69-1.62,0.61-2.3,0.05-.22.34-1-0.11-0.93-0.82.12-.34,0.89-0.2,1.25C204.1,239,204.58,240.11,204.64,240.75Z"/><path class="cls-5" d="M193,229.69c-0.52.74,0.74,1.28,1.22,0.59a1.66,1.66,0,0,0,1.44-1.78c1-.46.16-1.6-0.7-1.6h-0.18c-0.62,0-.64,1.25-1.4,1C192.66,228.3,194,229.51,193,229.69Z"/><path class="cls-5" d="M197.83,225.26c0.24-.4-0.6-0.3-0.79-0.36a1.61,1.61,0,0,0-1.23,1.45c0.46,0.39-.19.93,0.38,1.25,0.37,0.52,1.1.14,1.23,0.81,0.65,0.92-1.51.55-.73,1.4-0.33.18-.77,0.61-0.08,0.7s0.55,0.13,0,.29-1.3,1.16-.26.89a7.41,7.41,0,0,1,2.63-.45c0.67,0,1.63-.33.84-0.85a0.59,0.59,0,0,0-.16-1.16,22.6,22.6,0,0,0-1.54-2.5c0.23-.36.76-0.79,0.09-1.13C197.77,225.63,197,225.66,197.83,225.26Z"/><path class="cls-5" d="M216.7,243.86a5.18,5.18,0,0,0-1.52-.32C214.7,244,216.48,244.12,216.7,243.86Z"/><path class="cls-5" d="M211.15,216.64c-1.07-.57-1.44.91-2.39,1.11-0.53.91-1.64,1.27-2,2.27a5.44,5.44,0,0,1-2.49,1.5c-0.68.59-2,.66-1.61,1.86,0.18,0.78.2,2,1.23,2.12,0.83,0.06,1.43-.84,2.13-0.92a6.23,6.23,0,0,0,1.12,1.72c0.43,0.91-1.57.46-.78,1.41-0.54.32,0.73,0.8-.14,0.55-1.29-.38-0.18-1.61-0.24-2.48a1.42,1.42,0,0,0-1.56,1.76c0.53,0.46.33,1.44-.47,1.12-0.74.52-1.89,0.4-2.14,1.48-0.48.51-1.36,0.56-1.63,1.22a1.52,1.52,0,0,1-2,.53c-0.4.29-.11,1.14-0.95,0.69s-1.84.6-.68,1a2,2,0,0,1,1.52,2.67c0,1.3-1.52.61-2.32,0.65-1,0-2-.41-2.79.36-0.16.83,0.12,1.81-.26,2.63a1.37,1.37,0,0,0-.06,1.68c-0.43,1.44,1.67.17,1.9,1.35,0.84,0.39,1.77-.32,2.68-0.24a2.68,2.68,0,0,0,1.55-1.95,2.25,2.25,0,0,1,1.68-1.82c1.06-.29.29-2.09,1.69-1.75,1.1,0.63,1.9-.44,2.87-0.68,0.83,0.38,1,1.44,1.83,1.88a19.84,19.84,0,0,1,2.44,1.55c0.84,0.91-.3,1.68-1.22,1.44-0.59-.27-1.19.38-0.43,0.61,0.5,0.18,1.59,1.16,1.58,0,0.14-.61,1.08-0.54,1.15-1.33-0.16-.43-0.26-1.31.45-0.81,0.87,0.49.48-.77-0.15-0.83-0.81-.4-1.48-0.93-2.27-1.37-0.21-.72-1.72-1.4-0.92-2.09,1-.38,1.47,1,2.22,1.38a4.3,4.3,0,0,1,2,1.49,4.72,4.72,0,0,0,1.11,2.64c0.63,0.6.46,1.83,1.63,1.64,0.56-.09,0-1.08-0.18-1.26,0.65,0.61,1.2-.3.53-0.8,0.12-.48-0.55-1.08.27-1.15,0.34-.5,1.36,0,1.63.08-0.79.53,0.75,1.32-.06,1.76,0.59,0.39.58,1.58,1.53,1.2,0.17,0.09.35,0.2,0.53,0.28A28.37,28.37,0,0,0,212.78,216,13.67,13.67,0,0,1,211.15,216.64Zm2.28,3.92c-0.85.58-2.22,1.38-1.26,2.53,0.07,1.19,1.72,1.1,2.55.76,0.55-.11,1.81-0.44,1.86.07-0.7.82-1.76-.11-2.62,0.4-1,.2-1.38,1.32-1.7,2.18,0.15,0.75-.47,2-1.33,1.45a3.8,3.8,0,0,0-1.91.37,1,1,0,0,1-1.42-.27c-0.44-.21-1.21.48-0.62-0.23,0.22-.4,0-1.06.41-0.38,0.79,0.63,1.06-.62,1.83-0.48,0.5-.72.05-2,1.18-2.22,0.79-.57.19-1.16-0.42-1.52-0.62-1.13.68-1.57,1.45-2,0.87-.26.4-1.06,1.19-1.34C213.16,219.86,214.32,219.92,213.43,220.56Z"/><path class="cls-6" d="M228.84,214.81c-0.91,5.54-5.7,8.35-11.61,10.09-4.47,1.31-10.87.25-14-4.38,0.25,5.85,6.95,13.42,13.38,13.48-1.87,9.09-11.13,16.09-20.46,15.93a20.18,20.18,0,0,1-5.32-.77c3.11-6.8,9-12.17,9.49-11.33a6.72,6.72,0,0,0-4.94-2.32c-5,.32-9.69,4.55-14.18,5l-0.08-.2c-0.61-3.19,5.71-9.43,6.27-15.23a12.2,12.2,0,0,1-6.76,3.81c1.82-1.1,5.85-4,6.42-7.68,0.39-4.79,1.36-6.49-.73-11.4-4.3-1.16-11-.41-15.11,2.38-8.6,4.86-11.39,12.42-11.39,23.63a30.18,30.18,0,0,0,1.44,9.23,74.52,74.52,0,0,0-3.45,9.13c-1,3.83,0,10.74,1.55,13.59a43,43,0,0,1,7.09-5.67c3.8-2.33,5.76-1.89,5.76-1.89a30.2,30.2,0,0,0,48-24.39c0-.83,0-1.65-0.1-2.46C227,231.17,230.89,221.28,228.84,214.81Zm-50.25,6a2.35,2.35,0,1,1-2.35,2.35A2.35,2.35,0,0,1,178.59,220.78Z"/><circle class="cls-7" cx="178.59" cy="223.14" r="2.35"/><path class="cls-6" d="M228.84,214.81c-0.91,5.54-5.7,8.35-11.61,10.09-4.47,1.31-10.87.25-14-4.38,0.25,5.85,6.95,13.42,13.38,13.48-1.87,9.09-11.13,16.09-20.46,15.93a20.18,20.18,0,0,1-5.32-.77c3.11-6.8,9-12.17,9.49-11.33a6.72,6.72,0,0,0-4.94-2.32c-5,.32-9.69,4.55-14.18,5l-0.08-.2c-0.61-3.19,5.71-9.43,6.27-15.23a12.2,12.2,0,0,1-6.76,3.81c1.82-1.1,5.85-4,6.42-7.68,0.39-4.79,1.36-6.49-.73-11.4l-0.34-.09c3.16,14.1-6.71,19.23-13.13,21.56-6.11,2.22-10.57-3.7-10.46-9.88-1.84,3.94-2.57,8.7-2.57,14.4a30.18,30.18,0,0,0,1.44,9.23,74.52,74.52,0,0,0-3.45,9.13c-1,3.83,0,10.74,1.55,13.59a43,43,0,0,1,7.09-5.67c3.8-2.33,5.76-1.89,5.76-1.89a30.2,30.2,0,0,0,48-24.39c0-.83,0-1.65-0.1-2.46C227,231.17,230.89,221.28,228.84,214.81Z"/><path class="cls-7" d="M173.78,261.29a22.61,22.61,0,0,0,9.74,4A30,30,0,0,1,173.78,261.29Z"/><path class="cls-7" d="M195.69,249.92a26.23,26.23,0,0,1-4.87-.81l0,0.05A20,20,0,0,0,195.69,249.92Z"/><circle class="cls-7" cx="178.59" cy="223.14" r="2.35"/><path class="cls-6" d="M195.81,249.92h0Z"/><path class="cls-8" d="M172.17,260.19q0.78,0.57,1.61,1.1c-3.66-2.83-5.4-6.66-8-11.08-5.95,2.27-6.52,12-6.33,17.42a42.76,42.76,0,0,1,7-5.55C170.21,259.76,172.17,260.19,172.17,260.19Z"/><path class="cls-9" d="M217.87,234c0.94,13.12-6.94,21.75-18,26.87-8,3.7-23.37.5-28.31-4,1.36,3.46,5,5.85,8.15,7.37a30,30,0,0,0,3.8,1.1c1,0.2,2.09.38,3.26,0.53A30.52,30.52,0,0,0,190,266a30.2,30.2,0,0,0,30.2-30.2c0-.81,0-1.6-0.1-2.39C219.16,233.63,218.38,233.82,217.87,234Z"/><path class="cls-10" d="M190.37,239.34c-1.88,1.44-5.56,3.94-8.5,4.2,2.14,3.16,5.88,4.76,8.95,5.57,2.63-5.72,7.18-10.41,8.86-11.23C196.15,236.08,192,238.07,190.37,239.34Z"/><path class="cls-9" d="M228.63,215.79c-1.29,4.89-5.85,7.47-11.4,9.1-4.33,1.27-10.48.32-13.74-4,1.88,5.88,8.61,9.4,10.49,9.94,2.13,0.62,6.58,1,10.71-3.49C228.06,223.69,228.6,218.76,228.63,215.79Z"/><path class="cls-2" d="M25.75,281.64h6.08v1.9h-4.1v2h3.76v1.9H27.73v2h4.1v1.9H25.75v-9.69Zm2.6-3.29h2.22l-1.07,2.54H27.9Z"/><path class="cls-2" d="M37.3,281.7l2-.46v9.61a6.75,6.75,0,0,1-3,.49q-3,0-3-3.23v-1.3q0-3.22,3-3.22a4.31,4.31,0,0,1,1.06.1v-2Zm0,3.86-0.47-.05-0.59,0a1.07,1.07,0,0,0-1.06,1.32v1.3a1.07,1.07,0,0,0,1.06,1.33l0.59,0,0.47-.05v-3.79Z"/><path class="cls-2" d="M40.65,280.65h2v2.22h-2v-2.22Zm0,2.94h2v7.75h-2v-7.75Z"/><path class="cls-2" d="M45,281.7l2-.46v2.35h2.05v1.9H47v2.95q0,1,.72,1a3.48,3.48,0,0,0,1.16-.3l0.5,1.7a2.9,2.9,0,0,1-1.65.51q-2.7,0-2.7-2.9v-2.95H44v-1.9h1V281.7Z"/><path class="cls-2" d="M50.44,287.13q0-3.55,3.25-3.55t3.11,3.55q0,1.27-.65,1.27H52.42a0.92,0.92,0,0,0,1.06,1,7,7,0,0,0,2.39-.39l0.38,1.76a5.85,5.85,0,0,1-2.76.53q-3,0-3-3.55v-0.65Zm4.38-.56a1,1,0,0,0-1.13-1.09,1,1,0,0,0-1.26,1.09h2.39Z"/><path class="cls-2" d="M58,283.59h2v4.85a0.91,0.91,0,0,0,1.06,1l0.59,0,0.47-.05v-5.77h2v7.26a6.75,6.75,0,0,1-3,.49q-3,0-3-2.9v-4.85Z"/><path class="cls-2" d="M65.41,284a7.53,7.53,0,0,1,3-.44,6.59,6.59,0,0,1,1.23.14l-0.44,1.89a3.34,3.34,0,0,0-.79-0.13l-0.59,0-0.47.05v5.77h-2V284Z"/><path class="cls-2" d="M75.85,281.7l2-.46v2.35h2.05v1.9H77.83v2.95q0,1,.72,1a3.48,3.48,0,0,0,1.16-.3l0.5,1.7a2.9,2.9,0,0,1-1.65.51q-2.7,0-2.7-2.9v-2.95h-1v-1.9h1V281.7Z"/><path class="cls-2" d="M81.26,287.13q0-3.55,3.25-3.55t3.11,3.55q0,1.27-.65,1.27H83.25a0.92,0.92,0,0,0,1.06,1,7,7,0,0,0,2.39-.39l0.38,1.76a5.85,5.85,0,0,1-2.76.53q-3,0-3-3.55v-0.65Zm4.38-.56a1,1,0,0,0-1.13-1.09,1,1,0,0,0-1.26,1.09h2.39Z"/><path class="cls-2" d="M88.78,283.59h2.28l1.33,2.4,1.32-2.4H96l-2.21,3.87L96,291.33H93.71l-1.32-2.4-1.33,2.4H88.78L91,287.45Z"/><path class="cls-2" d="M98.37,281.7l2-.46v2.35h2.05v1.9h-2.05v2.95q0,1,.72,1a3.48,3.48,0,0,0,1.16-.3l0.5,1.7a2.9,2.9,0,0,1-1.65.51q-2.7,0-2.7-2.9v-2.95h-1v-1.9h1V281.7Z"/><path class="cls-2" d="M103.79,287.13q0-3.55,3.25-3.55t3.11,3.55q0,1.27-.65,1.27h-3.73a0.92,0.92,0,0,0,1.06,1,7,7,0,0,0,2.39-.39l0.38,1.76a5.85,5.85,0,0,1-2.76.53q-3,0-3-3.55v-0.65Zm4.38-.56a1,1,0,0,0-1.13-1.09,1,1,0,0,0-1.26,1.09h2.39Z"/><polygon class="cls-3" points="55.89 252.77 58.16 250.49 52 250.49 52 210.18 68.57 210.18 68.57 223.14 81.22 223.14 81.22 227.44 91.66 217 92.65 217.99 92.65 217.12 74.59 198.75 40.57 198.75 40.57 261.93 53.42 261.93 55.89 252.77"/><polygon class="cls-3" points="79.66 261.93 92.65 261.93 92.65 248.94 79.66 261.93"/><path class="cls-11" d="M91.66,221.82L78.72,234.76l-6.35-6.35a9.47,9.47,0,0,0-2.74,6.68v8.77L58.94,254.54l-4.28,15.92,15.92-4.28,32.72-32.72ZM64.9,260.14a2.94,2.94,0,1,1,2.94-2.94A2.94,2.94,0,0,1,64.9,260.14Z"/><circle class="cls-11" cx="306.46" cy="234.63" r="6.42"/><path class="cls-12" d="M296.12,230.52a11.12,11.12,0,0,1,20.68,0h20.39a31,31,0,0,0-61.46,0h20.39Z"/><path class="cls-12" d="M316.8,238.73a11.12,11.12,0,0,1-20.68,0H275.73a31,31,0,0,0,61.46,0H316.8Z"/><path class="cls-2" d="M284,281.64h3.38q3.73,0,3.73,3.22,0,2.43-1.83,3l2.06,3.5H289l-1.85-3.25h-1.22v3.25h-2v-9.69Zm2,1.9v2.65h1.4q1.74,0,1.74-1.33t-1.74-1.32h-1.4Z"/><path class="cls-2" d="M292.66,287.13q0-3.55,3.38-3.55t3.38,3.55v0.65q0,3.55-3.38,3.55t-3.38-3.55v-0.65Zm2,0.65q0,1.65,1.4,1.65t1.4-1.65v-0.65q0-1.65-1.4-1.65t-1.4,1.65v0.65Z"/><path class="cls-2" d="M300.79,281.7l2-.46v2.45a4.31,4.31,0,0,1,1.06-.1q3,0,3,3.22v1.3q0,3.23-3,3.23a6.75,6.75,0,0,1-3-.49V281.7Zm4.1,5.11a1.07,1.07,0,0,0-1.06-1.32l-0.59,0-0.47.05v3.79l0.47,0.05,0.59,0a1.07,1.07,0,0,0,1.06-1.33v-1.3Z"/><path class="cls-2" d="M308.24,287.13q0-3.55,3.38-3.55t3.38,3.55v0.65q0,3.55-3.38,3.55t-3.38-3.55v-0.65Zm2,0.65q0,1.65,1.4,1.65t1.4-1.65v-0.65q0-1.65-1.4-1.65t-1.4,1.65v0.65Z"/><path class="cls-2" d="M317.4,281.7l2-.46v2.35h2.05v1.9h-2.05v2.95q0,1,.72,1a3.48,3.48,0,0,0,1.16-.3l0.5,1.7a2.9,2.9,0,0,1-1.65.51q-2.7,0-2.7-2.9v-2.95h-1v-1.9h1V281.7Z"/><path class="cls-2" d="M323.32,289.1a9.18,9.18,0,0,0,2.6.33q1.06,0,1.06-.48t-1.09-.55Q323,288.19,323,286q0-2.38,2.91-2.38a10.39,10.39,0,0,1,2.63.42l-0.5,1.82a7.51,7.51,0,0,0-2.13-.33q-0.92,0-.92.48t1,0.55q3,0.22,3,2.44,0,2.38-3,2.38a11.89,11.89,0,0,1-3.11-.42Z"/><path class="cls-11" d="M122.37,99.09h4.37l2.42,9.35,2.42-9.35h4.37v13.85h-2.83v-9.06l-2.47,9.06h-3l-2.47-9.06v9.06h-2.83V99.09Z"/><path class="cls-11" d="M138.52,102.67a10.34,10.34,0,0,1,3.72-.79q4.35,0,4.35,4.14v6.23a9.64,9.64,0,0,1-4.35.69q-4.35,0-4.35-3.58,0-3.77,5.86-3.77,0-1-1.51-1a9.68,9.68,0,0,0-2.89.53Zm5.23,5.63q-3,0-3,1.05,0,0.87,1.51.87,0.47,0,.84,0l0.67-.08V108.3Z"/><path class="cls-11" d="M148.54,102.5a10.76,10.76,0,0,1,4.35-.62q4.35,0,4.35,4.14v6.92H154.4V106a1.3,1.3,0,0,0-1.51-1.43q-0.47,0-.84,0l-0.67.08v8.24h-2.83V102.5Z"/><path class="cls-11" d="M159.19,97.68H162v3.17h-2.83V97.68Zm0,4.2H162v11.06h-2.83V101.87Z"/><path class="cls-11" d="M164,102.56a9.77,9.77,0,0,1,4.35-.68q4.35,0,4.35,4.6v1.86q0,4.61-4.35,4.61a6.17,6.17,0,0,1-1.51-.14v3.81l-2.83.66V102.56Zm5.86,3.92q0-1.88-1.51-1.88-0.47,0-.84,0l-0.67.08v5.42l0.67,0.08q0.37,0,.84,0,1.51,0,1.51-1.89v-1.86Z"/><path class="cls-11" d="M174.62,101.87h2.83v6.92a1.3,1.3,0,0,0,1.51,1.43q0.47,0,.84,0l0.67-.08v-8.24h2.83v10.37a9.64,9.64,0,0,1-4.35.69q-4.35,0-4.35-4.14v-6.92Z"/><path class="cls-11" d="M185.26,99.18l2.83-.66v14.42h-2.83V99.18Z"/><path class="cls-11" d="M190.67,102.67a10.34,10.34,0,0,1,3.72-.79q4.35,0,4.35,4.14v6.23a9.64,9.64,0,0,1-4.35.69q-4.35,0-4.35-3.58,0-3.77,5.86-3.77,0-1-1.51-1a9.68,9.68,0,0,0-2.89.53Zm5.23,5.63q-3,0-3,1.05,0,0.87,1.51.87,0.47,0,.84,0l0.67-.08V108.3Z"/><path class="cls-11" d="M200.69,99.18l2.83-.66V102a6.17,6.17,0,0,1,1.51-.14q4.35,0,4.35,4.6v1.86q0,4.61-4.35,4.61a9.64,9.64,0,0,1-4.35-.69V99.18Zm5.86,7.29q0-1.88-1.51-1.88-0.47,0-.84,0l-0.67.08v5.42l0.67,0.08q0.37,0,.84,0,1.51,0,1.51-1.89v-1.86Z"/><path class="cls-11" d="M211.34,99.18l2.83-.66v14.42h-2.83V99.18Z"/><path class="cls-11" d="M216.12,106.94q0-5.07,4.64-5.07,4.44,0,4.44,5.07,0,1.82-.93,1.82H219a1.32,1.32,0,0,0,1.51,1.46,10,10,0,0,0,3.41-.56l0.54,2.51a8.35,8.35,0,0,1-3.95.76q-4.35,0-4.35-5.07v-0.93Zm6.25-.8a1.4,1.4,0,0,0-1.61-1.55q-1.81,0-1.81,1.55h3.42Z"/><path class="cls-11" d="M232.26,102.56a9.77,9.77,0,0,1,4.35-.68q4.35,0,4.35,4.6v1.86q0,4.61-4.35,4.61a6.17,6.17,0,0,1-1.51-.14v3.81l-2.83.66V102.56Zm5.86,3.92q0-1.88-1.51-1.88-0.47,0-.84,0l-0.67.08v5.42l0.67,0.08q0.37,0,.84,0,1.51,0,1.51-1.89v-1.86Z"/><path class="cls-11" d="M243.52,102.67a10.34,10.34,0,0,1,3.72-.79q4.35,0,4.35,4.14v6.23a9.64,9.64,0,0,1-4.35.69q-4.35,0-4.35-3.58,0-3.77,5.86-3.77,0-1-1.51-1a9.68,9.68,0,0,0-2.89.53Zm5.23,5.63q-3,0-3,1.05,0,0.87,1.51.87,0.47,0,.84,0l0.67-.08V108.3Z"/><path class="cls-11" d="M253.54,102.5a10.76,10.76,0,0,1,4.35-.62,9.4,9.4,0,0,1,1.76.21l-0.63,2.7a4.77,4.77,0,0,0-1.12-.19q-0.47,0-.84,0l-0.67.08v8.24h-2.83V102.5Z"/><path class="cls-11" d="M43.9,301.41A6.17,6.17,0,0,0,42.17,304a12.68,12.68,0,0,0,0,7.47,6.11,6.11,0,0,0,1.73,2.59l-1.48,1.18A7.5,7.5,0,0,1,41,313.72a8,8,0,0,1-1-1.78,9.62,9.62,0,0,1-.52-2,15.1,15.1,0,0,1,0-4.39,9.44,9.44,0,0,1,.53-2,8.25,8.25,0,0,1,1-1.78,7.42,7.42,0,0,1,1.45-1.52Z"/><path class="cls-11" d="M45.47,308.48q0-4.05,3.71-4.05,3.55,0,3.55,4.05,0,1.45-.74,1.45H47.73a1.05,1.05,0,0,0,1.21,1.17,8,8,0,0,0,2.73-.45l0.43,2a6.68,6.68,0,0,1-3.16.61q-3.48,0-3.48-4.05v-0.74Zm5-.64a1.12,1.12,0,0,0-1.29-1.24,1.2,1.2,0,0,0-1.45,1.24h2.73Zm-1.87-7.06h2.54l-1.23,2.91H48.08Z"/><path class="cls-11" d="M58.75,302.27l2.27-.53v11a7.71,7.71,0,0,1-3.48.55q-3.48,0-3.48-3.69V308.1q0-3.68,3.48-3.68a5,5,0,0,1,1.21.11v-2.27Zm0,4.41-0.54-.06-0.67,0q-1.21,0-1.21,1.51v1.48q0,1.52,1.21,1.52l0.67,0,0.54-.06v-4.34Z"/><path class="cls-11" d="M62.57,301.07h2.27v2.54H62.57v-2.54Zm0,3.36h2.27v8.85H62.57v-8.85Z"/><path class="cls-11" d="M67.57,302.27l2.27-.53v2.69h2.34v2.17H69.84V310q0,1.14.82,1.14a4,4,0,0,0,1.32-.34l0.57,1.94a3.31,3.31,0,0,1-1.89.58q-3.09,0-3.09-3.31V306.6H66.4v-2.17h1.17v-2.16Z"/><path class="cls-11" d="M73.76,301.07H76v2.54H73.76v-2.54Zm0,3.36H76v8.85H73.76v-8.85Z"/><path class="cls-11" d="M77.59,308.48q0-4.05,3.87-4.05t3.87,4.05v0.74q0,4.05-3.87,4.05t-3.87-4.05v-0.74Zm2.27,0.74q0,1.88,1.6,1.88t1.6-1.88v-0.74q0-1.88-1.6-1.88t-1.6,1.88v0.74Z"/><path class="cls-11" d="M86.89,304.93a8.61,8.61,0,0,1,3.48-.5q3.48,0,3.48,3.31v5.54H91.57v-5.54a1,1,0,0,0-1.21-1.14l-0.67,0-0.54.06v6.59H86.89v-8.35Z"/><path class="cls-11" d="M96.88,300.24a7.46,7.46,0,0,1,1.44,1.51,8,8,0,0,1,1,1.79,10,10,0,0,1,.53,2,14.67,14.67,0,0,1,0,4.38,9.87,9.87,0,0,1-.53,2,8,8,0,0,1-1,1.79,7.46,7.46,0,0,1-1.44,1.51l-1.48-1.18a6.11,6.11,0,0,0,1.73-2.59,12.68,12.68,0,0,0,0-7.47,6.17,6.17,0,0,0-1.73-2.59Z"/><path class="cls-11" d="M267.3,301.41a6.17,6.17,0,0,0-1.73,2.59,12.68,12.68,0,0,0,0,7.47,6.11,6.11,0,0,0,1.73,2.59l-1.48,1.18a7.49,7.49,0,0,1-1.45-1.52,8,8,0,0,1-1-1.78,9.62,9.62,0,0,1-.52-2,15.1,15.1,0,0,1,0-4.39,9.44,9.44,0,0,1,.53-2,8.23,8.23,0,0,1,1-1.78,7.42,7.42,0,0,1,1.45-1.52Z"/><path class="cls-11" d="M268.87,301.07h2.27v2.54h-2.27v-2.54Zm0,3.36h2.27v8.85h-2.27v-8.85Z"/><path class="cls-11" d="M272.69,304.93a8.6,8.6,0,0,1,3.48-.5q3.48,0,3.48,3.31v5.54h-2.27v-5.54a1,1,0,0,0-1.21-1.14l-0.67,0-0.54.06v6.59h-2.27v-8.35Z"/><path class="cls-11" d="M285.9,302.27l2.27-.53v11a7.71,7.71,0,0,1-3.48.55q-3.48,0-3.48-3.69V308.1q0-3.68,3.48-3.68a5,5,0,0,1,1.21.11v-2.27Zm0,4.41-0.54-.06-0.67,0q-1.21,0-1.21,1.51v1.48q0,1.52,1.21,1.52l0.67,0,0.54-.06v-4.34Z"/><path class="cls-11" d="M289.72,308.48q0-4.05,3.71-4.05,3.55,0,3.55,4.05,0,1.45-.74,1.45H292a1.05,1.05,0,0,0,1.21,1.17,8,8,0,0,0,2.73-.45l0.43,2a6.68,6.68,0,0,1-3.16.61q-3.48,0-3.48-4.05v-0.74Zm5-.64a1.12,1.12,0,0,0-1.29-1.24,1.2,1.2,0,0,0-1.45,1.24h2.73Z"/><path class="cls-11" d="M298.32,304.43h2.6l1.52,2.74,1.51-2.74h2.6L304,308.85l2.53,4.43h-2.6l-1.51-2.74-1.52,2.74h-2.6l2.55-4.43Z"/><path class="cls-11" d="M308.61,305.06a8.27,8.27,0,0,1,3-.63q3.48,0,3.48,3.31v5a7.71,7.71,0,0,1-3.48.55q-3.48,0-3.48-2.87t4.69-3q0-.8-1.21-0.8a7.74,7.74,0,0,0-2.31.42Zm4.19,4.51q-2.42,0-2.42.84t1.21,0.7l0.67,0,0.54-.06v-1.45Z"/><path class="cls-11" d="M317.8,302.27l2.27-.53v2.69h2.34v2.17h-2.34V310q0,1.14.82,1.14a4,4,0,0,0,1.32-.34l0.57,1.94a3.31,3.31,0,0,1-1.89.58q-3.09,0-3.09-3.31V306.6h-1.17v-2.17h1.17v-2.16Z"/><path class="cls-11" d="M324,301.07h2.27v2.54H324v-2.54Zm0,3.36h2.27v8.85H324v-8.85Z"/><path class="cls-11" d="M327.81,308.48q0-4.05,3.87-4.05t3.87,4.05v0.74q0,4.05-3.87,4.05t-3.87-4.05v-0.74Zm2.27,0.74q0,1.88,1.6,1.88t1.6-1.88v-0.74q0-1.88-1.6-1.88t-1.6,1.88v0.74Z"/><path class="cls-11" d="M337.11,304.93a8.6,8.6,0,0,1,3.48-.5q3.48,0,3.48,3.31v5.54H341.8v-5.54a1,1,0,0,0-1.21-1.14l-0.67,0-0.54.06v6.59h-2.27v-8.35Z"/><path class="cls-11" d="M347.1,300.24a7.46,7.46,0,0,1,1.44,1.51,8,8,0,0,1,1,1.79,10,10,0,0,1,.53,2,14.67,14.67,0,0,1,0,4.38,9.87,9.87,0,0,1-.53,2,8,8,0,0,1-1,1.79,7.46,7.46,0,0,1-1.44,1.51l-1.48-1.18a6.11,6.11,0,0,0,1.73-2.59,12.68,12.68,0,0,0,0-7.47,6.17,6.17,0,0,0-1.73-2.59Z"/><path class="cls-11" d="M167,301.41a6.17,6.17,0,0,0-1.73,2.59,12.68,12.68,0,0,0,0,7.47,6.11,6.11,0,0,0,1.73,2.59l-1.48,1.18a7.5,7.5,0,0,1-1.45-1.52,8,8,0,0,1-1-1.78,9.62,9.62,0,0,1-.52-2,15.1,15.1,0,0,1,0-4.39,9.44,9.44,0,0,1,.53-2,8.25,8.25,0,0,1,1-1.78,7.42,7.42,0,0,1,1.45-1.52Z"/><path class="cls-11" d="M168.57,302.27l2.27-.53v11.54h-2.27v-11Z"/><path class="cls-11" d="M172.4,308.48q0-4.05,3.71-4.05,3.55,0,3.55,4.05,0,1.45-.74,1.45h-4.26a1.05,1.05,0,0,0,1.21,1.17,8,8,0,0,0,2.73-.45l0.43,2a6.68,6.68,0,0,1-3.16.61q-3.48,0-3.48-4.05v-0.74Zm5-.64a1.12,1.12,0,0,0-1.29-1.24,1.2,1.2,0,0,0-1.45,1.24h2.73Z"/><path class="cls-11" d="M181,308.48q0-4.05,3.87-4.05a6.47,6.47,0,0,1,2.76.53L187,307a6.13,6.13,0,0,0-2.19-.41q-1.6,0-1.6,1.88v0.74q0,1.88,1.6,1.88a6.12,6.12,0,0,0,2.19-.41l0.57,2a6.46,6.46,0,0,1-2.76.53q-3.87,0-3.87-4.05v-0.74Z"/><path class="cls-11" d="M190,302.27l2.27-.53v2.69h2.34v2.17h-2.34V310q0,1.14.82,1.14a4,4,0,0,0,1.32-.34L195,312.7a3.31,3.31,0,0,1-1.89.58q-3.09,0-3.09-3.31V306.6h-1.17v-2.17H190v-2.16Z"/><path class="cls-11" d="M196.17,304.43h2.27V310a1,1,0,0,0,1.21,1.14l0.67,0,0.54-.06v-6.59h2.27v8.3a7.71,7.71,0,0,1-3.48.55q-3.48,0-3.48-3.31v-5.54Z"/><path class="cls-11" d="M204.68,304.93a8.61,8.61,0,0,1,3.48-.5,7.53,7.53,0,0,1,1.41.16l-0.51,2.16a3.83,3.83,0,0,0-.9-0.15l-0.67,0-0.54.06v6.59h-2.27v-8.35Z"/><path class="cls-11" d="M211.13,308.48q0-4.05,3.71-4.05,3.56,0,3.55,4.05,0,1.45-.74,1.45h-4.26a1.05,1.05,0,0,0,1.21,1.17,8,8,0,0,0,2.73-.45l0.43,2a6.68,6.68,0,0,1-3.16.61q-3.48,0-3.48-4.05v-0.74Zm5-.64a1.12,1.12,0,0,0-1.29-1.24,1.2,1.2,0,0,0-1.45,1.24h2.73Z"/><path class="cls-11" d="M221.2,300.24a7.46,7.46,0,0,1,1.44,1.51,8,8,0,0,1,1,1.79,10,10,0,0,1,.53,2,14.67,14.67,0,0,1,0,4.38,9.87,9.87,0,0,1-.53,2,8,8,0,0,1-1,1.79,7.46,7.46,0,0,1-1.44,1.51l-1.48-1.18a6.11,6.11,0,0,0,1.73-2.59,12.68,12.68,0,0,0,0-7.47,6.17,6.17,0,0,0-1.73-2.59Z"/></svg>