<svg id="Calque_1" data-name="Calque 1" xmlns="http://www.w3.org/2000/svg" viewBox="0 0 370.98 131.51"><defs><style>.cls-1{fill:#0f6e96;}.cls-2{fill:#fff;}.cls-3{fill:#c8bebe;}.cls-4{fill:none;stroke:#0f6e96;stroke-width:8px;}.cls-5{fill:#c94b24;}</style></defs><title>3_2_format</title><g id="g3103"><path id="path6" class="cls-1" d="M291.38,22.54h3.88v5.19c6.95,0,13.88-.07,20.82,0a2.19,2.19,0,0,1,2.51,2.48c0.11,12.79,0,25.58.06,38.37-0.06,1.31.08,3.23-.63,3.93s-3.28.63-3.28,0.63H295.26v5.18H291.2c-9.88-1.8-19.78-3.46-29.68-5.19q0-22.71,0-45.42C271.47,26,281.43,24.32,291.38,22.54Z"/><path id="path46" class="cls-2" d="M295.26,29.68h21.42V71.22H295.26V66h16.88v-2.6H295.26V60.19h16.88v-2.6H295.26V54.35h16.88v-2.6H295.26V48.51h16.88v-2.6H295.26V42.66h16.88v-2.6H295.26V36.82h16.88v-2.6H295.26V29.68Z"/><path id="path88" class="cls-2" d="M274.93,41.15l3.7-.19c0.86,4.38,1.75,8.76,2.68,13.12,0.73-4.5,1.54-9,2.33-13.49,1.3,0,2.6-.12,3.89-0.19-1.47,6.29-4.35,19.29-4.35,19.29l-4-.35s-1.87-8.57-2.64-12.88C275.78,50.65,273.93,59,273.93,59l-3.75-.23s-2.34-11.38-3.35-17.11l3.34-.14c0.67,4.13,1.43,8.25,2,12.39C273.09,49.64,274,45.4,274.93,41.15Z"/></g><path class="cls-1" d="M90.88,91.77l2.27-.53v11a7.71,7.71,0,0,1-3.48.55q-3.48,0-3.48-3.69V97.61q0-3.68,3.48-3.68a5,5,0,0,1,1.21.11V91.77Zm0,4.41-0.54-.06-0.67,0q-1.21,0-1.21,1.51v1.48q0,1.52,1.21,1.52l0.67,0,0.54-.06V96.18Z"/><path class="cls-1" d="M94.71,98q0-4.05,3.87-4.05T102.44,98v0.74q0,4.05-3.87,4.05t-3.87-4.05V98ZM97,98.72q0,1.88,1.6,1.88t1.6-1.88V98q0-1.88-1.6-1.88T97,98v0.74Z"/><path class="cls-1" d="M104,98q0-4.05,3.87-4.05a6.47,6.47,0,0,1,2.76.53l-0.57,2a6.13,6.13,0,0,0-2.19-.41q-1.6,0-1.6,1.88v0.74q0,1.88,1.6,1.88a6.12,6.12,0,0,0,2.19-.41l0.57,2a6.46,6.46,0,0,1-2.76.53q-3.87,0-3.87-4.05V98Z"/><path class="cls-1" d="M86,111l2.27-.53v11a7.71,7.71,0,0,1-3.48.55q-3.48,0-3.48-3.69v-1.48q0-3.68,3.48-3.68a5,5,0,0,1,1.21.11V111Zm0,4.41-0.54-.06-0.67,0q-1.21,0-1.21,1.51v1.48q0,1.52,1.21,1.52l0.67,0,0.54-.06v-4.34Z"/><path class="cls-1" d="M89.81,117.18q0-4.05,3.87-4.05t3.87,4.05v0.74q0,4.05-3.87,4.05t-3.87-4.05v-0.74Zm2.27,0.74q0,1.88,1.6,1.88t1.6-1.88v-0.74q0-1.88-1.6-1.88t-1.6,1.88v0.74Z"/><path class="cls-1" d="M99.11,117.18q0-4.05,3.87-4.05a6.47,6.47,0,0,1,2.76.53l-0.57,2a6.13,6.13,0,0,0-2.19-.41q-1.6,0-1.6,1.88v0.74q0,1.88,1.6,1.88a6.12,6.12,0,0,0,2.19-.41l0.57,2A6.46,6.46,0,0,1,103,122q-3.87,0-3.87-4.05v-0.74Z"/><path class="cls-1" d="M106.92,113.13h2.6l1.52,2.74,1.51-2.74h2.6l-2.53,4.42,2.53,4.43h-2.6L111,119.24,109.52,122h-2.6l2.55-4.43Z"/><path class="cls-1" d="M254.63,91.7h3.49l1.94,7.48L262,91.7h3.49v11.08h-2.27V95.53l-2,7.25h-2.37l-2-7.25v7.25h-2.27V91.7Z"/><path class="cls-1" d="M267,90.57h2.27v2.54H267V90.57Zm0,3.36h2.27v8.85H267V93.93Z"/><path class="cls-1" d="M270.88,98q0-4.05,3.87-4.05a6.47,6.47,0,0,1,2.76.53l-0.57,2a6.12,6.12,0,0,0-2.19-.41q-1.6,0-1.6,1.88v0.74q0,1.88,1.6,1.88a6.11,6.11,0,0,0,2.19-.41l0.57,2a6.46,6.46,0,0,1-2.76.53q-3.87,0-3.87-4.05V98Z"/><path class="cls-1" d="M278.69,94.43a8.61,8.61,0,0,1,3.48-.5,7.53,7.53,0,0,1,1.41.16l-0.51,2.16a3.82,3.82,0,0,0-.9-0.15l-0.67,0-0.54.06v6.59h-2.27V94.43Z"/><path class="cls-1" d="M285.13,98q0-4.05,3.87-4.05T292.87,98v0.74q0,4.05-3.87,4.05t-3.87-4.05V98Zm2.27,0.74q0,1.88,1.6,1.88t1.6-1.88V98q0-1.88-1.6-1.88T287.4,98v0.74Z"/><path class="cls-1" d="M295,100.22a10.47,10.47,0,0,0,3,.38q1.21,0,1.21-.55t-1.25-.62q-3.28-.24-3.28-2.79,0-2.72,3.32-2.72a11.88,11.88,0,0,1,3,.48l-0.57,2.08A8.58,8.58,0,0,0,298,96.1q-1.05,0-1.05.55T298,97.27q3.44,0.25,3.44,2.79,0,2.72-3.48,2.72a13.58,13.58,0,0,1-3.55-.48Z"/><path class="cls-1" d="M303,98q0-4.05,3.87-4.05T310.76,98v0.74q0,4.05-3.87,4.05T303,98.72V98Zm2.27,0.74q0,1.88,1.6,1.88t1.6-1.88V98q0-1.88-1.6-1.88T305.29,98v0.74Z"/><path class="cls-1" d="M312.32,94.3h1.17q0-3,3.09-3a4.17,4.17,0,0,1,1.89.41l-0.57,1.94a6.81,6.81,0,0,0-1.32-.19,0.72,0.72,0,0,0-.82.8h2.34v2.16h-2.34v6.31h-2.27V96.47h-1.17V94.3Z"/><path class="cls-1" d="M320.92,91.77l2.27-.53v2.69h2.34V96.1h-2.34v3.37q0,1.14.82,1.14a4,4,0,0,0,1.32-.34l0.57,1.94a3.31,3.31,0,0,1-1.89.58q-3.09,0-3.09-3.31V96.1h-1.17V93.93h1.17V91.77Z"/><path class="cls-1" d="M270.93,110.9h2.45l1.49,7.07L277,110.9h2.09l2.1,7.08,1.49-7.08h2.44L282.5,122H280.1l-2.09-6.6-2.08,6.6H273.5Z"/><path class="cls-1" d="M285.77,117.18q0-4.05,3.87-4.05t3.87,4.05v0.74q0,4.05-3.87,4.05t-3.87-4.05v-0.74Zm2.27,0.74q0,1.88,1.6,1.88t1.6-1.88v-0.74q0-1.88-1.6-1.88t-1.6,1.88v0.74Z"/><path class="cls-1" d="M295.07,113.63a8.61,8.61,0,0,1,3.48-.5,7.53,7.53,0,0,1,1.41.16l-0.51,2.16a3.82,3.82,0,0,0-.9-0.15l-0.67,0-0.54.06V122h-2.27v-8.35Z"/><path class="cls-1" d="M306.2,111l2.27-.53v11A7.71,7.71,0,0,1,305,122q-3.48,0-3.48-3.69v-1.48q0-3.68,3.48-3.68a4.94,4.94,0,0,1,1.21.11V111Zm0,4.41-0.54-.06-0.67,0q-1.21,0-1.21,1.51v1.48q0,1.52,1.21,1.52l0.67,0,0.54-.06v-4.34Z"/><polygon class="cls-3" points="122.33 38.22 105.61 21.21 104.61 21.21 104.61 39.01 122.33 39.01 122.33 38.22"/><path class="cls-3" d="M99,44.58V21.21H74.12V79.69h48.21V44.58H99ZM113.8,73.26H82.65V64.91H113.8v8.35Zm0-13.93H82.65V51H113.8v8.35Z"/><path class="cls-1" d="M88.11,40L64.49,42.78V71L88.11,73.8"/><path class="cls-2" d="M70.49,51.24L72.6,62.52h2.11l1.76-7.75,1.76,7.75h2.11l2.11-11.28H80.6L79.19,59l-1.76-7.75H75.32L73.91,59l-1.76-7.75"/><line class="cls-4" x1="138.44" y1="59.33" x2="228.37" y2="59.33"/><polygon class="cls-1" points="224.87 71.3 245.59 59.34 224.87 47.37 224.87 71.3"/><path class="cls-5" d="M163.09,42.09a6.5,6.5,0,0,0-2.12-.33q-1.79,0-1.79,2.53T161,46.81a6.58,6.58,0,0,0,2.13-.33l0.54,1.45a7.22,7.22,0,0,1-2.67.51q-3.49,0-3.49-4.15T161,40.13a7.13,7.13,0,0,1,2.68.52Z"/><path class="cls-5" d="M164.51,42.18a6.45,6.45,0,0,1,2.61-.37,5.64,5.64,0,0,1,1.05.12l-0.38,1.62a2.86,2.86,0,0,0-.67-0.11l-0.5,0-0.4,0v4.95h-1.7V42.18Z"/><path class="cls-5" d="M169.35,44.84q0-3,2.78-3t2.67,3q0,1.09-.56,1.09H171a0.79,0.79,0,0,0,.91.88,6,6,0,0,0,2-.33L174.32,48a5,5,0,0,1-2.37.46q-2.61,0-2.61-3V44.84Zm3.75-.48a0.84,0.84,0,0,0-1-.93,0.9,0.9,0,0,0-1.08.93h2.05Zm-1.41-5.3h1.9l-0.92,2.18h-1.37Z"/><path class="cls-5" d="M175.79,44.84q0-3,2.78-3t2.67,3q0,1.09-.56,1.09h-3.19a0.79,0.79,0,0,0,.91.88,6,6,0,0,0,2-.33L180.77,48a5,5,0,0,1-2.37.46q-2.61,0-2.61-3V44.84Zm3.75-.48a0.84,0.84,0,0,0-1-.93,0.9,0.9,0,0,0-1.08.93h2.05Z"/><path class="cls-5" d="M185.47,42.21a5.86,5.86,0,0,1,2.61-.41q2.61,0,2.61,2.76v1.11q0,2.77-2.61,2.77a3.7,3.7,0,0,1-.91-0.08v2.29l-1.7.4V42.21ZM189,44.56a0.91,0.91,0,0,0-.91-1.13l-0.5,0-0.4,0v3.25l0.4,0,0.5,0a0.92,0.92,0,0,0,.91-1.14V44.56Z"/><path class="cls-5" d="M192.23,42.28a6.2,6.2,0,0,1,2.23-.47q2.61,0,2.61,2.48V48a5.79,5.79,0,0,1-2.61.42q-2.61,0-2.61-2.15T195.37,44q0-.6-0.91-0.6a5.81,5.81,0,0,0-1.73.32Zm3.14,3.38q-1.82,0-1.82.63t0.91,0.52l0.5,0,0.4,0V45.66Z"/><path class="cls-5" d="M198.25,42.18a6.45,6.45,0,0,1,2.61-.37,5.64,5.64,0,0,1,1.05.12l-0.38,1.62a2.86,2.86,0,0,0-.67-0.11l-0.5,0-0.4,0v4.95h-1.7V42.18Z"/><path class="cls-5" d="M137.57,71.08h2.9q3.19,0,3.19,2.76t-3.19,2.77h-1.2v2.78h-1.7V71.08Zm1.7,1.63V75h1.2Q142,75,142,73.84t-1.49-1.13h-1.2Z"/><path class="cls-5" d="M144.83,75.79q0-3,2.78-3t2.67,3q0,1.09-.56,1.09h-3.19a0.79,0.79,0,0,0,.91.88,6,6,0,0,0,2-.33l0.32,1.51a5,5,0,0,1-2.37.46q-2.61,0-2.61-3V75.79Zm3.75-.48a0.84,0.84,0,0,0-1-.93,0.9,0.9,0,0,0-1.08.93h2.05Z"/><path class="cls-5" d="M151.28,72.75H153v4.15a0.78,0.78,0,0,0,.91.86l0.5,0,0.4,0V72.75h1.7V79a5.79,5.79,0,0,1-2.61.42q-2.61,0-2.61-2.48V72.75Z"/><path class="cls-5" d="M158.54,71.14l1.7-.4v2H162v1.63h-1.76v2.53q0,0.86.62,0.86a3,3,0,0,0,1-.26L162.28,79a2.49,2.49,0,0,1-1.42.43q-2.31,0-2.31-2.48V74.38h-0.88V72.75h0.88V71.14Z"/><path class="cls-5" d="M166.42,75.79q0-3,2.78-3t2.67,3q0,1.09-.56,1.09h-3.19a0.79,0.79,0,0,0,.91.88,6,6,0,0,0,2-.33l0.32,1.51a5,5,0,0,1-2.37.46q-2.61,0-2.61-3V75.79Zm2-5.78h1.45l1.53,2.18h-1.81l-0.45-.63-0.45.63h-1.81Zm1.75,5.3a0.84,0.84,0,0,0-1-.93,0.9,0.9,0,0,0-1.08.93h2.05Z"/><path class="cls-5" d="M173.74,71.14l1.7-.4v2h1.76v1.63h-1.76v2.53q0,0.86.62,0.86a3,3,0,0,0,1-.26L177.47,79a2.49,2.49,0,0,1-1.42.43q-2.31,0-2.31-2.48V74.38h-0.88V72.75h0.88V71.14Z"/><path class="cls-5" d="M178.38,73.13a6.45,6.45,0,0,1,2.61-.37,5.64,5.64,0,0,1,1.05.12l-0.38,1.62a2.86,2.86,0,0,0-.67-0.11l-0.5,0-0.4,0v4.95h-1.7V73.13Z"/><path class="cls-5" d="M183.22,75.79q0-3,2.78-3t2.67,3q0,1.09-.56,1.09h-3.19a0.79,0.79,0,0,0,.91.88,6,6,0,0,0,2-.33l0.32,1.51a5,5,0,0,1-2.37.46q-2.61,0-2.61-3V75.79Zm3.75-.48a0.84,0.84,0,0,0-1-.93,0.9,0.9,0,0,0-1.08.93H187Z"/><path class="cls-5" d="M192.9,71.14l1.7-.4v8.65h-1.7V71.14Z"/><path class="cls-5" d="M195.77,72.75h1.7v4.15a0.78,0.78,0,0,0,.91.86l0.5,0,0.4,0V72.75H201V79a5.79,5.79,0,0,1-2.61.42q-2.61,0-2.61-2.48V72.75Z"/><path class="cls-5" d="M205.39,73.16a5.86,5.86,0,0,1,2.61-.41q2.61,0,2.61,2.76v1.11q0,2.77-2.61,2.77a3.7,3.7,0,0,1-.91-0.08V81.6l-1.7.4V73.16Zm3.52,2.35a0.91,0.91,0,0,0-.91-1.13l-0.5,0-0.4,0V77.7l0.4,0,0.5,0a0.92,0.92,0,0,0,.91-1.14V75.51Z"/><path class="cls-5" d="M212.15,73.23a6.2,6.2,0,0,1,2.23-.47q2.61,0,2.61,2.48V79a5.79,5.79,0,0,1-2.61.42q-2.61,0-2.61-2.15T215.29,75q0-.6-0.91-0.6a5.81,5.81,0,0,0-1.73.32Zm3.14,3.38q-1.82,0-1.82.63t0.91,0.52l0.5,0,0.4,0V76.61Z"/><path class="cls-5" d="M218.16,73.13a6.45,6.45,0,0,1,2.61-.37,5.64,5.64,0,0,1,1.05.12l-0.38,1.62a2.86,2.86,0,0,0-.67-0.11l-0.5,0-0.4,0v4.95h-1.7V73.13Z"/></svg>