<svg id="Calque_1" data-name="Calque 1" xmlns="http://www.w3.org/2000/svg" viewBox="0 0 567.89 368.4"><defs><style>.cls-1,.cls-5{fill:#0f6e96;}.cls-12,.cls-2{fill:#d29f3a;}.cls-3{fill:#c8bebe;}.cls-4{fill:#135066;}.cls-10,.cls-11,.cls-12,.cls-4,.cls-5,.cls-6,.cls-7,.cls-8,.cls-9{stroke:#fff;}.cls-10,.cls-11,.cls-12,.cls-14,.cls-4,.cls-5,.cls-6,.cls-7,.cls-8,.cls-9{stroke-miterlimit:10;}.cls-6{fill:#33b4d2;}.cls-7{fill:#4c4718;}.cls-8{fill:#71691d;}.cls-9{fill:#afa715;}.cls-10{fill:#735521;}.cls-11{fill:#997236;}.cls-13{fill:#c94b24;}.cls-14{fill:none;stroke:#c94b24;stroke-width:4px;}</style></defs><title>3_3_Format_Fermé</title><path class="cls-1" d="M227,90.3h7.39v2.31h-5V95H234v2.31H229.4v4.73H227V90.3Z"/><path class="cls-1" d="M236,97q0-4.31,4.11-4.31T244.26,97v0.79q0,4.31-4.11,4.31T236,97.76V97Zm2.41,0.79q0,2,1.7,2t1.7-2V97q0-2-1.7-2t-1.7,2v0.79Z"/><path class="cls-1" d="M245.92,93.2a9.15,9.15,0,0,1,3.69-.53,8,8,0,0,1,1.49.17l-0.54,2.29a4,4,0,0,0-1-.16l-0.71,0-0.57.07v7h-2.41V93.2Z"/><path class="cls-1" d="M252.76,93.2a9.14,9.14,0,0,1,3.69-.53,3.16,3.16,0,0,1,2,.48,5.22,5.22,0,0,1,2.61-.48q3.28,0,3.28,3.52v5.89h-2.41V96.19q0-1.21-.87-1.21a2.87,2.87,0,0,0-1.29.26v6.84h-2.41V96.19q0-1.21-.87-1.21l-0.71,0-0.57.07v7h-2.41V93.2Z"/><path class="cls-1" d="M266.49,93.34a8.79,8.79,0,0,1,3.16-.67q3.69,0,3.69,3.52v5.3a8.2,8.2,0,0,1-3.69.59q-3.69,0-3.69-3,0-3.2,5-3.2,0-.85-1.29-0.85a8.24,8.24,0,0,0-2.46.45Zm4.45,4.79q-2.57,0-2.57.9,0,0.74,1.29.74l0.71,0,0.57-.07V98.13Z"/><path class="cls-1" d="M276.25,90.38l2.41-.56v2.86h2.49V95h-2.49v3.58q0,1.21.87,1.21a4.22,4.22,0,0,0,1.4-.37l0.61,2.06a3.53,3.53,0,0,1-2,.61q-3.28,0-3.28-3.52V95H275V92.67h1.25V90.38Z"/><path class="cls-1" d="M287.41,93.07h1.25q0-3.15,3.28-3.15a4.43,4.43,0,0,1,2,.44l-0.61,2.06a7.23,7.23,0,0,0-1.4-.2,0.76,0.76,0,0,0-.87.85h2.49v2.3h-2.49v6.71h-2.41V95.37h-1.25v-2.3Z"/><path class="cls-1" d="M295.31,97q0-4.31,3.94-4.31Q303,92.67,303,97q0,1.54-.79,1.54h-4.52A1.12,1.12,0,0,0,299,99.77a8.48,8.48,0,0,0,2.9-.47l0.46,2.13a7.1,7.1,0,0,1-3.35.65q-3.69,0-3.69-4.31V97Zm5.31-.68A1.19,1.19,0,0,0,299.25,95a1.27,1.27,0,0,0-1.54,1.32h2.91Z"/><path class="cls-1" d="M304.44,93.2a9.14,9.14,0,0,1,3.69-.53,8,8,0,0,1,1.49.17l-0.54,2.29a4.06,4.06,0,0,0-1-.16l-0.71,0-0.57.07v7h-2.41V93.2Z"/><path class="cls-1" d="M311.28,93.2a9.14,9.14,0,0,1,3.69-.53,3.16,3.16,0,0,1,2,.48,5.22,5.22,0,0,1,2.61-.48q3.28,0,3.28,3.52v5.89h-2.41V96.19q0-1.21-.87-1.21a2.86,2.86,0,0,0-1.29.26v6.84h-2.41V96.19q0-1.21-.87-1.21l-0.71,0-0.57.07v7h-2.41V93.2Z"/><path class="cls-1" d="M324.48,97q0-4.31,3.94-4.31,3.78,0,3.78,4.31,0,1.54-.79,1.54h-4.52a1.12,1.12,0,0,0,1.29,1.25,8.48,8.48,0,0,0,2.9-.47l0.46,2.13a7.1,7.1,0,0,1-3.35.65q-3.69,0-3.69-4.31V97Zm5.31-.68A1.19,1.19,0,0,0,328.43,95a1.27,1.27,0,0,0-1.54,1.32h2.91Zm-2-7.5h2.7l-1.3,3.09h-1.93Z"/><path class="cls-2" d="M68.71,219a7.51,7.51,0,0,1-4.93,2.82c0.23,2.62,1.89,5,4.93,7.15,3-2.14,4.71-4.52,4.93-7.15A7.51,7.51,0,0,1,68.71,219Z"/><path class="cls-2" d="M68.71,219a7.51,7.51,0,0,1-4.93,2.82c0.23,2.62,1.89,5,4.93,7.15,3-2.14,4.71-4.52,4.93-7.15A7.51,7.51,0,0,1,68.71,219Z"/><path class="cls-1" d="M68.71,214.3c-16.13,0-29.21,10-29.21,16.06,0,2.87,3,5.29,7.83,7V235l1.56-.37a85.85,85.85,0,0,1,39.51,0L90,235v2.44c4.93-1.75,7.94-4.18,7.94-7.08C97.91,224.33,84.84,214.3,68.71,214.3Zm7,7.67c-0.28,3.21-2.22,6.12-5.78,8.63l-1.17.82-1.17-.82C64,228.09,62,225.18,61.76,222l-0.16-1.81,1.79-.35a5.55,5.55,0,0,0,3.67-2l1.65-2.32,1.65,2.32a5.55,5.55,0,0,0,3.67,2l1.79,0.35Z"/><path class="cls-1" d="M68.65,240.39l-1.52,0h3.08Z"/><path class="cls-3" d="M49.36,240.73a80,80,0,0,1,38.58,0v-4.12a83.82,83.82,0,0,0-38.58,0v4.12Z"/><path class="cls-1" d="M68.65,240.39a78.79,78.79,0,0,0-18.25,2.17,24.5,24.5,0,0,0,36.6,0A78.8,78.8,0,0,0,68.65,240.39Z"/><path class="cls-1" d="M124.61,226.51h3.87q4.26,0,4.26,3.68,0,2.78-2.09,3.4l2.35,4h-2.62l-2.11-3.71h-1.39v3.71h-2.27V226.51Zm2.27,2.17v3h1.6q2,0,2-1.52t-2-1.51h-1.6Z"/><path class="cls-1" d="M134.55,232.79q0-4.05,3.71-4.05,3.55,0,3.55,4.05,0,1.45-.74,1.45h-4.26a1.05,1.05,0,0,0,1.21,1.17,8,8,0,0,0,2.73-.45l0.43,2a6.68,6.68,0,0,1-3.16.61q-3.48,0-3.48-4.05v-0.74Zm5-.64a1.12,1.12,0,0,0-1.29-1.24,1.2,1.2,0,0,0-1.45,1.24h2.73Z"/><path class="cls-1" d="M143.73,235a10.47,10.47,0,0,0,3,.38q1.21,0,1.21-.55t-1.25-.62q-3.28-.24-3.28-2.79,0-2.72,3.32-2.72a11.88,11.88,0,0,1,3,.48l-0.57,2.08a8.58,8.58,0,0,0-2.44-.38q-1.05,0-1.05.55t1.09,0.63q3.44,0.25,3.44,2.79,0,2.72-3.48,2.72a13.58,13.58,0,0,1-3.55-.48Z"/><path class="cls-1" d="M152.91,226.58l2.27-.53v2.69h2.34v2.17h-2.34v3.37q0,1.14.82,1.14a4,4,0,0,0,1.32-.34l0.57,1.94a3.31,3.31,0,0,1-1.89.58q-3.09,0-3.09-3.31v-3.37h-1.17v-2.17h1.17v-2.16Z"/><path class="cls-1" d="M159.1,229.23a8.61,8.61,0,0,1,3.48-.5,7.53,7.53,0,0,1,1.41.16l-0.51,2.16a3.83,3.83,0,0,0-.9-0.15l-0.67,0-0.54.06v6.59H159.1v-8.35Z"/><path class="cls-1" d="M165.55,225.37h2.27v2.54h-2.27v-2.54Zm0,3.36h2.27v8.85h-2.27v-8.85Z"/><path class="cls-1" d="M169.37,232.79q0-4.05,3.87-4.05a6.47,6.47,0,0,1,2.76.53l-0.57,2a6.13,6.13,0,0,0-2.19-.41q-1.6,0-1.6,1.88v0.74q0,1.88,1.6,1.88a6.12,6.12,0,0,0,2.19-.41l0.57,2a6.46,6.46,0,0,1-2.76.53q-3.87,0-3.87-4.05v-0.74Z"/><path class="cls-1" d="M178.36,226.58l2.27-.53v2.69H183v2.17h-2.34v3.37q0,1.14.82,1.14a4,4,0,0,0,1.32-.34l0.57,1.94a3.31,3.31,0,0,1-1.89.58q-3.09,0-3.09-3.31v-3.37h-1.17v-2.17h1.17v-2.16Z"/><path class="cls-1" d="M184.55,225.37h2.27v2.54h-2.27v-2.54Zm0,3.36h2.27v8.85h-2.27v-8.85Z"/><path class="cls-1" d="M188.37,232.79q0-4.05,3.87-4.05t3.87,4.05v0.74q0,4.05-3.87,4.05t-3.87-4.05v-0.74Zm2.27,0.74q0,1.88,1.6,1.88t1.6-1.88v-0.74q0-1.88-1.6-1.88t-1.6,1.88v0.74Z"/><path class="cls-1" d="M197.67,229.23a8.61,8.61,0,0,1,3.48-.5q3.48,0,3.48,3.31v5.54h-2.27V232a1,1,0,0,0-1.21-1.14l-0.67,0-0.54.06v6.59h-2.27v-8.35Z"/><path class="cls-1" d="M206.77,235a10.47,10.47,0,0,0,3,.38q1.21,0,1.21-.55t-1.25-.62q-3.28-.24-3.28-2.79,0-2.72,3.32-2.72a11.88,11.88,0,0,1,3,.48l-0.57,2.08a8.58,8.58,0,0,0-2.44-.38q-1.05,0-1.05.55t1.09,0.63q3.44,0.25,3.44,2.79,0,2.72-3.48,2.72a13.58,13.58,0,0,1-3.55-.48Z"/><path class="cls-1" d="M223.78,226.58L226,226v11a7.71,7.71,0,0,1-3.48.55q-3.48,0-3.48-3.69v-1.48q0-3.68,3.48-3.68a4.94,4.94,0,0,1,1.21.11v-2.27Zm0,4.41-0.54-.06-0.67,0q-1.21,0-1.21,1.51v1.48q0,1.52,1.21,1.52l0.67,0,0.54-.06V231Z"/><path class="cls-1" d="M227.76,226.1H230v2.2a2,2,0,0,1-1.67,1.9l-0.75-1.14a1,1,0,0,0,.94-0.8h-0.78V226.1Z"/><path class="cls-1" d="M232.09,229.37a8.27,8.27,0,0,1,3-.63q3.48,0,3.48,3.31v5a7.71,7.71,0,0,1-3.48.55q-3.48,0-3.48-2.87t4.69-3q0-.8-1.21-0.8a7.75,7.75,0,0,0-2.31.42Zm4.19,4.51q-2.42,0-2.42.84t1.21,0.7l0.67,0,0.54-.06v-1.45Z"/><path class="cls-1" d="M240.11,232.79q0-4.05,3.87-4.05a6.47,6.47,0,0,1,2.76.53l-0.57,2a6.12,6.12,0,0,0-2.19-.41q-1.6,0-1.6,1.88v0.74q0,1.88,1.6,1.88a6.11,6.11,0,0,0,2.19-.41l0.57,2a6.46,6.46,0,0,1-2.76.53q-3.87,0-3.87-4.05v-0.74Z"/><path class="cls-1" d="M247.92,232.79q0-4.05,3.87-4.05a6.47,6.47,0,0,1,2.76.53l-0.57,2a6.12,6.12,0,0,0-2.19-.41q-1.6,0-1.6,1.88v0.74q0,1.88,1.6,1.88A6.11,6.11,0,0,0,254,235l0.57,2a6.46,6.46,0,0,1-2.76.53q-3.87,0-3.87-4.05v-0.74Z"/><path class="cls-1" d="M255.73,232.79q0-4.05,3.71-4.05,3.56,0,3.55,4.05,0,1.45-.74,1.45H258a1.05,1.05,0,0,0,1.21,1.17,8,8,0,0,0,2.73-.45l0.43,2a6.68,6.68,0,0,1-3.16.61q-3.48,0-3.48-4.05v-0.74Zm1.6-7.7h2.54l0.51,2.91h-1.82Zm3.4,7.06a1.12,1.12,0,0,0-1.29-1.24,1.2,1.2,0,0,0-1.45,1.24h2.73Z"/><path class="cls-1" d="M264.91,235a10.47,10.47,0,0,0,3,.38q1.21,0,1.21-.55t-1.25-.62q-3.28-.24-3.28-2.79,0-2.72,3.32-2.72a11.88,11.88,0,0,1,3,.48l-0.57,2.08a8.58,8.58,0,0,0-2.44-.38q-1.05,0-1.05.55t1.09,0.63q3.44,0.25,3.44,2.79,0,2.72-3.48,2.72a13.58,13.58,0,0,1-3.55-.48Z"/><path class="cls-1" d="M273.09,235h2.27v2.2a2,2,0,0,1-1.68,1.9L272.92,238a1,1,0,0,0,.95-0.8h-0.78V235Z"/><path class="cls-1" d="M281.23,232.79q0-4.05,3.87-4.05a6.47,6.47,0,0,1,2.76.53l-0.57,2a6.12,6.12,0,0,0-2.19-.41q-1.6,0-1.6,1.88v0.74q0,1.88,1.6,1.88a6.11,6.11,0,0,0,2.19-.41l0.57,2a6.46,6.46,0,0,1-2.76.53q-3.87,0-3.87-4.05v-0.74Z"/><path class="cls-1" d="M289,232.79q0-4.05,3.87-4.05t3.87,4.05v0.74q0,4.05-3.87,4.05T289,233.53v-0.74Zm2.27,0.74q0,1.88,1.6,1.88t1.6-1.88v-0.74q0-1.88-1.6-1.88t-1.6,1.88v0.74Z"/><path class="cls-1" d="M298.34,229.23a8.61,8.61,0,0,1,3.48-.5q3.48,0,3.48,3.31v5.54H303V232a1,1,0,0,0-1.21-1.14l-0.67,0-0.54.06v6.59h-2.27v-8.35Z"/><path class="cls-1" d="M308,226.58l2.27-.53v2.69h2.34v2.17h-2.34v3.37q0,1.14.82,1.14a4,4,0,0,0,1.32-.34L313,237a3.31,3.31,0,0,1-1.89.58q-3.09,0-3.09-3.31v-3.37h-1.17v-2.17H308v-2.16Z"/><path class="cls-1" d="M314.21,229.23a8.61,8.61,0,0,1,3.48-.5,7.53,7.53,0,0,1,1.41.16l-0.51,2.16a3.82,3.82,0,0,0-.9-0.15l-0.67,0-0.54.06v6.59h-2.27v-8.35Z"/><path class="cls-1" d="M321.16,229.37a8.27,8.27,0,0,1,3-.63q3.48,0,3.48,3.31v5a7.71,7.71,0,0,1-3.48.55q-3.48,0-3.48-2.87t4.69-3q0-.8-1.21-0.8a7.75,7.75,0,0,0-2.31.42Zm4.19,4.51q-2.42,0-2.42.84t1.21,0.7l0.67,0,0.54-.06v-1.45Z"/><path class="cls-1" d="M329.17,225.37h2.27v2.54h-2.27v-2.54Zm0,3.36h2.27v8.85h-2.27v-8.85Z"/><path class="cls-1" d="M333,229.23a8.61,8.61,0,0,1,3.48-.5q3.48,0,3.48,3.31v5.54h-2.27V232a1,1,0,0,0-1.21-1.14l-0.67,0-0.54.06v6.59H333v-8.35Z"/><path class="cls-1" d="M342.69,226.58L345,226v2.69h2.34v2.17H345v3.37q0,1.14.82,1.14a4,4,0,0,0,1.32-.34l0.57,1.94a3.31,3.31,0,0,1-1.89.58q-3.09,0-3.09-3.31v-3.37h-1.17v-2.17h1.17v-2.16Z"/><path class="cls-1" d="M348.87,232.79q0-4.05,3.71-4.05,3.56,0,3.55,4.05,0,1.45-.74,1.45h-4.26a1.05,1.05,0,0,0,1.21,1.17,8,8,0,0,0,2.73-.45l0.43,2a6.68,6.68,0,0,1-3.16.61q-3.48,0-3.48-4.05v-0.74Zm5-.64a1.12,1.12,0,0,0-1.29-1.24,1.2,1.2,0,0,0-1.45,1.24h2.73Z"/><path class="cls-1" d="M358,235a10.47,10.47,0,0,0,3,.38q1.21,0,1.21-.55t-1.25-.62q-3.28-.24-3.28-2.79,0-2.72,3.32-2.72a11.88,11.88,0,0,1,3,.48l-0.57,2.08a8.58,8.58,0,0,0-2.44-.38q-1.05,0-1.05.55t1.09,0.63q3.44,0.25,3.44,2.79,0,2.72-3.48,2.72a13.58,13.58,0,0,1-3.55-.48Z"/><path class="cls-1" d="M370.37,226.58l2.27-.53v11.54h-2.27v-11Z"/><path class="cls-1" d="M374.2,232.79q0-4.05,3.71-4.05,3.56,0,3.55,4.05,0,1.45-.74,1.45h-4.26a1.05,1.05,0,0,0,1.21,1.17,8,8,0,0,0,2.73-.45l0.43,2a6.68,6.68,0,0,1-3.16.61q-3.48,0-3.48-4.05v-0.74Zm5-.64a1.12,1.12,0,0,0-1.29-1.24,1.2,1.2,0,0,0-1.45,1.24h2.73Zm-1.87-7.06h2.54L378.64,228h-1.82Z"/><path class="cls-1" d="M382.8,232.41q0-3.68,3.48-3.68a7.85,7.85,0,0,1,3.48.55v8.33q0,3.35-3.48,3.35a10.25,10.25,0,0,1-3.16-.49l0.58-2.19a6,6,0,0,0,2.58.52,1.06,1.06,0,0,0,1.21-1.19v-0.37a1.81,1.81,0,0,1-1.21.34q-3.48,0-3.48-3.69v-1.48Zm4.69-1.42-0.54-.06-0.67,0q-1.21,0-1.21,1.51v1.48q0,1.52,1.21,1.52a2,2,0,0,0,1.21-.32V231Z"/><path class="cls-1" d="M391.81,229.37a8.27,8.27,0,0,1,3-.63q3.48,0,3.48,3.31v5a7.71,7.71,0,0,1-3.48.55q-3.48,0-3.48-2.87t4.69-3q0-.8-1.21-0.8a7.75,7.75,0,0,0-2.31.42Zm4.19,4.51q-2.42,0-2.42.84t1.21,0.7l0.67,0,0.54-.06v-1.45Z"/><path class="cls-1" d="M399.83,226.58l2.27-.53v11.54h-2.27v-11Z"/><path class="cls-1" d="M403.66,232.79q0-4.05,3.71-4.05,3.56,0,3.55,4.05,0,1.45-.74,1.45h-4.26a1.05,1.05,0,0,0,1.21,1.17,8,8,0,0,0,2.73-.45l0.43,2a6.68,6.68,0,0,1-3.16.61q-3.48,0-3.48-4.05v-0.74Zm5-.64a1.12,1.12,0,0,0-1.29-1.24,1.2,1.2,0,0,0-1.45,1.24h2.73Z"/><path class="cls-1" d="M412.83,235a10.47,10.47,0,0,0,3,.38q1.21,0,1.21-.55t-1.25-.62q-3.28-.24-3.28-2.79,0-2.72,3.32-2.72a11.88,11.88,0,0,1,3,.48l-0.57,2.08a8.58,8.58,0,0,0-2.44-.38q-1.05,0-1.05.55t1.09,0.63q3.44,0.25,3.44,2.79,0,2.72-3.48,2.72a13.58,13.58,0,0,1-3.55-.48Z"/><path class="cls-1" d="M429.84,226.58l2.27-.53v11a7.71,7.71,0,0,1-3.48.55q-3.48,0-3.48-3.69v-1.48q0-3.68,3.48-3.68a4.94,4.94,0,0,1,1.21.11v-2.27Zm0,4.41-0.54-.06-0.67,0q-1.21,0-1.21,1.51v1.48q0,1.52,1.21,1.52l0.67,0,0.54-.06V231Z"/><path class="cls-1" d="M433.83,226.1h2.27v2.2a2,2,0,0,1-1.67,1.9l-0.75-1.14a1,1,0,0,0,.94-0.8h-0.78V226.1Z"/><path class="cls-1" d="M437.66,232.79q0-4.05,3.71-4.05,3.56,0,3.55,4.05,0,1.45-.74,1.45h-4.26a1.05,1.05,0,0,0,1.21,1.17,8,8,0,0,0,2.73-.45l0.43,2a6.68,6.68,0,0,1-3.16.61q-3.48,0-3.48-4.05v-0.74Zm5-.64a1.12,1.12,0,0,0-1.29-1.24,1.2,1.2,0,0,0-1.45,1.24h2.73Z"/><path class="cls-1" d="M446.25,228.73h2.6l1.52,2.74,1.51-2.74h2.6l-2.53,4.42,2.53,4.43h-2.6l-1.51-2.74-1.52,2.74h-2.6l2.55-4.43Z"/><path class="cls-1" d="M456,229.28a7.82,7.82,0,0,1,3.48-.55q3.48,0,3.48,3.68v1.48q0,3.69-3.48,3.69a4.94,4.94,0,0,1-1.21-.11v3l-2.27.53V229.28Zm4.69,3.13q0-1.51-1.21-1.51l-0.67,0-0.54.06v4.34l0.54,0.06,0.67,0q1.21,0,1.21-1.52v-1.48Z"/><path class="cls-1" d="M464.55,226.58l2.27-.53v11.54h-2.27v-11Z"/><path class="cls-1" d="M468.38,232.79q0-4.05,3.87-4.05t3.87,4.05v0.74q0,4.05-3.87,4.05t-3.87-4.05v-0.74Zm2.27,0.74q0,1.88,1.6,1.88t1.6-1.88v-0.74q0-1.88-1.6-1.88t-1.6,1.88v0.74Z"/><path class="cls-1" d="M477.68,225.37h2.27v2.54h-2.27v-2.54Zm0,3.36h2.27v8.85h-2.27v-8.85Z"/><path class="cls-1" d="M482.68,226.58l2.27-.53v2.69h2.34v2.17h-2.34v3.37q0,1.14.82,1.14a4,4,0,0,0,1.32-.34l0.57,1.94a3.31,3.31,0,0,1-1.89.58q-3.09,0-3.09-3.31v-3.37h-1.17v-2.17h1.17v-2.16Z"/><path class="cls-1" d="M489.37,229.37a8.27,8.27,0,0,1,3-.63q3.48,0,3.48,3.31v5a7.71,7.71,0,0,1-3.48.55q-3.48,0-3.48-2.87t4.69-3q0-.8-1.21-0.8a7.75,7.75,0,0,0-2.31.42Zm4.19,4.51q-2.42,0-2.42.84t1.21,0.7l0.67,0,0.54-.06v-1.45Z"/><path class="cls-1" d="M498.55,226.58l2.27-.53v2.69h2.34v2.17h-2.34v3.37q0,1.14.82,1.14a4,4,0,0,0,1.32-.34l0.57,1.94a3.31,3.31,0,0,1-1.89.58q-3.09,0-3.09-3.31v-3.37h-1.17v-2.17h1.17v-2.16Z"/><path class="cls-1" d="M504.74,225.37H507v2.54h-2.27v-2.54Zm0,3.36H507v8.85h-2.27v-8.85Z"/><path class="cls-1" d="M508.57,232.79q0-4.05,3.87-4.05t3.87,4.05v0.74q0,4.05-3.87,4.05t-3.87-4.05v-0.74Zm2.27,0.74q0,1.88,1.6,1.88t1.6-1.88v-0.74q0-1.88-1.6-1.88t-1.6,1.88v0.74Z"/><path class="cls-1" d="M517.87,229.23a8.61,8.61,0,0,1,3.48-.5q3.48,0,3.48,3.31v5.54h-2.27V232a1,1,0,0,0-1.21-1.14l-0.67,0-0.54.06v6.59h-2.27v-8.35Z"/><path class="cls-1" d="M125.2,159.28a11.2,11.2,0,0,0,3,.53q1.75,0,1.75-1.14,0-.84-1.42-1.14-3.66-.41-3.66-3.31,0-3.31,4.1-3.31a7.17,7.17,0,0,1,2.92.61l-0.53,2a7.17,7.17,0,0,0-2.39-.45q-1.84,0-1.84,1.14,0,0.84,1.5,1.14,3.58,0.41,3.58,3.31,0,3.31-4,3.31a9.61,9.61,0,0,1-3.6-.63Z"/><path class="cls-1" d="M133.8,153.68a7.82,7.82,0,0,1,3.48-.55q3.48,0,3.48,3.68v1.48q0,3.69-3.48,3.69a4.94,4.94,0,0,1-1.21-.11v3l-2.27.53V153.68Zm4.69,3.13q0-1.51-1.21-1.51l-0.67,0-0.54.06v4.34l0.54,0.06,0.67,0q1.21,0,1.21-1.52v-1.48Z"/><path class="cls-1" d="M142.31,157.19q0-4.05,3.71-4.05,3.55,0,3.55,4.05,0,1.45-.74,1.45h-4.26a1.05,1.05,0,0,0,1.21,1.17,8,8,0,0,0,2.73-.45l0.43,2a6.68,6.68,0,0,1-3.16.61q-3.48,0-3.48-4.05v-0.74Zm5-.64A1.12,1.12,0,0,0,146,155.3a1.2,1.2,0,0,0-1.45,1.24h2.73Zm-1.87-7.06H148l-1.23,2.91h-1.82Z"/><path class="cls-1" d="M150.91,157.19q0-4.05,3.87-4.05a6.47,6.47,0,0,1,2.76.53l-0.57,2a6.13,6.13,0,0,0-2.19-.41q-1.6,0-1.6,1.88v0.74q0,1.88,1.6,1.88a6.12,6.12,0,0,0,2.19-.41l0.57,2a6.46,6.46,0,0,1-2.76.53q-3.87,0-3.87-4.05v-0.74Z"/><path class="cls-1" d="M158.72,149.77H161v2.54h-2.27v-2.54Zm0,3.36H161V162h-2.27v-8.85Z"/><path class="cls-1" d="M162.55,153.51h1.17q0-3,3.09-3a4.17,4.17,0,0,1,1.89.41l-0.57,1.94a6.81,6.81,0,0,0-1.32-.19,0.72,0.72,0,0,0-.82.8h2.34v2.16H166V162h-2.27v-6.31h-1.17v-2.16Z"/><path class="cls-1" d="M170,149.77h2.27v2.54H170v-2.54Zm0,3.36h2.27V162H170v-8.85Z"/><path class="cls-1" d="M173.8,157.19q0-4.05,3.87-4.05a6.47,6.47,0,0,1,2.76.53l-0.57,2a6.13,6.13,0,0,0-2.19-.41q-1.6,0-1.6,1.88v0.74q0,1.88,1.6,1.88a6.12,6.12,0,0,0,2.19-.41l0.57,2a6.46,6.46,0,0,1-2.76.53q-3.87,0-3.87-4.05v-0.74Z"/><path class="cls-1" d="M182.12,153.76a8.27,8.27,0,0,1,3-.63q3.48,0,3.48,3.31v5a7.71,7.71,0,0,1-3.48.55q-3.48,0-3.48-2.87t4.69-3q0-.8-1.21-0.8a7.74,7.74,0,0,0-2.31.42Zm4.19,4.51q-2.42,0-2.42.84t1.21,0.7l0.67,0,0.54-.06v-1.45Z"/><path class="cls-1" d="M191.3,151l2.27-.53v2.69h2.34v2.17h-2.34v3.37q0,1.14.82,1.14a4,4,0,0,0,1.32-.34l0.57,1.94a3.31,3.31,0,0,1-1.89.58q-3.09,0-3.09-3.31V155.3h-1.17v-2.17h1.17V151Z"/><path class="cls-1" d="M197.49,149.77h2.27v2.54h-2.27v-2.54Zm0,3.36h2.27V162h-2.27v-8.85Z"/><path class="cls-1" d="M201.32,157.19q0-4.05,3.87-4.05t3.87,4.05v0.74q0,4.05-3.87,4.05t-3.87-4.05v-0.74Zm2.27,0.74q0,1.88,1.6,1.88t1.6-1.88v-0.74q0-1.88-1.6-1.88t-1.6,1.88v0.74Z"/><path class="cls-1" d="M210.62,153.63a8.61,8.61,0,0,1,3.48-.5q3.48,0,3.48,3.31V162H215.3v-5.54a1,1,0,0,0-1.21-1.14l-0.67,0-0.54.06V162h-2.27v-8.35Z"/><path class="cls-1" d="M219.71,159.43a10.47,10.47,0,0,0,3,.38q1.21,0,1.21-.55t-1.25-.62q-3.28-.24-3.28-2.79,0-2.72,3.32-2.72a11.88,11.88,0,0,1,3,.48l-0.57,2.08a8.58,8.58,0,0,0-2.44-.38q-1.05,0-1.05.55t1.09,0.63q3.44,0.25,3.44,2.79,0,2.72-3.48,2.72a13.58,13.58,0,0,1-3.55-.48Z"/><path class="cls-1" d="M232,153.63a8.61,8.61,0,0,1,3.48-.5q3.48,0,3.48,3.31V162h-2.27v-5.54a1,1,0,0,0-1.21-1.14l-0.67,0-0.54.06V162H232v-8.35Z"/><path class="cls-1" d="M240.55,157.19q0-4.05,3.87-4.05t3.87,4.05v0.74q0,4.05-3.87,4.05t-3.87-4.05v-0.74Zm2.27,0.74q0,1.88,1.6,1.88t1.6-1.88v-0.74q0-1.88-1.6-1.88t-1.6,1.88v0.74Z"/><path class="cls-1" d="M249.85,153.63a8.61,8.61,0,0,1,3.48-.5q3.48,0,3.48,3.31V162h-2.27v-5.54a1,1,0,0,0-1.21-1.14l-0.67,0-0.54.06V162h-2.27v-8.35Z"/><path class="cls-1" d="M262.68,157.19q0-4.05,3.87-4.05a6.47,6.47,0,0,1,2.76.53l-0.57,2a6.12,6.12,0,0,0-2.19-.41q-1.6,0-1.6,1.88v0.74q0,1.88,1.6,1.88a6.11,6.11,0,0,0,2.19-.41l0.57,2a6.46,6.46,0,0,1-2.76.53q-3.87,0-3.87-4.05v-0.74Z"/><path class="cls-1" d="M270.49,157.19q0-4.05,3.87-4.05t3.87,4.05v0.74q0,4.05-3.87,4.05t-3.87-4.05v-0.74Zm2.27,0.74q0,1.88,1.6,1.88t1.6-1.88v-0.74q0-1.88-1.6-1.88t-1.6,1.88v0.74Z"/><path class="cls-1" d="M279.79,153.63a8.61,8.61,0,0,1,3.48-.5q3.48,0,3.48,3.31V162h-2.27v-5.54a1,1,0,0,0-1.21-1.14l-0.67,0-0.54.06V162h-2.27v-8.35Z"/><path class="cls-1" d="M288.3,153.63a8.61,8.61,0,0,1,3.48-.5q3.48,0,3.48,3.31V162H293v-5.54a1,1,0,0,0-1.21-1.14l-0.67,0-0.54.06V162H288.3v-8.35Z"/><path class="cls-1" d="M296.82,153.13h2.27v5.54a1,1,0,0,0,1.21,1.14l0.67,0,0.54-.06v-6.59h2.27v8.3a7.71,7.71,0,0,1-3.48.55q-3.48,0-3.48-3.31v-5.54Z"/><path class="cls-1" d="M305.34,157.19q0-4.05,3.71-4.05,3.56,0,3.55,4.05,0,1.45-.74,1.45H307.6a1.05,1.05,0,0,0,1.21,1.17,8,8,0,0,0,2.73-.45l0.43,2a6.68,6.68,0,0,1-3.16.61q-3.48,0-3.48-4.05v-0.74Zm5-.64A1.12,1.12,0,0,0,309,155.3a1.2,1.2,0,0,0-1.45,1.24h2.73Z"/><path class="cls-1" d="M314.51,159.43a10.47,10.47,0,0,0,3,.38q1.21,0,1.21-.55t-1.25-.62q-3.28-.24-3.28-2.79,0-2.72,3.32-2.72a11.88,11.88,0,0,1,3,.48l-0.57,2.08a8.58,8.58,0,0,0-2.44-.38q-1.05,0-1.05.55t1.09,0.63q3.44,0.25,3.44,2.79,0,2.72-3.48,2.72a13.58,13.58,0,0,1-3.55-.48Z"/><path class="cls-1" d="M322.69,159.44H325v2.2a2,2,0,0,1-1.68,1.9l-0.75-1.15a1,1,0,0,0,.95-0.8h-0.78v-2.15Z"/><path class="cls-1" d="M330.83,157.19q0-4.05,3.87-4.05a6.47,6.47,0,0,1,2.76.53l-0.57,2a6.12,6.12,0,0,0-2.19-.41q-1.6,0-1.6,1.88v0.74q0,1.88,1.6,1.88a6.11,6.11,0,0,0,2.19-.41l0.57,2a6.46,6.46,0,0,1-2.76.53q-3.87,0-3.87-4.05v-0.74Z"/><path class="cls-1" d="M338.64,157.19q0-4.05,3.87-4.05t3.87,4.05v0.74q0,4.05-3.87,4.05t-3.87-4.05v-0.74Zm2.27,0.74q0,1.88,1.6,1.88t1.6-1.88v-0.74q0-1.88-1.6-1.88t-1.6,1.88v0.74Z"/><path class="cls-1" d="M347.94,153.63a8.61,8.61,0,0,1,3.48-.5q3.48,0,3.48,3.31V162h-2.27v-5.54a1,1,0,0,0-1.21-1.14l-0.67,0-0.54.06V162h-2.27v-8.35Z"/><path class="cls-1" d="M355.67,153.13h2.46l1.53,5.37,1.52-5.37h2.47l-2.8,8.85h-2.39Z"/><path class="cls-1" d="M364.26,157.19q0-4.05,3.71-4.05,3.56,0,3.55,4.05,0,1.45-.74,1.45h-4.26a1.05,1.05,0,0,0,1.21,1.17,8,8,0,0,0,2.73-.45l0.43,2a6.68,6.68,0,0,1-3.16.61q-3.48,0-3.48-4.05v-0.74Zm5-.64A1.12,1.12,0,0,0,368,155.3a1.2,1.2,0,0,0-1.45,1.24h2.73Z"/><path class="cls-1" d="M372.86,153.63a8.61,8.61,0,0,1,3.48-.5,7.53,7.53,0,0,1,1.41.16l-0.51,2.16a3.82,3.82,0,0,0-.9-0.15l-0.67,0-0.54.06V162h-2.27v-8.35Z"/><path class="cls-1" d="M379.88,159.43a10.47,10.47,0,0,0,3,.38q1.21,0,1.21-.55t-1.25-.62q-3.28-.24-3.28-2.79,0-2.72,3.32-2.72a11.88,11.88,0,0,1,3,.48l-0.57,2.08a8.58,8.58,0,0,0-2.44-.38q-1.05,0-1.05.55t1.09,0.63q3.44,0.25,3.44,2.79,0,2.72-3.48,2.72a13.58,13.58,0,0,1-3.55-.48Z"/><path class="cls-1" d="M387.9,149.77h2.27v2.54H387.9v-2.54Zm0,3.36h2.27V162H387.9v-8.85Z"/><path class="cls-1" d="M391.73,157.19q0-4.05,3.87-4.05t3.87,4.05v0.74q0,4.05-3.87,4.05t-3.87-4.05v-0.74Zm2.27,0.74q0,1.88,1.6,1.88t1.6-1.88v-0.74q0-1.88-1.6-1.88t-1.6,1.88v0.74Z"/><path class="cls-1" d="M401,153.63a8.61,8.61,0,0,1,3.48-.5q3.48,0,3.48,3.31V162h-2.27v-5.54a1,1,0,0,0-1.21-1.14l-0.67,0-0.54.06V162H401v-8.35Z"/><path class="cls-1" d="M413.85,149.77h2.27v2.54h-2.27v-2.54Zm0,3.36h2.27V162h-2.27v-8.85Z"/><path class="cls-1" d="M417.68,153.63a8.61,8.61,0,0,1,3.48-.5,3,3,0,0,1,1.84.45,4.91,4.91,0,0,1,2.45-.45q3.09,0,3.09,3.31V162h-2.27v-5.54q0-1.14-.82-1.14a2.7,2.7,0,0,0-1.21.24V162H422v-5.54q0-1.14-.82-1.14l-0.67,0-0.54.06V162h-2.27v-8.35Z"/><path class="cls-1" d="M430.1,153.68a7.82,7.82,0,0,1,3.48-.55q3.48,0,3.48,3.68v1.48q0,3.69-3.48,3.69a4.94,4.94,0,0,1-1.21-.11v3l-2.27.53V153.68Zm4.69,3.13q0-1.51-1.21-1.51l-0.67,0-0.54.06v4.34l0.54,0.06,0.67,0q1.21,0,1.21-1.52v-1.48Z"/><path class="cls-1" d="M438.62,157.19q0-4.05,3.87-4.05t3.87,4.05v0.74q0,4.05-3.87,4.05t-3.87-4.05v-0.74Zm2.27,0.74q0,1.88,1.6,1.88t1.6-1.88v-0.74q0-1.88-1.6-1.88t-1.6,1.88v0.74Z"/><path class="cls-1" d="M448.49,159.43a10.47,10.47,0,0,0,3,.38q1.21,0,1.21-.55t-1.25-.62q-3.28-.24-3.28-2.79,0-2.72,3.32-2.72a11.88,11.88,0,0,1,3,.48l-0.57,2.08a8.58,8.58,0,0,0-2.44-.38q-1.05,0-1.05.55t1.09,0.63q3.44,0.25,3.44,2.79,0,2.72-3.48,2.72a13.58,13.58,0,0,1-3.55-.48Z"/><path class="cls-1" d="M457.09,159.43a10.47,10.47,0,0,0,3,.38q1.21,0,1.21-.55t-1.25-.62q-3.28-.24-3.28-2.79,0-2.72,3.32-2.72a11.88,11.88,0,0,1,3,.48l-0.57,2.08a8.58,8.58,0,0,0-2.44-.38q-1.05,0-1.05.55t1.09,0.63q3.44,0.25,3.44,2.79,0,2.72-3.48,2.72a13.58,13.58,0,0,1-3.55-.48Z"/><path class="cls-1" d="M465.1,149.77h2.27v2.54H465.1v-2.54Zm0,3.36h2.27V162H465.1v-8.85Z"/><path class="cls-1" d="M468.93,151l2.27-.53v2.8a4.94,4.94,0,0,1,1.21-.11q3.48,0,3.48,3.68v1.48q0,3.69-3.48,3.69a7.71,7.71,0,0,1-3.48-.55V151Zm4.69,5.84q0-1.51-1.21-1.51l-0.67,0-0.54.06v4.34l0.54,0.06,0.67,0q1.21,0,1.21-1.52v-1.48Z"/><path class="cls-1" d="M477.44,151l2.27-.53V162h-2.27V151Z"/><path class="cls-1" d="M481.27,157.19q0-4.05,3.71-4.05,3.56,0,3.55,4.05,0,1.45-.74,1.45h-4.26a1.05,1.05,0,0,0,1.21,1.17,8,8,0,0,0,2.73-.45l0.43,2a6.68,6.68,0,0,1-3.16.61q-3.48,0-3.48-4.05v-0.74Zm5-.64A1.12,1.12,0,0,0,485,155.3a1.2,1.2,0,0,0-1.45,1.24h2.73Z"/><path class="cls-1" d="M124.61,311.11q0-5.54,4.65-5.54t4.65,5.54q0,5.54-4.65,5.54T124.61,311.11Zm4.65-3.37q-2.38,0-2.38,3.37t2.38,3.37q2.38,0,2.38-3.37T129.26,307.75Z"/><path class="cls-1" d="M135.47,305.65l2.27-.53v2.8a4.94,4.94,0,0,1,1.21-.11q3.48,0,3.48,3.68V313q0,3.69-3.48,3.69a7.71,7.71,0,0,1-3.48-.55V305.65Zm4.69,5.84q0-1.51-1.21-1.51l-0.67,0-0.54.06v4.34l0.54,0.06,0.67,0q1.21,0,1.21-1.52v-1.48Z"/><path class="cls-1" d="M144,305.65l2.27-.53v11.54H144v-11Z"/><path class="cls-1" d="M147.81,304.44h2.27V307h-2.27v-2.54Zm0,3.36h2.27v8.85h-2.27V307.8Z"/><path class="cls-1" d="M151.64,311.48q0-3.68,3.48-3.68a7.85,7.85,0,0,1,3.48.55v8.33q0,3.35-3.48,3.35a10.25,10.25,0,0,1-3.16-.49l0.58-2.19a6,6,0,0,0,2.58.52,1.06,1.06,0,0,0,1.21-1.19v-0.37a1.81,1.81,0,0,1-1.21.34q-3.48,0-3.48-3.69v-1.48Zm4.69-1.42-0.54-.06-0.67,0q-1.21,0-1.21,1.51V313q0,1.52,1.21,1.52a2,2,0,0,0,1.21-.32v-4.1Z"/><path class="cls-1" d="M160.66,308.43a8.27,8.27,0,0,1,3-.63q3.48,0,3.48,3.31v5a7.71,7.71,0,0,1-3.48.55q-3.48,0-3.48-2.87t4.69-3q0-.8-1.21-0.8a7.74,7.74,0,0,0-2.31.42Zm4.19,4.51q-2.42,0-2.42.84t1.21,0.7l0.67,0,0.54-.06v-1.45Z"/><path class="cls-1" d="M169.84,305.65l2.27-.53v2.69h2.34V310h-2.34v3.37q0,1.14.82,1.14a4,4,0,0,0,1.32-.34l0.57,1.94a3.31,3.31,0,0,1-1.89.58q-3.09,0-3.09-3.31V310h-1.17V307.8h1.17v-2.16Z"/><path class="cls-1" d="M176,304.44h2.27V307H176v-2.54Zm0,3.36h2.27v8.85H176V307.8Z"/><path class="cls-1" d="M179.86,311.86q0-4.05,3.87-4.05t3.87,4.05v0.74q0,4.05-3.87,4.05t-3.87-4.05v-0.74Zm2.27,0.74q0,1.88,1.6,1.88t1.6-1.88v-0.74q0-1.88-1.6-1.88t-1.6,1.88v0.74Z"/><path class="cls-1" d="M189.16,308.3a8.61,8.61,0,0,1,3.48-.5q3.48,0,3.48,3.31v5.54h-2.27v-5.54a1,1,0,0,0-1.21-1.14L192,310l-0.54.06v6.59h-2.27V308.3Z"/><path class="cls-1" d="M206.67,305.65l2.27-.53v11a7.71,7.71,0,0,1-3.48.55q-3.48,0-3.48-3.69v-1.48q0-3.68,3.48-3.68a5,5,0,0,1,1.21.11v-2.27Zm0,4.41-0.54-.06-0.67,0q-1.21,0-1.21,1.51V313q0,1.52,1.21,1.52l0.67,0,0.54-.06v-4.34Z"/><path class="cls-1" d="M210.66,305.17h2.27v2.2a2,2,0,0,1-1.67,1.9l-0.75-1.14a1,1,0,0,0,.94-0.8h-0.78v-2.15Z"/><path class="cls-1" d="M214.48,307.8h2.27v5.54a1,1,0,0,0,1.21,1.14l0.67,0,0.54-.06V307.8h2.27v8.3a7.71,7.71,0,0,1-3.48.55q-3.48,0-3.48-3.31V307.8Z"/><path class="cls-1" d="M224.17,305.65l2.27-.53v2.69h2.34V310h-2.34v3.37q0,1.14.82,1.14a4,4,0,0,0,1.32-.34l0.57,1.94a3.31,3.31,0,0,1-1.89.58q-3.09,0-3.09-3.31V310H223V307.8h1.17v-2.16Z"/><path class="cls-1" d="M230.36,304.44h2.27V307h-2.27v-2.54Zm0,3.36h2.27v8.85h-2.27V307.8Z"/><path class="cls-1" d="M234.19,305.65l2.27-.53v11.54h-2.27v-11Z"/><path class="cls-1" d="M238,304.44h2.27V307H238v-2.54Zm0,3.36h2.27v8.85H238V307.8Z"/><path class="cls-1" d="M242.42,314.1a10.47,10.47,0,0,0,3,.38q1.21,0,1.21-.55t-1.25-.62q-3.28-.24-3.28-2.79,0-2.72,3.32-2.72a11.88,11.88,0,0,1,3,.48l-0.57,2.08a8.58,8.58,0,0,0-2.44-.38q-1.05,0-1.05.55t1.09,0.63q3.44,0.25,3.44,2.79,0,2.72-3.48,2.72a13.58,13.58,0,0,1-3.55-.48Z"/><path class="cls-1" d="M250.44,311.86q0-4.05,3.71-4.05,3.56,0,3.55,4.05,0,1.45-.74,1.45H252.7a1.05,1.05,0,0,0,1.21,1.17,8,8,0,0,0,2.73-.45l0.43,2a6.68,6.68,0,0,1-3.16.61q-3.48,0-3.48-4.05v-0.74Zm5-.64a1.12,1.12,0,0,0-1.29-1.24,1.2,1.2,0,0,0-1.45,1.24h2.73Z"/><path class="cls-1" d="M259,308.3a8.61,8.61,0,0,1,3.48-.5,7.53,7.53,0,0,1,1.41.16l-0.51,2.16a3.82,3.82,0,0,0-.9-0.15l-0.67,0-0.54.06v6.59H259V308.3Z"/><path class="cls-1" d="M269.79,307.8h2.27v5.54a1,1,0,0,0,1.21,1.14l0.67,0,0.54-.06V307.8h2.27v8.3a7.71,7.71,0,0,1-3.48.55q-3.48,0-3.48-3.31V307.8Z"/><path class="cls-1" d="M278.3,308.3a8.61,8.61,0,0,1,3.48-.5q3.48,0,3.48,3.31v5.54H283v-5.54a1,1,0,0,0-1.21-1.14l-0.67,0-0.54.06v6.59H278.3V308.3Z"/><path class="cls-1" d="M291.13,305.65l2.27-.53v11.54h-2.27v-11Z"/><path class="cls-1" d="M295,311.86q0-4.05,3.87-4.05t3.87,4.05v0.74q0,4.05-3.87,4.05T295,312.6v-0.74Zm2.27,0.74q0,1.88,1.6,1.88t1.6-1.88v-0.74q0-1.88-1.6-1.88t-1.6,1.88v0.74Z"/><path class="cls-1" d="M304.26,311.48q0-3.68,3.48-3.68a7.85,7.85,0,0,1,3.48.55v8.33q0,3.35-3.48,3.35a10.25,10.25,0,0,1-3.16-.49l0.58-2.19a6,6,0,0,0,2.58.52,1.06,1.06,0,0,0,1.21-1.19v-0.37a1.81,1.81,0,0,1-1.21.34q-3.48,0-3.48-3.69v-1.48Zm4.69-1.42-0.54-.06-0.67,0q-1.21,0-1.21,1.51V313q0,1.52,1.21,1.52a2,2,0,0,0,1.21-.32v-4.1Z"/><path class="cls-1" d="M312.77,304.44H315V307h-2.27v-2.54Zm0,3.36H315v8.85h-2.27V307.8Z"/><path class="cls-1" d="M316.6,311.86q0-4.05,3.87-4.05a6.47,6.47,0,0,1,2.76.53l-0.57,2a6.12,6.12,0,0,0-2.19-.41q-1.6,0-1.6,1.88v0.74q0,1.88,1.6,1.88a6.11,6.11,0,0,0,2.19-.41l0.57,2a6.46,6.46,0,0,1-2.76.53q-3.87,0-3.87-4.05v-0.74Z"/><path class="cls-1" d="M324.41,304.44h2.27V307h-2.27v-2.54Zm0,3.36h2.27v8.85h-2.27V307.8Z"/><path class="cls-1" d="M328.24,311.86q0-4.05,3.71-4.05,3.56,0,3.55,4.05,0,1.45-.74,1.45h-4.26a1.05,1.05,0,0,0,1.21,1.17,8,8,0,0,0,2.73-.45l0.43,2a6.68,6.68,0,0,1-3.16.61q-3.48,0-3.48-4.05v-0.74Zm5-.64A1.12,1.12,0,0,0,332,310a1.2,1.2,0,0,0-1.45,1.24h2.73Z"/><path class="cls-1" d="M336.84,305.65l2.27-.53v11.54h-2.27v-11Z"/><path class="cls-1" d="M345,311.86q0-4.05,3.87-4.05t3.87,4.05v0.74q0,4.05-3.87,4.05T345,312.6v-0.74Zm2.27,0.74q0,1.88,1.6,1.88t1.6-1.88v-0.74q0-1.88-1.6-1.88t-1.6,1.88v0.74Z"/><path class="cls-1" d="M354.27,307.8h2.27v5.54a1,1,0,0,0,1.21,1.14l0.67,0,0.54-.06V307.8h2.27v8.3a7.71,7.71,0,0,1-3.48.55q-3.48,0-3.48-3.31V307.8Z"/><path class="cls-1" d="M367.1,307.8h2.27v5.54a1,1,0,0,0,1.21,1.14l0.67,0,0.54-.06V307.8h2.27v8.3a7.71,7.71,0,0,1-3.48.55q-3.48,0-3.48-3.31V307.8Z"/><path class="cls-1" d="M375.62,308.3a8.61,8.61,0,0,1,3.48-.5q3.48,0,3.48,3.31v5.54H380.3v-5.54a1,1,0,0,0-1.21-1.14l-0.67,0-0.54.06v6.59h-2.27V308.3Z"/><path class="cls-1" d="M384.13,311.86q0-4.05,3.71-4.05,3.56,0,3.55,4.05,0,1.45-.74,1.45H386.4a1.05,1.05,0,0,0,1.21,1.17,8,8,0,0,0,2.73-.45l0.43,2a6.68,6.68,0,0,1-3.16.61q-3.48,0-3.48-4.05v-0.74Zm5-.64a1.12,1.12,0,0,0-1.29-1.24,1.2,1.2,0,0,0-1.45,1.24h2.73Z"/><path class="cls-1" d="M397,308.18h1.17q0-3,3.09-3a4.17,4.17,0,0,1,1.89.41l-0.57,1.94a6.81,6.81,0,0,0-1.32-.19,0.72,0.72,0,0,0-.82.8h2.34v2.16h-2.34v6.31h-2.27v-6.31H397v-2.16Z"/><path class="cls-1" d="M405,308.43a8.27,8.27,0,0,1,3-.63q3.48,0,3.48,3.31v5a7.71,7.71,0,0,1-3.48.55q-3.48,0-3.48-2.87t4.69-3q0-.8-1.21-0.8a7.75,7.75,0,0,0-2.31.42Zm4.19,4.51q-2.42,0-2.42.84t1.21,0.7l0.67,0,0.54-.06v-1.45Z"/><path class="cls-1" d="M413,308.3a8.61,8.61,0,0,1,3.48-.5,3,3,0,0,1,1.84.45,4.91,4.91,0,0,1,2.45-.45q3.09,0,3.09,3.31v5.54h-2.27v-5.54q0-1.14-.82-1.14a2.7,2.7,0,0,0-1.21.24v6.44h-2.27v-5.54q0-1.14-.82-1.14l-0.67,0-0.54.06v6.59H413V308.3Z"/><path class="cls-1" d="M425.41,304.44h2.27V307h-2.27v-2.54Zm0,3.36h2.27v8.85h-2.27V307.8Z"/><path class="cls-1" d="M429.23,305.65l2.27-.53v11.54h-2.27v-11Z"/><path class="cls-1" d="M433.06,305.65l2.27-.53v11.54h-2.27v-11Z"/><path class="cls-1" d="M436.89,311.86q0-4.05,3.71-4.05,3.56,0,3.55,4.05,0,1.45-.74,1.45h-4.26a1.05,1.05,0,0,0,1.21,1.17,8,8,0,0,0,2.73-.45l0.43,2a6.68,6.68,0,0,1-3.16.61q-3.48,0-3.48-4.05v-0.74Zm5-.64A1.12,1.12,0,0,0,440.6,310a1.2,1.2,0,0,0-1.45,1.24h2.73Z"/><path class="cls-1" d="M454.48,305.65l2.27-.53v11a7.71,7.71,0,0,1-3.48.55q-3.48,0-3.48-3.69v-1.48q0-3.68,3.48-3.68a4.94,4.94,0,0,1,1.21.11v-2.27Zm0,4.41-0.54-.06-0.67,0q-1.21,0-1.21,1.51V313q0,1.52,1.21,1.52l0.67,0,0.54-.06v-4.34Z"/><path class="cls-1" d="M458.31,311.86q0-4.05,3.71-4.05,3.56,0,3.55,4.05,0,1.45-.74,1.45h-4.26a1.05,1.05,0,0,0,1.21,1.17,8,8,0,0,0,2.73-.45l0.43,2a6.68,6.68,0,0,1-3.16.61q-3.48,0-3.48-4.05v-0.74Zm5-.64A1.12,1.12,0,0,0,462,310a1.2,1.2,0,0,0-1.45,1.24h2.73Z"/><path class="cls-1" d="M471.22,305.65l2.27-.53v11.54h-2.27v-11Z"/><path class="cls-1" d="M475,311.86q0-4.05,3.87-4.05t3.87,4.05v0.74q0,4.05-3.87,4.05T475,312.6v-0.74Zm2.27,0.74q0,1.88,1.6,1.88t1.6-1.88v-0.74q0-1.88-1.6-1.88t-1.6,1.88v0.74Z"/><path class="cls-1" d="M484.34,311.48q0-3.68,3.48-3.68a7.85,7.85,0,0,1,3.48.55v8.33q0,3.35-3.48,3.35a10.25,10.25,0,0,1-3.16-.49l0.58-2.19a6,6,0,0,0,2.58.52,1.06,1.06,0,0,0,1.21-1.19v-0.37a1.81,1.81,0,0,1-1.21.34q-3.48,0-3.48-3.69v-1.48Zm4.69-1.42-0.54-.06-0.67,0q-1.21,0-1.21,1.51V313q0,1.52,1.21,1.52a2,2,0,0,0,1.21-.32v-4.1Z"/><path class="cls-1" d="M492.86,304.44h2.27V307h-2.27v-2.54Zm0,3.36h2.27v8.85h-2.27V307.8Z"/><path class="cls-1" d="M496.69,311.86q0-4.05,3.87-4.05a6.47,6.47,0,0,1,2.76.53l-0.57,2a6.12,6.12,0,0,0-2.19-.41q-1.6,0-1.6,1.88v0.74q0,1.88,1.6,1.88a6.11,6.11,0,0,0,2.19-.41l0.57,2a6.46,6.46,0,0,1-2.76.53q-3.87,0-3.87-4.05v-0.74Z"/><path class="cls-1" d="M504.5,304.44h2.27V307H504.5v-2.54Zm0,3.36h2.27v8.85H504.5V307.8Z"/><path class="cls-1" d="M508.33,311.86q0-4.05,3.71-4.05,3.56,0,3.55,4.05,0,1.45-.74,1.45h-4.26a1.05,1.05,0,0,0,1.21,1.17,8,8,0,0,0,2.73-.45l0.43,2a6.68,6.68,0,0,1-3.16.61q-3.48,0-3.48-4.05v-0.74Zm5-.64A1.12,1.12,0,0,0,512,310a1.2,1.2,0,0,0-1.45,1.24h2.73Z"/><path class="cls-1" d="M516.92,305.65l2.27-.53v11.54h-2.27v-11Z"/><path class="cls-1" d="M521.33,314.1a10.47,10.47,0,0,0,3,.38q1.21,0,1.21-.55t-1.25-.62q-3.28-.24-3.28-2.79,0-2.72,3.32-2.72a11.88,11.88,0,0,1,3,.48l-0.57,2.08a8.58,8.58,0,0,0-2.44-.38q-1.05,0-1.05.55t1.09,0.63q3.44,0.25,3.44,2.79,0,2.72-3.48,2.72a13.58,13.58,0,0,1-3.55-.48Z"/><polygon class="cls-4" points="48.03 339.89 34.77 333.49 34.77 317.87 48.03 324.27 48.03 339.89"/><polygon class="cls-5" points="61.28 333.49 48.03 339.89 48.03 324.27 61.28 317.87 61.28 333.49"/><polygon class="cls-6" points="48.03 324.27 61.28 317.87 48.03 311.47 34.77 317.87 48.03 324.27"/><polygon class="cls-7" points="86.42 339.89 73.17 333.49 73.17 317.87 86.42 324.27 86.42 339.89"/><polygon class="cls-8" points="99.68 333.49 86.42 339.89 86.42 324.27 99.68 317.87 99.68 333.49"/><polygon class="cls-9" points="86.42 324.27 99.68 317.87 86.42 311.47 73.17 317.87 86.42 324.27"/><polygon class="cls-10" points="67.25 311.74 53.99 305.34 53.99 289.72 67.25 296.12 67.25 311.74"/><polygon class="cls-11" points="80.51 305.34 67.25 311.74 67.25 296.12 80.51 289.72 80.51 305.34"/><polygon class="cls-12" points="67.25 296.12 80.51 289.72 67.25 283.32 53.99 289.72 67.25 296.12"/><path class="cls-13" d="M279.46,80.52a10,10,0,0,1,3-7.09l0.93-.93a8.72,8.72,0,0,1,.19-1.25h-17.8V33.5h15.52V45.63h11.84v7.92a12.89,12.89,0,0,1,6-1.48h0.38a12.9,12.9,0,0,1,4.33.76V40L286.9,22.79H255V82h24.41V80.52Z"/><path class="cls-1" d="M303.72,65.2V69h3.09V65.05a7.34,7.34,0,0,0-7.31-7.31h-0.38a7.34,7.34,0,0,0-7.31,7.31V69h3.09V65.2a4.29,4.29,0,0,1,4.28-4.28h0.27A4.29,4.29,0,0,1,303.72,65.2Z"/><path class="cls-1" d="M309.11,78.3V73.15A3.14,3.14,0,0,0,306,70H292.13A3.14,3.14,0,0,0,289,73.15v1.72l-2.57,2.57a4.43,4.43,0,0,0-1.3,3.11H289v1.23a3.14,3.14,0,0,0,3.13,3.13h13.12a3.14,3.14,0,0,0,3.13-3.13V78.3h0.72Zm-5.76-5.19a1.5,1.5,0,1,1-1.5,1.5A1.5,1.5,0,0,1,303.34,73.1Z"/><line class="cls-14" x1="36.56" y1="314.61" x2="58.75" y2="336.8"/><line class="cls-14" x1="36.56" y1="336.8" x2="58.75" y2="314.61"/><line class="cls-14" x1="75.33" y1="314.61" x2="97.52" y2="336.8"/><line class="cls-14" x1="75.33" y1="336.8" x2="97.52" y2="314.61"/><rect class="cls-13" x="63.03" y="168.64" width="10.29" height="9.84"/><path class="cls-13" d="M87.29,148.48l-6.92-6.92c-2.12-4.16-6.65-6.28-13.59-6.16-10.27,0-10.47,9.19-9.85,15,8.78-8.78,19.27,2.55,6.91,3.94l0.79,11H72l0.64-4.57q6-1.91,8.1-6.74h8.9A7.86,7.86,0,0,0,87.29,148.48Zm-21.15-4A2.87,2.87,0,1,1,69,141.63,2.87,2.87,0,0,1,66.14,144.5Z"/></svg>