<svg id="Calque_1" data-name="Calque 1" xmlns="http://www.w3.org/2000/svg" viewBox="0 0 590 400.9"><defs><style>.cls-1,.cls-13{fill:#afa715;}.cls-2,.cls-9{fill:#0f6e96;}.cls-3{fill:#7e2885;}.cls-4{fill:#fff;}.cls-16,.cls-5{fill:#d29f3a;}.cls-6{fill:#c8bebe;}.cls-7{fill:none;stroke:#c94b24;stroke-width:4px;}.cls-10,.cls-11,.cls-12,.cls-13,.cls-14,.cls-15,.cls-16,.cls-7,.cls-8,.cls-9{stroke-miterlimit:10;}.cls-8{fill:#135066;}.cls-10,.cls-11,.cls-12,.cls-13,.cls-14,.cls-15,.cls-16,.cls-8,.cls-9{stroke:#fff;}.cls-10{fill:#33b4d2;}.cls-11{fill:#4c4718;}.cls-12{fill:#71691d;}.cls-14{fill:#735521;}.cls-15{fill:#997236;}</style></defs><title>3_3_Format_Ouvert</title><path class="cls-1" d="M308.54,62.15h-0.26a0.58,0.58,0,0,0-.56.56v2.45h1.39V62.71A0.58,0.58,0,0,0,308.54,62.15Z"/><path class="cls-1" d="M291.35,78.73a7.72,7.72,0,0,1,2.28-5.45L295,71.86V71.68a6.44,6.44,0,0,1,.48-2.43H277.8V31.5h15.52V43.63h11.84v8.89a10.48,10.48,0,0,1,3.07-.46h0.36A10.47,10.47,0,0,1,315.86,55V38l-16.92-17.2H267.09V80h24.25V78.73Z"/><path class="cls-2" d="M312.63,62.71v5h2.95V62.57a7,7,0,0,0-7-7h-0.36a7,7,0,0,0-7,7v1h2.95V62.71a4.1,4.1,0,0,1,4.09-4.09h0.26A4.1,4.1,0,0,1,312.63,62.71Z"/><path class="cls-2" d="M314.79,76.45c1.05,0,2.06,0,3,0v-4.8a3,3,0,0,0-3-3H301.57a3,3,0,0,0-3,3v1.64l-2.46,2.46a4.23,4.23,0,0,0-1.24,3h3.7v1.18a3,3,0,0,0,3,3H314.1a3,3,0,0,0,3-3V77.39c-0.93,0-1.94,0-3,0-4.74,0-8.57-.22-8.57-0.49S310.05,76.45,314.79,76.45Zm-2.51-4.82a1.43,1.43,0,1,1-1.43,1.43A1.43,1.43,0,0,1,312.27,71.63Z"/><path class="cls-2" d="M238,87.3h7.39v2.31h-5V92H245v2.31h-4.56v4.73H238V87.3Z"/><path class="cls-2" d="M247.08,94q0-4.31,4.11-4.31T255.3,94v0.79q0,4.31-4.11,4.31t-4.11-4.31V94Zm2.41,0.79q0,2,1.7,2t1.7-2V94q0-2-1.7-2t-1.7,2v0.79Z"/><path class="cls-2" d="M257,90.2a9.15,9.15,0,0,1,3.69-.53,8,8,0,0,1,1.49.17l-0.54,2.29a4,4,0,0,0-1-.16l-0.71,0-0.57.07v7H257V90.2Z"/><path class="cls-2" d="M263.81,90.2a9.14,9.14,0,0,1,3.69-.53,3.16,3.16,0,0,1,2,.48,5.22,5.22,0,0,1,2.61-.48q3.28,0,3.28,3.52v5.89h-2.41V93.19q0-1.21-.87-1.21a2.87,2.87,0,0,0-1.29.26v6.84h-2.41V93.19q0-1.21-.87-1.21l-0.71,0-0.57.07v7h-2.41V90.2Z"/><path class="cls-2" d="M277.54,90.34a8.79,8.79,0,0,1,3.16-.67q3.69,0,3.69,3.52v5.3a8.2,8.2,0,0,1-3.69.59q-3.69,0-3.69-3,0-3.2,5-3.2Q282,92,280.7,92a8.24,8.24,0,0,0-2.46.45ZM282,95.13q-2.57,0-2.57.9,0,0.74,1.29.74l0.71,0,0.57-.07V95.13Z"/><path class="cls-2" d="M287.3,87.38l2.41-.56v2.86h2.49V92h-2.49v3.58q0,1.21.87,1.21a4.22,4.22,0,0,0,1.4-.37l0.61,2.06a3.53,3.53,0,0,1-2,.61q-3.28,0-3.28-3.52V92h-1.25V89.67h1.25V87.38Z"/><path class="cls-2" d="M298.46,94q0-4.31,4.11-4.31T306.68,94v0.79q0,4.31-4.11,4.31t-4.11-4.31V94Zm2.41,0.79q0,2,1.7,2t1.7-2V94q0-2-1.7-2t-1.7,2v0.79Z"/><path class="cls-2" d="M308.34,89.67h2.41v5.89A1.11,1.11,0,0,0,312,96.76l0.71,0,0.57-.07v-7h2.41v8.82a8.2,8.2,0,0,1-3.69.59q-3.69,0-3.69-3.52V89.67Z"/><path class="cls-2" d="M316.55,89.67h2.62l1.63,5.7,1.62-5.7H325l-3,9.4h-2.54Z"/><path class="cls-2" d="M325.68,94q0-4.31,3.94-4.31,3.78,0,3.78,4.31,0,1.54-.79,1.54h-4.52a1.12,1.12,0,0,0,1.29,1.25,8.48,8.48,0,0,0,2.9-.47l0.46,2.13a7.1,7.1,0,0,1-3.35.65q-3.69,0-3.69-4.31V94ZM331,93.3A1.19,1.19,0,0,0,329.63,92a1.27,1.27,0,0,0-1.54,1.32H331Z"/><path class="cls-2" d="M334.82,90.2a9.14,9.14,0,0,1,3.69-.53,8,8,0,0,1,1.49.17l-0.54,2.29a4.06,4.06,0,0,0-1-.16l-0.71,0-0.57.07v7h-2.41V90.2Z"/><path class="cls-2" d="M342.91,87.38l2.41-.56v2.86h2.49V92h-2.49v3.58q0,1.21.87,1.21a4.22,4.22,0,0,0,1.4-.37l0.61,2.06a3.53,3.53,0,0,1-2,.61q-3.28,0-3.28-3.52V92h-1.25V89.67h1.25V87.38Z"/><path class="cls-3" d="M47.41,159.82c-0.17-.1,8.91-9.91,15.56-9.63A15.39,15.39,0,0,1,73,154.84L77.26,155s4-6.89,8.76-1.91a54.78,54.78,0,0,1-6.69,7.12c-0.92.84-11.06,2.51-17.3,1.2v1.24c1.92,1.4,19.29.62,20.06-3.2,2-.25,9-2,10.62-2.47s13.85-5.09,13.74-.11c-4.36,2-20.61,8.22-20.61,8.22a21.37,21.37,0,0,0-3.27,1.67,7.25,7.25,0,0,1-2.69,1.56c-0.91.18-10.11-1.67-10.91-1.71s-8.14-1.74-13.3,2.94C51.55,169.92,46.47,161.72,47.41,159.82Z"/><circle class="cls-1" cx="72.99" cy="130.08" r="3.49"/><path class="cls-1" d="M75,134.67H70.9a1.3,1.3,0,0,0-1.27,1l-1.41,5.9a1.3,1.3,0,0,0,1.27,1.6h6.9a1.3,1.3,0,0,0,1.27-1.6l-1.41-5.9A1.3,1.3,0,0,0,75,134.67Z"/><circle class="cls-1" cx="86.94" cy="130.08" r="3.49"/><path class="cls-1" d="M88.93,134.67H84.84a1.3,1.3,0,0,0-1.27,1l-1.41,5.9a1.3,1.3,0,0,0,1.27,1.6h6.9a1.3,1.3,0,0,0,1.27-1.6l-1.41-5.9A1.3,1.3,0,0,0,88.93,134.67Z"/><circle class="cls-4" cx="79.86" cy="135.75" r="4.95"/><path class="cls-4" d="M76.36,150.32a2.76,2.76,0,0,1-2.69-3.4l1.41-5.9a2.75,2.75,0,0,1,2.69-2.12h4.08A2.75,2.75,0,0,1,84.54,141l1.41,5.9a2.76,2.76,0,0,1-2.69,3.4h-6.9Z"/><path class="cls-1" d="M81.85,140.35H77.77a1.3,1.3,0,0,0-1.27,1l-1.41,5.9a1.3,1.3,0,0,0,1.27,1.6h6.9a1.3,1.3,0,0,0,1.27-1.6l-1.41-5.9A1.3,1.3,0,0,0,81.85,140.35Z"/><circle class="cls-1" cx="79.86" cy="135.75" r="3.49"/><path class="cls-2" d="M137.11,144.68H141q4.65,0,4.65,5.54T141,155.76h-3.87V144.68Zm2.27,2.17v6.73H141q2.38,0,2.38-3.37T141,146.86h-1.6Z"/><path class="cls-2" d="M147.19,143.55h2.27v2.54h-2.27v-2.54Zm0,3.36h2.27v8.85h-2.27v-8.85Z"/><path class="cls-2" d="M151,147.29h1.17q0-3,3.09-3a4.17,4.17,0,0,1,1.89.41l-0.57,1.94a6.81,6.81,0,0,0-1.32-.19,0.72,0.72,0,0,0-.82.8h2.34v2.16h-2.34v6.31h-2.27v-6.31H151v-2.16Z"/><path class="cls-2" d="M158.45,147.29h1.17q0-3,3.09-3a4.17,4.17,0,0,1,1.89.41L164,146.67a6.81,6.81,0,0,0-1.32-.19,0.72,0.72,0,0,0-.82.8h2.34v2.16h-2.34v6.31h-2.27v-6.31h-1.17v-2.16Z"/><path class="cls-2" d="M165.88,146.91h2.27v5.54a1,1,0,0,0,1.21,1.14l0.67,0,0.54-.06v-6.59h2.27v8.3a7.71,7.71,0,0,1-3.48.55q-3.48,0-3.48-3.31v-5.54Z"/><path class="cls-2" d="M175,153.21a10.47,10.47,0,0,0,3,.38q1.21,0,1.21-.55t-1.25-.62q-3.28-.24-3.28-2.79,0-2.72,3.32-2.72a11.88,11.88,0,0,1,3,.48l-0.57,2.08a8.58,8.58,0,0,0-2.44-.38q-1.05,0-1.05.55t1.09,0.63q3.44,0.25,3.44,2.79,0,2.72-3.48,2.72a13.58,13.58,0,0,1-3.55-.48Z"/><path class="cls-2" d="M183,151q0-4.05,3.71-4.05,3.55,0,3.55,4.05,0,1.45-.74,1.45h-4.26a1.05,1.05,0,0,0,1.21,1.17,8,8,0,0,0,2.73-.45l0.43,2a6.68,6.68,0,0,1-3.16.61q-3.48,0-3.48-4.05V151Zm5-.64a1.12,1.12,0,0,0-1.29-1.24,1.2,1.2,0,0,0-1.45,1.24H188Zm-1.87-7.06h2.54l-1.23,2.91h-1.82Z"/><path class="cls-2" d="M195.9,147.46a7.82,7.82,0,0,1,3.48-.55q3.48,0,3.48,3.68v1.48q0,3.69-3.48,3.69a4.94,4.94,0,0,1-1.21-.11v3l-2.27.53V147.46Zm4.69,3.13q0-1.51-1.21-1.51l-0.67,0-0.54.06v4.34l0.54,0.06,0.67,0q1.21,0,1.21-1.52v-1.48Z"/><path class="cls-2" d="M204.41,146.91h2.27v5.54a1,1,0,0,0,1.21,1.14l0.67,0,0.54-.06v-6.59h2.27v8.3a7.71,7.71,0,0,1-3.48.55q-3.48,0-3.48-3.31v-5.54Z"/><path class="cls-2" d="M212.93,144.75l2.27-.53V147a4.94,4.94,0,0,1,1.21-.11q3.48,0,3.48,3.68v1.48q0,3.69-3.48,3.69a7.71,7.71,0,0,1-3.48-.55V144.75Zm4.69,5.84q0-1.51-1.21-1.51l-0.67,0-0.54.06v4.34l0.54,0.06,0.67,0q1.21,0,1.21-1.52v-1.48Z"/><path class="cls-2" d="M221.44,144.75l2.27-.53v11.54h-2.27v-11Z"/><path class="cls-2" d="M225.27,143.55h2.27v2.54h-2.27v-2.54Zm0,3.36h2.27v8.85h-2.27v-8.85Z"/><path class="cls-2" d="M229.1,150.59q0-3.68,3.48-3.68a7.85,7.85,0,0,1,3.48.55V158.7l-2.27.53v-3.58a4.94,4.94,0,0,1-1.21.11q-3.48,0-3.48-3.69v-1.48Zm4.69-1.42-0.54-.06-0.67,0q-1.21,0-1.21,1.51v1.48q0,1.52,1.21,1.52l0.67,0,0.54-.06v-4.34Z"/><path class="cls-2" d="M237.61,146.91h2.27v5.54a1,1,0,0,0,1.21,1.14l0.67,0,0.54-.06v-6.59h2.27v8.3a7.71,7.71,0,0,1-3.48.55q-3.48,0-3.48-3.31v-5.54Z"/><path class="cls-2" d="M246.13,151q0-4.05,3.71-4.05,3.56,0,3.55,4.05,0,1.45-.74,1.45H248.4a1.05,1.05,0,0,0,1.21,1.17,8,8,0,0,0,2.73-.45l0.43,2a6.68,6.68,0,0,1-3.16.61q-3.48,0-3.48-4.05V151Zm5-.64a1.12,1.12,0,0,0-1.29-1.24,1.2,1.2,0,0,0-1.45,1.24h2.73Z"/><path class="cls-2" d="M254.72,147.41a8.61,8.61,0,0,1,3.48-.5,3,3,0,0,1,1.84.45,4.91,4.91,0,0,1,2.45-.45q3.09,0,3.09,3.31v5.54h-2.27v-5.54q0-1.14-.82-1.14a2.7,2.7,0,0,0-1.21.24v6.44H259v-5.54q0-1.14-.82-1.14l-0.67,0-0.54.06v6.59h-2.27v-8.35Z"/><path class="cls-2" d="M267.15,151q0-4.05,3.71-4.05,3.56,0,3.55,4.05,0,1.45-.74,1.45h-4.26a1.05,1.05,0,0,0,1.21,1.17,8,8,0,0,0,2.73-.45l0.43,2a6.68,6.68,0,0,1-3.16.61q-3.48,0-3.48-4.05V151Zm5-.64a1.12,1.12,0,0,0-1.29-1.24,1.2,1.2,0,0,0-1.45,1.24h2.73Z"/><path class="cls-2" d="M275.74,147.41a8.61,8.61,0,0,1,3.48-.5q3.48,0,3.48,3.31v5.54h-2.27v-5.54a1,1,0,0,0-1.21-1.14l-0.67,0-0.54.06v6.59h-2.27v-8.35Z"/><path class="cls-2" d="M285.43,144.75l2.27-.53v2.69H290v2.17h-2.34v3.37q0,1.14.82,1.14a4,4,0,0,0,1.32-.34l0.57,1.94a3.31,3.31,0,0,1-1.89.58q-3.09,0-3.09-3.31v-3.37h-1.17v-2.17h1.17v-2.16Z"/><path class="cls-5" d="M81.08,208.14A7.51,7.51,0,0,1,76.15,211c0.23,2.62,1.89,5,4.93,7.15,3-2.14,4.71-4.52,4.93-7.15A7.51,7.51,0,0,1,81.08,208.14Z"/><path class="cls-5" d="M81.08,208.14A7.51,7.51,0,0,1,76.15,211c0.23,2.62,1.89,5,4.93,7.15,3-2.14,4.71-4.52,4.93-7.15A7.51,7.51,0,0,1,81.08,208.14Z"/><path class="cls-2" d="M81.08,203.46c-16.13,0-29.21,10-29.21,16.06,0,2.87,3,5.29,7.83,7v-2.4l1.56-.37a85.85,85.85,0,0,1,39.51,0l1.56,0.37v2.44c4.93-1.75,7.94-4.18,7.94-7.08C110.28,213.49,97.21,203.46,81.08,203.46Zm7,7.67c-0.28,3.21-2.22,6.12-5.78,8.63l-1.17.82-1.17-.82c-3.56-2.51-5.51-5.41-5.78-8.63L74,209.32l1.79-.35a5.55,5.55,0,0,0,3.67-2l1.65-2.32L82.73,207a5.55,5.55,0,0,0,3.67,2l1.79,0.35Z"/><path class="cls-2" d="M81,229.55l-1.52,0h3.08Z"/><path class="cls-6" d="M61.73,229.89a80,80,0,0,1,38.58,0v-4.12a83.82,83.82,0,0,0-38.58,0v4.12Z"/><path class="cls-2" d="M81,229.55a78.79,78.79,0,0,0-18.25,2.17,24.5,24.5,0,0,0,36.6,0A78.8,78.8,0,0,0,81,229.55Z"/><circle class="cls-7" cx="82.02" cy="222.52" r="23.98"/><line class="cls-7" x1="65.46" y1="205.96" x2="98.57" y2="239.07"/><path class="cls-2" d="M137.71,223.16a11.2,11.2,0,0,0,3,.53q1.75,0,1.75-1.14,0-.84-1.42-1.14-3.66-.41-3.66-3.31,0-3.31,4.1-3.31a7.17,7.17,0,0,1,2.92.61l-0.53,2a7.17,7.17,0,0,0-2.39-.45q-1.84,0-1.84,1.14,0,0.84,1.5,1.14,3.58,0.41,3.58,3.31,0,3.31-4,3.31a9.61,9.61,0,0,1-3.6-.63Z"/><path class="cls-2" d="M146.8,217.64a8.27,8.27,0,0,1,3-.63q3.48,0,3.48,3.31v5a7.71,7.71,0,0,1-3.48.55q-3.48,0-3.48-2.87t4.69-3q0-.8-1.21-0.8a7.74,7.74,0,0,0-2.31.42Zm4.19,4.51q-2.42,0-2.42.84t1.21,0.7l0.67,0,0.54-.06v-1.45Z"/><path class="cls-2" d="M154.82,217.51a8.61,8.61,0,0,1,3.48-.5q3.48,0,3.48,3.31v5.54H159.5v-5.54a1,1,0,0,0-1.21-1.14l-0.67,0-0.54.06v6.59h-2.27v-8.35Z"/><path class="cls-2" d="M163.91,223.31a10.47,10.47,0,0,0,3,.38q1.21,0,1.21-.55t-1.25-.62q-3.28-.24-3.28-2.79,0-2.72,3.32-2.72a11.88,11.88,0,0,1,3,.48l-0.57,2.08a8.58,8.58,0,0,0-2.44-.38q-1.05,0-1.05.55t1.09,0.63q3.44,0.25,3.44,2.79,0,2.72-3.48,2.72a13.58,13.58,0,0,1-3.55-.48Z"/><path class="cls-2" d="M176.24,217.51a8.61,8.61,0,0,1,3.48-.5,7.53,7.53,0,0,1,1.41.16l-0.51,2.16a3.83,3.83,0,0,0-.9-0.15l-0.67,0-0.54.06v6.59h-2.27v-8.35Z"/><path class="cls-2" d="M182.68,221.06q0-4.05,3.71-4.05,3.55,0,3.55,4.05,0,1.45-.74,1.45H185a1.05,1.05,0,0,0,1.21,1.17,8,8,0,0,0,2.73-.45l0.43,2a6.68,6.68,0,0,1-3.16.61q-3.48,0-3.48-4.05v-0.74Zm5-.64a1.12,1.12,0,0,0-1.29-1.24,1.2,1.2,0,0,0-1.45,1.24h2.73Z"/><path class="cls-2" d="M191.86,223.31a10.47,10.47,0,0,0,3,.38q1.21,0,1.21-.55t-1.25-.62q-3.28-.24-3.28-2.79,0-2.72,3.32-2.72a11.88,11.88,0,0,1,3,.48l-0.57,2.08a8.58,8.58,0,0,0-2.44-.38q-1.05,0-1.05.55t1.09,0.63q3.44,0.25,3.44,2.79,0,2.72-3.48,2.72a13.58,13.58,0,0,1-3.55-.48Z"/><path class="cls-2" d="M201,214.85l2.27-.53V217h2.34v2.17h-2.34v3.37q0,1.14.82,1.14a4,4,0,0,0,1.32-.34l0.57,1.94a3.31,3.31,0,0,1-1.89.58q-3.09,0-3.09-3.31v-3.37h-1.17V217H201v-2.16Z"/><path class="cls-2" d="M207.23,217.51a8.61,8.61,0,0,1,3.48-.5,7.53,7.53,0,0,1,1.41.16l-0.51,2.16a3.83,3.83,0,0,0-.9-0.15l-0.67,0-0.54.06v6.59h-2.27v-8.35Z"/><path class="cls-2" d="M213.68,213.65h2.27v2.54h-2.27v-2.54Zm0,3.36h2.27v8.85h-2.27V217Z"/><path class="cls-2" d="M217.5,221.06q0-4.05,3.87-4.05a6.47,6.47,0,0,1,2.76.53l-0.57,2a6.13,6.13,0,0,0-2.19-.41q-1.6,0-1.6,1.88v0.74q0,1.88,1.6,1.88a6.12,6.12,0,0,0,2.19-.41l0.57,2a6.46,6.46,0,0,1-2.76.53q-3.87,0-3.87-4.05v-0.74Z"/><path class="cls-2" d="M226.49,214.85l2.27-.53V217h2.34v2.17h-2.34v3.37q0,1.14.82,1.14a4,4,0,0,0,1.32-.34l0.57,1.94a3.31,3.31,0,0,1-1.89.58q-3.09,0-3.09-3.31v-3.37h-1.17V217h1.17v-2.16Z"/><path class="cls-2" d="M232.68,213.65h2.27v2.54h-2.27v-2.54Zm0,3.36h2.27v8.85h-2.27V217Z"/><path class="cls-2" d="M236.5,221.06q0-4.05,3.87-4.05t3.87,4.05v0.74q0,4.05-3.87,4.05t-3.87-4.05v-0.74Zm2.27,0.74q0,1.88,1.6,1.88t1.6-1.88v-0.74q0-1.88-1.6-1.88t-1.6,1.88v0.74Z"/><path class="cls-2" d="M245.8,217.51a8.61,8.61,0,0,1,3.48-.5q3.48,0,3.48,3.31v5.54h-2.27v-5.54a1,1,0,0,0-1.21-1.14l-0.67,0-0.54.06v6.59H245.8v-8.35Z"/><path class="cls-2" d="M258.58,217h2.27v8.91q0,3.31-3.48,3.31h-0.74v-2.16h0.74a1,1,0,0,0,1.21-1.15V217Zm0-3.36h2.27v2.54h-2.27v-2.54Z"/><path class="cls-2" d="M262.41,217h2.27v5.54a1,1,0,0,0,1.21,1.14l0.67,0,0.54-.06V217h2.27v8.3a7.71,7.71,0,0,1-3.48.55q-3.48,0-3.48-3.31V217Z"/><path class="cls-2" d="M270.93,217.51a8.61,8.61,0,0,1,3.48-.5,7.53,7.53,0,0,1,1.41.16l-0.51,2.16a3.82,3.82,0,0,0-.9-0.15l-0.67,0-0.54.06v6.59h-2.27v-8.35Z"/><path class="cls-2" d="M277.37,213.65h2.27v2.54h-2.27v-2.54Zm0,3.36h2.27v8.85h-2.27V217Z"/><path class="cls-2" d="M285.89,214.85l2.27-.53v11a7.71,7.71,0,0,1-3.48.55q-3.48,0-3.48-3.69v-1.48q0-3.68,3.48-3.68a4.94,4.94,0,0,1,1.21.11v-2.27Zm0,4.41-0.54-.06-0.67,0q-1.21,0-1.21,1.51v1.48q0,1.52,1.21,1.52l0.67,0,0.54-.06v-4.34Z"/><path class="cls-2" d="M289.72,213.65H292v2.54h-2.27v-2.54Zm0,3.36H292v8.85h-2.27V217Z"/><path class="cls-2" d="M293.54,220.69q0-3.68,3.48-3.68a7.85,7.85,0,0,1,3.48.55V228.8l-2.27.53v-3.58a4.94,4.94,0,0,1-1.21.11q-3.48,0-3.48-3.69v-1.48Zm4.69-1.42-0.54-.06-0.67,0q-1.21,0-1.21,1.51v1.48q0,1.52,1.21,1.52l0.67,0,0.54-.06v-4.34Z"/><path class="cls-2" d="M302.06,217h2.27v5.54a1,1,0,0,0,1.21,1.14l0.67,0,0.54-.06V217H309v8.3a7.71,7.71,0,0,1-3.48.55q-3.48,0-3.48-3.31V217Z"/><path class="cls-2" d="M310.57,221.06q0-4.05,3.71-4.05,3.56,0,3.55,4.05,0,1.45-.74,1.45h-4.26a1.05,1.05,0,0,0,1.21,1.17,8,8,0,0,0,2.73-.45l0.43,2a6.68,6.68,0,0,1-3.16.61q-3.48,0-3.48-4.05v-0.74Zm5-.64a1.12,1.12,0,0,0-1.29-1.24,1.2,1.2,0,0,0-1.45,1.24h2.73Z"/><path class="cls-2" d="M324.06,223.31a10.47,10.47,0,0,0,3,.38q1.21,0,1.21-.55t-1.25-.62q-3.28-.24-3.28-2.79,0-2.72,3.32-2.72a11.88,11.88,0,0,1,3,.48l-0.57,2.08a8.58,8.58,0,0,0-2.44-.38q-1.05,0-1.05.55t1.09,0.63q3.44,0.25,3.44,2.79,0,2.72-3.48,2.72a13.58,13.58,0,0,1-3.55-.48Z"/><path class="cls-2" d="M332.07,217h2.27v5.54a1,1,0,0,0,1.21,1.14l0.67,0,0.54-.06V217H339v8.3a7.71,7.71,0,0,1-3.48.55q-3.48,0-3.48-3.31V217Z"/><path class="cls-2" d="M340.59,217.51a8.61,8.61,0,0,1,3.48-.5,7.53,7.53,0,0,1,1.41.16L345,219.33a3.82,3.82,0,0,0-.9-0.15l-0.67,0-0.54.06v6.59h-2.27v-8.35Z"/><path class="cls-2" d="M351.35,214.85l2.27-.53v11.54h-2.27v-11Z"/><path class="cls-2" d="M355.68,217.64a8.27,8.27,0,0,1,3-.63q3.48,0,3.48,3.31v5a7.71,7.71,0,0,1-3.48.55q-3.48,0-3.48-2.87t4.69-3q0-.8-1.21-0.8a7.75,7.75,0,0,0-2.31.42Zm4.19,4.51q-2.42,0-2.42.84t1.21,0.7l0.67,0,0.54-.06v-1.45Z"/><path class="cls-2" d="M372.69,214.85l2.27-.53v11a7.71,7.71,0,0,1-3.48.55q-3.48,0-3.48-3.69v-1.48q0-3.68,3.48-3.68a4.94,4.94,0,0,1,1.21.11v-2.27Zm0,4.41-0.54-.06-0.67,0q-1.21,0-1.21,1.51v1.48q0,1.52,1.21,1.52l0.67,0,0.54-.06v-4.34Z"/><path class="cls-2" d="M376.52,213.65h2.27v2.54h-2.27v-2.54Zm0,3.36h2.27v8.85h-2.27V217Z"/><path class="cls-2" d="M380.35,217.38h1.17q0-3,3.09-3a4.17,4.17,0,0,1,1.89.41l-0.57,1.94a6.81,6.81,0,0,0-1.32-.19,0.72,0.72,0,0,0-.82.8h2.34v2.16h-2.34v6.31h-2.27v-6.31h-1.17v-2.16Z"/><path class="cls-2" d="M387.78,217.38h1.17q0-3,3.09-3a4.17,4.17,0,0,1,1.89.41l-0.57,1.94a6.81,6.81,0,0,0-1.32-.19,0.72,0.72,0,0,0-.82.8h2.34v2.16h-2.34v6.31h-2.27v-6.31h-1.17v-2.16Z"/><path class="cls-2" d="M395.21,217h2.27v5.54a1,1,0,0,0,1.21,1.14l0.67,0,0.54-.06V217h2.27v8.3a7.71,7.71,0,0,1-3.48.55q-3.48,0-3.48-3.31V217Z"/><path class="cls-2" d="M404.3,223.31a10.47,10.47,0,0,0,3,.38q1.21,0,1.21-.55t-1.25-.62q-3.28-.24-3.28-2.79,0-2.72,3.32-2.72a11.88,11.88,0,0,1,3,.48l-0.57,2.08a8.58,8.58,0,0,0-2.44-.38q-1.05,0-1.05.55t1.09,0.63q3.44,0.25,3.44,2.79,0,2.72-3.48,2.72a13.58,13.58,0,0,1-3.55-.48Z"/><path class="cls-2" d="M412.32,213.65h2.27v2.54h-2.27v-2.54Zm0,3.36h2.27v8.85h-2.27V217Z"/><path class="cls-2" d="M416.14,221.06q0-4.05,3.87-4.05t3.87,4.05v0.74q0,4.05-3.87,4.05t-3.87-4.05v-0.74Zm2.27,0.74q0,1.88,1.6,1.88t1.6-1.88v-0.74q0-1.88-1.6-1.88t-1.6,1.88v0.74Z"/><path class="cls-2" d="M425.44,217.51a8.61,8.61,0,0,1,3.48-.5q3.48,0,3.48,3.31v5.54h-2.27v-5.54a1,1,0,0,0-1.21-1.14l-0.67,0-0.54.06v6.59h-2.27v-8.35Z"/><path class="cls-2" d="M438.27,221.06q0-4.05,3.71-4.05,3.56,0,3.55,4.05,0,1.45-.74,1.45h-4.26a1.05,1.05,0,0,0,1.21,1.17,8,8,0,0,0,2.73-.45l0.43,2a6.68,6.68,0,0,1-3.16.61q-3.48,0-3.48-4.05v-0.74Zm5-.64a1.12,1.12,0,0,0-1.29-1.24,1.2,1.2,0,0,0-1.45,1.24h2.73Z"/><path class="cls-2" d="M448,214.85l2.27-.53V217h2.34v2.17H450.3v3.37q0,1.14.82,1.14a4,4,0,0,0,1.32-.34l0.57,1.94a3.31,3.31,0,0,1-1.89.58q-3.09,0-3.09-3.31v-3.37h-1.17V217H448v-2.16Z"/><path class="cls-2" d="M458.54,214.85l2.27-.53v11.54h-2.27v-11Z"/><path class="cls-2" d="M462.52,214.38h2.27v2.2a2,2,0,0,1-1.67,1.9l-0.75-1.14a1,1,0,0,0,.94-0.8h-0.78v-2.15Z"/><path class="cls-2" d="M466.35,217h2.27v5.54a1,1,0,0,0,1.21,1.14l0.67,0,0.54-.06V217h2.27v8.3a7.71,7.71,0,0,1-3.48.55q-3.48,0-3.48-3.31V217Z"/><path class="cls-2" d="M476,214.85l2.27-.53V217h2.34v2.17H478.3v3.37q0,1.14.82,1.14a4,4,0,0,0,1.32-.34l0.57,1.94a3.31,3.31,0,0,1-1.89.58q-3.09,0-3.09-3.31v-3.37h-1.17V217H476v-2.16Z"/><path class="cls-2" d="M482.22,213.65h2.27v2.54h-2.27v-2.54Zm0,3.36h2.27v8.85h-2.27V217Z"/><path class="cls-2" d="M486.05,214.85l2.27-.53v11.54h-2.27v-11Z"/><path class="cls-2" d="M489.88,213.65h2.27v2.54h-2.27v-2.54Zm0,3.36h2.27v8.85h-2.27V217Z"/><path class="cls-2" d="M494.29,223.31a10.47,10.47,0,0,0,3,.38q1.21,0,1.21-.55t-1.25-.62q-3.28-.24-3.28-2.79,0-2.72,3.32-2.72a11.88,11.88,0,0,1,3,.48l-0.57,2.08a8.58,8.58,0,0,0-2.44-.38q-1.05,0-1.05.55t1.09,0.63q3.44,0.25,3.44,2.79,0,2.72-3.48,2.72a13.58,13.58,0,0,1-3.55-.48Z"/><path class="cls-2" d="M502.8,217.64a8.27,8.27,0,0,1,3-.63q3.48,0,3.48,3.31v5a7.71,7.71,0,0,1-3.48.55q-3.48,0-3.48-2.87t4.69-3q0-.8-1.21-0.8a7.75,7.75,0,0,0-2.31.42Zm4.19,4.51q-2.42,0-2.42.84t1.21,0.7l0.67,0,0.54-.06v-1.45Z"/><path class="cls-2" d="M512,214.85l2.27-.53V217h2.34v2.17h-2.34v3.37q0,1.14.82,1.14a4,4,0,0,0,1.32-.34l0.57,1.94a3.31,3.31,0,0,1-1.89.58q-3.09,0-3.09-3.31v-3.37h-1.17V217H512v-2.16Z"/><path class="cls-2" d="M518.18,213.65h2.27v2.54h-2.27v-2.54Zm0,3.36h2.27v8.85h-2.27V217Z"/><path class="cls-2" d="M522,221.06q0-4.05,3.87-4.05t3.87,4.05v0.74q0,4.05-3.87,4.05T522,221.81v-0.74Zm2.27,0.74q0,1.88,1.6,1.88t1.6-1.88v-0.74q0-1.88-1.6-1.88t-1.6,1.88v0.74Z"/><path class="cls-2" d="M531.3,217.51a8.61,8.61,0,0,1,3.48-.5q3.48,0,3.48,3.31v5.54H536v-5.54a1,1,0,0,0-1.21-1.14l-0.67,0-0.54.06v6.59H531.3v-8.35Z"/><polygon class="cls-8" points="60.87 329.46 47.61 323.06 47.61 307.44 60.87 313.84 60.87 329.46"/><polygon class="cls-9" points="74.13 323.06 60.87 329.46 60.87 313.84 74.13 307.44 74.13 323.06"/><polygon class="cls-10" points="60.87 313.84 74.13 307.44 60.87 301.04 47.61 307.44 60.87 313.84"/><polygon class="cls-11" points="99.26 329.46 86 323.06 86 307.44 99.26 313.84 99.26 329.46"/><polygon class="cls-12" points="112.52 323.06 99.26 329.46 99.26 313.84 112.52 307.44 112.52 323.06"/><polygon class="cls-13" points="99.26 313.84 112.52 307.44 99.26 301.04 86 307.44 99.26 313.84"/><polygon class="cls-14" points="80.09 301.31 66.83 294.91 66.83 279.29 80.09 285.69 80.09 301.31"/><polygon class="cls-15" points="93.35 294.91 80.09 301.31 80.09 285.69 93.35 279.29 93.35 294.91"/><polygon class="cls-16" points="80.09 285.69 93.35 279.29 80.09 272.89 66.83 279.29 80.09 285.69"/><polygon class="cls-7" points="80.06 283.59 100.37 318.77 59.76 318.77 80.06 283.59"/><path class="cls-2" d="M137.11,293.18h2.27v8.91h4.69v2.17h-7V293.18Z"/><path class="cls-2" d="M145.33,292.05h2.27v2.54h-2.27v-2.54Zm0,3.36h2.27v8.85h-2.27v-8.85Z"/><path class="cls-2" d="M149.16,293.25l2.27-.53v2.8a4.94,4.94,0,0,1,1.21-.11q3.48,0,3.48,3.68v1.48q0,3.69-3.48,3.69a7.71,7.71,0,0,1-3.48-.55V293.25Zm4.69,5.84q0-1.51-1.21-1.51l-0.67,0-0.54.06V302l0.54,0.06,0.67,0q1.21,0,1.21-1.52v-1.48Z"/><path class="cls-2" d="M157.68,299.47q0-4.05,3.71-4.05,3.55,0,3.55,4.05,0,1.45-.74,1.45h-4.26a1.05,1.05,0,0,0,1.21,1.17,8,8,0,0,0,2.73-.45l0.43,2a6.68,6.68,0,0,1-3.16.61q-3.48,0-3.48-4.05v-0.74Zm5-.64a1.12,1.12,0,0,0-1.29-1.24,1.2,1.2,0,0,0-1.45,1.24h2.73Z"/><path class="cls-2" d="M166.27,295.91a8.61,8.61,0,0,1,3.48-.5,7.53,7.53,0,0,1,1.41.16l-0.51,2.16a3.83,3.83,0,0,0-.9-0.15l-0.67,0-0.54.06v6.59h-2.27v-8.35Z"/><path class="cls-2" d="M173.89,293.25l2.27-.53v2.69h2.34v2.17h-2.34V301q0,1.14.82,1.14a4,4,0,0,0,1.32-.34l0.57,1.94a3.31,3.31,0,0,1-1.89.58q-3.09,0-3.09-3.31v-3.37h-1.17v-2.17h1.17v-2.16Z"/><path class="cls-2" d="M180.08,299.47q0-4.05,3.71-4.05,3.55,0,3.55,4.05,0,1.45-.74,1.45h-4.26a1.05,1.05,0,0,0,1.21,1.17,8,8,0,0,0,2.73-.45l0.43,2a6.68,6.68,0,0,1-3.16.61q-3.48,0-3.48-4.05v-0.74Zm5-.64a1.12,1.12,0,0,0-1.29-1.24,1.2,1.2,0,0,0-1.45,1.24h2.73Zm-1.87-7.06h2.54l-1.23,2.91h-1.82Z"/><path class="cls-2" d="M197.67,293.25l2.27-.53v11a7.71,7.71,0,0,1-3.48.55q-3.48,0-3.48-3.69v-1.48q0-3.68,3.48-3.68a5,5,0,0,1,1.21.11v-2.27Zm0,4.41-0.54-.06-0.67,0q-1.21,0-1.21,1.51v1.48q0,1.52,1.21,1.52l0.67,0,0.54-.06v-4.34Z"/><path class="cls-2" d="M201.5,299.47q0-4.05,3.71-4.05,3.55,0,3.55,4.05,0,1.45-.74,1.45h-4.26a1.05,1.05,0,0,0,1.21,1.17,8,8,0,0,0,2.73-.45l0.43,2a6.68,6.68,0,0,1-3.16.61q-3.48,0-3.48-4.05v-0.74Zm5-.64a1.12,1.12,0,0,0-1.29-1.24,1.2,1.2,0,0,0-1.45,1.24h2.73Z"/><path class="cls-2" d="M214.4,299.47q0-4.05,3.87-4.05a6.47,6.47,0,0,1,2.76.53l-0.57,2a6.13,6.13,0,0,0-2.19-.41q-1.6,0-1.6,1.88v0.74q0,1.88,1.6,1.88a6.12,6.12,0,0,0,2.19-.41l0.57,2a6.46,6.46,0,0,1-2.76.53q-3.87,0-3.87-4.05v-0.74Z"/><path class="cls-2" d="M222.22,293.29l2.27-.53v2.8a4.94,4.94,0,0,1,1.21-.11q3.48,0,3.48,3.68v5.13H226.9v-5.13q0-1.52-1.21-1.52l-0.67,0-0.54.06v6.56h-2.27v-11Z"/><path class="cls-2" d="M230.73,299.47q0-4.05,3.87-4.05t3.87,4.05v0.74q0,4.05-3.87,4.05t-3.87-4.05v-0.74Zm2.27,0.74q0,1.88,1.6,1.88t1.6-1.88v-0.74q0-1.88-1.6-1.88t-1.6,1.88v0.74Z"/><path class="cls-2" d="M240,292.05h2.27v2.54H240v-2.54Zm0,3.36h2.27v8.85H240v-8.85Z"/><path class="cls-2" d="M243.86,295.41h2.6l1.52,2.74,1.51-2.74h2.6l-2.53,4.42,2.53,4.43h-2.6L248,301.52l-1.52,2.74h-2.6l2.55-4.43Z"/><path class="cls-2" d="M262.64,293.25l2.27-.53v11a7.71,7.71,0,0,1-3.48.55q-3.48,0-3.48-3.69v-1.48q0-3.68,3.48-3.68a4.94,4.94,0,0,1,1.21.11v-2.27Zm0,4.41-0.54-.06-0.67,0q-1.21,0-1.21,1.51v1.48q0,1.52,1.21,1.52l0.67,0,0.54-.06v-4.34Z"/><path class="cls-2" d="M266.47,295.41h2.27V301a1,1,0,0,0,1.21,1.14l0.67,0,0.54-.06v-6.59h2.27v8.3a7.71,7.71,0,0,1-3.48.55q-3.48,0-3.48-3.31v-5.54Z"/><path class="cls-2" d="M279.3,293.25l2.27-.53v11.54H279.3v-11Z"/><path class="cls-2" d="M283.13,299.47q0-4.05,3.87-4.05t3.87,4.05v0.74q0,4.05-3.87,4.05t-3.87-4.05v-0.74Zm2.27,0.74q0,1.88,1.6,1.88t1.6-1.88v-0.74q0-1.88-1.6-1.88t-1.6,1.88v0.74Z"/><path class="cls-2" d="M292.43,299.09q0-3.68,3.48-3.68a7.85,7.85,0,0,1,3.48.55v8.33q0,3.35-3.48,3.35a10.25,10.25,0,0,1-3.16-.49l0.58-2.19a6,6,0,0,0,2.58.52,1.06,1.06,0,0,0,1.21-1.19v-0.37a1.81,1.81,0,0,1-1.21.34q-3.48,0-3.48-3.69v-1.48Zm4.69-1.42-0.54-.06-0.67,0q-1.21,0-1.21,1.51v1.48q0,1.52,1.21,1.52a2,2,0,0,0,1.21-.32v-4.1Z"/><path class="cls-2" d="M300.94,292.05h2.27v2.54h-2.27v-2.54Zm0,3.36h2.27v8.85h-2.27v-8.85Z"/><path class="cls-2" d="M304.77,299.47q0-4.05,3.87-4.05a6.47,6.47,0,0,1,2.76.53l-0.57,2a6.12,6.12,0,0,0-2.19-.41q-1.6,0-1.6,1.88v0.74q0,1.88,1.6,1.88a6.11,6.11,0,0,0,2.19-.41l0.57,2a6.46,6.46,0,0,1-2.76.53q-3.87,0-3.87-4.05v-0.74Z"/><path class="cls-2" d="M312.58,292.05h2.27v2.54h-2.27v-2.54Zm0,3.36h2.27v8.85h-2.27v-8.85Z"/><path class="cls-2" d="M316.41,299.47q0-4.05,3.71-4.05,3.56,0,3.55,4.05,0,1.45-.74,1.45h-4.26a1.05,1.05,0,0,0,1.21,1.17,8,8,0,0,0,2.73-.45l0.43,2a6.68,6.68,0,0,1-3.16.61q-3.48,0-3.48-4.05v-0.74Zm5-.64a1.12,1.12,0,0,0-1.29-1.24,1.2,1.2,0,0,0-1.45,1.24h2.73Z"/><path class="cls-2" d="M325,293.25l2.27-.53v11.54H325v-11Z"/><path class="cls-2" d="M329,301.72h2.27v2.2a2,2,0,0,1-1.68,1.9l-0.75-1.15a1,1,0,0,0,.95-0.8H329v-2.15Z"/><path class="cls-2" d="M337.14,292.05h2.27v2.54h-2.27v-2.54Zm0,3.36h2.27v8.85h-2.27v-8.85Z"/><path class="cls-2" d="M341,295.91a8.61,8.61,0,0,1,3.48-.5q3.48,0,3.48,3.31v5.54h-2.27v-5.54a1,1,0,0,0-1.21-1.14l-0.67,0-0.54.06v6.59H341v-8.35Z"/><path class="cls-2" d="M350.65,293.25l2.27-.53v2.69h2.34v2.17h-2.34V301q0,1.14.82,1.14a4,4,0,0,0,1.32-.34l0.57,1.94a3.31,3.31,0,0,1-1.89.58q-3.09,0-3.09-3.31v-3.37h-1.17v-2.17h1.17v-2.16Z"/><path class="cls-2" d="M356.84,299.47q0-4.05,3.71-4.05,3.56,0,3.55,4.05,0,1.45-.74,1.45h-4.26a1.05,1.05,0,0,0,1.21,1.17,8,8,0,0,0,2.73-.45l0.43,2a6.68,6.68,0,0,1-3.16.61q-3.48,0-3.48-4.05v-0.74Zm5-.64a1.12,1.12,0,0,0-1.29-1.24,1.2,1.2,0,0,0-1.45,1.24h2.73Z"/><path class="cls-2" d="M365.43,295.91a8.61,8.61,0,0,1,3.48-.5,7.53,7.53,0,0,1,1.41.16l-0.51,2.16a3.82,3.82,0,0,0-.9-0.15l-0.67,0-0.54.06v6.59h-2.27v-8.35Z"/><path class="cls-2" d="M371.88,299.47q0-4.05,3.87-4.05t3.87,4.05v0.74q0,4.05-3.87,4.05t-3.87-4.05v-0.74Zm2.27,0.74q0,1.88,1.6,1.88t1.6-1.88v-0.74q0-1.88-1.6-1.88t-1.6,1.88v0.74Z"/><path class="cls-2" d="M381.18,296a7.82,7.82,0,0,1,3.48-.55q3.48,0,3.48,3.68v1.48q0,3.69-3.48,3.69a4.94,4.94,0,0,1-1.21-.11v3l-2.27.53V296Zm4.69,3.13q0-1.51-1.21-1.51l-0.67,0-0.54.06V302l0.54,0.06,0.67,0q1.21,0,1.21-1.52v-1.48Z"/><path class="cls-2" d="M389.69,299.47q0-4.05,3.71-4.05,3.56,0,3.55,4.05,0,1.45-.74,1.45H392a1.05,1.05,0,0,0,1.21,1.17,8,8,0,0,0,2.73-.45l0.43,2a6.68,6.68,0,0,1-3.16.61q-3.48,0-3.48-4.05v-0.74Zm5-.64a1.12,1.12,0,0,0-1.29-1.24,1.2,1.2,0,0,0-1.45,1.24h2.73Zm-1.87-7.06h2.54l-1.23,2.91h-1.82Z"/><path class="cls-2" d="M398.29,295.91a8.61,8.61,0,0,1,3.48-.5,7.53,7.53,0,0,1,1.41.16l-0.51,2.16a3.82,3.82,0,0,0-.9-0.15l-0.67,0-0.54.06v6.59h-2.27v-8.35Z"/><path class="cls-2" d="M405.23,296a8.27,8.27,0,0,1,3-.63q3.48,0,3.48,3.31v5a7.71,7.71,0,0,1-3.48.55q-3.48,0-3.48-2.87t4.69-3q0-.8-1.21-0.8a7.75,7.75,0,0,0-2.31.42Zm4.19,4.51q-2.42,0-2.42.84t1.21,0.7l0.67,0,0.54-.06v-1.45Z"/><path class="cls-2" d="M413.25,293.25l2.27-.53v2.8a4.94,4.94,0,0,1,1.21-.11q3.48,0,3.48,3.68v1.48q0,3.69-3.48,3.69a7.71,7.71,0,0,1-3.48-.55V293.25Zm4.69,5.84q0-1.51-1.21-1.51l-0.67,0-0.54.06V302l0.54,0.06,0.67,0q1.21,0,1.21-1.52v-1.48Z"/><path class="cls-2" d="M421.76,292.05H424v2.54h-2.27v-2.54Zm0,3.36H424v8.85h-2.27v-8.85Z"/><path class="cls-2" d="M425.59,293.25l2.27-.53v11.54h-2.27v-11Z"/><path class="cls-2" d="M429.42,292.05h2.27v2.54h-2.27v-2.54Zm0,3.36h2.27v8.85h-2.27v-8.85Z"/><path class="cls-2" d="M432.47,295.41h2.46l1.53,5.37,1.52-5.37h2.47l-2.8,8.85h-2.39Z"/></svg>