<svg id="Calque_1" data-name="Calque 1" xmlns="http://www.w3.org/2000/svg" viewBox="0 0 590 400.9"><defs><style>.cls-1{fill:#0f6e96;}.cls-2{fill:#afa715;}.cls-3{fill:#166f97;}.cls-4{fill:#ca4c24;}.cls-5{fill:#c8bebe;}.cls-6{fill:#7a2b24;}.cls-7{fill:#afa714;}.cls-8{fill:#d2a039;}.cls-9{fill:#c94b24;}.cls-10{fill:none;stroke:#0f6e96;stroke-miterlimit:10;stroke-width:4px;}</style></defs><title>3_3_Format_Ouvert_exemple</title><path class="cls-1" d="M31.59,29.8h8.26v2.58H34.28v2.71h5.1v2.58h-5.1v2.71h5.57V43H31.59V29.8Z"/><path class="cls-1" d="M41.71,32.44H44.8l1.8,3.26,1.79-3.26h3.09l-3,5.25,3,5.26H48.39L46.6,39.69,44.8,43H41.71l3-5.26Z"/><path class="cls-1" d="M53.33,37.25q0-4.81,4.41-4.81,4.22,0,4.22,4.81Q62,39,61.08,39H56a1.25,1.25,0,0,0,1.44,1.39,9.48,9.48,0,0,0,3.24-.53l0.51,2.38a7.94,7.94,0,0,1-3.75.72q-4.13,0-4.13-4.81V37.25Zm5.94-.76A1.33,1.33,0,0,0,57.74,35Q56,35,56,36.49h3.25Z"/><path class="cls-1" d="M63.54,33a10.22,10.22,0,0,1,4.13-.59,3.54,3.54,0,0,1,2.19.54,5.83,5.83,0,0,1,2.91-.54q3.67,0,3.67,3.93V43H73.74V36.37q0-1.35-1-1.35a3.21,3.21,0,0,0-1.44.29V43H68.64V36.37q0-1.35-1-1.35-0.45,0-.8,0l-0.64.07V43H63.54V33Z"/><path class="cls-1" d="M78.29,33.09a9.28,9.28,0,0,1,4.13-.65q4.13,0,4.13,4.37v1.76q0,4.38-4.13,4.38A5.87,5.87,0,0,1,81,42.82v3.62l-2.69.63v-14Zm5.57,3.72q0-1.79-1.44-1.79-0.45,0-.8,0L81,35.12v5.15l0.64,0.07q0.35,0,.8,0,1.44,0,1.44-1.8V36.81Z"/><path class="cls-1" d="M88.4,29.88l2.69-.63V43H88.4V29.88Z"/><path class="cls-1" d="M92.95,37.25q0-4.81,4.41-4.81,4.22,0,4.22,4.81,0,1.73-.88,1.73H95.64a1.25,1.25,0,0,0,1.44,1.39,9.48,9.48,0,0,0,3.24-.53l0.51,2.38a7.94,7.94,0,0,1-3.75.72q-4.13,0-4.13-4.81V37.25Zm5.94-.76A1.33,1.33,0,0,0,97.35,35q-1.72,0-1.72,1.48h3.25Z"/><path class="cls-2" d="M261.37,70.08l17.44-7.88v6l-9.68,4.68,9.68,4.68v6l-17.44-7.88V70.08Z"/><path class="cls-2" d="M290,55.25h5.72L285.43,90.48h-5.76Z"/><path class="cls-2" d="M296.43,62.2l17.44,7.88v5.57l-17.44,7.88v-6l9.68-4.68-9.68-4.68v-6Z"/><path class="cls-3" d="M142.07,278a22.79,22.79,0,1,0-22.78-22.79A22.79,22.79,0,0,0,142.07,278Z"/><path class="cls-4" d="M161.78,243.89a23,23,0,0,0-11.48-8.61c1.09,0.45,6.17,4.05,6.9,7.63a8.83,8.83,0,0,0-4.53-2.55c2,1.51,5.43,6,5.07,12.78a13.78,13.78,0,0,0-2.15-3.4c0.73,6.67.09,8.11-.35,9.88a5.68,5.68,0,0,0-.55-1.8c-1.43,13.52-17.55,11-19.39,5.47a9.36,9.36,0,0,0,7.08-.93c1.63-1.12,2.61-1.95,3.49-1.74a0.84,0.84,0,0,0,.77-1.46,4.52,4.52,0,0,0-4.55-1.26c-1.7.43-3.18,1.81-5.57,0.85-1.39-.57-3.39-1.62-3.43-4a1.94,1.94,0,0,1,.93-1.59,2.73,2.73,0,0,1,2.08.74,3,3,0,0,0,.15-3.18c0.12-.58,3.49-2.31,3.74-2.5a3.18,3.18,0,0,0,.95-1.13,2.49,2.49,0,0,0,.26-1.34c0-.45-0.28-0.72-3.93-0.68a2.42,2.42,0,0,1-2-1.12l-0.22-.34a3.38,3.38,0,0,1-.19-0.41c0.43-1.58,3.2-4.53,3.2-4.53-1.57-.23-5.49,1.57-6.26,2.59h0a9.84,9.84,0,0,0-5.46.08c-2.19-1.31-2.65-4.43-2.66-4.51-1.09.47-4.12,4.84-2.38,8.35a9.05,9.05,0,0,0-1.09,1.81,24.29,24.29,0,0,0-2,6.73,16.24,16.24,0,0,1,1.16-2.62,23.07,23.07,0,0,0-.76,8.58c0-.14.14-1.18,0.43-2.57a21.09,21.09,0,0,0,2.92,9.7C126,273.25,131.67,279,143.3,279c13.83,0,22.69-13.73,22.43-22.43C165.65,253.61,164.88,248.2,161.78,243.89Z"/><path class="cls-4" d="M141.23,245.83c0-.45-0.31-0.76-4-0.73a2.72,2.72,0,0,1-2.43-1.85,10.19,10.19,0,0,0-.16,4.59,7.55,7.55,0,0,0,1.45,2.77c0.11,0.11.16,0.14,0.19,0.07a33.46,33.46,0,0,1,3.63-2.36A3.13,3.13,0,0,0,141.23,245.83Z"/><path class="cls-5" d="M135,248.85a6.78,6.78,0,0,0,1.27,1.92,35.41,35.41,0,0,1,3.68-2.45A3.34,3.34,0,0,0,141,247,14,14,0,0,1,135,248.85Z"/><path class="cls-6" d="M141.29,246.88c0.16-.41.35-1.35-0.19-1.55a5.38,5.38,0,0,0-1.57-.18,1.92,1.92,0,0,1,1.12.53,3.26,3.26,0,0,1-.05,2.15A2,2,0,0,0,141.29,246.88Z"/><circle class="cls-3" cx="230.46" cy="256.29" r="9.63"/><path class="cls-5" d="M230.46,246.66a9.63,9.63,0,1,1-9.63,9.63,9.63,9.63,0,0,1,9.63-9.63m0-1.16a10.76,10.76,0,1,0,4.2.85,10.72,10.72,0,0,0-4.2-.85h0Z"/><path class="cls-4" d="M252,245.67a24,24,0,0,0-41.29-2.78l9.63,16.68a10.7,10.7,0,0,1,7-13.42,10.45,10.45,0,0,1,3.06-.49"/><path class="cls-7" d="M210.67,242.89a24,24,0,0,0,18,37.23L238.69,263a10.7,10.7,0,0,1-18.4-3.43"/><path class="cls-8" d="M228.64,280.12A24,24,0,0,0,252,245.67H230.35A10.7,10.7,0,0,1,238.69,263"/><g id="layer1"><path id="svg" class="cls-3" d="M358.08,257.39a21.82,21.82,0,0,0-2.75-10.62c7.44-16.84-8-14.37-8.83-14.21a38.38,38.38,0,0,0-9.08,3c-0.41,0-.82,0-1.25,0a21.91,21.91,0,0,0-21.34,17c5.49-6.15,9.33-8.63,11.62-9.62-0.36.32-.73,0.66-1.09,1l-0.34.34-0.68.68-0.41.41c-0.2.2-.41,0.41-0.59,0.61l-0.41.43-0.54.59c-0.14.16-.27,0.32-0.41,0.45l-0.5.57-0.41.48c-0.16.18-.32,0.36-0.48,0.57s-0.27.32-.41,0.5-0.3.36-.43,0.52l-0.41.52a4,4,0,0,0-.36.5l-0.41.54a4.36,4.36,0,0,1-.3.39c-0.86,1.18-1.66,2.34-2.36,3.45h0c-0.18.3-.36,0.59-0.54,0.86,0,0,0,0,0,0-0.18.3-.34,0.57-0.52,0.84l0,0c-0.45.75-.86,1.48-1.25,2.16a47.79,47.79,0,0,0-3,6.22c-6.22,22.27,13.21,12.87,15.91,11.46a21.66,21.66,0,0,0,9.69,2.25,21.92,21.92,0,0,0,20.63-14.57H345.32a10.09,10.09,0,0,1-8.74,4.83c-5.52,0-10-4.18-10-9.33h31.32a22,22,0,0,0,.16-2.79h0ZM354,235.85c1.88,1.27,3.4,3.27.79,10A22.06,22.06,0,0,0,344.1,237C346.14,236,351.16,233.94,354,235.85ZM313.93,277c-1.54-1.57-1.82-5.4,1.59-12.39a21.89,21.89,0,0,0,9.53,11.64C322.85,277.46,317,280.18,313.93,277Zm12.62-22.77a9.94,9.94,0,0,1,19.79,0H326.55Z"/></g><polygon class="cls-2" points="358.36 317.17 344.69 303.27 343.88 303.27 343.88 317.82 358.36 317.82 358.36 317.17"/><path class="cls-2" d="M339.32,322.37v-19.1H318.95v47.81h39.41V322.37h-19Zm12.06,23.45H325.92V339h25.47v6.83Zm0-11.39H325.92V327.6h25.47v6.83Z"/><path class="cls-9" d="M359.14,332.5l-7.91,7.91-3.88-3.88a5.79,5.79,0,0,0-1.68,4.08V346l-6.53,6.53-2.62,9.73,9.73-2.62,20-20Zm-16.36,23.42a1.8,1.8,0,1,1,1.8-1.8A1.8,1.8,0,0,1,342.78,355.92Z"/><path class="cls-1" d="M231.86,101h8.69v2.71h-5.86v2.85h5.37v2.71h-5.37v5.57h-2.83V101Z"/><path class="cls-1" d="M242.5,99.56h2.83v3.17H242.5V99.56Zm0,4.2h2.83v11.06H242.5V103.75Z"/><path class="cls-1" d="M247.29,108.82q0-5.07,4.83-5.07a8.08,8.08,0,0,1,3.45.66L254.85,107a7.65,7.65,0,0,0-2.73-.51q-2,0-2,2.35v0.93q0,2.35,2,2.35a7.65,7.65,0,0,0,2.73-.51l0.71,2.56a8.08,8.08,0,0,1-3.45.66q-4.83,0-4.83-5.07v-0.93Z"/><path class="cls-1" d="M257.05,101.11l2.83-.66v3.5a6.17,6.17,0,0,1,1.51-.14q4.35,0,4.35,4.6v6.42h-2.83V108.4q0-1.89-1.51-1.89-0.47,0-.84,0l-0.67.08v8.2h-2.83V101.11Z"/><path class="cls-1" d="M267.7,99.56h2.83v3.17H267.7V99.56Zm0,4.2h2.83v11.06H267.7V103.75Z"/><path class="cls-1" d="M272.48,108.82q0-5.07,4.64-5.07,4.44,0,4.44,5.07,0,1.82-.93,1.82h-5.32a1.32,1.32,0,0,0,1.51,1.46,10,10,0,0,0,3.41-.56l0.54,2.51a8.35,8.35,0,0,1-3.95.76q-4.35,0-4.35-5.07v-0.93Zm6.25-.8a1.4,1.4,0,0,0-1.61-1.55q-1.81,0-1.81,1.55h3.42Z"/><path class="cls-1" d="M283.22,104.38a10.76,10.76,0,0,1,4.35-.62,9.4,9.4,0,0,1,1.76.21l-0.63,2.7a4.77,4.77,0,0,0-1.12-.19q-0.47,0-.84,0l-0.67.08v8.24h-2.83V104.38Z"/><path class="cls-1" d="M296.67,101h2.83v5.57H304V101h2.83v13.85H304v-5.57H299.5v5.57h-2.83V101Z"/><path class="cls-1" d="M308.78,101h9.67v2.71H315v11.13H312.2V103.69h-3.42V101Z"/><path class="cls-1" d="M320.4,101h4.37l2.42,9.35,2.42-9.35H334v13.85h-2.83v-9.06l-2.47,9.06h-3l-2.47-9.06v9.06H320.4V101Z"/><path class="cls-1" d="M335.93,101h2.83V112.1h5.86v2.71h-8.69V101Z"/><circle class="cls-5" cx="142.07" cy="329.07" r="23.75"/><circle class="cls-1" cx="142.07" cy="329.07" r="21.24"/><polygon class="cls-9" points="139.28 326.28 156.03 315.11 144.85 331.85 139.28 326.28"/><polygon class="cls-5" points="144.85 331.85 128.11 343.02 139.28 326.28 144.85 331.85"/><rect class="cls-5" x="159.83" y="328.8" width="2.51" height="0.57"/><rect class="cls-5" x="121.8" y="328.8" width="2.51" height="0.57"/><rect class="cls-5" x="141.78" y="308.82" width="0.57" height="2.51"/><rect class="cls-5" x="141.78" y="346.85" width="0.57" height="2.51"/><rect class="cls-5" x="154.26" y="315.35" width="2.51" height="0.57" transform="translate(-177.64 202.42) rotate(-45)"/><rect class="cls-5" x="127.37" y="342.25" width="2.51" height="0.57" transform="translate(-204.53 191.28) rotate(-45)"/><rect class="cls-5" x="155.23" y="341.28" width="0.57" height="2.51" transform="translate(-196.66 210.29) rotate(-45)"/><rect class="cls-5" x="128.34" y="314.39" width="0.57" height="2.51" transform="translate(-185.52 183.4) rotate(-45)"/><rect class="cls-5" x="160.17" y="332.69" width="0.57" height="2.51" transform="translate(-203.4 403.77) rotate(-75.2)"/><rect class="cls-5" x="123.4" y="322.98" width="0.57" height="2.51" transform="matrix(0.26, -0.97, 0.97, 0.26, -221.38, 360.98)"/><rect class="cls-5" x="145.67" y="310.41" width="2.51" height="0.57" transform="translate(-191 373.38) rotate(-75.2)"/><rect class="cls-5" x="135.96" y="347.19" width="2.51" height="0.57" transform="matrix(0.26, -0.97, 0.97, 0.26, -233.78, 391.37)"/><rect class="cls-5" x="151.35" y="344.27" width="0.57" height="2.51" transform="translate(-153.22 123.17) rotate(-30.2)"/><rect class="cls-5" x="132.22" y="311.4" width="0.57" height="2.51" transform="translate(-139.28 109.08) rotate(-30.2)"/><rect class="cls-5" x="159.1" y="323.58" width="2.51" height="0.57" transform="translate(-82.81 56.52) rotate(-15.95)"/><rect class="cls-5" x="122.53" y="334.03" width="2.51" height="0.57" transform="translate(-87.09 46.88) rotate(-15.95)"/><rect class="cls-5" x="136.56" y="309.55" width="0.57" height="2.51" transform="translate(-80.13 49.56) rotate(-15.95)"/><rect class="cls-5" x="147.01" y="346.12" width="0.57" height="2.51" transform="matrix(0.96, -0.27, 0.27, 0.96, -89.78, 53.84)"/><rect class="cls-5" x="158.41" y="337.07" width="0.57" height="2.51" transform="translate(-214.12 312.76) rotate(-60.95)"/><rect class="cls-5" x="125.16" y="318.6" width="0.57" height="2.51" transform="translate(-215.08 274.19) rotate(-60.95)"/><rect class="cls-5" x="157.2" y="319.14" width="2.51" height="0.57" transform="translate(-140.26 124.72) rotate(-30.52)"/><rect class="cls-5" x="124.43" y="338.46" width="2.51" height="0.57" transform="translate(-154.61 110.76) rotate(-30.52)"/><rect class="cls-5" x="149.96" y="312.13" width="2.51" height="0.57" transform="translate(-195.42 294.82) rotate(-61.27)"/><rect class="cls-5" x="131.67" y="345.48" width="2.51" height="0.57" transform="translate(-234.16 296.11) rotate(-61.27)"/><path class="cls-4" d="M429.38,233.5c-12.39,0-21.28,9-21.28,22.46,0,12,8.66,22.88,21.28,22.88s21.46-10.89,21.46-22.88C450.84,242.37,441.66,233.5,429.38,233.5Zm0,40.25h0a5.82,5.82,0,0,1-3.44-1l-0.07-.05-0.11-.09a7.18,7.18,0,0,1-1.6-1.81c-2.31-3.71-2.45-10.17-2.45-15.19,0-6.41.44-12.63,3.34-15.52a6,6,0,0,1,4.34-1.69,6.24,6.24,0,0,1,5.42,3c2.06,3.25,2.47,8.69,2.47,14.18C437.27,263.07,436.87,273.75,429.38,273.75Z"/><circle class="cls-9" cx="230.46" cy="329.07" r="4.97"/><path class="cls-5" d="M222.46,325.89a8.6,8.6,0,0,1,16,0h15.77a24,24,0,0,0-47.54,0h15.77Z"/><path class="cls-5" d="M238.46,332.24a8.6,8.6,0,0,1-16,0H206.69a24,24,0,0,0,47.54,0H238.46Z"/><path class="cls-1" d="M418.08,324.93h5.52v6.19h-5.52v-6.19Z"/><path class="cls-1" d="M427.41,324.93h5.52v6.19h-5.52v-6.19Z"/><path class="cls-1" d="M436.74,324.93h5.52v6.19h-5.52v-6.19Z"/><line class="cls-10" x1="285.26" y1="135.03" x2="285.26" y2="156.89"/><polygon class="cls-1" points="279.27 155.14 285.25 165.5 291.24 155.14 279.27 155.14"/><path class="cls-1" d="M39.74,187.79H48v2.58H42.43v2.71h5.1v2.58h-5.1v5.29H39.74V187.79Z"/><path class="cls-1" d="M49.85,195.25q0-4.81,4.59-4.81T59,195.25v0.88q0,4.81-4.59,4.81t-4.59-4.81v-0.88Zm2.69,0.88q0,2.24,1.9,2.24t1.9-2.24v-0.88q0-2.24-1.9-2.24t-1.9,2.24v0.88Z"/><path class="cls-1" d="M60.89,191a10.22,10.22,0,0,1,4.13-.59,8.94,8.94,0,0,1,1.67.19l-0.6,2.56A4.53,4.53,0,0,0,65,193q-0.45,0-.8,0l-0.64.07v7.83H60.89V191Z"/><path class="cls-1" d="M68.54,191a10.22,10.22,0,0,1,4.13-.59,3.54,3.54,0,0,1,2.19.54,5.83,5.83,0,0,1,2.91-.54q3.67,0,3.67,3.93v6.58H78.75v-6.58q0-1.35-1-1.35a3.21,3.21,0,0,0-1.44.29v7.64H73.64v-6.58q0-1.35-1-1.35-0.45,0-.8,0l-0.64.07v7.83H68.54V191Z"/><path class="cls-1" d="M83.89,191.19a9.82,9.82,0,0,1,3.54-.75q4.13,0,4.13,3.93v5.92a9.15,9.15,0,0,1-4.13.66q-4.13,0-4.13-3.4,0-3.58,5.57-3.58,0-.95-1.44-0.95a9.19,9.19,0,0,0-2.75.5Zm5,5.35q-2.88,0-2.88,1,0,0.83,1.44.83,0.45,0,.8,0l0.64-.07v-1.73Z"/><path class="cls-1" d="M94.8,187.88l2.69-.63v3.19h2.78V193H97.49v4q0,1.35,1,1.35A4.71,4.71,0,0,0,100,198l0.68,2.3a3.93,3.93,0,0,1-2.24.69q-3.67,0-3.67-3.93v-4H93.4v-2.58H94.8v-2.56Z"/><path class="cls-9" d="M107.27,187.88l2.69-.63v13.7h-2.69V187.88Z"/><path class="cls-9" d="M111.81,186.45h2.69v3h-2.69v-3Zm0,4h2.69v10.51h-2.69V190.44Z"/><path class="cls-9" d="M116.36,187.88l2.69-.63v3.32a5.87,5.87,0,0,1,1.44-.13q4.13,0,4.13,4.37v1.76q0,4.38-4.13,4.38a9.16,9.16,0,0,1-4.13-.66V187.88Zm5.57,6.93q0-1.79-1.44-1.79-0.45,0-.8,0l-0.64.07v5.15l0.64,0.07q0.35,0,.8,0,1.44,0,1.44-1.8v-1.76Z"/><path class="cls-9" d="M126.47,191a10.22,10.22,0,0,1,4.13-.59,8.94,8.94,0,0,1,1.67.19l-0.6,2.56a4.53,4.53,0,0,0-1.07-.18q-0.45,0-.8,0l-0.64.07v7.83h-2.69V191Z"/><path class="cls-9" d="M134.12,195.25q0-4.81,4.41-4.81,4.22,0,4.22,4.81,0,1.73-.88,1.73h-5.06a1.25,1.25,0,0,0,1.44,1.39,9.48,9.48,0,0,0,3.24-.53l0.51,2.38a7.94,7.94,0,0,1-3.75.72q-4.13,0-4.13-4.81v-0.88Zm5.94-.76a1.33,1.33,0,0,0-1.53-1.48q-1.72,0-1.72,1.48h3.25Z"/><path class="cls-1" d="M149.45,191.32h8.26v2.58h-8.26v-2.58Zm0,3.53h8.26v2.58h-8.26v-2.58Z"/><path class="cls-1" d="M164.68,187.79h2.69v13.16h-2.69V187.79Z"/><path class="cls-1" d="M169.23,191a10.22,10.22,0,0,1,4.13-.59q4.13,0,4.13,3.93v6.58H174.8v-6.58a1.24,1.24,0,0,0-1.44-1.35q-0.45,0-.8,0l-0.64.07v7.83h-2.69V191Z"/><path class="cls-1" d="M180.73,187.88l2.69-.63v3.19h2.78V193h-2.78v4q0,1.35,1,1.35A4.71,4.71,0,0,0,186,198l0.68,2.3a3.93,3.93,0,0,1-2.24.69q-3.67,0-3.67-3.93v-4h-1.39v-2.58h1.39v-2.56Z"/><path class="cls-1" d="M188.08,195.25q0-4.81,4.41-4.81,4.22,0,4.22,4.81,0,1.73-.88,1.73h-5.06a1.25,1.25,0,0,0,1.44,1.39,9.48,9.48,0,0,0,3.24-.53l0.51,2.38a7.94,7.94,0,0,1-3.75.72q-4.13,0-4.13-4.81v-0.88Zm5.94-.76a1.33,1.33,0,0,0-1.53-1.48q-1.72,0-1.72,1.48H194Z"/><path class="cls-1" d="M198.29,191a10.22,10.22,0,0,1,4.13-.59,8.94,8.94,0,0,1,1.67.19l-0.6,2.56a4.53,4.53,0,0,0-1.07-.18q-0.45,0-.8,0l-0.64.07v7.83h-2.69V191Z"/><path class="cls-1" d="M205.94,191.09a9.28,9.28,0,0,1,4.13-.65q4.13,0,4.13,4.37v1.76q0,4.38-4.13,4.38a5.87,5.87,0,0,1-1.44-.13v3.62l-2.69.63v-14Zm5.57,3.72q0-1.79-1.44-1.79-0.45,0-.8,0l-0.64.07v5.15l0.64,0.07q0.35,0,.8,0,1.44,0,1.44-1.8v-1.76Z"/><path class="cls-1" d="M216.05,191a10.22,10.22,0,0,1,4.13-.59,8.94,8.94,0,0,1,1.67.19l-0.6,2.56a4.53,4.53,0,0,0-1.07-.18q-0.45,0-.8,0l-0.64.07v7.83h-2.69V191Z"/><path class="cls-1" d="M223.71,195.25q0-4.81,4.41-4.81,4.22,0,4.22,4.81,0,1.73-.88,1.73H226.4a1.25,1.25,0,0,0,1.44,1.39,9.48,9.48,0,0,0,3.24-.53l0.51,2.38a7.94,7.94,0,0,1-3.75.72q-4.13,0-4.13-4.81v-0.88Zm5.94-.76a1.33,1.33,0,0,0-1.53-1.48q-1.72,0-1.72,1.48h3.25Zm-2.23-8.39h3L229,189.56h-2.16Z"/><path class="cls-1" d="M235.3,187.88l2.69-.63v3.19h2.78V193H238v4q0,1.35,1,1.35a4.71,4.71,0,0,0,1.57-.41l0.68,2.3a3.93,3.93,0,0,1-2.24.69q-3.67,0-3.67-3.93v-4h-1.39v-2.58h1.39v-2.56Z"/><path class="cls-1" d="M243.24,191.19a9.82,9.82,0,0,1,3.54-.75q4.13,0,4.13,3.93v5.92a9.15,9.15,0,0,1-4.13.66q-4.13,0-4.13-3.4,0-3.58,5.57-3.58,0-.95-1.44-0.95a9.19,9.19,0,0,0-2.75.5Zm5,5.35q-2.88,0-2.88,1,0,0.83,1.44.83,0.45,0,.8,0l0.64-.07v-1.73Z"/><path class="cls-1" d="M252.76,187.88l2.69-.63v3.32a5.87,5.87,0,0,1,1.44-.13q4.13,0,4.13,4.37v1.76q0,4.38-4.13,4.38a9.16,9.16,0,0,1-4.13-.66V187.88Zm5.57,6.93q0-1.79-1.44-1.79-0.45,0-.8,0l-0.64.07v5.15l0.64,0.07q0.35,0,.8,0,1.44,0,1.44-1.8v-1.76Z"/><path class="cls-1" d="M262.87,187.88l2.69-.63v13.7h-2.69V187.88Z"/><path class="cls-1" d="M267.42,195.25q0-4.81,4.41-4.81,4.22,0,4.22,4.81,0,1.73-.88,1.73h-5.06a1.25,1.25,0,0,0,1.44,1.39,9.48,9.48,0,0,0,3.24-.53l0.51,2.38a7.94,7.94,0,0,1-3.75.72q-4.13,0-4.13-4.81v-0.88Zm5.94-.76a1.33,1.33,0,0,0-1.53-1.48q-1.72,0-1.72,1.48h3.25Z"/><path class="cls-1" d="M282.75,191.09a9.28,9.28,0,0,1,4.13-.65q4.13,0,4.13,4.37v1.76q0,4.38-4.13,4.38a5.87,5.87,0,0,1-1.44-.13v3.62l-2.69.63v-14Zm5.57,3.72q0-1.79-1.44-1.79-0.45,0-.8,0l-0.64.07v5.15l0.64,0.07q0.35,0,.8,0,1.44,0,1.44-1.8v-1.76Z"/><path class="cls-1" d="M293.45,191.19a9.82,9.82,0,0,1,3.54-.75q4.13,0,4.13,3.93v5.92a9.15,9.15,0,0,1-4.13.66q-4.13,0-4.13-3.4,0-3.58,5.57-3.58,0-.95-1.44-0.95a9.19,9.19,0,0,0-2.75.5Zm5,5.35q-2.88,0-2.88,1,0,0.83,1.44.83,0.45,0,.8,0l0.64-.07v-1.73Z"/><path class="cls-1" d="M303,191a10.22,10.22,0,0,1,4.13-.59,8.94,8.94,0,0,1,1.67.19l-0.6,2.56a4.53,4.53,0,0,0-1.07-.18q-0.45,0-.8,0l-0.64.07v7.83H303V191Z"/><path class="cls-1" d="M315.75,190.44h2.69V197a1.24,1.24,0,0,0,1.44,1.35q0.45,0,.8,0l0.64-.07v-7.83H324v9.85a9.15,9.15,0,0,1-4.13.66q-4.13,0-4.13-3.93v-6.58Z"/><path class="cls-1" d="M325.86,191a10.22,10.22,0,0,1,4.13-.59q4.13,0,4.13,3.93v6.58h-2.69v-6.58A1.24,1.24,0,0,0,330,193q-0.45,0-.8,0l-0.64.07v7.83h-2.69V191Z"/><path class="cls-1" d="M336,195.25q0-4.81,4.41-4.81,4.22,0,4.22,4.81,0,1.73-.88,1.73h-5.06a1.25,1.25,0,0,0,1.44,1.39,9.48,9.48,0,0,0,3.24-.53l0.51,2.38a7.94,7.94,0,0,1-3.75.72q-4.13,0-4.13-4.81v-0.88Zm5.94-.76a1.33,1.33,0,0,0-1.53-1.48q-1.72,0-1.72,1.48h3.25Z"/><path class="cls-9" d="M351.3,191a10.22,10.22,0,0,1,4.13-.59,3.54,3.54,0,0,1,2.19.54,5.83,5.83,0,0,1,2.91-.54q3.67,0,3.67,3.93v6.58H361.5v-6.58q0-1.35-1-1.35a3.21,3.21,0,0,0-1.44.29v7.64H356.4v-6.58q0-1.35-1-1.35-0.45,0-.8,0l-0.64.07v7.83H351.3V191Z"/><path class="cls-9" d="M366,190.44h2.69V197a1.24,1.24,0,0,0,1.44,1.35q0.45,0,.8,0l0.64-.07v-7.83h2.69v9.85a9.15,9.15,0,0,1-4.13.66q-4.13,0-4.13-3.93v-6.58Z"/><path class="cls-9" d="M376.16,187.88l2.69-.63v13.7h-2.69V187.88Z"/><path class="cls-9" d="M382.1,187.88l2.69-.63v3.19h2.78V193h-2.78v4q0,1.35,1,1.35a4.71,4.71,0,0,0,1.57-.41l0.68,2.3a3.93,3.93,0,0,1-2.24.69q-3.67,0-3.67-3.93v-4h-1.39v-2.58h1.39v-2.56Z"/><path class="cls-9" d="M389.45,186.45h2.69v3h-2.69v-3Zm0,4h2.69v10.51h-2.69V190.44Z"/><path class="cls-9" d="M395.38,187.88l2.69-.63v3.19h2.78V193h-2.78v4q0,1.35,1,1.35a4.71,4.71,0,0,0,1.57-.41l0.68,2.3a3.93,3.93,0,0,1-2.24.69q-3.67,0-3.67-3.93v-4H394v-2.58h1.39v-2.56Z"/><path class="cls-9" d="M402.73,190.44h2.69V197a1.24,1.24,0,0,0,1.44,1.35q0.45,0,.8,0l0.64-.07v-7.83H411v9.85a9.15,9.15,0,0,1-4.13.66q-4.13,0-4.13-3.93v-6.58Z"/><path class="cls-9" d="M418.41,187.88l2.69-.63v13a9.15,9.15,0,0,1-4.13.66q-4.13,0-4.13-4.38v-1.76q0-4.37,4.13-4.37a5.87,5.87,0,0,1,1.44.13v-2.69Zm0,5.24-0.64-.07q-0.35,0-.8,0-1.44,0-1.44,1.79v1.76q0,1.8,1.44,1.8,0.45,0,.8,0l0.64-.07v-5.15Z"/><path class="cls-9" d="M423,195.25q0-4.81,4.41-4.81,4.22,0,4.22,4.81,0,1.73-.88,1.73h-5.06a1.25,1.25,0,0,0,1.44,1.39,9.48,9.48,0,0,0,3.24-.53l0.51,2.38a7.94,7.94,0,0,1-3.75.72q-4.13,0-4.13-4.81v-0.88Zm5.94-.76a1.33,1.33,0,0,0-1.53-1.48q-1.72,0-1.72,1.48h3.25Z"/><path class="cls-9" d="M443.85,187.88l2.69-.63v13a9.15,9.15,0,0,1-4.13.66q-4.13,0-4.13-4.38v-1.76q0-4.37,4.13-4.37a5.87,5.87,0,0,1,1.44.13v-2.69Zm0,5.24-0.64-.07q-0.35,0-.8,0-1.44,0-1.44,1.79v1.76q0,1.8,1.44,1.8,0.45,0,.8,0l0.64-.07v-5.15Z"/><path class="cls-9" d="M448.39,195.25q0-4.81,4.41-4.81,4.22,0,4.22,4.81,0,1.73-.88,1.73h-5.06a1.25,1.25,0,0,0,1.44,1.39,9.48,9.48,0,0,0,3.24-.53l0.51,2.38a7.94,7.94,0,0,1-3.75.72q-4.13,0-4.13-4.81v-0.88Zm5.94-.76A1.33,1.33,0,0,0,452.8,193q-1.72,0-1.72,1.48h3.25Z"/><path class="cls-9" d="M463.72,187.88l2.69-.63v13.7h-2.69V187.88Z"/><path class="cls-9" d="M468.27,195.25q0-4.81,4.59-4.81t4.59,4.81v0.88q0,4.81-4.59,4.81t-4.59-4.81v-0.88Zm2.69,0.88q0,2.24,1.9,2.24t1.9-2.24v-0.88q0-2.24-1.9-2.24t-1.9,2.24v0.88Z"/><path class="cls-9" d="M479.31,194.81q0-4.37,4.13-4.37a9.32,9.32,0,0,1,4.13.65V201q0,4-4.13,4a12.17,12.17,0,0,1-3.75-.58l0.69-2.6a7.08,7.08,0,0,0,3.06.61,1.26,1.26,0,0,0,1.44-1.41v-0.44a2.15,2.15,0,0,1-1.44.41q-4.13,0-4.13-4.38v-1.76Zm5.57-1.69-0.64-.07q-0.35,0-.8,0-1.44,0-1.44,1.79v1.76q0,1.8,1.44,1.8a2.42,2.42,0,0,0,1.44-.38v-4.87Z"/><path class="cls-9" d="M489.42,186.45h2.69v3h-2.69v-3Zm0,4h2.69v10.51h-2.69V190.44Z"/><path class="cls-9" d="M494,195.25q0-4.81,4.59-4.81a7.68,7.68,0,0,1,3.28.63l-0.68,2.43a7.27,7.27,0,0,0-2.6-.48q-1.9,0-1.9,2.24v0.88q0,2.24,1.9,2.24a7.26,7.26,0,0,0,2.6-.48l0.68,2.43a7.67,7.67,0,0,1-3.28.63q-4.59,0-4.59-4.81v-0.88Z"/><path class="cls-9" d="M503.24,186.45h2.69v3h-2.69v-3Zm0,4h2.69v10.51h-2.69V190.44Z"/><path class="cls-9" d="M507.79,195.25q0-4.81,4.41-4.81,4.22,0,4.22,4.81,0,1.73-.88,1.73h-5.06a1.25,1.25,0,0,0,1.44,1.39,9.48,9.48,0,0,0,3.24-.53l0.51,2.38a7.94,7.94,0,0,1-3.75.72q-4.13,0-4.13-4.81v-0.88Zm5.94-.76a1.33,1.33,0,0,0-1.53-1.48q-1.72,0-1.72,1.48h3.25Z"/><path class="cls-9" d="M518,187.88l2.69-.63v13.7H518V187.88Z"/><path class="cls-9" d="M523.22,197.92a12.44,12.44,0,0,0,3.53.45q1.44,0,1.44-.65t-1.48-.74q-3.9-.29-3.9-3.31,0-3.23,3.94-3.23a14.1,14.1,0,0,1,3.57.57l-0.68,2.47a10.18,10.18,0,0,0-2.89-.45q-1.25,0-1.25.65t1.3,0.74q4.08,0.3,4.08,3.31,0,3.23-4.13,3.23a16.12,16.12,0,0,1-4.22-.57Z"/></svg>