<svg id="Calque_1" data-name="Calque 1" xmlns="http://www.w3.org/2000/svg" viewBox="0 0 590 400.9"><defs><style>.cls-1{fill:#0f6e96;}.cls-2{fill:none;stroke:#0f6e96;stroke-miterlimit:10;stroke-width:4px;}.cls-3{fill:#c94b24;}.cls-4{fill:#c8bebe;}.cls-5{fill:#fff;}.cls-6{fill:#d24725;}</style></defs><title>3_3_Format_Fermé_exemple</title><path class="cls-1" d="M31.64,29.11h8.69v2.71H34.48v2.85h5.37v2.71H34.48v2.85h5.86V43H31.64V29.11Z"/><path class="cls-1" d="M42.29,31.89h3.25l1.89,3.43,1.88-3.43h3.25l-3.16,5.53L52.57,43H49.32l-1.88-3.43L45.54,43H42.29l3.18-5.54Z"/><path class="cls-1" d="M54.52,37q0-5.07,4.64-5.07,4.44,0,4.44,5.07,0,1.82-.93,1.82H57.36a1.32,1.32,0,0,0,1.51,1.46,10,10,0,0,0,3.41-.56l0.54,2.51a8.35,8.35,0,0,1-3.95.76q-4.35,0-4.35-5.07V37Zm6.25-.8a1.4,1.4,0,0,0-1.61-1.55q-1.81,0-1.81,1.55h3.42Z"/><path class="cls-1" d="M65.27,32.51a10.76,10.76,0,0,1,4.35-.62,3.72,3.72,0,0,1,2.3.57A6.14,6.14,0,0,1,75,31.89q3.86,0,3.86,4.14V43H76V36q0-1.43-1-1.43a3.37,3.37,0,0,0-1.51.3v8H70.64V36q0-1.43-1-1.43-0.47,0-.84,0l-0.67.08V43H65.27V32.51Z"/><path class="cls-1" d="M80.79,32.57a9.77,9.77,0,0,1,4.35-.68q4.35,0,4.35,4.6v1.86q0,4.61-4.35,4.61a6.17,6.17,0,0,1-1.51-.14v3.81l-2.83.66V32.57Zm5.86,3.92q0-1.88-1.51-1.88-0.47,0-.84,0l-0.67.08v5.42l0.67,0.08q0.37,0,.84,0,1.51,0,1.51-1.89V36.49Z"/><path class="cls-1" d="M91.44,29.19l2.83-.66V43H91.44V29.19Z"/><path class="cls-1" d="M96.22,37q0-5.07,4.64-5.07,4.44,0,4.44,5.07,0,1.82-.93,1.82H99.06a1.32,1.32,0,0,0,1.51,1.46,10,10,0,0,0,3.41-.56l0.54,2.51a8.35,8.35,0,0,1-3.95.76q-4.35,0-4.35-5.07V37Zm6.25-.8a1.4,1.4,0,0,0-1.61-1.55q-1.81,0-1.81,1.55h3.42Z"/><path class="cls-1" d="M167.76,136.29h7.82v2.44h-5.27v2.57h4.83v2.44h-4.83v5h-2.55V136.29Z"/><path class="cls-1" d="M177.34,135h2.55v2.86h-2.55V135Zm0,3.78h2.55v10h-2.55v-10Z"/><path class="cls-1" d="M181.64,143.36q0-4.56,4.35-4.56a7.27,7.27,0,0,1,3.1.6l-0.64,2.3a6.88,6.88,0,0,0-2.46-.46q-1.8,0-1.8,2.12v0.83q0,2.12,1.8,2.12a6.88,6.88,0,0,0,2.46-.46l0.64,2.3a7.27,7.27,0,0,1-3.1.6q-4.35,0-4.35-4.56v-0.83Z"/><path class="cls-1" d="M190.43,136.42l2.55-.6V139a5.55,5.55,0,0,1,1.36-.12q3.91,0,3.91,4.14v5.77h-2.55V143q0-1.71-1.36-1.71l-0.76,0-0.61.07v7.38h-2.55V136.42Z"/><path class="cls-1" d="M200,135h2.55v2.86H200V135Zm0,3.78h2.55v10H200v-10Z"/><path class="cls-1" d="M204.32,143.36q0-4.56,4.17-4.56,4,0,4,4.56,0,1.63-.83,1.63h-4.79a1.19,1.19,0,0,0,1.36,1.32,9,9,0,0,0,3.07-.5l0.48,2.26a7.52,7.52,0,0,1-3.55.69q-3.91,0-3.91-4.56v-0.83Zm5.63-.72a1.26,1.26,0,0,0-1.45-1.4q-1.63,0-1.63,1.4h3.08Z"/><path class="cls-1" d="M214,139.36a9.68,9.68,0,0,1,3.91-.56,8.46,8.46,0,0,1,1.58.18l-0.57,2.43a4.28,4.28,0,0,0-1-.17l-0.76,0-0.61.07v7.42H214v-9.4Z"/><path class="cls-1" d="M231.36,136.37l2.55-.6v12.36a8.68,8.68,0,0,1-3.91.62q-3.91,0-3.91-4.15v-1.67q0-4.14,3.91-4.14a5.55,5.55,0,0,1,1.36.12v-2.55Zm0,5-0.61-.07-0.76,0q-1.36,0-1.36,1.7v1.67q0,1.71,1.36,1.71l0.76,0,0.61-.07v-4.88Z"/><path class="cls-1" d="M235.67,143.36q0-4.56,4.35-4.56t4.35,4.56v0.83q0,4.56-4.35,4.56t-4.35-4.56v-0.83Zm2.55,0.83q0,2.12,1.8,2.12t1.8-2.12v-0.83q0-2.12-1.8-2.12t-1.8,2.12v0.83Z"/><path class="cls-1" d="M246.13,143.36q0-4.56,4.35-4.56a7.27,7.27,0,0,1,3.1.6l-0.64,2.3a6.88,6.88,0,0,0-2.46-.46q-1.8,0-1.8,2.12v0.83q0,2.12,1.8,2.12a6.88,6.88,0,0,0,2.46-.46l0.64,2.3a7.27,7.27,0,0,1-3.1.6q-4.35,0-4.35-4.56v-0.83Z"/><path class="cls-1" d="M254.92,138.8h2.93l1.71,3.08,1.7-3.08h2.93l-2.85,5,2.85,5h-2.93l-1.7-3.08-1.71,3.08h-2.93l2.87-5Z"/><path class="cls-1" d="M340.07,136.29h7.82v2.44h-5.27v2.57h4.83v2.44h-4.83v5h-2.55V136.29Z"/><path class="cls-1" d="M349.65,135h2.55v2.86h-2.55V135Zm0,3.78h2.55v10h-2.55v-10Z"/><path class="cls-1" d="M354,143.36q0-4.56,4.35-4.56a7.27,7.27,0,0,1,3.1.6l-0.64,2.3a6.88,6.88,0,0,0-2.46-.46q-1.8,0-1.8,2.12v0.83q0,2.12,1.8,2.12a6.88,6.88,0,0,0,2.46-.46l0.64,2.3a7.27,7.27,0,0,1-3.1.6q-4.35,0-4.35-4.56v-0.83Z"/><path class="cls-1" d="M362.75,136.42l2.55-.6V139a5.55,5.55,0,0,1,1.36-.12q3.91,0,3.91,4.14v5.77H368V143q0-1.71-1.36-1.71l-0.76,0-0.61.07v7.38h-2.55V136.42Z"/><path class="cls-1" d="M372.33,135h2.55v2.86h-2.55V135Zm0,3.78h2.55v10h-2.55v-10Z"/><path class="cls-1" d="M376.63,143.36q0-4.56,4.17-4.56,4,0,4,4.56,0,1.63-.83,1.63h-4.79a1.19,1.19,0,0,0,1.36,1.32,9,9,0,0,0,3.07-.5l0.48,2.26a7.52,7.52,0,0,1-3.55.69q-3.91,0-3.91-4.56v-0.83Zm5.63-.72a1.26,1.26,0,0,0-1.45-1.4q-1.63,0-1.63,1.4h3.08Z"/><path class="cls-1" d="M386.3,139.36a9.68,9.68,0,0,1,3.91-.56,8.46,8.46,0,0,1,1.58.18l-0.57,2.43a4.28,4.28,0,0,0-1-.17l-0.76,0-0.61.07v7.42H386.3v-9.4Z"/><path class="cls-1" d="M398.4,139.41a8.79,8.79,0,0,1,3.91-.62q3.91,0,3.91,4.14v1.67q0,4.15-3.91,4.15a5.55,5.55,0,0,1-1.36-.12v3.43l-2.55.6V139.41Zm5.27,3.52q0-1.7-1.36-1.7l-0.76,0-0.61.07v4.88l0.61,0.07,0.76,0q1.36,0,1.36-1.71v-1.67Z"/><path class="cls-1" d="M408,139.41a8.79,8.79,0,0,1,3.91-.62q3.91,0,3.91,4.14v1.67q0,4.15-3.91,4.15a5.55,5.55,0,0,1-1.36-.12v3.43l-2.55.6V139.41Zm5.27,3.52q0-1.7-1.36-1.7l-0.76,0-0.61.07v4.88l0.61,0.07,0.76,0q1.36,0,1.36-1.71v-1.67Z"/><path class="cls-1" d="M418.88,136.37l2.55-.6v3h2.64v2.44h-2.64V145q0,1.28.92,1.28a4.47,4.47,0,0,0,1.49-.39l0.64,2.18a3.73,3.73,0,0,1-2.13.65q-3.47,0-3.47-3.73v-3.79h-1.32V138.8h1.32v-2.43Z"/><path class="cls-1" d="M300.07,301.79H304l2.18,8.41,2.18-8.41h3.93v12.46h-2.55V306.1l-2.22,8.16h-2.67l-2.22-8.16v8.16h-2.55V301.79Z"/><path class="cls-1" d="M314,300.52h2.55v2.86H314v-2.86Zm0,3.78h2.55v10H314v-10Z"/><path class="cls-1" d="M318.35,308.86q0-4.56,4.35-4.56a7.27,7.27,0,0,1,3.1.6l-0.64,2.3a6.88,6.88,0,0,0-2.46-.46q-1.8,0-1.8,2.12v0.83q0,2.12,1.8,2.12a6.88,6.88,0,0,0,2.46-.46l0.64,2.3a7.27,7.27,0,0,1-3.1.6q-4.35,0-4.35-4.56v-0.83Z"/><path class="cls-1" d="M327.14,304.86a9.68,9.68,0,0,1,3.91-.56,8.46,8.46,0,0,1,1.58.18l-0.57,2.43a4.28,4.28,0,0,0-1-.17l-0.76,0-0.61.07v7.42h-2.55v-9.4Z"/><path class="cls-1" d="M334.39,308.86q0-4.56,4.35-4.56t4.35,4.56v0.83q0,4.56-4.35,4.56t-4.35-4.56v-0.83Zm2.55,0.83q0,2.12,1.8,2.12t1.8-2.12v-0.83q0-2.12-1.8-2.12t-1.8,2.12v0.83Z"/><path class="cls-1" d="M345.5,311.38a11.79,11.79,0,0,0,3.35.43q1.36,0,1.36-.62t-1.41-.7q-3.69-.27-3.69-3.14,0-3.06,3.74-3.06a13.35,13.35,0,0,1,3.38.54l-0.64,2.34a9.64,9.64,0,0,0-2.74-.43q-1.19,0-1.19.62t1.23,0.7q3.87,0.28,3.87,3.14,0,3.06-3.91,3.06a15.28,15.28,0,0,1-4-.54Z"/><path class="cls-1" d="M354.52,308.86q0-4.56,4.35-4.56t4.35,4.56v0.83q0,4.56-4.35,4.56t-4.35-4.56v-0.83Zm2.55,0.83q0,2.12,1.8,2.12t1.8-2.12v-0.83q0-2.12-1.8-2.12t-1.8,2.12v0.83Z"/><path class="cls-1" d="M365,304.72h1.32q0-3.34,3.47-3.34a4.69,4.69,0,0,1,2.13.47L371.25,304a7.66,7.66,0,0,0-1.49-.21,0.81,0.81,0,0,0-.92.91h2.64v2.43h-2.64v7.1H366.3v-7.1H365v-2.43Z"/><path class="cls-1" d="M374.65,301.87l2.55-.6v3h2.64v2.44H377.2v3.79q0,1.28.92,1.28a4.47,4.47,0,0,0,1.49-.39l0.64,2.18a3.73,3.73,0,0,1-2.13.65q-3.47,0-3.47-3.73v-3.79h-1.32V304.3h1.32v-2.43Z"/><path class="cls-1" d="M386.47,301.79h4.35q4.79,0,4.79,4.14t-4.79,4.15H389v4.17h-2.55V301.79Zm2.55,2.44v3.4h1.8q2.24,0,2.24-1.71t-2.24-1.7H389Z"/><path class="cls-1" d="M397.36,308.86q0-4.56,4.35-4.56t4.35,4.56v0.83q0,4.56-4.35,4.56t-4.35-4.56v-0.83Zm2.55,0.83q0,2.12,1.8,2.12t1.8-2.12v-0.83q0-2.12-1.8-2.12t-1.8,2.12v0.83Z"/><path class="cls-1" d="M406.94,304.3h2.76l1.13,5.26,1.49-5.26h2.55l1.49,5.26,1.13-5.26h2.76l-2.48,10h-2.62l-1.55-5.39-1.55,5.39h-2.64Z"/><path class="cls-1" d="M421,308.86q0-4.56,4.17-4.56,4,0,4,4.56,0,1.63-.83,1.63h-4.79a1.19,1.19,0,0,0,1.36,1.32,9,9,0,0,0,3.07-.5l0.48,2.26a7.52,7.52,0,0,1-3.55.69q-3.91,0-3.91-4.56v-0.83Zm5.63-.72a1.26,1.26,0,0,0-1.45-1.4q-1.63,0-1.63,1.4h3.08Z"/><path class="cls-1" d="M430.68,304.86a9.68,9.68,0,0,1,3.91-.56,8.46,8.46,0,0,1,1.58.18l-0.57,2.43a4.28,4.28,0,0,0-1-.17l-0.76,0-0.61.07v7.42h-2.55v-9.4Z"/><path class="cls-1" d="M437.93,304.91a8.79,8.79,0,0,1,3.91-.62q3.91,0,3.91,4.14v1.67q0,4.15-3.91,4.15a5.55,5.55,0,0,1-1.36-.12v3.43l-2.55.6V304.91Zm5.27,3.52q0-1.7-1.36-1.7l-0.76,0-0.61.07v4.88l0.61,0.07,0.76,0q1.36,0,1.36-1.71v-1.67Z"/><path class="cls-1" d="M447.51,308.86q0-4.56,4.35-4.56t4.35,4.56v0.83q0,4.56-4.35,4.56t-4.35-4.56v-0.83Zm2.55,0.83q0,2.12,1.8,2.12t1.8-2.12v-0.83q0-2.12-1.8-2.12t-1.8,2.12v0.83Z"/><path class="cls-1" d="M458,300.52h2.55v2.86H458v-2.86Zm0,3.78h2.55v10H458v-10Z"/><path class="cls-1" d="M462.27,304.86a9.68,9.68,0,0,1,3.91-.56q3.91,0,3.91,3.73v6.23h-2.55V308a1.17,1.17,0,0,0-1.36-1.28l-0.76,0-0.61.07v7.42h-2.55v-9.4Z"/><path class="cls-1" d="M473.17,301.87l2.55-.6v3h2.64v2.44h-2.64v3.79q0,1.28.92,1.28a4.47,4.47,0,0,0,1.49-.39l0.64,2.18a3.73,3.73,0,0,1-2.13.65q-3.47,0-3.47-3.73v-3.79h-1.32V304.3h1.32v-2.43Z"/><path class="cls-1" d="M148.76,301.79h3.93l2.18,8.41,2.18-8.41H161v12.46h-2.55V306.1l-2.22,8.16h-2.67l-2.22-8.16v8.16h-2.55V301.79Z"/><path class="cls-1" d="M162.73,300.52h2.55v2.86h-2.55v-2.86Zm0,3.78h2.55v10h-2.55v-10Z"/><path class="cls-1" d="M167,308.86q0-4.56,4.35-4.56a7.27,7.27,0,0,1,3.1.6l-0.64,2.3a6.88,6.88,0,0,0-2.46-.46q-1.8,0-1.8,2.12v0.83q0,2.12,1.8,2.12a6.88,6.88,0,0,0,2.46-.46l0.64,2.3a7.27,7.27,0,0,1-3.1.6q-4.35,0-4.35-4.56v-0.83Z"/><path class="cls-1" d="M175.83,304.86a9.68,9.68,0,0,1,3.91-.56,8.46,8.46,0,0,1,1.58.18l-0.57,2.43a4.28,4.28,0,0,0-1-.17l-0.76,0-0.61.07v7.42h-2.55v-9.4Z"/><path class="cls-1" d="M183.08,308.86q0-4.56,4.35-4.56t4.35,4.56v0.83q0,4.56-4.35,4.56t-4.35-4.56v-0.83Zm2.55,0.83q0,2.12,1.8,2.12t1.8-2.12v-0.83q0-2.12-1.8-2.12t-1.8,2.12v0.83Z"/><path class="cls-1" d="M194.19,311.38a11.79,11.79,0,0,0,3.35.43q1.36,0,1.36-.62t-1.41-.7q-3.69-.27-3.69-3.14,0-3.06,3.74-3.06a13.35,13.35,0,0,1,3.38.54l-0.64,2.34a9.64,9.64,0,0,0-2.74-.43q-1.19,0-1.19.62t1.23,0.7q3.87,0.28,3.87,3.14,0,3.06-3.91,3.06a15.28,15.28,0,0,1-4-.54Z"/><path class="cls-1" d="M203.21,308.86q0-4.56,4.35-4.56t4.35,4.56v0.83q0,4.56-4.35,4.56t-4.35-4.56v-0.83Zm2.55,0.83q0,2.12,1.8,2.12t1.8-2.12v-0.83q0-2.12-1.8-2.12t-1.8,2.12v0.83Z"/><path class="cls-1" d="M213.66,304.72H215q0-3.34,3.47-3.34a4.69,4.69,0,0,1,2.13.47L219.94,304a7.66,7.66,0,0,0-1.49-.21,0.81,0.81,0,0,0-.92.91h2.64v2.43h-2.64v7.1H215v-7.1h-1.32v-2.43Z"/><path class="cls-1" d="M223.34,301.87l2.55-.6v3h2.64v2.44h-2.64v3.79q0,1.28.92,1.28a4.47,4.47,0,0,0,1.49-.39l0.64,2.18a3.73,3.73,0,0,1-2.13.65q-3.47,0-3.47-3.73v-3.79H222V304.3h1.32v-2.43Z"/><path class="cls-1" d="M234.27,301.79H237l1.68,8,2.36-8h2.36l2.36,8,1.68-8h2.74l-2.9,12.46h-2.71l-2.36-7.43-2.34,7.43h-2.72Z"/><path class="cls-1" d="M251,308.86q0-4.56,4.35-4.56t4.35,4.56v0.83q0,4.56-4.35,4.56T251,309.7v-0.83Zm2.55,0.83q0,2.12,1.8,2.12t1.8-2.12v-0.83q0-2.12-1.8-2.12t-1.8,2.12v0.83Z"/><path class="cls-1" d="M261.43,304.86a9.68,9.68,0,0,1,3.91-.56,8.46,8.46,0,0,1,1.58.18l-0.57,2.43a4.28,4.28,0,0,0-1-.17l-0.76,0-0.61.07v7.42h-2.55v-9.4Z"/><path class="cls-1" d="M274,301.87l2.55-.6v12.36a8.68,8.68,0,0,1-3.91.62q-3.91,0-3.91-4.15v-1.67q0-4.14,3.91-4.14a5.55,5.55,0,0,1,1.36.12v-2.55Zm0,5-0.61-.07-0.76,0q-1.36,0-1.36,1.7v1.67q0,1.71,1.36,1.71l0.76,0,0.61-.07v-4.88Z"/><line class="cls-2" x1="213.26" y1="168.97" x2="213.26" y2="190.83"/><polygon class="cls-1" points="207.27 189.08 213.25 199.44 219.24 189.08 207.27 189.08"/><line class="cls-2" x1="388.35" y1="168.97" x2="388.35" y2="190.83"/><polygon class="cls-1" points="382.37 189.08 388.35 199.44 394.33 189.08 382.37 189.08"/><path class="cls-1" d="M33.39,347.18h7.39v2.31h-5v2.42h4.57v2.31H35.8v4.73H33.39V347.18Z"/><path class="cls-1" d="M42.44,353.85q0-4.31,4.11-4.31t4.11,4.31v0.79q0,4.31-4.11,4.31t-4.11-4.31v-0.79Zm2.41,0.79q0,2,1.7,2t1.7-2v-0.79q0-2-1.7-2t-1.7,2v0.79Z"/><path class="cls-1" d="M52.32,350.07a9.14,9.14,0,0,1,3.69-.53,8,8,0,0,1,1.49.17L57,352a4.05,4.05,0,0,0-1-.16l-0.71,0-0.57.07v7H52.32v-8.87Z"/><path class="cls-1" d="M59.16,350.07a9.14,9.14,0,0,1,3.69-.53,3.16,3.16,0,0,1,2,.48,5.22,5.22,0,0,1,2.61-.48q3.28,0,3.28,3.52v5.89H68.3v-5.89q0-1.21-.87-1.21a2.87,2.87,0,0,0-1.29.26v6.84H63.73v-5.89q0-1.21-.87-1.21l-0.71,0-0.57.07v7H59.16v-8.87Z"/><path class="cls-1" d="M72.89,350.21a8.79,8.79,0,0,1,3.16-.67q3.69,0,3.69,3.52v5.3a8.19,8.19,0,0,1-3.69.59q-3.69,0-3.69-3,0-3.2,5-3.2,0-.85-1.29-0.85a8.23,8.23,0,0,0-2.46.45ZM77.34,355q-2.57,0-2.57.9,0,0.74,1.29.74l0.71,0,0.57-.07V355Z"/><path class="cls-1" d="M82.66,347.25l2.41-.56v2.86h2.49v2.31H85.06v3.58q0,1.21.87,1.21a4.22,4.22,0,0,0,1.4-.37l0.61,2.06a3.52,3.52,0,0,1-2,.61q-3.28,0-3.28-3.52v-3.58H81.41v-2.31h1.25v-2.29Z"/><path class="cls-3" d="M93.81,350.12a8.3,8.3,0,0,1,3.69-.58q3.69,0,3.69,3.91V355q0,3.92-3.69,3.92a5.24,5.24,0,0,1-1.29-.12v3.24l-2.41.56V350.12Zm5,3.33q0-1.6-1.29-1.6l-0.71,0-0.57.07v4.61l0.57,0.07,0.71,0q1.29,0,1.29-1.61v-1.58Z"/><path class="cls-3" d="M102.86,350.07a9.14,9.14,0,0,1,3.69-.53,8,8,0,0,1,1.49.17L107.51,352a4.05,4.05,0,0,0-1-.16l-0.71,0-0.57.07v7h-2.41v-8.87Z"/><path class="cls-3" d="M109.71,353.85q0-4.31,4.11-4.31t4.11,4.31v0.79q0,4.31-4.11,4.31t-4.11-4.31v-0.79Zm2.41,0.79q0,2,1.7,2t1.7-2v-0.79q0-2-1.7-2t-1.7,2v0.79Z"/><path class="cls-3" d="M119.59,350.12a8.3,8.3,0,0,1,3.69-.58q3.69,0,3.69,3.91V355q0,3.92-3.69,3.92a5.24,5.24,0,0,1-1.29-.12v3.24l-2.41.56V350.12Zm5,3.33q0-1.6-1.29-1.6l-0.71,0-0.57.07v4.61l0.57,0.07,0.71,0q1.29,0,1.29-1.61v-1.58Z"/><path class="cls-3" d="M128.63,350.07a9.14,9.14,0,0,1,3.69-.53,8,8,0,0,1,1.49.17L133.28,352a4.05,4.05,0,0,0-1-.16l-0.71,0-0.57.07v7h-2.41v-8.87Z"/><path class="cls-3" d="M135.48,346h2.41v2.7h-2.41V346Zm0,3.57h2.41v9.4h-2.41v-9.4Z"/><path class="cls-3" d="M139.55,353.85q0-4.31,3.94-4.31,3.78,0,3.78,4.31,0,1.54-.79,1.54H142a1.12,1.12,0,0,0,1.29,1.25,8.48,8.48,0,0,0,2.9-.47l0.46,2.13a7.1,7.1,0,0,1-3.35.65q-3.69,0-3.69-4.31v-0.79Zm5.31-.68a1.19,1.19,0,0,0-1.37-1.32,1.27,1.27,0,0,0-1.54,1.32h2.91Zm-2-7.5h2.7l-1.3,3.09h-1.93Z"/><path class="cls-3" d="M149.93,347.25l2.41-.56v2.86h2.49v2.31h-2.49v3.58q0,1.21.87,1.21a4.22,4.22,0,0,0,1.4-.37l0.61,2.06a3.52,3.52,0,0,1-2,.61q-3.28,0-3.28-3.52v-3.58h-1.25v-2.31h1.25v-2.29Z"/><path class="cls-3" d="M157,350.21a8.79,8.79,0,0,1,3.16-.67q3.69,0,3.69,3.52v5.3a8.19,8.19,0,0,1-3.69.59q-3.69,0-3.69-3,0-3.2,5-3.2,0-.85-1.29-0.85a8.23,8.23,0,0,0-2.46.45Zm4.45,4.79q-2.57,0-2.57.9,0,0.74,1.29.74l0.71,0,0.57-.07V355Z"/><path class="cls-3" d="M165.55,346H168v2.7h-2.41V346Zm0,3.57H168v9.4h-2.41v-9.4Z"/><path class="cls-3" d="M169.61,350.07a9.14,9.14,0,0,1,3.69-.53,8,8,0,0,1,1.49.17L174.26,352a4.05,4.05,0,0,0-1-.16l-0.71,0-0.57.07v7h-2.41v-8.87Z"/><path class="cls-3" d="M176.46,353.85q0-4.31,3.94-4.31,3.78,0,3.78,4.31,0,1.54-.79,1.54h-4.52a1.12,1.12,0,0,0,1.29,1.25,8.48,8.48,0,0,0,2.9-.47l0.46,2.13a7.1,7.1,0,0,1-3.35.65q-3.69,0-3.69-4.31v-0.79Zm5.31-.68a1.19,1.19,0,0,0-1.37-1.32,1.27,1.27,0,0,0-1.54,1.32h2.91Z"/><path class="cls-1" d="M190.18,350.33h7.39v2.31h-7.39v-2.31Zm0,3.15h7.39v2.31h-7.39v-2.31Z"/><path class="cls-1" d="M203.81,349.54h2.41v5.89a1.11,1.11,0,0,0,1.29,1.21l0.71,0,0.57-.07v-7h2.41v8.82a8.19,8.19,0,0,1-3.69.59q-3.69,0-3.69-3.52v-5.89Z"/><path class="cls-1" d="M212.85,350.07a9.14,9.14,0,0,1,3.69-.53q3.69,0,3.69,3.52v5.89h-2.41v-5.89a1.11,1.11,0,0,0-1.29-1.21l-0.71,0-0.57.07v7h-2.41v-8.87Z"/><path class="cls-1" d="M221.9,346h2.41v2.7H221.9V346Zm0,3.57h2.41v9.4H221.9v-9.4Z"/><path class="cls-1" d="M226,353.45q0-3.91,3.69-3.91a8.34,8.34,0,0,1,3.69.58v11.94l-2.41.56v-3.8a5.24,5.24,0,0,1-1.29.12q-3.69,0-3.69-3.92v-1.58Zm5-1.51-0.57-.07-0.71,0q-1.29,0-1.29,1.6V355q0,1.61,1.29,1.61l0.71,0,0.57-.07v-4.61Z"/><path class="cls-1" d="M235,349.54h2.41v5.89a1.11,1.11,0,0,0,1.29,1.21l0.71,0,0.57-.07v-7h2.41v8.82a8.19,8.19,0,0,1-3.69.59q-3.69,0-3.69-3.52v-5.89Z"/><path class="cls-1" d="M244.06,353.85q0-4.31,3.94-4.31,3.78,0,3.78,4.31,0,1.54-.79,1.54h-4.52a1.12,1.12,0,0,0,1.29,1.25,8.48,8.48,0,0,0,2.9-.47l0.46,2.13a7.1,7.1,0,0,1-3.35.65q-3.69,0-3.69-4.31v-0.79Zm5.31-.68a1.19,1.19,0,0,0-1.37-1.32,1.27,1.27,0,0,0-1.54,1.32h2.91Z"/><path class="cls-1" d="M253.19,350.07a9.15,9.15,0,0,1,3.69-.53,3.17,3.17,0,0,1,2,.48,5.22,5.22,0,0,1,2.61-.48q3.28,0,3.28,3.52v5.89h-2.41v-5.89q0-1.21-.87-1.21a2.87,2.87,0,0,0-1.29.26v6.84h-2.41v-5.89q0-1.21-.87-1.21l-0.71,0-0.57.07v7h-2.41v-8.87Z"/><path class="cls-1" d="M266.39,353.85q0-4.31,3.94-4.31,3.78,0,3.78,4.31,0,1.54-.79,1.54H268.8a1.12,1.12,0,0,0,1.29,1.25,8.48,8.48,0,0,0,2.9-.47l0.46,2.13a7.1,7.1,0,0,1-3.35.65q-3.69,0-3.69-4.31v-0.79Zm5.31-.68a1.19,1.19,0,0,0-1.37-1.32,1.27,1.27,0,0,0-1.54,1.32h2.91Z"/><path class="cls-1" d="M275.52,350.07a9.15,9.15,0,0,1,3.69-.53q3.69,0,3.69,3.52v5.89H280.5v-5.89a1.11,1.11,0,0,0-1.29-1.21l-0.71,0-0.57.07v7h-2.41v-8.87Z"/><path class="cls-1" d="M285.82,347.25l2.41-.56v2.86h2.49v2.31h-2.49v3.58q0,1.21.87,1.21a4.22,4.22,0,0,0,1.4-.37l0.61,2.06a3.52,3.52,0,0,1-2,.61q-3.28,0-3.28-3.52v-3.58h-1.25v-2.31h1.25v-2.29Z"/><path class="cls-1" d="M297,347.25l2.41-.56v12.26H297v-11.7Z"/><path class="cls-1" d="M301,346h2.41v2.7H301V346Zm0,3.57h2.41v9.4H301v-9.4Z"/><path class="cls-1" d="M305.72,356.23a11.14,11.14,0,0,0,3.16.41q1.29,0,1.29-.58t-1.33-.66q-3.49-.26-3.49-3,0-2.89,3.53-2.89a12.62,12.62,0,0,1,3.2.51l-0.61,2.21a9.12,9.12,0,0,0-2.59-.41q-1.12,0-1.12.58t1.16,0.66q3.65,0.27,3.65,3,0,2.89-3.69,2.89a14.45,14.45,0,0,1-3.78-.51Z"/><path class="cls-1" d="M314.24,346h2.41v2.7h-2.41V346Zm0,3.57h2.41v9.4h-2.41v-9.4Z"/><path class="cls-1" d="M318.31,347.25l2.41-.56v3a5.24,5.24,0,0,1,1.29-.12q3.69,0,3.69,3.91V355q0,3.92-3.69,3.92a8.19,8.19,0,0,1-3.69-.59V347.25Zm5,6.2q0-1.6-1.29-1.6l-0.71,0-0.57.07v4.61l0.57,0.07,0.71,0q1.29,0,1.29-1.61v-1.58Z"/><path class="cls-1" d="M327.35,347.25l2.41-.56v12.26h-2.41v-11.7Z"/><path class="cls-1" d="M331.42,353.85q0-4.31,3.94-4.31,3.78,0,3.78,4.31,0,1.54-.79,1.54h-4.52a1.12,1.12,0,0,0,1.29,1.25,8.48,8.48,0,0,0,2.9-.47l0.46,2.13a7.1,7.1,0,0,1-3.35.65q-3.69,0-3.69-4.31v-0.79Zm5.31-.68a1.19,1.19,0,0,0-1.37-1.32,1.27,1.27,0,0,0-1.54,1.32h2.91Z"/><path class="cls-1" d="M345.13,350.12a8.3,8.3,0,0,1,3.69-.58q3.69,0,3.69,3.91V355q0,3.92-3.69,3.92a5.24,5.24,0,0,1-1.29-.12v3.24l-2.41.56V350.12Zm5,3.33q0-1.6-1.29-1.6l-0.71,0-0.57.07v4.61l0.57,0.07,0.71,0q1.29,0,1.29-1.61v-1.58Z"/><path class="cls-1" d="M354.71,350.21a8.79,8.79,0,0,1,3.16-.67q3.69,0,3.69,3.52v5.3a8.2,8.2,0,0,1-3.69.59q-3.69,0-3.69-3,0-3.2,5-3.2,0-.85-1.29-0.85a8.24,8.24,0,0,0-2.46.45Zm4.45,4.79q-2.57,0-2.57.9,0,0.74,1.29.74l0.71,0,0.57-.07V355Z"/><path class="cls-1" d="M363.23,350.07a9.14,9.14,0,0,1,3.69-.53,8,8,0,0,1,1.49.17L367.88,352a4.06,4.06,0,0,0-1-.16l-0.71,0-0.57.07v7h-2.41v-8.87Z"/><path class="cls-1" d="M379.64,347.25l2.41-.56v11.67a8.2,8.2,0,0,1-3.69.59q-3.69,0-3.69-3.92v-1.58q0-3.91,3.69-3.91a5.24,5.24,0,0,1,1.29.12v-2.41Zm0,4.69-0.57-.07-0.71,0q-1.29,0-1.29,1.6V355q0,1.61,1.29,1.61l0.71,0,0.57-.07v-4.61Z"/><path class="cls-1" d="M383.71,353.85q0-4.31,3.94-4.31,3.78,0,3.78,4.31,0,1.54-.79,1.54h-4.52a1.12,1.12,0,0,0,1.29,1.25,8.48,8.48,0,0,0,2.9-.47l0.46,2.13a7.1,7.1,0,0,1-3.35.65q-3.69,0-3.69-4.31v-0.79Zm5.31-.68a1.19,1.19,0,0,0-1.37-1.32,1.27,1.27,0,0,0-1.54,1.32H389Z"/><path class="cls-1" d="M393.45,356.23a11.14,11.14,0,0,0,3.16.41q1.29,0,1.29-.58t-1.33-.66q-3.49-.26-3.49-3,0-2.89,3.53-2.89a12.62,12.62,0,0,1,3.2.51l-0.61,2.21a9.12,9.12,0,0,0-2.59-.41q-1.12,0-1.12.58t1.16,0.66q3.65,0.27,3.65,3,0,2.89-3.69,2.89a14.45,14.45,0,0,1-3.78-.51Z"/><path class="cls-3" d="M406.55,347.25l2.41-.56v12.26h-2.41v-11.7Z"/><path class="cls-3" d="M410.62,353.85q0-4.31,4.11-4.31t4.11,4.31v0.79q0,4.31-4.11,4.31t-4.11-4.31v-0.79Zm2.41,0.79q0,2,1.7,2t1.7-2v-0.79q0-2-1.7-2t-1.7,2v0.79Z"/><path class="cls-3" d="M420.5,353.45q0-3.91,3.69-3.91a8.34,8.34,0,0,1,3.69.58V359q0,3.56-3.69,3.56a10.9,10.9,0,0,1-3.35-.52l0.62-2.32a6.33,6.33,0,0,0,2.74.55,1.13,1.13,0,0,0,1.29-1.26v-0.39a1.93,1.93,0,0,1-1.29.37q-3.69,0-3.69-3.92v-1.58Zm5-1.51-0.57-.07-0.71,0q-1.29,0-1.29,1.6V355q0,1.61,1.29,1.61a2.16,2.16,0,0,0,1.29-.34v-4.36Z"/><path class="cls-3" d="M429.54,346H432v2.7h-2.41V346Zm0,3.57H432v9.4h-2.41v-9.4Z"/><path class="cls-3" d="M433.61,353.85q0-4.31,4.11-4.31a6.87,6.87,0,0,1,2.93.56L440,352.28a6.51,6.51,0,0,0-2.32-.43q-1.7,0-1.7,2v0.79q0,2,1.7,2a6.51,6.51,0,0,0,2.32-.43l0.61,2.17a6.87,6.87,0,0,1-2.93.56q-4.11,0-4.11-4.31v-0.79Z"/><path class="cls-3" d="M441.91,346h2.41v2.7h-2.41V346Zm0,3.57h2.41v9.4h-2.41v-9.4Z"/><path class="cls-3" d="M446,353.85q0-4.31,3.94-4.31,3.78,0,3.78,4.31,0,1.54-.79,1.54h-4.52a1.12,1.12,0,0,0,1.29,1.25,8.48,8.48,0,0,0,2.9-.47L453,358.3a7.1,7.1,0,0,1-3.35.65q-3.69,0-3.69-4.31v-0.79Zm5.31-.68a1.19,1.19,0,0,0-1.37-1.32,1.27,1.27,0,0,0-1.54,1.32h2.91Z"/><path class="cls-3" d="M455.11,347.25l2.41-.56v12.26h-2.41v-11.7Z"/><path class="cls-3" d="M459.79,356.23a11.14,11.14,0,0,0,3.16.41q1.29,0,1.29-.58t-1.33-.66q-3.49-.26-3.49-3,0-2.89,3.53-2.89a12.62,12.62,0,0,1,3.2.51l-0.61,2.21a9.12,9.12,0,0,0-2.59-.41q-1.12,0-1.12.58t1.16,0.66q3.65,0.27,3.65,3,0,2.89-3.69,2.89a14.45,14.45,0,0,1-3.78-.51Z"/><path class="cls-3" d="M473.51,356.23a11.14,11.14,0,0,0,3.16.41q1.29,0,1.29-.58t-1.33-.66q-3.49-.26-3.49-3,0-2.89,3.53-2.89a12.62,12.62,0,0,1,3.2.51l-0.61,2.21a9.12,9.12,0,0,0-2.59-.41q-1.12,0-1.12.58t1.16,0.66q3.65,0.27,3.65,3,0,2.89-3.69,2.89a14.45,14.45,0,0,1-3.78-.51Z"/><path class="cls-3" d="M482,350.12a8.3,8.3,0,0,1,3.69-.58q3.69,0,3.69,3.91V355q0,3.92-3.69,3.92a5.24,5.24,0,0,1-1.29-.12v3.24l-2.41.56V350.12Zm5,3.33q0-1.6-1.29-1.6l-0.71,0-0.57.07v4.61l0.57,0.07,0.71,0q1.29,0,1.29-1.61v-1.58Z"/><path class="cls-3" d="M491.07,353.85q0-4.31,3.94-4.31,3.78,0,3.78,4.31,0,1.54-.79,1.54h-4.52a1.12,1.12,0,0,0,1.29,1.25,8.48,8.48,0,0,0,2.9-.47l0.46,2.13a7.1,7.1,0,0,1-3.35.65q-3.69,0-3.69-4.31v-0.79Zm5.31-.68a1.19,1.19,0,0,0-1.37-1.32,1.27,1.27,0,0,0-1.54,1.32h2.91Zm-2-7.5h2.7l-1.3,3.09h-1.93Z"/><path class="cls-3" d="M500.2,353.85q0-4.31,4.11-4.31a6.87,6.87,0,0,1,2.93.56l-0.61,2.17a6.51,6.51,0,0,0-2.32-.43q-1.7,0-1.7,2v0.79q0,2,1.7,2a6.51,6.51,0,0,0,2.32-.43l0.61,2.17a6.87,6.87,0,0,1-2.93.56q-4.11,0-4.11-4.31v-0.79Z"/><path class="cls-3" d="M508.5,346h2.41v2.7H508.5V346Zm0,3.57h2.41v9.4H508.5v-9.4Z"/><path class="cls-3" d="M512.57,349.94h1.25q0-3.15,3.28-3.15a4.43,4.43,0,0,1,2,.44l-0.61,2.06a7.23,7.23,0,0,0-1.4-.2,0.76,0.76,0,0,0-.87.85h2.49v2.3h-2.49v6.71h-2.41v-6.71h-1.25v-2.3Z"/><path class="cls-3" d="M520.46,346h2.41v2.7h-2.41V346Zm0,3.57h2.41v9.4h-2.41v-9.4Z"/><path class="cls-3" d="M524.53,353.45q0-3.91,3.69-3.91a8.34,8.34,0,0,1,3.69.58v11.94l-2.41.56v-3.8a5.24,5.24,0,0,1-1.29.12q-3.69,0-3.69-3.92v-1.58Zm5-1.51-0.57-.07-0.71,0q-1.29,0-1.29,1.6V355q0,1.61,1.29,1.61l0.71,0,0.57-.07v-4.61Z"/><path class="cls-3" d="M533.58,349.54H536v5.89a1.11,1.11,0,0,0,1.29,1.21l0.71,0,0.57-.07v-7H541v8.82a8.2,8.2,0,0,1-3.69.59q-3.69,0-3.69-3.52v-5.89Z"/><path class="cls-3" d="M542.63,353.85q0-4.31,3.94-4.31,3.78,0,3.78,4.31,0,1.54-.79,1.54H545a1.12,1.12,0,0,0,1.29,1.25,8.48,8.48,0,0,0,2.9-.47l0.46,2.13a7.1,7.1,0,0,1-3.35.65q-3.69,0-3.69-4.31v-0.79Zm5.31-.68a1.19,1.19,0,0,0-1.37-1.32,1.27,1.27,0,0,0-1.54,1.32h2.91Z"/><path class="cls-3" d="M552.37,356.23a11.14,11.14,0,0,0,3.16.41q1.29,0,1.29-.58t-1.33-.66q-3.49-.26-3.49-3,0-2.89,3.53-2.89a12.62,12.62,0,0,1,3.2.51l-0.61,2.21a9.12,9.12,0,0,0-2.59-.41q-1.12,0-1.12.58t1.16,0.66q3.65,0.27,3.65,3,0,2.89-3.69,2.89a14.45,14.45,0,0,1-3.78-.51Z"/><polygon class="cls-4" points="240.24 81.15 223.52 64.15 222.53 64.15 222.53 81.94 240.24 81.94 240.24 81.15"/><path class="cls-4" d="M217,87.51V64.15H192v58.48h48.21V87.51H217Zm14.75,28.69H200.56v-8.35h31.15v8.35Zm0-13.93H200.56V93.91h31.15v8.35Z"/><path class="cls-1" d="M206,82.89l-23.61,2.82v28.2L206,116.73"/><path class="cls-5" d="M188.4,94.17l2.11,11.28h2.11l1.76-7.75,1.76,7.75h2.11l2.11-11.28h-1.87l-1.41,7.75-1.76-7.75h-2.11l-1.41,7.75-1.76-7.75"/><g id="g3103"><path id="path6" class="cls-1" d="M217.43,234.4h3.88v5.19c6.95,0,13.88-.07,20.82,0a2.19,2.19,0,0,1,2.51,2.48c0.11,12.79,0,25.58.06,38.37-0.06,1.31.08,3.23-.63,3.93s-3.28.63-3.28,0.63H221.31v5.18h-4.06c-9.88-1.8-19.78-3.46-29.68-5.19q0-22.71,0-45.42C197.52,237.86,207.48,236.17,217.43,234.4Z"/><path id="path46" class="cls-5" d="M221.31,241.54h21.42v41.54H221.31v-5.19h16.88v-2.6H221.31V272h16.88v-2.6H221.31V266.2h16.88v-2.6H221.31v-3.25h16.88v-2.6H221.31v-3.25h16.88v-2.6H221.31v-3.25h16.88v-2.6H221.31v-4.54Z"/><path id="path88" class="cls-5" d="M201,253l3.7-.19c0.86,4.38,1.75,8.76,2.68,13.12,0.73-4.5,1.54-9,2.33-13.49,1.3,0,2.6-.12,3.89-0.19-1.47,6.29-4.35,19.29-4.35,19.29l-4-.35s-1.87-8.57-2.64-12.88c-0.76,4.19-2.62,12.51-2.62,12.51l-3.75-.23s-2.34-11.38-3.35-17.11l3.34-.14c0.67,4.13,1.43,8.25,2,12.39C199.14,261.49,200.07,257.25,201,253Z"/></g><g id="g3607"><path id="path14" class="cls-3" d="M389.86,234.62h3.73v5.92c7,0,14.07-.07,21.09,0a2.28,2.28,0,0,1,2.54,2.54c0.11,12.28,0,24.57.07,36.86-0.07,1.33.13,2.8-.63,4a5.92,5.92,0,0,1-3.33.66c-6.58,0-13.15,0-19.73,0v6.58H389.5c-10-1.83-20.06-3.5-30.09-5.26q0-23,0-46C369.56,238.13,379.7,236.35,389.86,234.62Z"/><path id="path54" class="cls-5" d="M393.59,242.51h21.7v40.11h-21.7v-5.26h15.78v-2.63H393.59v-3.29h15.78v-2.63H393.6c0-1.29,0-2.58,0-3.87a9.23,9.23,0,0,0,7.9-.78,9,9,0,0,0,4.05-7.18c-2.89,0-5.77,0-8.65,0,0-2.86,0-5.72-.06-8.57-1.08.21-2.16,0.43-3.23,0.66v-6.56Z"/><path id="path60" class="cls-3" d="M398.2,247a9.25,9.25,0,0,1,8.65,8.61c-2.89,0-5.77,0-8.66,0C398.19,252.78,398.19,249.9,398.2,247Z"/><path id="path74" class="cls-5" d="M370,252c3.57,0.17,7.9-1.41,10.86,1.26,2.83,3.44,2.08,9.76-2.12,11.82a9.71,9.71,0,0,1-4.83.6c0,2.57,0,5.14,0,7.71l-3.91-.33C369.89,266,369.88,259,370,252Z"/><path id="path94" class="cls-6" d="M373.86,255.55c1.3-.06,2.9-0.3,3.77.92a4.77,4.77,0,0,1,.09,4.31c-0.75,1.35-2.45,1.22-3.75,1.38C373.83,260,373.84,257.76,373.86,255.55Z"/></g><path class="cls-4" d="M364.12,64.15v58.48h48.21V64.15H364.12Zm25.21,14.6a9.76,9.76,0,0,1,9.76,9.76h-9.76V78.75Zm-2.22,2.44v9.76h9.76A9.76,9.76,0,1,1,387.11,81.19Zm16.4,35.54H372.93v-3h30.58v3Zm0-7.8H372.93v-3h30.58v3Z"/><path id="path14-2" data-name="path14" class="cls-3" d="M377.68,113.46v4h-2.5c-6.13-1.12-12.27-2.14-18.4-3.22q0-14.07,0-28.14C363,85,369.19,84,375.4,82.89h2.28v3.62"/><path id="path74-2" data-name="path74" class="cls-5" d="M363.23,93.52c2.18,0.1,4.83-.86,6.64.77,1.73,2.1,1.27,6-1.29,7.23a5.94,5.94,0,0,1-3,.37c0,1.57,0,3.14,0,4.72l-2.39-.2C363.19,102.11,363.18,97.81,363.23,93.52Z"/><path id="path94-2" data-name="path94" class="cls-6" d="M365.62,95.69c0.79,0,1.77-.18,2.31.56a2.92,2.92,0,0,1,.05,2.64c-0.46.83-1.5,0.75-2.3,0.84C365.6,98.39,365.6,97,365.62,95.69Z"/></svg>