<svg id="Calque_1" data-name="Calque 1" xmlns="http://www.w3.org/2000/svg" viewBox="0 0 541.33 273.67"><defs><style>.cls-1{fill:#c94b24;}.cls-2{fill:#0f6e96;}.cls-3{fill:#afa715;}.cls-4{fill:#d29f3a;}.cls-5,.cls-6{fill:none;stroke:#0f6e96;stroke-miterlimit:10;}.cls-5{stroke-width:3px;}.cls-6{stroke-width:9px;}</style></defs><title>3_4_restrictions</title><path class="cls-1" d="M87.07,21a32.8,32.8,0,1,0,32.8,32.8A32.84,32.84,0,0,0,87.07,21ZM59.4,56.28h6.95A36.74,36.74,0,0,0,68.9,67.48h-6A27.58,27.58,0,0,1,59.4,56.28ZM89.58,35V27.69A32.31,32.31,0,0,1,97,35H89.58Zm10.38,5a31.77,31.77,0,0,1,3,11.21H89.58V40.06H100ZM84.57,27.82V35H77.34A32.31,32.31,0,0,1,84.57,27.82Zm0,12.24V51.27H71.37a31.77,31.77,0,0,1,3-11.21h10.2ZM66.35,51.27H59.4a27.58,27.58,0,0,1,3.51-11.21h6A36.77,36.77,0,0,0,66.35,51.27Zm5,5H84.57V67.48H74.37A31.79,31.79,0,0,1,71.37,56.28ZM84.57,72.49v7.24a32.31,32.31,0,0,1-7.24-7.24h7.24Zm5,7.37V72.49H97A32.31,32.31,0,0,1,89.58,79.87Zm0-12.38V56.28H103a31.79,31.79,0,0,1-3,11.21H89.58ZM108,56.28h6.77a27.58,27.58,0,0,1-3.51,11.21h-5.81A36.74,36.74,0,0,0,108,56.28Zm0-5a36.77,36.77,0,0,0-2.55-11.21h5.8a27.58,27.58,0,0,1,3.51,11.21H108ZM107.59,35H103a37.27,37.27,0,0,0-5.28-7A27.9,27.9,0,0,1,107.59,35ZM76.75,28A37.28,37.28,0,0,0,71.35,35h-4.8A27.9,27.9,0,0,1,76.75,28ZM66.56,72.49h4.81a37.3,37.3,0,0,0,5.4,7.08A27.9,27.9,0,0,1,66.56,72.49Zm31.11,7a37.3,37.3,0,0,0,5.29-7h4.63A27.91,27.91,0,0,1,97.67,79.45Z"/><path class="cls-2" d="M35.71,97.66h2v9.69h-2V97.66Z"/><path class="cls-2" d="M39.06,100a7.53,7.53,0,0,1,3-.44q3,0,3,2.9v4.85h-2V102.5a0.91,0.91,0,0,0-1.06-1l-0.59,0-0.47.05v5.77h-2V100Z"/><path class="cls-2" d="M46.51,99.93h1q0-2.6,2.7-2.6a3.65,3.65,0,0,1,1.65.36l-0.5,1.7a6,6,0,0,0-1.16-.16,0.63,0.63,0,0,0-.72.7h2.05v1.89H49.52v5.52h-2v-5.52h-1V99.93Z"/><path class="cls-2" d="M53,100a7.53,7.53,0,0,1,3-.44,6.59,6.59,0,0,1,1.23.14l-0.44,1.89a3.34,3.34,0,0,0-.79-0.13l-0.59,0-0.47.05v5.77H53V100Z"/><path class="cls-2" d="M59.09,100.16a7.24,7.24,0,0,1,2.6-.55q3,0,3,2.9v4.36a6.75,6.75,0,0,1-3,.49q-3,0-3-2.51t4.1-2.64q0-.7-1.06-0.7a6.78,6.78,0,0,0-2,.37Zm3.66,3.94q-2.12,0-2.12.74t1.06,0.61l0.59,0,0.47-.05V104.1Z"/><path class="cls-2" d="M66.61,105.12a9.18,9.18,0,0,0,2.6.33q1.06,0,1.06-.48t-1.09-.55q-2.87-.21-2.87-2.44,0-2.38,2.91-2.38a10.39,10.39,0,0,1,2.63.42l-0.5,1.82a7.51,7.51,0,0,0-2.13-.33q-0.92,0-.92.48t1,0.55q3,0.22,3,2.44,0,2.38-3,2.38a11.89,11.89,0,0,1-3.11-.42Z"/><path class="cls-2" d="M74.65,97.72l2-.46v2.35h2.05v1.9H76.63v2.95q0,1,.72,1a3.48,3.48,0,0,0,1.16-.3l0.5,1.7a2.9,2.9,0,0,1-1.65.51q-2.7,0-2.7-2.9v-2.95h-1v-1.9h1V97.72Z"/><path class="cls-2" d="M80.07,100a7.53,7.53,0,0,1,3-.44,6.59,6.59,0,0,1,1.23.14l-0.44,1.89a3.34,3.34,0,0,0-.79-0.13l-0.59,0-0.47.05v5.77h-2V100Z"/><path class="cls-2" d="M85.71,99.61h2v4.85a0.91,0.91,0,0,0,1.06,1l0.59,0,0.47-.05V99.61h2v7.26a6.75,6.75,0,0,1-3,.49q-3,0-3-2.9V99.61Z"/><path class="cls-2" d="M93.16,103.15q0-3.55,3.38-3.55a5.65,5.65,0,0,1,2.41.46l-0.5,1.79a5.36,5.36,0,0,0-1.91-.36q-1.4,0-1.4,1.65v0.65q0,1.65,1.4,1.65a5.36,5.36,0,0,0,1.91-.36l0.5,1.79a5.65,5.65,0,0,1-2.41.46q-3.38,0-3.38-3.55v-0.65Z"/><path class="cls-2" d="M101,97.72l2-.46v2.35h2.05v1.9H103v2.95q0,1,.72,1a3.48,3.48,0,0,0,1.16-.3l0.5,1.7a2.9,2.9,0,0,1-1.65.51q-2.7,0-2.7-2.9v-2.95h-1v-1.9h1V97.72Z"/><path class="cls-2" d="M106.43,99.61h2v4.85a0.91,0.91,0,0,0,1.06,1l0.59,0,0.47-.05V99.61h2v7.26a6.75,6.75,0,0,1-3,.49q-3,0-3-2.9V99.61Z"/><path class="cls-2" d="M113.88,100a7.53,7.53,0,0,1,3-.44,6.59,6.59,0,0,1,1.23.14l-0.44,1.89a3.34,3.34,0,0,0-.79-0.13l-0.59,0-0.47.05v5.77h-2V100Z"/><path class="cls-2" d="M119.52,103.15q0-3.55,3.25-3.55t3.11,3.55q0,1.27-.65,1.27h-3.73a0.92,0.92,0,0,0,1.06,1,7,7,0,0,0,2.39-.39l0.38,1.76a5.85,5.85,0,0,1-2.76.53q-3,0-3-3.55v-0.65Zm4.38-.56a1,1,0,0,0-1.13-1.09,1,1,0,0,0-1.26,1.09h2.39Z"/><path class="cls-2" d="M127.55,105.12a9.18,9.18,0,0,0,2.6.33q1.06,0,1.06-.48t-1.09-.55q-2.87-.21-2.87-2.44,0-2.38,2.91-2.38a10.39,10.39,0,0,1,2.63.42l-0.5,1.82a7.51,7.51,0,0,0-2.13-.33q-0.92,0-.92.48t1,0.55q3,0.22,3,2.44,0,2.38-3,2.38a11.89,11.89,0,0,1-3.11-.42Z"/><path class="cls-2" d="M39.71,113.77A5.4,5.4,0,0,0,38.19,116a11.09,11.09,0,0,0,0,6.54,5.35,5.35,0,0,0,1.52,2.26l-1.29,1a6.57,6.57,0,0,1-1.27-1.33,7,7,0,0,1-.83-1.56,8.42,8.42,0,0,1-.46-1.75,13.21,13.21,0,0,1,0-3.84,8.27,8.27,0,0,1,.46-1.76,7.23,7.23,0,0,1,.83-1.56,6.48,6.48,0,0,1,1.26-1.33Z"/><path class="cls-2" d="M41.07,114.46h3.38q3.73,0,3.73,3.22,0,2.43-1.83,3l2.06,3.5H46.12l-1.85-3.25H43.06v3.25h-2v-9.69Zm2,1.9V119h1.4q1.74,0,1.74-1.33t-1.74-1.32h-1.4Z"/><path class="cls-2" d="M49.78,120q0-3.55,3.25-3.55T56.13,120q0,1.27-.65,1.27H51.76a0.92,0.92,0,0,0,1.06,1,7,7,0,0,0,2.39-.39l0.38,1.76a5.85,5.85,0,0,1-2.76.53q-3,0-3-3.55V120Zm4.38-.56A1,1,0,0,0,53,118.31a1,1,0,0,0-1.26,1.09h2.39Zm-1.64-6.18h2.22l-1.07,2.54H52.07Z"/><path class="cls-2" d="M57.8,121.92a9.18,9.18,0,0,0,2.6.33q1.06,0,1.06-.48t-1.09-.55q-2.87-.21-2.87-2.44,0-2.38,2.91-2.38a10.39,10.39,0,0,1,2.63.42l-0.5,1.82a7.51,7.51,0,0,0-2.13-.33q-0.92,0-.92.48t1,0.55q3,0.22,3,2.44,0,2.38-3,2.38a11.89,11.89,0,0,1-3.11-.42Z"/><path class="cls-2" d="M64.81,120q0-3.55,3.25-3.55T71.17,120q0,1.27-.65,1.27H66.8a0.92,0.92,0,0,0,1.06,1,7,7,0,0,0,2.39-.39l0.38,1.76a5.85,5.85,0,0,1-2.76.53q-3,0-3-3.55V120Zm4.38-.56a1,1,0,0,0-1.13-1.09,1,1,0,0,0-1.26,1.09h2.39Z"/><path class="cls-2" d="M72.77,117a7.24,7.24,0,0,1,2.6-.55q3,0,3,2.9v4.36a6.75,6.75,0,0,1-3,.49q-3,0-3-2.51t4.1-2.64q0-.7-1.06-0.7a6.78,6.78,0,0,0-2,.37Zm3.66,3.94q-2.12,0-2.12.74t1.06,0.61l0.59,0,0.47-.05V120.9Z"/><path class="cls-2" d="M79.79,116.41h2v4.85a0.91,0.91,0,0,0,1.06,1l0.59,0,0.47-.05v-5.77h2v7.26a6.75,6.75,0,0,1-3,.49q-3,0-3-2.9v-4.85Z"/><path class="cls-2" d="M87.24,116.41h2.28l1.33,2.4,1.32-2.4h2.28l-2.21,3.87,2.21,3.88H92.16l-1.32-2.4-1.33,2.4H87.24l2.23-3.88Z"/><path class="cls-2" d="M95.95,121.93h2v1.92a1.74,1.74,0,0,1-1.47,1.66l-0.66-1a0.88,0.88,0,0,0,.83-0.7H95.95v-1.88Z"/><path class="cls-2" d="M102.38,114.46h2.14l1.31,6.19,1.83-6.19h1.83l1.84,6.19,1.31-6.19h2.13l-2.26,9.69h-2.11l-1.83-5.78-1.82,5.78h-2.12Z"/><path class="cls-2" d="M115.37,120q0-3.55,3.25-3.55t3.11,3.55q0,1.27-.65,1.27h-3.73a0.92,0.92,0,0,0,1.06,1,7,7,0,0,0,2.39-.39l0.38,1.76a5.85,5.85,0,0,1-2.76.53q-3,0-3-3.55V120Zm4.38-.56a1,1,0,0,0-1.13-1.09,1,1,0,0,0-1.26,1.09h2.39Z"/><path class="cls-2" d="M122.89,114.52l2-.46v2.45a4.31,4.31,0,0,1,1.06-.1q3,0,3,3.22v1.3q0,3.23-3,3.23a6.75,6.75,0,0,1-3-.49v-9.15Zm4.1,5.11a1.07,1.07,0,0,0-1.06-1.32l-0.59,0-0.47.05v3.79l0.47,0.05,0.59,0a1.07,1.07,0,0,0,1.06-1.33v-1.3Z"/><path class="cls-2" d="M131.64,112.74a6.52,6.52,0,0,1,1.26,1.32,7,7,0,0,1,.83,1.57,8.71,8.71,0,0,1,.46,1.76,12.83,12.83,0,0,1,0,3.83,8.65,8.65,0,0,1-.46,1.76,7,7,0,0,1-.83,1.56,6.52,6.52,0,0,1-1.26,1.32l-1.29-1a5.35,5.35,0,0,0,1.52-2.26,11.09,11.09,0,0,0,0-6.54,5.4,5.4,0,0,0-1.52-2.27Z"/><path class="cls-3" d="M95.84,172.63H66.08v55.26h45.56V188.69Zm5.8,45.26H76.08V182.63H90.57V194h11.06v23.93Z"/><path class="cls-2" d="M26.35,239.14h6.08V241h-4.1v2h3.76v1.9H28.33v3.9h-2v-9.69Z"/><path class="cls-2" d="M33.8,244.64q0-3.55,3.38-3.55t3.38,3.55v0.65q0,3.55-3.38,3.55t-3.38-3.55v-0.65Zm2,0.65q0,1.65,1.4,1.65t1.4-1.65v-0.65q0-1.65-1.4-1.65t-1.4,1.65v0.65Z"/><path class="cls-2" d="M41.94,241.53a7.53,7.53,0,0,1,3-.44,6.59,6.59,0,0,1,1.23.14l-0.44,1.89A3.34,3.34,0,0,0,45,243l-0.59,0-0.47.05v5.77h-2v-7.31Z"/><path class="cls-2" d="M47.58,241.53a7.53,7.53,0,0,1,3-.44,2.61,2.61,0,0,1,1.61.4,4.3,4.3,0,0,1,2.15-.4q2.7,0,2.7,2.9v4.85h-2V244q0-1-.72-1a2.36,2.36,0,0,0-1.06.21v5.63h-2V244q0-1-.72-1L50,243l-0.47.05v5.77h-2v-7.31Z"/><path class="cls-2" d="M58.88,241.65a7.24,7.24,0,0,1,2.6-.55q3,0,3,2.9v4.36a6.75,6.75,0,0,1-3,.49q-3,0-3-2.51t4.1-2.64q0-.7-1.06-0.7a6.78,6.78,0,0,0-2,.37Zm3.66,3.94q-2.12,0-2.12.74t1.06,0.61l0.59,0,0.47-.05v-1.27Z"/><path class="cls-2" d="M66.92,239.21l2-.46v2.35H71V243H68.91v2.95q0,1,.72,1a3.48,3.48,0,0,0,1.16-.3l0.5,1.7a2.9,2.9,0,0,1-1.65.51q-2.7,0-2.7-2.9V243h-1v-1.9h1v-1.89Z"/><path class="cls-2" d="M72.84,246.6a9.18,9.18,0,0,0,2.6.33q1.06,0,1.06-.48t-1.09-.55q-2.87-.21-2.87-2.44,0-2.38,2.91-2.38a10.39,10.39,0,0,1,2.63.42l-0.5,1.82a7.51,7.51,0,0,0-2.13-.33q-0.92,0-.92.48t1,0.55q3,0.22,3,2.44,0,2.38-3,2.38a11.89,11.89,0,0,1-3.11-.42Z"/><path class="cls-2" d="M87.73,239.21l2-.46v9.61a6.75,6.75,0,0,1-3,.49q-3,0-3-3.23v-1.3q0-3.22,3-3.22a4.31,4.31,0,0,1,1.06.1v-2Zm0,3.86L87.26,243l-0.59,0a1.07,1.07,0,0,0-1.06,1.32v1.3a1.07,1.07,0,0,0,1.06,1.33l0.59,0,0.47-.05v-3.79Z"/><path class="cls-2" d="M91.08,244.64q0-3.55,3.25-3.55t3.11,3.55q0,1.27-.65,1.27H93.06a0.92,0.92,0,0,0,1.06,1,7,7,0,0,0,2.39-.39l0.38,1.76a5.85,5.85,0,0,1-2.76.53q-3,0-3-3.55v-0.65Zm4.38-.56A1,1,0,0,0,94.33,243a1,1,0,0,0-1.26,1.09h2.39Z"/><path class="cls-2" d="M102.37,241.42h1q0-2.6,2.7-2.6a3.65,3.65,0,0,1,1.65.36l-0.5,1.7a6,6,0,0,0-1.16-.16,0.63,0.63,0,0,0-.72.7h2.05v1.89h-2.05v5.52h-2v-5.52h-1v-1.89Z"/><path class="cls-2" d="M108.88,238.15h2v2.22h-2v-2.22Zm0,2.94h2v7.75h-2v-7.75Z"/><path class="cls-2" d="M112.23,244.64q0-3.55,3.38-3.55a5.65,5.65,0,0,1,2.41.46l-0.5,1.79a5.36,5.36,0,0,0-1.91-.36q-1.4,0-1.4,1.65v0.65q0,1.65,1.4,1.65a5.36,5.36,0,0,0,1.91-.36l0.5,1.79a5.65,5.65,0,0,1-2.41.46q-3.38,0-3.38-3.55v-0.65Z"/><path class="cls-2" d="M119.06,239.24l2-.46v2.45a4.31,4.31,0,0,1,1.06-.1q3,0,3,3.22v4.49h-2v-4.49A1.07,1.07,0,0,0,122.1,243l-0.59,0-0.47.05v5.74h-2v-9.6Z"/><path class="cls-2" d="M126.51,238.15h2v2.22h-2v-2.22Zm0,2.94h2v7.75h-2v-7.75Z"/><path class="cls-2" d="M129.86,244.64q0-3.55,3.25-3.55t3.11,3.55q0,1.27-.65,1.27h-3.73a0.92,0.92,0,0,0,1.06,1,7,7,0,0,0,2.39-.39l0.38,1.76a5.85,5.85,0,0,1-2.76.53q-3,0-3-3.55v-0.65Zm4.38-.56a1,1,0,0,0-1.13-1.09,1,1,0,0,0-1.26,1.09h2.39Z"/><path class="cls-2" d="M137.38,241.53a7.53,7.53,0,0,1,3-.44,6.59,6.59,0,0,1,1.23.14l-0.44,1.89a3.34,3.34,0,0,0-.79-0.13l-0.59,0-0.47.05v5.77h-2v-7.31Z"/><path class="cls-2" d="M143.53,246.6a9.18,9.18,0,0,0,2.6.33q1.06,0,1.06-.48t-1.09-.55q-2.87-.21-2.87-2.44,0-2.38,2.91-2.38a10.39,10.39,0,0,1,2.63.42l-0.5,1.82a7.51,7.51,0,0,0-2.13-.33q-0.92,0-.92.48t1,0.55q3,0.22,3,2.44,0,2.38-3,2.38a11.89,11.89,0,0,1-3.11-.42Z"/><path class="cls-4" d="M225.6,84.28c0-.21,0-0.42,0-0.64a11,11,0,0,0-20.73-5.06l-4.73,4.73a6,6,0,0,0-1.78,4.25h6a11,11,0,0,0,7.6,6.72v15.17h-5.34v3c2.32,0,4.2,1,4.2,2.33s-1.88,2.33-4.2,2.33v3H212a2.67,2.67,0,0,0,2.65,2.41h0a2.67,2.67,0,0,0,2.66-2.66V94.29a11,11,0,0,0,8-8c-7.55-.07-13.36-0.49-13.36-1S217.91,84.34,225.6,84.28ZM217.83,78a2.19,2.19,0,1,1-2.19,2.19A2.19,2.19,0,0,1,217.83,78Z"/><path class="cls-1" d="M246.07,88.15h5.32q5.85,0,5.85,5.06t-5.85,5.07h-2.2v5.1h-3.12V88.15Zm3.12,3V95.3h2.2q2.74,0,2.74-2.08t-2.74-2.07h-2.2Z"/><path class="cls-1" d="M259.39,96.79q0-5.58,5.32-5.58T270,96.79v1q0,5.58-5.32,5.58t-5.32-5.58v-1Zm3.12,1q0,2.59,2.2,2.59t2.2-2.59v-1q0-2.59-2.2-2.59t-2.2,2.59v1Z"/><path class="cls-1" d="M272.18,86.6h3.12v3.49h-3.12V86.6Zm0,4.62h3.12v12.17h-3.12V91.21Z"/><path class="cls-1" d="M277.44,91.9a11.83,11.83,0,0,1,4.78-.69q4.78,0,4.78,4.55v7.62h-3.12V95.77a1.43,1.43,0,0,0-1.67-1.57c-0.34,0-.65,0-0.92,0s-0.52.05-.74,0.09v9.07h-3.12V91.9Z"/><path class="cls-1" d="M290.76,88.25l3.12-.73v3.7h3.22v3h-3.22v4.63q0,1.57,1.13,1.57a5.46,5.46,0,0,0,1.82-.47l0.78,2.66a4.56,4.56,0,0,1-2.6.79q-4.24,0-4.24-4.55V94.2h-1.61v-3h1.61v-3Z"/><path class="cls-1" d="M300.06,99.87a14.4,14.4,0,0,0,4.09.53q1.66,0,1.67-.75t-1.72-.86q-4.51-.33-4.51-3.83,0-3.74,4.57-3.74a16.33,16.33,0,0,1,4.14.66l-0.78,2.86a11.8,11.8,0,0,0-3.35-.53q-1.45,0-1.45.75t1.5,0.86q4.73,0.34,4.73,3.83,0,3.74-4.78,3.74a18.67,18.67,0,0,1-4.89-.66Z"/><path class="cls-1" d="M317,96.79q0-5.58,5.32-5.58a8.89,8.89,0,0,1,3.79.73l-0.78,2.81a8.42,8.42,0,0,0-3-.56q-2.2,0-2.2,2.59v1q0,2.59,2.2,2.59a8.41,8.41,0,0,0,3-.56l0.78,2.81a8.88,8.88,0,0,1-3.79.73q-5.32,0-5.32-5.58v-1Z"/><path class="cls-1" d="M327.76,88.25l3.12-.73v15.87h-3.12V88.25Z"/><path class="cls-1" d="M333,96.79q0-5.58,5.1-5.58,4.89,0,4.89,5.58,0,2-1,2h-5.85a1.45,1.45,0,0,0,1.67,1.61,11,11,0,0,0,3.75-.61l0.59,2.76a9.19,9.19,0,0,1-4.34.84q-4.78,0-4.78-5.58v-1Zm6.88-.88a1.54,1.54,0,0,0-1.77-1.71q-2,0-2,1.71h3.76Zm-2.58-9.71h3.49l-1.69,4h-2.5Z"/><path class="cls-1" d="M345.63,99.87a14.4,14.4,0,0,0,4.09.53q1.66,0,1.67-.75t-1.72-.86q-4.51-.33-4.51-3.83,0-3.74,4.57-3.74a16.33,16.33,0,0,1,4.14.66l-0.78,2.86a11.8,11.8,0,0,0-3.35-.53q-1.45,0-1.45.75t1.5,0.86q4.73,0.34,4.73,3.83,0,3.74-4.78,3.74a18.67,18.67,0,0,1-4.89-.66Z"/><path class="cls-1" d="M369,88.25l3.12-.73v15.1a10.61,10.61,0,0,1-4.78.76q-4.78,0-4.78-5.07v-2q0-5.06,4.78-5.06a6.8,6.8,0,0,1,1.67.15V88.25Zm0,6.07-0.74-.09q-0.41,0-.92,0-1.67,0-1.67,2.07v2q0,2.08,1.67,2.08,0.52,0,.92,0t0.74-.09v-6Z"/><path class="cls-1" d="M374.29,91.21h3.12v7.62a1.43,1.43,0,0,0,1.67,1.57q0.52,0,.92,0t0.74-.09V91.21h3.12v11.41a10.61,10.61,0,0,1-4.78.76q-4.78,0-4.78-4.55V91.21Z"/><path class="cls-1" d="M391.93,91.9a11.83,11.83,0,0,1,4.78-.69q4.78,0,4.78,4.55v7.62h-3.12V95.77a1.43,1.43,0,0,0-1.67-1.57q-0.52,0-.92,0t-0.74.09v9.07h-3.12V91.9Z"/><path class="cls-1" d="M403.64,91.21h3.12v7.62a1.43,1.43,0,0,0,1.67,1.57q0.52,0,.92,0t0.74-.09V91.21h3.12v11.41a10.6,10.6,0,0,1-4.78.76q-4.78,0-4.78-4.55V91.21Z"/><path class="cls-1" d="M415.35,91.9a11.83,11.83,0,0,1,4.78-.69,4.1,4.1,0,0,1,2.54.62,6.75,6.75,0,0,1,3.37-.62q4.24,0,4.24,4.55v7.62h-3.12V95.77q0-1.57-1.13-1.57a3.71,3.71,0,0,0-1.67.33v8.85h-3.12V95.77q0-1.57-1.13-1.57-0.52,0-.92,0t-0.74.09v9.07h-3.12V91.9Z"/><path class="cls-1" d="M432.43,96.79q0-5.58,5.1-5.58,4.89,0,4.89,5.58,0,2-1,2h-5.85a1.45,1.45,0,0,0,1.67,1.61,11,11,0,0,0,3.75-.61l0.59,2.76a9.19,9.19,0,0,1-4.34.84q-4.78,0-4.78-5.58v-1Zm6.88-.88a1.54,1.54,0,0,0-1.77-1.71q-2,0-2,1.71h3.76Zm-2.58-9.71h3.49l-1.69,4H436Z"/><path class="cls-1" d="M444.24,91.9a11.83,11.83,0,0,1,4.78-.69,10.35,10.35,0,0,1,1.93.23l-0.7,3a5.25,5.25,0,0,0-1.24-.2q-0.52,0-.92,0t-0.74.09v9.07h-3.12V91.9Z"/><path class="cls-1" d="M453.11,86.6h3.12v3.49h-3.12V86.6Zm0,4.62h3.12v12.17h-3.12V91.21Z"/><path class="cls-1" d="M458.37,96.27q0-5.06,4.78-5.06a10.79,10.79,0,0,1,4.78.75v15.46l-3.12.73v-4.92a6.8,6.8,0,0,1-1.67.15q-4.78,0-4.78-5.07v-2Zm6.45-2q-0.33-.05-0.74-0.09t-0.92,0q-1.67,0-1.67,2.07v2q0,2.08,1.67,2.08,0.52,0,.92,0t0.74-.09v-6Z"/><path class="cls-1" d="M470.08,91.21h3.12v7.62a1.43,1.43,0,0,0,1.67,1.57q0.52,0,.92,0t0.74-.09V91.21h3.12v11.41a10.6,10.6,0,0,1-4.78.76q-4.78,0-4.78-4.55V91.21Z"/><path class="cls-1" d="M481.79,96.79q0-5.58,5.1-5.58,4.89,0,4.89,5.58,0,2-1,2H484.9a1.45,1.45,0,0,0,1.67,1.61,11,11,0,0,0,3.75-.61l0.59,2.76a9.19,9.19,0,0,1-4.34.84q-4.78,0-4.78-5.58v-1Zm6.88-.88a1.54,1.54,0,0,0-1.77-1.71q-2,0-2,1.71h3.76Z"/><polyline class="cls-5" points="147.33 64.5 173.66 64.5 173.66 197.67 147.33 197.67"/><line class="cls-6" x1="347.67" y1="121.74" x2="347.67" y2="136.4"/><polygon class="cls-2" points="338.69 133.78 347.67 149.32 356.64 133.78 338.69 133.78"/><path class="cls-2" d="M202.27,163.39h1.59l2.81,4.8v-4.8h1.7v8.31h-1.59L204,166.9v4.8h-1.7v-8.31Z"/><path class="cls-2" d="M209.54,168.1q0-3,2.78-3t2.67,3q0,1.09-.56,1.09h-3.19a0.79,0.79,0,0,0,.91.88,6,6,0,0,0,2-.33l0.32,1.51a5,5,0,0,1-2.37.46q-2.61,0-2.61-3V168.1Zm3.75-.48a0.84,0.84,0,0,0-1-.93,0.9,0.9,0,0,0-1.08.93h2.05Zm-1.41-5.3h1.9l-0.92,2.18H211.5Z"/><path class="cls-2" d="M216,168.1q0-3,2.9-3a4.85,4.85,0,0,1,2.07.4L220.53,167a4.59,4.59,0,0,0-1.64-.3,1.16,1.16,0,0,0-1.2,1.41v0.56a1.16,1.16,0,0,0,1.2,1.41,4.59,4.59,0,0,0,1.64-.3L221,171.3a4.85,4.85,0,0,1-2.07.4q-2.9,0-2.9-3V168.1Z"/><path class="cls-2" d="M221.84,168.1q0-3,2.78-3t2.67,3q0,1.09-.56,1.09h-3.19a0.79,0.79,0,0,0,.91.88,6,6,0,0,0,2-.33l0.32,1.51a5,5,0,0,1-2.37.46q-2.61,0-2.61-3V168.1Zm3.75-.48a0.84,0.84,0,0,0-1-.93,0.9,0.9,0,0,0-1.08.93h2.05Z"/><path class="cls-2" d="M228.72,169.78a7.86,7.86,0,0,0,2.23.29q0.91,0,.91-0.41t-0.94-.47q-2.46-.18-2.46-2.09t2.49-2a8.9,8.9,0,0,1,2.26.36L232.78,167a6.43,6.43,0,0,0-1.83-.29q-0.79,0-.79.41t0.82,0.47q2.58,0.19,2.58,2.09t-2.61,2a10.19,10.19,0,0,1-2.67-.36Z"/><path class="cls-2" d="M235.17,169.78a7.86,7.86,0,0,0,2.23.29q0.91,0,.91-0.41t-0.94-.47q-2.46-.18-2.46-2.09t2.49-2a8.9,8.9,0,0,1,2.26.36L239.23,167a6.43,6.43,0,0,0-1.83-.29q-0.79,0-.79.41t0.82,0.47q2.58,0.19,2.58,2.09t-2.61,2a10.19,10.19,0,0,1-2.67-.36Z"/><path class="cls-2" d="M241.18,162.54h1.7v1.9h-1.7v-1.9Zm0,2.52h1.7v6.64h-1.7v-6.64Z"/><path class="cls-2" d="M244.93,163.44l1.7-.4v2h1.76v1.63h-1.76v2.53q0,0.86.62,0.86a3,3,0,0,0,1-.26l0.43,1.45a2.49,2.49,0,0,1-1.42.43q-2.31,0-2.31-2.48v-2.53h-0.88v-1.63h0.88v-1.62Z"/><path class="cls-2" d="M249.57,168.1q0-3,2.78-3t2.67,3q0,1.09-.56,1.09h-3.19a0.79,0.79,0,0,0,.91.88,6,6,0,0,0,2-.33l0.32,1.51a5,5,0,0,1-2.37.46q-2.61,0-2.61-3V168.1Zm3.75-.48a0.84,0.84,0,0,0-1-.93,0.9,0.9,0,0,0-1.08.93h2.05Zm-1.41-5.3h1.9l-0.92,2.18h-1.37Z"/><path class="cls-2" d="M262.77,163.44l1.7-.4v8.24a5.79,5.79,0,0,1-2.61.42q-2.61,0-2.61-2.77v-1.11q0-2.76,2.61-2.76a3.7,3.7,0,0,1,.91.08v-1.7Zm0,3.31-0.4,0-0.5,0a0.91,0.91,0,0,0-.91,1.13v1.11a0.92,0.92,0,0,0,.91,1.14l0.5,0,0.4,0v-3.25Z"/><path class="cls-2" d="M265.64,168.1q0-3,2.78-3t2.67,3q0,1.09-.56,1.09h-3.19a0.79,0.79,0,0,0,.91.88,6,6,0,0,0,2-.33l0.32,1.51a5,5,0,0,1-2.37.46q-2.61,0-2.61-3V168.1Zm3.75-.48a0.84,0.84,0,0,0-1-.93,0.9,0.9,0,0,0-1.08.93h2.05Z"/><path class="cls-2" d="M275.32,165.47a5.86,5.86,0,0,1,2.61-.41q2.61,0,2.61,2.76v1.11q0,2.77-2.61,2.77a3.7,3.7,0,0,1-.91-0.08v2.29l-1.7.4v-8.83Zm3.52,2.35a0.91,0.91,0,0,0-.91-1.13l-0.5,0-0.4,0V170l0.4,0,0.5,0a0.92,0.92,0,0,0,.91-1.14v-1.11Z"/><path class="cls-2" d="M281.7,165.44a6.45,6.45,0,0,1,2.61-.37,5.64,5.64,0,0,1,1.05.12L285,166.8a2.86,2.86,0,0,0-.67-0.11l-0.5,0-0.4,0v4.95h-1.7v-6.26Z"/><path class="cls-2" d="M286.54,168.1q0-3,2.9-3t2.9,3v0.56q0,3-2.9,3t-2.9-3V168.1Zm1.7,0.56a1.22,1.22,0,1,0,2.4,0V168.1a1.22,1.22,0,1,0-2.4,0v0.56Z"/><path class="cls-2" d="M294.39,163.44l1.7-.4v2h1.76v1.63h-1.76v2.53q0,0.86.62,0.86a3,3,0,0,0,1-.26l0.43,1.45a2.49,2.49,0,0,1-1.42.43q-2.31,0-2.31-2.48v-2.53h-0.88v-1.63h0.88v-1.62Z"/><path class="cls-2" d="M299,168.1q0-3,2.78-3t2.67,3q0,1.09-.56,1.09h-3.19a0.79,0.79,0,0,0,.91.88,6,6,0,0,0,2-.33l0.32,1.51a5,5,0,0,1-2.37.46q-2.61,0-2.61-3V168.1Zm3.75-.48a0.84,0.84,0,0,0-1-.93,0.9,0.9,0,0,0-1.08.93h2.05Zm-1.41-5.3h1.9l-0.92,2.18H301Z"/><path class="cls-2" d="M305.48,167.82q0-2.76,2.61-2.76a5.88,5.88,0,0,1,2.61.41v6.25q0,2.51-2.61,2.51a7.69,7.69,0,0,1-2.37-.37l0.43-1.64a4.47,4.47,0,0,0,1.93.39,0.8,0.8,0,0,0,.91-0.89v-0.28a1.36,1.36,0,0,1-.91.26q-2.61,0-2.61-2.77v-1.11Zm3.52-1.07-0.4,0-0.5,0a0.91,0.91,0,0,0-.91,1.13v1.11a0.92,0.92,0,0,0,.91,1.14,1.53,1.53,0,0,0,.91-0.24v-3.08Z"/><path class="cls-2" d="M311.86,168.1q0-3,2.78-3t2.67,3q0,1.09-.56,1.09h-3.19a0.79,0.79,0,0,0,.91.88,6,6,0,0,0,2-.33l0.32,1.51a5,5,0,0,1-2.37.46q-2.61,0-2.61-3V168.1Zm3.75-.48a0.84,0.84,0,0,0-1-.93,0.9,0.9,0,0,0-1.08.93h2.05Z"/><path class="cls-2" d="M318.31,165.44a6.45,6.45,0,0,1,2.61-.37,5.64,5.64,0,0,1,1.05.12l-0.38,1.62a2.86,2.86,0,0,0-.67-0.11l-0.5,0-0.4,0v4.95h-1.7v-6.26Z"/><path class="cls-2" d="M329.89,163.44l1.7-.4v8.24a5.79,5.79,0,0,1-2.61.42q-2.61,0-2.61-2.77v-1.11q0-2.76,2.61-2.76a3.7,3.7,0,0,1,.91.08v-1.7Zm0,3.31-0.4,0-0.5,0a0.91,0.91,0,0,0-.91,1.13v1.11a0.92,0.92,0,0,0,.91,1.14l0.5,0,0.4,0v-3.25Z"/><path class="cls-2" d="M332.76,168.1q0-3,2.78-3t2.67,3q0,1.09-.56,1.09h-3.19a0.79,0.79,0,0,0,.91.88,6,6,0,0,0,2-.33l0.32,1.51a5,5,0,0,1-2.37.46q-2.61,0-2.61-3V168.1Zm3.75-.48a0.84,0.84,0,0,0-1-.93,0.9,0.9,0,0,0-1.08.93h2.05Z"/><path class="cls-2" d="M339.64,169.78a7.86,7.86,0,0,0,2.23.29q0.91,0,.91-0.41t-0.94-.47q-2.46-.18-2.46-2.09t2.49-2a8.9,8.9,0,0,1,2.26.36L343.7,167a6.43,6.43,0,0,0-1.83-.29q-0.79,0-.79.41t0.82,0.47q2.58,0.19,2.58,2.09t-2.61,2a10.19,10.19,0,0,1-2.67-.36Z"/><path class="cls-2" d="M349.77,163.44l1.7-.4v2h1.76v1.63h-1.76v2.53q0,0.86.62,0.86a3,3,0,0,0,1-.26l0.43,1.45a2.49,2.49,0,0,1-1.42.43q-2.31,0-2.31-2.48v-2.53h-0.88v-1.63h0.88v-1.62Z"/><path class="cls-2" d="M354.41,168.1q0-3,2.78-3t2.67,3q0,1.09-.56,1.09h-3.19a0.79,0.79,0,0,0,.91.88,6,6,0,0,0,2-.33l0.32,1.51a5,5,0,0,1-2.37.46q-2.61,0-2.61-3V168.1Zm3.75-.48a0.84,0.84,0,0,0-1-.93,0.9,0.9,0,0,0-1.08.93h2.05Z"/><path class="cls-2" d="M360.85,165.44a6.45,6.45,0,0,1,2.61-.37q2.61,0,2.61,2.48v4.15h-1.7v-4.15a0.78,0.78,0,0,0-.91-0.86l-0.5,0-0.4,0v4.95h-1.7v-6.26Z"/><path class="cls-2" d="M368.12,163.44l1.7-.4v2h1.76v1.63h-1.76v2.53q0,0.86.62,0.86a3,3,0,0,0,1-.26l0.43,1.45a2.49,2.49,0,0,1-1.42.43q-2.31,0-2.31-2.48v-2.53h-0.88v-1.63h0.88v-1.62Z"/><path class="cls-2" d="M373.13,165.53a6.2,6.2,0,0,1,2.23-.47q2.61,0,2.61,2.48v3.74a5.79,5.79,0,0,1-2.61.42q-2.61,0-2.61-2.15t3.52-2.26q0-.6-0.91-0.6a5.81,5.81,0,0,0-1.73.32Zm3.14,3.38q-1.82,0-1.82.63t0.91,0.52l0.5,0,0.4,0v-1.09Z"/><path class="cls-2" d="M380,163.44l1.7-.4v2h1.76v1.63h-1.76v2.53q0,0.86.62,0.86a3,3,0,0,0,1-.26l0.43,1.45a2.49,2.49,0,0,1-1.42.43q-2.31,0-2.31-2.48v-2.53h-0.88v-1.63H380v-1.62Z"/><path class="cls-2" d="M384.66,162.54h1.7v1.9h-1.7v-1.9Zm0,2.52h1.7v6.64h-1.7v-6.64Z"/><path class="cls-2" d="M386.95,165.06h1.85l1.15,4,1.14-4h1.85l-2.1,6.64H389Z"/><path class="cls-2" d="M393.4,168.1q0-3,2.78-3t2.67,3q0,1.09-.56,1.09h-3.19a0.79,0.79,0,0,0,.91.88,6,6,0,0,0,2-.33l0.32,1.51a5,5,0,0,1-2.37.46q-2.61,0-2.61-3V168.1Zm3.75-.48a0.84,0.84,0,0,0-1-.93,0.9,0.9,0,0,0-1.08.93h2.05Z"/><path class="cls-2" d="M400.27,169.78a7.86,7.86,0,0,0,2.23.29q0.91,0,.91-0.41t-0.94-.47Q400,169,400,167.1t2.49-2a8.9,8.9,0,0,1,2.26.36L404.33,167a6.43,6.43,0,0,0-1.83-.29q-0.79,0-.79.41t0.82,0.47q2.58,0.19,2.58,2.09t-2.61,2a10.19,10.19,0,0,1-2.67-.36Z"/><path class="cls-2" d="M413,163.44l1.7-.4v8.24a5.79,5.79,0,0,1-2.61.42q-2.61,0-2.61-2.77v-1.11q0-2.76,2.61-2.76a3.7,3.7,0,0,1,.91.08v-1.7Zm0,3.31-0.4,0-0.5,0a0.91,0.91,0,0,0-.91,1.13v1.11a0.92,0.92,0,0,0,.91,1.14l0.5,0,0.4,0v-3.25Z"/><path class="cls-2" d="M415.91,168.1q0-3,2.78-3t2.67,3q0,1.09-.56,1.09h-3.19a0.79,0.79,0,0,0,.91.88,6,6,0,0,0,2-.33l0.32,1.51a5,5,0,0,1-2.37.46q-2.61,0-2.61-3V168.1Zm3.75-.48a0.84,0.84,0,0,0-1-.93,0.9,0.9,0,0,0-1.08.93h2.05Z"/><path class="cls-2" d="M425.59,165.47a5.86,5.86,0,0,1,2.61-.41q2.61,0,2.61,2.76v1.11q0,2.77-2.61,2.77a3.7,3.7,0,0,1-.91-0.08v2.29l-1.7.4v-8.83Zm3.52,2.35a0.91,0.91,0,0,0-.91-1.13l-0.5,0-0.4,0V170l0.4,0,0.5,0a0.92,0.92,0,0,0,.91-1.14v-1.11Z"/><path class="cls-2" d="M432,165.44a6.45,6.45,0,0,1,2.61-.37,5.64,5.64,0,0,1,1.05.12l-0.38,1.62a2.86,2.86,0,0,0-.67-0.11l-0.5,0-0.4,0v4.95H432v-6.26Z"/><path class="cls-2" d="M436.81,162.54h1.7v1.9h-1.7v-1.9Zm0,2.52h1.7v6.64h-1.7v-6.64Z"/><path class="cls-2" d="M439.09,165.06h1.85l1.15,4,1.14-4h1.85L443,171.7h-1.79Z"/><path class="cls-2" d="M445.91,165.53a6.2,6.2,0,0,1,2.23-.47q2.61,0,2.61,2.48v3.74a5.79,5.79,0,0,1-2.61.42q-2.61,0-2.61-2.15t3.52-2.26q0-.6-0.91-0.6a5.81,5.81,0,0,0-1.73.32Zm3.14,3.38q-1.82,0-1.82.63t0.91,0.52l0.5,0,0.4,0v-1.09Z"/><path class="cls-2" d="M452.8,163.44l1.7-.4v2h1.76v1.63H454.5v2.53q0,0.86.62,0.86a3,3,0,0,0,1-.26l0.43,1.45a2.49,2.49,0,0,1-1.42.43q-2.31,0-2.31-2.48v-2.53h-0.88v-1.63h0.88v-1.62Z"/><path class="cls-2" d="M457.44,162.54h1.7v1.9h-1.7v-1.9Zm0,2.52h1.7v6.64h-1.7v-6.64Z"/><path class="cls-2" d="M460.75,169.78a7.86,7.86,0,0,0,2.23.29q0.91,0,.91-0.41t-0.94-.47q-2.46-.18-2.46-2.09t2.49-2a8.9,8.9,0,0,1,2.26.36L464.81,167a6.43,6.43,0,0,0-1.83-.29q-0.79,0-.79.41t0.82,0.47q2.58,0.19,2.58,2.09t-2.61,2a10.19,10.19,0,0,1-2.67-.36Z"/><path class="cls-2" d="M467.14,165.53a6.2,6.2,0,0,1,2.23-.47q2.61,0,2.61,2.48v3.74a5.79,5.79,0,0,1-2.61.42q-2.61,0-2.61-2.15t3.52-2.26q0-.6-0.91-0.6a5.81,5.81,0,0,0-1.73.32Zm3.14,3.38q-1.82,0-1.82.63t0.91,0.52l0.5,0,0.4,0v-1.09Z"/><path class="cls-2" d="M474,163.44l1.7-.4v2h1.76v1.63h-1.76v2.53q0,0.86.62,0.86a3,3,0,0,0,1-.26l0.43,1.45a2.49,2.49,0,0,1-1.42.43q-2.31,0-2.31-2.48v-2.53h-0.88v-1.63H474v-1.62Z"/><path class="cls-2" d="M478.67,162.54h1.7v1.9h-1.7v-1.9Zm0,2.52h1.7v6.64h-1.7v-6.64Z"/><path class="cls-2" d="M481.54,168.1q0-3,2.9-3t2.9,3v0.56q0,3-2.9,3t-2.9-3V168.1Zm1.7,0.56a1.22,1.22,0,1,0,2.4,0V168.1a1.22,1.22,0,1,0-2.4,0v0.56Z"/><path class="cls-2" d="M488.51,165.44a6.45,6.45,0,0,1,2.61-.37q2.61,0,2.61,2.48v4.15H492v-4.15a0.78,0.78,0,0,0-.91-0.86l-0.5,0-0.4,0v4.95h-1.7v-6.26Z"/><path class="cls-2" d="M254,179.87a5.86,5.86,0,0,1,2.61-.41q2.61,0,2.61,2.76v1.11q0,2.77-2.61,2.77a3.7,3.7,0,0,1-.91-0.08v2.29l-1.7.4v-8.83Zm3.52,2.35a0.91,0.91,0,0,0-.91-1.13l-0.5,0-0.4,0v3.25l0.4,0,0.5,0a0.92,0.92,0,0,0,.91-1.14v-1.11Z"/><path class="cls-2" d="M260.39,182.5q0-3,2.9-3t2.9,3v0.56q0,3-2.9,3t-2.9-3V182.5Zm1.7,0.56a1.22,1.22,0,1,0,2.4,0V182.5a1.22,1.22,0,1,0-2.4,0v0.56Z"/><path class="cls-2" d="M267.36,179.46h1.7v4.15a0.78,0.78,0,0,0,.91.86l0.5,0,0.4,0v-4.95h1.7v6.22a5.79,5.79,0,0,1-2.61.42q-2.61,0-2.61-2.48v-4.15Z"/><path class="cls-2" d="M273.75,179.83a6.45,6.45,0,0,1,2.61-.37,5.64,5.64,0,0,1,1.05.12L277,181.2a2.86,2.86,0,0,0-.67-0.11l-0.5,0-0.4,0v4.95h-1.7v-6.26Z"/><path class="cls-2" d="M281.82,182.22q0-2.76,2.61-2.76a5.88,5.88,0,0,1,2.61.41v6.25q0,2.51-2.61,2.51a7.69,7.69,0,0,1-2.37-.37l0.43-1.64a4.47,4.47,0,0,0,1.93.39,0.8,0.8,0,0,0,.91-0.89v-0.28a1.36,1.36,0,0,1-.91.26q-2.61,0-2.61-2.77v-1.11Zm3.52-1.07-0.4,0-0.5,0a0.91,0.91,0,0,0-.91,1.13v1.11a0.92,0.92,0,0,0,.91,1.14,1.53,1.53,0,0,0,.91-0.24v-3.08Z"/><path class="cls-2" d="M288.58,179.93a6.2,6.2,0,0,1,2.23-.47q2.61,0,2.61,2.48v3.74a5.79,5.79,0,0,1-2.61.42q-2.61,0-2.61-2.15t3.52-2.26q0-.6-0.91-0.6a5.81,5.81,0,0,0-1.73.32Zm3.14,3.38q-1.82,0-1.82.63t0.91,0.52l0.5,0,0.4,0v-1.09Z"/><path class="cls-2" d="M294.59,179.83a6.45,6.45,0,0,1,2.61-.37,5.64,5.64,0,0,1,1.05.12l-0.38,1.62a2.86,2.86,0,0,0-.67-0.11l-0.5,0-0.4,0v4.95h-1.7v-6.26Z"/><path class="cls-2" d="M302.94,177.84l1.7-.4v8.24a5.79,5.79,0,0,1-2.61.42q-2.61,0-2.61-2.77v-1.11q0-2.76,2.61-2.76a3.7,3.7,0,0,1,.91.08v-1.7Zm0,3.31-0.4,0-0.5,0a0.91,0.91,0,0,0-.91,1.13v1.11a0.92,0.92,0,0,0,.91,1.14l0.5,0,0.4,0v-3.25Z"/><path class="cls-2" d="M305.81,182.5q0-3,2.78-3t2.67,3q0,1.09-.56,1.09h-3.19a0.79,0.79,0,0,0,.91.88,6,6,0,0,0,2-.33l0.32,1.51a5,5,0,0,1-2.37.46q-2.61,0-2.61-3V182.5Zm3.75-.48a0.84,0.84,0,0,0-1-.93,0.9,0.9,0,0,0-1.08.93h2.05Z"/><path class="cls-2" d="M312.26,179.83a6.45,6.45,0,0,1,2.61-.37,5.64,5.64,0,0,1,1.05.12l-0.38,1.62a2.86,2.86,0,0,0-.67-0.11l-0.5,0-0.4,0v4.95h-1.7v-6.26Z"/><path class="cls-2" d="M320.33,179.46H322v4.15a0.78,0.78,0,0,0,.91.86l0.5,0,0.4,0v-4.95h1.7v6.22a5.79,5.79,0,0,1-2.61.42q-2.61,0-2.61-2.48v-4.15Z"/><path class="cls-2" d="M326.71,179.83a6.45,6.45,0,0,1,2.61-.37q2.61,0,2.61,2.48v4.15h-1.7v-4.15a0.78,0.78,0,0,0-.91-0.86l-0.5,0-0.4,0v4.95h-1.7v-6.26Z"/><path class="cls-2" d="M336.71,179.93a6.2,6.2,0,0,1,2.23-.47q2.61,0,2.61,2.48v3.74a5.79,5.79,0,0,1-2.61.42q-2.61,0-2.61-2.15t3.52-2.26q0-.6-0.91-0.6a5.81,5.81,0,0,0-1.73.32Zm3.14,3.38q-1.82,0-1.82.63t0.91,0.52l0.5,0,0.4,0v-1.09Z"/><path class="cls-2" d="M342.72,182.5q0-3,2.9-3a4.85,4.85,0,0,1,2.07.4l-0.43,1.54a4.59,4.59,0,0,0-1.64-.3,1.16,1.16,0,0,0-1.2,1.41v0.56a1.16,1.16,0,0,0,1.2,1.41,4.59,4.59,0,0,0,1.64-.3l0.43,1.54a4.85,4.85,0,0,1-2.07.4q-2.9,0-2.9-3V182.5Z"/><path class="cls-2" d="M348.58,182.5q0-3,2.9-3a4.85,4.85,0,0,1,2.07.4l-0.43,1.54a4.59,4.59,0,0,0-1.64-.3,1.16,1.16,0,0,0-1.2,1.41v0.56a1.16,1.16,0,0,0,1.2,1.41,4.59,4.59,0,0,0,1.64-.3l0.43,1.54a4.85,4.85,0,0,1-2.07.4q-2.9,0-2.9-3V182.5Z"/><path class="cls-2" d="M354.44,182.5q0-3,2.78-3t2.67,3q0,1.09-.56,1.09h-3.19a0.79,0.79,0,0,0,.91.88,6,6,0,0,0,2-.33l0.32,1.51a5,5,0,0,1-2.37.46q-2.61,0-2.61-3V182.5Zm1.2-5.78h1.9l0.38,2.18h-1.37Zm2.55,5.3a0.84,0.84,0,0,0-1-.93,0.9,0.9,0,0,0-1.08.93h2.05Z"/><path class="cls-2" d="M361.32,184.18a7.86,7.86,0,0,0,2.23.29q0.91,0,.91-0.41t-0.94-.47q-2.46-.18-2.46-2.09t2.49-2a8.9,8.9,0,0,1,2.26.36l-0.43,1.56a6.43,6.43,0,0,0-1.83-.29q-0.79,0-.79.41t0.82,0.47q2.58,0.19,2.58,2.09t-2.61,2a10.19,10.19,0,0,1-2.67-.36Z"/><path class="cls-2" d="M370.56,177.84l1.7-.4v8.65h-1.7v-8.26Z"/><path class="cls-2" d="M373.44,176.94h1.7v1.9h-1.7v-1.9Zm0,2.52h1.7v6.64h-1.7v-6.64Z"/><path class="cls-2" d="M376.31,177.84l1.7-.4v2.1a3.7,3.7,0,0,1,.91-0.08q2.61,0,2.61,2.76v1.11q0,2.77-2.61,2.77a5.79,5.79,0,0,1-2.61-.42v-7.84Zm3.52,4.38a0.91,0.91,0,0,0-.91-1.13l-0.5,0-0.4,0v3.25l0.4,0,0.5,0a0.92,0.92,0,0,0,.91-1.14v-1.11Z"/><path class="cls-2" d="M382.69,179.83a6.45,6.45,0,0,1,2.61-.37,5.64,5.64,0,0,1,1.05.12L386,181.2a2.86,2.86,0,0,0-.67-0.11l-0.5,0-0.4,0v4.95h-1.7v-6.26Z"/><path class="cls-2" d="M387.53,182.5q0-3,2.78-3t2.67,3q0,1.09-.56,1.09h-3.19a0.79,0.79,0,0,0,.91.88,6,6,0,0,0,2-.33l0.32,1.51a5,5,0,0,1-2.37.46q-2.61,0-2.61-3V182.5Zm3.75-.48a0.84,0.84,0,0,0-1-.93,0.9,0.9,0,0,0-1.08.93h2.05Z"/><path class="cls-2" d="M397.21,182.5q0-3,2.78-3t2.67,3q0,1.09-.56,1.09h-3.19a0.79,0.79,0,0,0,.91.88,6,6,0,0,0,2-.33l0.32,1.51a5,5,0,0,1-2.37.46q-2.61,0-2.61-3V182.5ZM401,182a0.84,0.84,0,0,0-1-.93,0.9,0.9,0,0,0-1.08.93H401Z"/><path class="cls-2" d="M404.53,177.84l1.7-.4v2H408v1.63h-1.76v2.53q0,0.86.62,0.86a3,3,0,0,0,1-.26l0.43,1.45a2.49,2.49,0,0,1-1.42.43q-2.31,0-2.31-2.48v-2.53h-0.88v-1.63h0.88v-1.62Z"/><path class="cls-2" d="M412.41,179.87a5.86,5.86,0,0,1,2.61-.41q2.61,0,2.61,2.76v1.11q0,2.77-2.61,2.77a3.7,3.7,0,0,1-.91-0.08v2.29l-1.7.4v-8.83Zm3.52,2.35a0.91,0.91,0,0,0-.91-1.13l-0.5,0-0.4,0v3.25l0.4,0,0.5,0a0.92,0.92,0,0,0,.91-1.14v-1.11Z"/><path class="cls-2" d="M418.79,179.46h1.7v4.15a0.78,0.78,0,0,0,.91.86l0.5,0,0.4,0v-4.95H424v6.22a5.79,5.79,0,0,1-2.61.42q-2.61,0-2.61-2.48v-4.15Z"/><path class="cls-2" d="M425.18,177.84l1.7-.4v2.1a3.7,3.7,0,0,1,.91-0.08q2.61,0,2.61,2.76v1.11q0,2.77-2.61,2.77a5.79,5.79,0,0,1-2.61-.42v-7.84Zm3.52,4.38a0.91,0.91,0,0,0-.91-1.13l-0.5,0-0.4,0v3.25l0.4,0,0.5,0a0.92,0.92,0,0,0,.91-1.14v-1.11Z"/><path class="cls-2" d="M431.57,177.84l1.7-.4v8.65h-1.7v-8.26Z"/><path class="cls-2" d="M434.44,176.94h1.7v1.9h-1.7v-1.9Zm0,2.52h1.7v6.64h-1.7v-6.64Z"/><path class="cls-2" d="M437.31,182.5q0-3,2.9-3a4.85,4.85,0,0,1,2.07.4l-0.43,1.54a4.59,4.59,0,0,0-1.64-.3,1.16,1.16,0,0,0-1.2,1.41v0.56a1.16,1.16,0,0,0,1.2,1.41,4.59,4.59,0,0,0,1.64-.3l0.43,1.54a4.85,4.85,0,0,1-2.07.4q-2.9,0-2.9-3V182.5Z"/></svg>