<svg id="Calque_1" data-name="Calque 1" xmlns="http://www.w3.org/2000/svg" viewBox="0 0 541.33 273.67"><defs><style>.cls-1{fill:#c94b24;}.cls-2{fill:#0f6e96;}.cls-3{fill:#afa715;}.cls-4{fill:#7e2885;}.cls-5{fill:#d29f3a;}.cls-6,.cls-7{fill:none;stroke-miterlimit:10;stroke-width:4px;}.cls-6{stroke:#afa715;}.cls-7{stroke:#c94b24;}</style></defs><title>3_4_format</title><path class="cls-1" d="M417.08,150.55c0-.18,0-0.36,0-0.53a9.18,9.18,0,0,0-17.32-4.23l-4,4a5.05,5.05,0,0,0-1.48,3.55h5a9.2,9.2,0,0,0,6.35,5.62V171.6h-4.47v2.51c1.94,0,3.51.87,3.51,1.95s-1.57,1.95-3.51,1.95v2.51h4.48a2.23,2.23,0,0,0,2.21,2h0a2.23,2.23,0,0,0,2.22-2.22v-21.4a9.19,9.19,0,0,0,6.69-6.71c-6.31-.06-11.16-0.41-11.16-0.83S410.65,150.6,417.08,150.55Zm-6.5-5.27a1.83,1.83,0,1,1-1.83,1.83A1.83,1.83,0,0,1,410.58,145.28Z"/><path class="cls-2" d="M73.51,150.55c0-.18,0-0.36,0-0.53a9.18,9.18,0,0,0-17.32-4.23l-4,4a5.05,5.05,0,0,0-1.48,3.55h5a9.2,9.2,0,0,0,6.35,5.62V171.6H57.66v2.51c1.94,0,3.51.87,3.51,1.95S59.6,178,57.66,178v2.51h4.48a2.23,2.23,0,0,0,2.21,2h0a2.23,2.23,0,0,0,2.22-2.22v-21.4a9.19,9.19,0,0,0,6.69-6.71c-6.31-.06-11.16-0.41-11.16-0.83S67.08,150.6,73.51,150.55ZM67,145.28a1.83,1.83,0,1,1-1.83,1.83A1.83,1.83,0,0,1,67,145.28Z"/><path class="cls-3" d="M121.79,150.55c0-.18,0-0.36,0-0.53a9.18,9.18,0,0,0-17.32-4.23l-4,4A5.05,5.05,0,0,0,99,153.3h5a9.2,9.2,0,0,0,6.35,5.62V171.6h-4.47v2.51c1.94,0,3.51.87,3.51,1.95s-1.57,1.95-3.51,1.95v2.51h4.48a2.23,2.23,0,0,0,2.21,2h0a2.23,2.23,0,0,0,2.22-2.22v-21.4a9.19,9.19,0,0,0,6.69-6.71c-6.31-.06-11.16-0.41-11.16-0.83S115.36,150.6,121.79,150.55Zm-6.5-5.27a1.83,1.83,0,1,1-1.83,1.83A1.83,1.83,0,0,1,115.3,145.28Z"/><path class="cls-4" d="M170.07,150.55c0-.18,0-0.36,0-0.53a9.18,9.18,0,0,0-17.32-4.23l-4,4a5.05,5.05,0,0,0-1.48,3.55h5a9.2,9.2,0,0,0,6.35,5.62V171.6h-4.47v2.51c1.94,0,3.51.87,3.51,1.95s-1.57,1.95-3.51,1.95v2.51h4.48a2.23,2.23,0,0,0,2.21,2h0a2.23,2.23,0,0,0,2.22-2.22v-21.4a9.19,9.19,0,0,0,6.69-6.71c-6.31-.06-11.16-0.41-11.16-0.83S163.64,150.6,170.07,150.55Zm-6.5-5.27a1.83,1.83,0,1,1-1.83,1.83A1.83,1.83,0,0,1,163.58,145.28Z"/><path class="cls-5" d="M218.36,150.55c0-.18,0-0.36,0-0.53A9.18,9.18,0,0,0,201,145.79l-4,4a5.05,5.05,0,0,0-1.48,3.55h5a9.2,9.2,0,0,0,6.35,5.62V171.6h-4.47v2.51c1.94,0,3.51.87,3.51,1.95s-1.57,1.95-3.51,1.95v2.51H207a2.23,2.23,0,0,0,2.21,2h0a2.23,2.23,0,0,0,2.22-2.22v-21.4a9.19,9.19,0,0,0,6.69-6.71c-6.31-.06-11.16-0.41-11.16-0.83S211.93,150.6,218.36,150.55Zm-6.5-5.27a1.83,1.83,0,1,1-1.83,1.83A1.83,1.83,0,0,1,211.86,145.28Z"/><path class="cls-3" d="M140,49.3H119.49v38h31.35v-27Zm4,31.15H126.37V56.18h10V64H144V80.44Z"/><rect class="cls-6" x="100.83" y="33.98" width="68.67" height="68.67"/><path class="cls-2" d="M89.2,11.75h7.39v2.31h-5v2.42h4.57v2.31H91.61v4.73H89.2V11.75Z"/><path class="cls-2" d="M98.25,18.42q0-4.31,4.11-4.31t4.11,4.31v0.79q0,4.31-4.11,4.31t-4.11-4.31V18.42Zm2.41,0.79q0,2,1.7,2t1.7-2V18.42q0-2-1.7-2t-1.7,2v0.79Z"/><path class="cls-2" d="M108.13,14.64a9.14,9.14,0,0,1,3.69-.53,8,8,0,0,1,1.49.17l-0.54,2.29a4.05,4.05,0,0,0-1-.16l-0.71,0-0.57.07v7h-2.41V14.64Z"/><path class="cls-2" d="M115,14.64a9.14,9.14,0,0,1,3.69-.53,3.16,3.16,0,0,1,2,.48,5.22,5.22,0,0,1,2.61-.48q3.28,0,3.28,3.52v5.89h-2.41V17.63q0-1.21-.87-1.21a2.87,2.87,0,0,0-1.29.26v6.84h-2.41V17.63q0-1.21-.87-1.21l-0.71,0-0.57.07v7H115V14.64Z"/><path class="cls-2" d="M128.71,14.79a8.79,8.79,0,0,1,3.16-.67q3.69,0,3.69,3.52v5.3a8.19,8.19,0,0,1-3.69.59q-3.69,0-3.69-3,0-3.2,5-3.2,0-.85-1.29-0.85a8.23,8.23,0,0,0-2.46.45Zm4.45,4.79q-2.57,0-2.57.9,0,0.74,1.29.74l0.71,0,0.57-.07V19.58Z"/><path class="cls-2" d="M138.47,11.82l2.41-.56v2.86h2.49v2.31h-2.49V20q0,1.21.87,1.21a4.22,4.22,0,0,0,1.4-.37l0.61,2.06a3.52,3.52,0,0,1-2,.61q-3.28,0-3.28-3.52V16.42h-1.25V14.11h1.25V11.82Z"/><path class="cls-2" d="M149.62,11.82l2.41-.56V23.52h-2.41V11.82Z"/><path class="cls-2" d="M153.69,10.54h2.41v2.7h-2.41v-2.7Zm0,3.57h2.41v9.4h-2.41v-9.4Z"/><path class="cls-2" d="M157.76,11.82l2.41-.56v3a5.24,5.24,0,0,1,1.29-.12q3.69,0,3.69,3.91V19.6q0,3.92-3.69,3.92a8.19,8.19,0,0,1-3.69-.59V11.82Zm5,6.2q0-1.6-1.29-1.6l-0.71,0-0.57.07v4.61l0.57,0.07,0.71,0q1.29,0,1.29-1.61V18Z"/><path class="cls-2" d="M166.81,14.64a9.14,9.14,0,0,1,3.69-.53,8,8,0,0,1,1.49.17l-0.54,2.29a4.05,4.05,0,0,0-1-.16l-0.71,0-0.57.07v7h-2.41V14.64Z"/><path class="cls-2" d="M173.65,18.42q0-4.31,3.94-4.31,3.78,0,3.78,4.31,0,1.54-.79,1.54h-4.52a1.12,1.12,0,0,0,1.29,1.25,8.48,8.48,0,0,0,2.9-.47l0.46,2.13a7.1,7.1,0,0,1-3.35.65q-3.69,0-3.69-4.31V18.42Zm5.31-.68a1.19,1.19,0,0,0-1.37-1.32,1.27,1.27,0,0,0-1.54,1.32H179Z"/><path class="cls-3" d="M405.89,49.3H385.41v38h31.35v-27Zm4,31.15H392.29V56.18h10V64h7.61V80.44Z"/><rect class="cls-7" x="366.75" y="33.98" width="68.67" height="68.67"/><path class="cls-2" d="M348.94,11.75h7.39v2.31h-5v2.42h4.57v2.31h-4.57v4.73h-2.41V11.75Z"/><path class="cls-2" d="M358,18.42q0-4.31,4.11-4.31t4.11,4.31v0.79q0,4.31-4.11,4.31T358,19.21V18.42Zm2.41,0.79q0,2,1.7,2t1.7-2V18.42q0-2-1.7-2t-1.7,2v0.79Z"/><path class="cls-2" d="M367.87,14.64a9.15,9.15,0,0,1,3.69-.53,8,8,0,0,1,1.49.17l-0.54,2.29a4,4,0,0,0-1-.16l-0.71,0-0.57.07v7h-2.41V14.64Z"/><path class="cls-2" d="M374.71,14.64a9.14,9.14,0,0,1,3.69-.53,3.16,3.16,0,0,1,2,.48,5.22,5.22,0,0,1,2.61-.48q3.28,0,3.28,3.52v5.89h-2.41V17.63q0-1.21-.87-1.21a2.86,2.86,0,0,0-1.29.26v6.84h-2.41V17.63q0-1.21-.87-1.21l-0.71,0-0.57.07v7h-2.41V14.64Z"/><path class="cls-2" d="M388.44,14.79a8.79,8.79,0,0,1,3.16-.67q3.69,0,3.69,3.52v5.3a8.2,8.2,0,0,1-3.69.59q-3.69,0-3.69-3,0-3.2,5-3.2,0-.85-1.29-0.85a8.24,8.24,0,0,0-2.46.45Zm4.45,4.79q-2.57,0-2.57.9,0,0.74,1.29.74l0.71,0,0.57-.07V19.58Z"/><path class="cls-2" d="M398.21,11.82l2.41-.56v2.86h2.49v2.31h-2.49V20q0,1.21.87,1.21a4.22,4.22,0,0,0,1.4-.37l0.61,2.06a3.52,3.52,0,0,1-2,.61q-3.28,0-3.28-3.52V16.42H397V14.11h1.25V11.82Z"/><path class="cls-2" d="M409.36,14.51h1.25q0-3.15,3.28-3.15a4.43,4.43,0,0,1,2,.44l-0.61,2.06a7.23,7.23,0,0,0-1.4-.2,0.76,0.76,0,0,0-.87.85h2.49v2.3H413v6.71h-2.41V16.81h-1.25v-2.3Z"/><path class="cls-2" d="M417.26,18.42q0-4.31,3.94-4.31,3.78,0,3.78,4.31,0,1.54-.79,1.54h-4.52a1.12,1.12,0,0,0,1.29,1.25,8.48,8.48,0,0,0,2.9-.47l0.46,2.13a7.1,7.1,0,0,1-3.35.65q-3.69,0-3.69-4.31V18.42Zm5.31-.68a1.19,1.19,0,0,0-1.37-1.32,1.27,1.27,0,0,0-1.54,1.32h2.91Z"/><path class="cls-2" d="M426.39,14.64a9.15,9.15,0,0,1,3.69-.53,8,8,0,0,1,1.49.17L431,16.58a4,4,0,0,0-1-.16l-0.71,0-0.57.07v7h-2.41V14.64Z"/><path class="cls-2" d="M433.24,14.64a9.14,9.14,0,0,1,3.69-.53,3.16,3.16,0,0,1,2,.48,5.22,5.22,0,0,1,2.61-.48q3.28,0,3.28,3.52v5.89h-2.41V17.63q0-1.21-.87-1.21a2.86,2.86,0,0,0-1.29.26v6.84H437.8V17.63q0-1.21-.87-1.21l-0.71,0-0.57.07v7h-2.41V14.64Z"/><path class="cls-2" d="M446.43,18.42q0-4.31,3.94-4.31,3.78,0,3.78,4.31,0,1.54-.79,1.54h-4.52a1.12,1.12,0,0,0,1.29,1.25,8.48,8.48,0,0,0,2.9-.47l0.46,2.13a7.1,7.1,0,0,1-3.35.65q-3.69,0-3.69-4.31V18.42Zm5.31-.68a1.19,1.19,0,0,0-1.37-1.32,1.27,1.27,0,0,0-1.54,1.32h2.91Zm-2-7.5h2.7l-1.3,3.09h-1.93Z"/><path class="cls-1" d="M447.86,119.12v-7.38a4.51,4.51,0,0,0-4.5-4.5H423.5a4.51,4.51,0,0,0-4.5,4.5v2.47l-3.69,3.69a6.35,6.35,0,0,0-1.87,4.47H419v1.77a4.51,4.51,0,0,0,4.5,4.5h18.83a4.51,4.51,0,0,0,4.5-4.5v-5h1Zm-8.27-7.45a2.15,2.15,0,1,1-2.15,2.15A2.15,2.15,0,0,1,439.59,111.67Z"/><path class="cls-1" d="M440.13,100.33v5.41h4.43v-5.62a10.53,10.53,0,0,0-10.49-10.49h-0.55A10.53,10.53,0,0,0,423,100.12v5.62h4.43v-5.41a6.16,6.16,0,0,1,6.14-6.14H434A6.16,6.16,0,0,1,440.13,100.33Z"/><line class="cls-7" x1="366.75" y1="102.64" x2="435.17" y2="34.22"/><line class="cls-7" x1="366.75" y1="33.98" x2="434.67" y2="101.89"/><path class="cls-2" d="M49.76,203.75h1.76L54.67,214H53.06l-0.63-2.2H48.85L48.22,214H46.61Zm0.88,1.83-1.37,4.76H52Z"/><path class="cls-2" d="M55.4,209.61q0-3.66,3.3-3.66a5.19,5.19,0,0,1,2.2.37l-0.37,1.39a4.89,4.89,0,0,0-1.83-.29q-1.83,0-1.83,2.2v0.73q0,2.2,1.83,2.2a4.89,4.89,0,0,0,1.83-.29l0.37,1.39a5.19,5.19,0,0,1-2.2.37q-3.3,0-3.3-3.66v-0.73Z"/><path class="cls-2" d="M62,209.61q0-3.66,3.3-3.66a5.19,5.19,0,0,1,2.2.37l-0.37,1.39a4.89,4.89,0,0,0-1.83-.29q-1.83,0-1.83,2.2v0.73q0,2.2,1.83,2.2a4.89,4.89,0,0,0,1.83-.29l0.37,1.39a5.19,5.19,0,0,1-2.2.37q-3.3,0-3.3-3.66v-0.73Z"/><path class="cls-2" d="M68.59,209.61q0-3.66,3.15-3.66t3,3.66q0,1.1-.37,1.1H70.05q0,1.83,1.46,1.83a6.76,6.76,0,0,0,2.31-.32l0.28,1.35a5.6,5.6,0,0,1-2.59.43q-2.93,0-2.93-3.66v-0.73Zm4.69-.29q0-1.9-1.54-1.9t-1.68,1.9h3.22Zm-2.93-6.67H72l0.37,2.2h-1.1Z"/><path class="cls-2" d="M76.28,212.24a8.87,8.87,0,0,0,2.56.29q1.46,0,1.46-.88t-1.46-1q-2.78-.22-2.78-2.42t2.78-2.34a9.26,9.26,0,0,1,2.42.37l-0.37,1.39a6.8,6.8,0,0,0-2.05-.29q-1.32,0-1.32.88t1.32,1q2.93,0.22,2.93,2.42T78.84,214a11.09,11.09,0,0,1-2.93-.37Z"/><path class="cls-2" d="M87.29,206.31a7.62,7.62,0,0,1,2.93-.37q2.93,0,2.93,3.3v1.46q0,3.3-2.93,3.3a5.08,5.08,0,0,1-1.46-.22v3.15l-1.46.37v-11Zm4.39,2.93q0-1.83-1.46-1.83a7.21,7.21,0,0,0-.73,0q-0.36,0-.73.11v4.83q0.37,0.07.73,0.11a7.21,7.21,0,0,0,.73,0q1.46,0,1.46-1.83v-1.46Z"/><path class="cls-2" d="M95.17,206.43a6.27,6.27,0,0,1,2.38-.48,2.59,2.59,0,0,1,2.93,2.93v4.39a4.24,4.24,0,0,1-2.93.73q-2.93,0-2.93-2.49T99,208.87a1.29,1.29,0,0,0-1.46-1.46,6.07,6.07,0,0,0-2,.33ZM99,210.34q-2.93,0-2.93,1.17t1.46,1a7.21,7.21,0,0,0,.73,0q0.36,0,.73-0.11v-2.05Z"/><path class="cls-2" d="M101.94,206.31a7.72,7.72,0,0,1,2.93-.37,4.49,4.49,0,0,1,.92.09l-0.33,1.45a2.07,2.07,0,0,0-.59-0.07,7.21,7.21,0,0,0-.73,0q-0.36,0-.73.11V214h-1.46v-7.69Z"/><path class="cls-1" d="M111.17,206.31a7.72,7.72,0,0,1,2.93-.37,2.59,2.59,0,0,1,2.93,2.93V214h-1.46v-5.13a1.29,1.29,0,0,0-1.46-1.46,7.21,7.21,0,0,0-.73,0q-0.36,0-.73.11V214h-1.46v-7.69Z"/><path class="cls-1" d="M118.49,209.61q0-3.66,3.3-3.66t3.3,3.66v0.73q0,3.66-3.3,3.66t-3.3-3.66v-0.73Zm1.46,0.73q0,2.2,1.83,2.2t1.83-2.2v-0.73q0-2.2-1.83-2.2t-1.83,2.2v0.73Z"/><path class="cls-1" d="M126.55,206.31a7.72,7.72,0,0,1,2.93-.37,2.59,2.59,0,0,1,1.7.52,4.38,4.38,0,0,1,2.33-.52q2.56,0,2.56,2.93V214h-1.46v-5.13q0-1.46-1.1-1.46a3.34,3.34,0,0,0-1.46.37V214h-1.46v-5.13q0-1.46-1.1-1.46a7.21,7.21,0,0,0-.73,0q-0.36,0-.73.11V214h-1.46v-7.69Z"/><path class="cls-1" d="M137.54,203.75l1.46-.37v2.78a5.08,5.08,0,0,1,1.46-.22q2.93,0,2.93,3.3v1.46q0,3.3-2.93,3.3a7.62,7.62,0,0,1-2.93-.37v-9.89Zm4.39,5.49q0-1.83-1.46-1.83a7.21,7.21,0,0,0-.73,0q-0.36,0-.73.11v4.83q0.37,0.07.73,0.11a7.21,7.21,0,0,0,.73,0q1.46,0,1.46-1.83v-1.46Z"/><path class="cls-1" d="M144.86,206.31a7.72,7.72,0,0,1,2.93-.37,4.49,4.49,0,0,1,.92.09l-0.33,1.45a2.07,2.07,0,0,0-.59-0.07,7.21,7.21,0,0,0-.73,0q-0.36,0-.73.11V214h-1.46v-7.69Z"/><path class="cls-1" d="M149.69,209.61q0-3.66,3.15-3.66t3,3.66q0,1.1-.37,1.1h-4.32q0,1.83,1.46,1.83a6.76,6.76,0,0,0,2.31-.32l0.28,1.35a5.6,5.6,0,0,1-2.59.43q-2.93,0-2.93-3.66v-0.73Zm4.69-.29q0-1.9-1.54-1.9t-1.68,1.9h3.22Z"/><path class="cls-1" d="M157,205.94h1.46v5.13a1.29,1.29,0,0,0,1.46,1.46,7.21,7.21,0,0,0,.73,0q0.36,0,.73-0.11v-6.45h1.46v7.32a4.24,4.24,0,0,1-2.93.73,2.59,2.59,0,0,1-2.93-2.93v-5.13Z"/><path class="cls-1" d="M164.34,205.94H166l1.61,3.08,1.61-3.08h1.68l-2.2,4,2.2,4h-1.68l-1.61-3.08L166,214h-1.68l2.2-4Z"/><path class="cls-1" d="M176.79,203.75l1.46-.37V214h-1.46V203.75Z"/><path class="cls-1" d="M179.72,209.61q0-3.66,3.3-3.66t3.3,3.66v0.73q0,3.66-3.3,3.66t-3.3-3.66v-0.73Zm1.46,0.73q0,2.2,1.83,2.2t1.83-2.2v-0.73q0-2.2-1.83-2.2t-1.83,2.2v0.73Z"/><path class="cls-1" d="M187.78,209.24q0-3.3,2.93-3.3a7.62,7.62,0,0,1,2.93.37v8.06a2.59,2.59,0,0,1-2.93,2.93,8.24,8.24,0,0,1-2.56-.37l0.37-1.46a5.19,5.19,0,0,0,2.2.37,1.29,1.29,0,0,0,1.46-1.46v-0.59a5.13,5.13,0,0,1-1.46.22q-2.93,0-2.93-3.3v-1.46Zm4.39-1.68q-0.37-.07-0.73-0.11a7.21,7.21,0,0,0-.73,0q-1.46,0-1.46,1.83v1.46q0,1.83,1.46,1.83a7.21,7.21,0,0,0,.73,0q0.36,0,.73-0.11v-4.83Z"/><path class="cls-1" d="M195.11,203h1.46v1.83h-1.46V203Zm0,2.93h1.46V214h-1.46v-8.06Z"/><path class="cls-1" d="M198,209.61q0-3.66,3.3-3.66a5.19,5.19,0,0,1,2.2.37l-0.37,1.39a4.89,4.89,0,0,0-1.83-.29q-1.83,0-1.83,2.2v0.73q0,2.2,1.83,2.2a4.89,4.89,0,0,0,1.83-.29l0.37,1.39a5.19,5.19,0,0,1-2.2.37q-3.3,0-3.3-3.66v-0.73Z"/><path class="cls-1" d="M204.63,203h1.46v1.83h-1.46V203Zm0,2.93h1.46V214h-1.46v-8.06Z"/><path class="cls-1" d="M207.56,209.61q0-3.66,3.15-3.66t3,3.66q0,1.1-.37,1.1H209q0,1.83,1.46,1.83a6.76,6.76,0,0,0,2.31-.32l0.28,1.35a5.59,5.59,0,0,1-2.58.43q-2.93,0-2.93-3.66v-0.73Zm4.69-.29q0-1.9-1.54-1.9t-1.68,1.9h3.22Z"/><path class="cls-1" d="M214.88,203.75l1.46-.37V214h-1.46V203.75Z"/><path class="cls-1" d="M218.18,212.24a8.87,8.87,0,0,0,2.56.29q1.46,0,1.46-.88t-1.46-1q-2.78-.22-2.78-2.42t2.78-2.34a9.26,9.26,0,0,1,2.42.37l-0.37,1.39a6.8,6.8,0,0,0-2.05-.29q-1.32,0-1.32.88t1.32,1q2.93,0.22,2.93,2.42T220.74,214a11.09,11.09,0,0,1-2.93-.37Z"/><path class="cls-1" d="M64.26,221.75h3.3q3.66,0,3.66,3.3t-3.66,3.3H65.72V232H64.26V221.75Zm1.46,1.46v3.66h1.83q2.2,0,2.2-1.83t-2.2-1.83H65.72Z"/><path class="cls-1" d="M72.68,227.61q0-3.66,3.15-3.66t3,3.66q0,1.1-.37,1.1H74.15q0,1.83,1.46,1.83a6.76,6.76,0,0,0,2.31-.32l0.28,1.35a5.6,5.6,0,0,1-2.59.43q-2.93,0-2.93-3.66v-0.73Zm4.69-.29q0-1.9-1.54-1.9t-1.68,1.9h3.22Zm-1.9-6.67h1.61l-0.88,2.2H75.1Z"/><path class="cls-1" d="M80,224.31a7.72,7.72,0,0,1,2.93-.37,4.49,4.49,0,0,1,.92.09l-0.33,1.45a2.07,2.07,0,0,0-.59-0.07,7.21,7.21,0,0,0-.73,0q-0.36,0-.73.11V232H80v-7.69Z"/><path class="cls-1" d="M84.84,227.61q0-3.66,3.15-3.66t3,3.66q0,1.1-.37,1.1H86.3q0,1.83,1.46,1.83a6.76,6.76,0,0,0,2.31-.32l0.28,1.35a5.6,5.6,0,0,1-2.59.43q-2.93,0-2.93-3.66v-0.73Zm4.69-.29q0-1.9-1.54-1.9t-1.68,1.9h3.22Z"/><path class="cls-1" d="M92.16,224.31a7.72,7.72,0,0,1,2.93-.37A2.59,2.59,0,0,1,98,226.87V232H96.56v-5.13a1.29,1.29,0,0,0-1.46-1.46,7.21,7.21,0,0,0-.73,0q-0.36,0-.73.11V232H92.16v-7.69Z"/><path class="cls-1" d="M99.49,224.31a7.72,7.72,0,0,1,2.93-.37,2.59,2.59,0,0,1,2.93,2.93V232h-1.46v-5.13a1.29,1.29,0,0,0-1.46-1.46,7.21,7.21,0,0,0-.73,0q-0.36,0-.73.11V232H99.49v-7.69Z"/><path class="cls-1" d="M106.81,221h1.46v1.83h-1.46V221Zm0,2.93h1.46V232h-1.46v-8.06Z"/><path class="cls-1" d="M110.84,221.75l1.46-.37v2.56h2.2v1.46h-2.2v3.66q0,1.46,1.1,1.46a2.62,2.62,0,0,0,1-.22l0.37,1.32a2.37,2.37,0,0,1-1.39.37q-2.56,0-2.56-2.93v-3.66h-1.1v-1.46h1.1v-2.2Z"/><path class="cls-1" d="M116,227.61q0-3.66,3.15-3.66t3,3.66q0,1.1-.37,1.1h-4.32q0,1.83,1.46,1.83a6.76,6.76,0,0,0,2.31-.32l0.28,1.35a5.6,5.6,0,0,1-2.59.43q-2.93,0-2.93-3.66v-0.73Zm4.69-.29q0-1.9-1.54-1.9t-1.68,1.9h3.22Zm-1.9-6.67h1.61l-0.88,2.2h-1.1Z"/><path class="cls-2" d="M132.08,221.75l1.46-.37v10.25a7.62,7.62,0,0,1-2.93.37q-2.93,0-2.93-3.3v-1.46q0-3.3,2.93-3.3a5.13,5.13,0,0,1,1.46.22v-2.42Zm0,3.81q-0.37-.07-0.73-0.11a7.21,7.21,0,0,0-.73,0q-1.46,0-1.46,1.83v1.46q0,1.83,1.46,1.83a7.21,7.21,0,0,0,.73,0q0.36,0,.73-0.11v-4.83Z"/><path class="cls-2" d="M135,223.94h1.46v5.13a1.29,1.29,0,0,0,1.46,1.46,7.21,7.21,0,0,0,.73,0q0.36,0,.73-0.11v-6.45h1.46v7.32a4.24,4.24,0,0,1-2.93.73,2.59,2.59,0,0,1-2.93-2.93v-5.13Z"/><path class="cls-2" d="M151.12,221.75l1.46-.37v10.25a7.62,7.62,0,0,1-2.93.37q-2.93,0-2.93-3.3v-1.46q0-3.3,2.93-3.3a5.13,5.13,0,0,1,1.46.22v-2.42Zm0,3.81q-0.37-.07-0.73-0.11a7.21,7.21,0,0,0-.73,0q-1.46,0-1.46,1.83v1.46q0,1.83,1.46,1.83a7.21,7.21,0,0,0,.73,0q0.36,0,.73-0.11v-4.83Z"/><path class="cls-2" d="M154.05,227.61q0-3.66,3.3-3.66t3.3,3.66v0.73q0,3.66-3.3,3.66t-3.3-3.66v-0.73Zm1.46,0.73q0,2.2,1.83,2.2t1.83-2.2v-0.73q0-2.2-1.83-2.2t-1.83,2.2v0.73Z"/><path class="cls-2" d="M162.11,227.61q0-3.66,3.3-3.66a5.19,5.19,0,0,1,2.2.37l-0.37,1.39a4.89,4.89,0,0,0-1.83-.29q-1.83,0-1.83,2.2v0.73q0,2.2,1.83,2.2a4.89,4.89,0,0,0,1.83-.29l0.37,1.39a5.19,5.19,0,0,1-2.2.37q-3.3,0-3.3-3.66v-0.73Z"/><path class="cls-2" d="M168.7,223.94h1.46v5.13a1.29,1.29,0,0,0,1.46,1.46,7.21,7.21,0,0,0,.73,0q0.36,0,.73-0.11v-6.45h1.46v7.32a4.24,4.24,0,0,1-2.93.73,2.59,2.59,0,0,1-2.93-2.93v-5.13Z"/><path class="cls-2" d="M176,224.31a7.72,7.72,0,0,1,2.93-.37,2.59,2.59,0,0,1,1.7.52,4.38,4.38,0,0,1,2.33-.52q2.56,0,2.56,2.93V232h-1.46v-5.13q0-1.46-1.1-1.46a3.34,3.34,0,0,0-1.46.37V232h-1.46v-5.13q0-1.46-1.1-1.46a7.21,7.21,0,0,0-.73,0q-0.36,0-.73.11V232H176v-7.69Z"/><path class="cls-2" d="M187,227.61q0-3.66,3.15-3.66t3,3.66q0,1.1-.37,1.1h-4.32q0,1.83,1.46,1.83a6.76,6.76,0,0,0,2.31-.32l0.28,1.35a5.6,5.6,0,0,1-2.59.43q-2.93,0-2.93-3.66v-0.73Zm4.69-.29q0-1.9-1.54-1.9t-1.68,1.9h3.22Z"/><path class="cls-2" d="M194.34,224.31a7.72,7.72,0,0,1,2.93-.37,2.59,2.59,0,0,1,2.93,2.93V232h-1.46v-5.13a1.29,1.29,0,0,0-1.46-1.46,7.21,7.21,0,0,0-.73,0q-0.36,0-.73.11V232h-1.46v-7.69Z"/><path class="cls-2" d="M202.76,221.75l1.46-.37v2.56h2.2v1.46h-2.2v3.66q0,1.46,1.1,1.46a2.62,2.62,0,0,0,1-.22l0.37,1.32a2.37,2.37,0,0,1-1.39.37q-2.56,0-2.56-2.93v-3.66h-1.1v-1.46h1.1v-2.2Z"/><path class="cls-2" d="M318.24,203.75H320L323.15,214h-1.61l-0.63-2.2h-3.57L316.7,214h-1.61Zm0.88,1.83-1.37,4.76h2.73Z"/><path class="cls-2" d="M323.88,209.61q0-3.66,3.3-3.66a5.19,5.19,0,0,1,2.2.37L329,207.7a4.89,4.89,0,0,0-1.83-.29q-1.83,0-1.83,2.2v0.73q0,2.2,1.83,2.2a4.89,4.89,0,0,0,1.83-.29l0.37,1.39a5.19,5.19,0,0,1-2.2.37q-3.3,0-3.3-3.66v-0.73Z"/><path class="cls-2" d="M330.47,209.61q0-3.66,3.3-3.66a5.19,5.19,0,0,1,2.2.37l-0.37,1.39a4.89,4.89,0,0,0-1.83-.29q-1.83,0-1.83,2.2v0.73q0,2.2,1.83,2.2a4.89,4.89,0,0,0,1.83-.29l0.37,1.39a5.19,5.19,0,0,1-2.2.37q-3.3,0-3.3-3.66v-0.73Z"/><path class="cls-2" d="M337.06,209.61q0-3.66,3.15-3.66t3,3.66q0,1.1-.37,1.1h-4.32q0,1.83,1.46,1.83a6.76,6.76,0,0,0,2.31-.32l0.28,1.35A5.6,5.6,0,0,1,340,214q-2.93,0-2.93-3.66v-0.73Zm4.69-.29q0-1.9-1.54-1.9t-1.68,1.9h3.22Zm-2.93-6.67h1.61l0.37,2.2h-1.1Z"/><path class="cls-2" d="M344.75,212.24a8.87,8.87,0,0,0,2.56.29q1.46,0,1.46-.88t-1.46-1q-2.78-.22-2.78-2.42t2.78-2.34a9.26,9.26,0,0,1,2.42.37l-0.37,1.39a6.8,6.8,0,0,0-2.05-.29q-1.32,0-1.32.88t1.32,1q2.93,0.22,2.93,2.42T347.32,214a11.09,11.09,0,0,1-2.93-.37Z"/><path class="cls-2" d="M355.77,206.31a7.62,7.62,0,0,1,2.93-.37q2.93,0,2.93,3.3v1.46q0,3.3-2.93,3.3a5.08,5.08,0,0,1-1.46-.22v3.15l-1.46.37v-11Zm4.39,2.93q0-1.83-1.46-1.83a7.21,7.21,0,0,0-.73,0q-0.36,0-.73.11v4.83q0.37,0.07.73,0.11a7.21,7.21,0,0,0,.73,0q1.46,0,1.46-1.83v-1.46Z"/><path class="cls-2" d="M363.64,206.43a6.26,6.26,0,0,1,2.38-.48,2.59,2.59,0,0,1,2.93,2.93v4.39A4.24,4.24,0,0,1,366,214q-2.93,0-2.93-2.49t4.39-2.64a1.29,1.29,0,0,0-1.46-1.46,6.06,6.06,0,0,0-2,.33Zm3.84,3.91q-2.93,0-2.93,1.17t1.46,1a7.21,7.21,0,0,0,.73,0q0.36,0,.73-0.11v-2.05Z"/><path class="cls-2" d="M370.42,206.31a7.72,7.72,0,0,1,2.93-.37,4.49,4.49,0,0,1,.92.09l-0.33,1.45a2.07,2.07,0,0,0-.59-0.07,7.21,7.21,0,0,0-.73,0q-0.36,0-.73.11V214h-1.46v-7.69Z"/><path class="cls-1" d="M379.65,203.75l1.46-.37V214h-1.46V203.75Z"/><path class="cls-1" d="M382.58,209.61q0-3.66,3.3-3.66t3.3,3.66v0.73q0,3.66-3.3,3.66t-3.3-3.66v-0.73Zm1.46,0.73q0,2.2,1.83,2.2t1.83-2.2v-0.73q0-2.2-1.83-2.2t-1.83,2.2v0.73Z"/><path class="cls-1" d="M390.63,209.24q0-3.3,2.93-3.3a7.62,7.62,0,0,1,2.93.37v8.06a2.59,2.59,0,0,1-2.93,2.93,8.24,8.24,0,0,1-2.56-.37l0.37-1.46a5.19,5.19,0,0,0,2.2.37,1.29,1.29,0,0,0,1.46-1.46v-0.59a5.13,5.13,0,0,1-1.46.22q-2.93,0-2.93-3.3v-1.46Zm4.39-1.68q-0.37-.07-0.73-0.11a7.21,7.21,0,0,0-.73,0q-1.46,0-1.46,1.83v1.46q0,1.83,1.46,1.83a7.21,7.21,0,0,0,.73,0q0.36,0,.73-0.11v-4.83Z"/><path class="cls-1" d="M398,203h1.46v1.83H398V203Zm0,2.93h1.46V214H398v-8.06Z"/><path class="cls-1" d="M400.89,209.61q0-3.66,3.3-3.66a5.19,5.19,0,0,1,2.2.37L406,207.7a4.89,4.89,0,0,0-1.83-.29q-1.83,0-1.83,2.2v0.73q0,2.2,1.83,2.2a4.89,4.89,0,0,0,1.83-.29l0.37,1.39a5.19,5.19,0,0,1-2.2.37q-3.3,0-3.3-3.66v-0.73Z"/><path class="cls-1" d="M407.48,203h1.46v1.83h-1.46V203Zm0,2.93h1.46V214h-1.46v-8.06Z"/><path class="cls-1" d="M410.41,209.61q0-3.66,3.15-3.66t3,3.66q0,1.1-.37,1.1h-4.32q0,1.83,1.46,1.83a6.76,6.76,0,0,0,2.31-.32l0.28,1.35a5.6,5.6,0,0,1-2.59.43q-2.93,0-2.93-3.66v-0.73Zm4.69-.29q0-1.9-1.54-1.9t-1.68,1.9h3.22Z"/><path class="cls-1" d="M417.73,203.75l1.46-.37V214h-1.46V203.75Z"/><path class="cls-1" d="M425.06,206.31a7.62,7.62,0,0,1,2.93-.37q2.93,0,2.93,3.3v1.46q0,3.3-2.93,3.3a5.08,5.08,0,0,1-1.46-.22v3.15l-1.46.37v-11Zm4.39,2.93q0-1.83-1.46-1.83a7.21,7.21,0,0,0-.73,0q-0.36,0-.73.11v4.83q0.37,0.07.73,0.11a7.21,7.21,0,0,0,.73,0q1.46,0,1.46-1.83v-1.46Z"/><path class="cls-1" d="M432.38,206.31a7.72,7.72,0,0,1,2.93-.37,4.49,4.49,0,0,1,.92.09l-0.33,1.45a2.07,2.07,0,0,0-.59-0.07,7.21,7.21,0,0,0-.73,0q-0.36,0-.73.11V214h-1.46v-7.69Z"/><path class="cls-1" d="M437.21,209.61q0-3.66,3.3-3.66t3.3,3.66v0.73q0,3.66-3.3,3.66t-3.3-3.66v-0.73Zm1.46,0.73q0,2.2,1.83,2.2t1.83-2.2v-0.73q0-2.2-1.83-2.2t-1.83,2.2v0.73Z"/><path class="cls-1" d="M445.27,206.31a7.62,7.62,0,0,1,2.93-.37q2.93,0,2.93,3.3v1.46q0,3.3-2.93,3.3a5.08,5.08,0,0,1-1.46-.22v3.15l-1.46.37v-11Zm4.39,2.93q0-1.83-1.46-1.83a7.21,7.21,0,0,0-.73,0q-0.36,0-.73.11v4.83q0.37,0.07.73,0.11a7.21,7.21,0,0,0,.73,0q1.46,0,1.46-1.83v-1.46Z"/><path class="cls-1" d="M452.6,206.31a7.72,7.72,0,0,1,2.93-.37,4.49,4.49,0,0,1,.92.09l-0.33,1.45a2.07,2.07,0,0,0-.59-0.07,7.21,7.21,0,0,0-.73,0q-0.36,0-.73.11V214H452.6v-7.69Z"/><path class="cls-1" d="M457.43,203h1.46v1.83h-1.46V203Zm0,2.93h1.46V214h-1.46v-8.06Z"/><path class="cls-1" d="M460.36,209.61q0-3.66,3.15-3.66t3,3.66q0,1.1-.37,1.1h-4.32q0,1.83,1.46,1.83a6.76,6.76,0,0,0,2.31-.32l0.28,1.35a5.6,5.6,0,0,1-2.59.43q-2.93,0-2.93-3.66v-0.73Zm4.69-.29q0-1.9-1.54-1.9t-1.68,1.9H465Zm-1.9-6.67h1.61l-0.88,2.2h-1.1Z"/><path class="cls-1" d="M468.78,203.75l1.46-.37v2.56h2.2v1.46h-2.2v3.66q0,1.46,1.1,1.46a2.62,2.62,0,0,0,1-.22l0.37,1.32a2.37,2.37,0,0,1-1.39.37q-2.56,0-2.56-2.93v-3.66h-1.1v-1.46h1.1v-2.2Z"/><path class="cls-1" d="M474.46,206.43a6.26,6.26,0,0,1,2.38-.48,2.59,2.59,0,0,1,2.93,2.93v4.39a4.24,4.24,0,0,1-2.93.73q-2.93,0-2.93-2.49t4.39-2.64a1.29,1.29,0,0,0-1.46-1.46,6.06,6.06,0,0,0-2,.33Zm3.84,3.91q-2.93,0-2.93,1.17t1.46,1a7.21,7.21,0,0,0,.73,0q0.36,0,.73-0.11v-2.05Z"/><path class="cls-1" d="M481.23,203h1.46v1.83h-1.46V203Zm0,2.93h1.46V214h-1.46v-8.06Z"/><path class="cls-1" d="M484.16,206.31a7.72,7.72,0,0,1,2.93-.37,4.49,4.49,0,0,1,.92.09l-0.33,1.45a2.07,2.07,0,0,0-.59-0.07,7.21,7.21,0,0,0-.73,0q-0.36,0-.73.11V214h-1.46v-7.69Z"/><path class="cls-1" d="M489,209.61q0-3.66,3.15-3.66t3,3.66q0,1.1-.37,1.1h-4.32q0,1.83,1.46,1.83a6.76,6.76,0,0,0,2.31-.32l0.28,1.35a5.6,5.6,0,0,1-2.59.43q-2.93,0-2.93-3.66v-0.73Zm4.69-.29q0-1.9-1.54-1.9t-1.68,1.9h3.22Z"/><path class="cls-1" d="M321.63,226.87q0-5.13,4-5.13t4,5.13q0,5.13-4,5.13T321.63,226.87Zm4-3.66q-2.56,0-2.56,3.66t2.56,3.66q2.56,0,2.56-3.66T325.66,223.21Z"/><path class="cls-1" d="M331.15,221.75l1.46-.37v2.78a5.08,5.08,0,0,1,1.46-.22q2.93,0,2.93,3.3v1.46q0,3.3-2.93,3.3a7.62,7.62,0,0,1-2.93-.37v-9.89Zm4.39,5.49q0-1.83-1.46-1.83a7.21,7.21,0,0,0-.73,0q-0.36,0-.73.11v4.83q0.37,0.07.73,0.11a7.21,7.21,0,0,0,.73,0q1.46,0,1.46-1.83v-1.46Z"/><path class="cls-1" d="M338.84,230.24a8.87,8.87,0,0,0,2.56.29q1.46,0,1.46-.88t-1.46-1q-2.78-.22-2.78-2.42t2.78-2.34a9.26,9.26,0,0,1,2.42.37l-0.37,1.39a6.8,6.8,0,0,0-2.05-.29q-1.32,0-1.32.88t1.32,1q2.93,0.22,2.93,2.42T341.41,232a11.09,11.09,0,0,1-2.93-.37Z"/><path class="cls-1" d="M345.46,227.61q0-3.66,3.3-3.66t3.3,3.66v0.73q0,3.66-3.3,3.66t-3.3-3.66v-0.73Zm1.46,0.73q0,2.2,1.83,2.2t1.83-2.2v-0.73q0-2.2-1.83-2.2t-1.83,2.2v0.73Z"/><path class="cls-1" d="M353.52,221.75l1.46-.37V232h-1.46V221.75Z"/><path class="cls-1" d="M356.45,227.61q0-3.66,3.15-3.66t3,3.66q0,1.1-.37,1.1h-4.32q0,1.83,1.46,1.83a6.76,6.76,0,0,0,2.31-.32l0.28,1.35a5.59,5.59,0,0,1-2.58.43q-2.93,0-2.93-3.66v-0.73Zm4.69-.29q0-1.9-1.54-1.9t-1.68,1.9h3.22Z"/><path class="cls-1" d="M364.14,230.24a8.87,8.87,0,0,0,2.56.29q1.46,0,1.46-.88t-1.46-1q-2.78-.22-2.78-2.42t2.78-2.34a9.26,9.26,0,0,1,2.42.37l-0.37,1.39a6.8,6.8,0,0,0-2.05-.29q-1.32,0-1.32.88t1.32,1q2.93,0.22,2.93,2.42T366.7,232a11.09,11.09,0,0,1-2.93-.37Z"/><path class="cls-1" d="M370.76,227.61q0-3.66,3.3-3.66a5.19,5.19,0,0,1,2.2.37l-0.37,1.39a4.89,4.89,0,0,0-1.83-.29q-1.83,0-1.83,2.2v0.73q0,2.2,1.83,2.2a4.89,4.89,0,0,0,1.83-.29l0.37,1.39a5.19,5.19,0,0,1-2.2.37q-3.3,0-3.3-3.66v-0.73Z"/><path class="cls-1" d="M377.35,227.61q0-3.66,3.15-3.66t3,3.66q0,1.1-.37,1.1h-4.32q0,1.83,1.46,1.83a6.76,6.76,0,0,0,2.31-.32l0.28,1.35a5.59,5.59,0,0,1-2.58.43q-2.93,0-2.93-3.66v-0.73Zm4.69-.29q0-1.9-1.54-1.9t-1.68,1.9H382Z"/><path class="cls-1" d="M384.68,224.31a7.72,7.72,0,0,1,2.93-.37,2.59,2.59,0,0,1,2.93,2.93V232h-1.46v-5.13a1.29,1.29,0,0,0-1.46-1.46,7.21,7.21,0,0,0-.73,0q-0.36,0-.73.11V232h-1.46v-7.69Z"/><path class="cls-1" d="M392,227.61q0-3.66,3.3-3.66a5.19,5.19,0,0,1,2.2.37l-0.37,1.39a4.89,4.89,0,0,0-1.83-.29q-1.83,0-1.83,2.2v0.73q0,2.2,1.83,2.2a4.89,4.89,0,0,0,1.83-.29l0.37,1.39a5.19,5.19,0,0,1-2.2.37q-3.3,0-3.3-3.66v-0.73Z"/><path class="cls-1" d="M398.59,227.61q0-3.66,3.15-3.66t3,3.66q0,1.1-.37,1.1h-4.32q0,1.83,1.46,1.83a6.76,6.76,0,0,0,2.31-.32l0.28,1.35a5.59,5.59,0,0,1-2.58.43q-2.93,0-2.93-3.66v-0.73Zm4.69-.29q0-1.9-1.54-1.9t-1.68,1.9h3.22Z"/><path class="cls-2" d="M414.71,221.75l1.46-.37v10.25a7.62,7.62,0,0,1-2.93.37q-2.93,0-2.93-3.3v-1.46q0-3.3,2.93-3.3a5.13,5.13,0,0,1,1.46.22v-2.42Zm0,3.81q-0.37-.07-0.73-0.11a7.21,7.21,0,0,0-.73,0q-1.46,0-1.46,1.83v1.46q0,1.83,1.46,1.83a7.21,7.21,0,0,0,.73,0q0.36,0,.73-0.11v-4.83Z"/><path class="cls-2" d="M417.64,223.94h1.46v5.13a1.29,1.29,0,0,0,1.46,1.46,7.21,7.21,0,0,0,.73,0q0.36,0,.73-0.11v-6.45h1.46v7.32a4.24,4.24,0,0,1-2.93.73,2.59,2.59,0,0,1-2.93-2.93v-5.13Z"/><path class="cls-2" d="M433.75,221.75l1.46-.37v10.25a7.62,7.62,0,0,1-2.93.37q-2.93,0-2.93-3.3v-1.46q0-3.3,2.93-3.3a5.13,5.13,0,0,1,1.46.22v-2.42Zm0,3.81q-0.37-.07-0.73-0.11a7.21,7.21,0,0,0-.73,0q-1.46,0-1.46,1.83v1.46q0,1.83,1.46,1.83a7.21,7.21,0,0,0,.73,0q0.36,0,.73-0.11v-4.83Z"/><path class="cls-2" d="M436.68,227.61q0-3.66,3.3-3.66t3.3,3.66v0.73q0,3.66-3.3,3.66t-3.3-3.66v-0.73Zm1.46,0.73q0,2.2,1.83,2.2t1.83-2.2v-0.73q0-2.2-1.83-2.2t-1.83,2.2v0.73Z"/><path class="cls-2" d="M444.74,227.61q0-3.66,3.3-3.66a5.19,5.19,0,0,1,2.2.37l-0.37,1.39a4.89,4.89,0,0,0-1.83-.29q-1.83,0-1.83,2.2v0.73q0,2.2,1.83,2.2a4.89,4.89,0,0,0,1.83-.29l0.37,1.39a5.19,5.19,0,0,1-2.2.37q-3.3,0-3.3-3.66v-0.73Z"/><path class="cls-2" d="M451.33,223.94h1.46v5.13a1.29,1.29,0,0,0,1.46,1.46,7.21,7.21,0,0,0,.73,0q0.36,0,.73-0.11v-6.45h1.46v7.32a4.24,4.24,0,0,1-2.93.73,2.59,2.59,0,0,1-2.93-2.93v-5.13Z"/><path class="cls-2" d="M458.65,224.31a7.72,7.72,0,0,1,2.93-.37,2.59,2.59,0,0,1,1.7.52,4.38,4.38,0,0,1,2.33-.52q2.56,0,2.56,2.93V232h-1.46v-5.13q0-1.46-1.1-1.46a3.34,3.34,0,0,0-1.46.37V232h-1.46v-5.13q0-1.46-1.1-1.46a7.21,7.21,0,0,0-.73,0q-0.36,0-.73.11V232h-1.46v-7.69Z"/><path class="cls-2" d="M469.64,227.61q0-3.66,3.15-3.66t3,3.66q0,1.1-.37,1.1H471.1q0,1.83,1.46,1.83a6.76,6.76,0,0,0,2.31-.32l0.28,1.35a5.59,5.59,0,0,1-2.58.43q-2.93,0-2.93-3.66v-0.73Zm4.69-.29q0-1.9-1.54-1.9t-1.68,1.9h3.22Z"/><path class="cls-2" d="M477,224.31a7.72,7.72,0,0,1,2.93-.37,2.59,2.59,0,0,1,2.93,2.93V232h-1.46v-5.13a1.29,1.29,0,0,0-1.46-1.46,7.21,7.21,0,0,0-.73,0q-0.36,0-.73.11V232H477v-7.69Z"/><path class="cls-2" d="M485.39,221.75l1.46-.37v2.56H489v1.46h-2.2v3.66q0,1.46,1.1,1.46a2.62,2.62,0,0,0,1-.22l0.37,1.32a2.37,2.37,0,0,1-1.39.37q-2.56,0-2.56-2.93v-3.66h-1.1v-1.46h1.1v-2.2Z"/><path class="cls-2" d="M332.82,238.65a4.23,4.23,0,0,0-.8,1,7.27,7.27,0,0,0-.63,1.41,10.5,10.5,0,0,0-.41,1.76,14.79,14.79,0,0,0,0,4.1,10.5,10.5,0,0,0,.41,1.75,7.26,7.26,0,0,0,.63,1.41,4.23,4.23,0,0,0,.8,1l-0.88.73a5.72,5.72,0,0,1-1.14-1.3,7.72,7.72,0,0,1-.8-1.64,10.52,10.52,0,0,1-.47-1.91,14.42,14.42,0,0,1,0-4.21,10.42,10.42,0,0,1,.47-1.91,7.85,7.85,0,0,1,.8-1.64,5.69,5.69,0,0,1,1.14-1.3Z"/><path class="cls-2" d="M334.65,248.24a8.87,8.87,0,0,0,2.56.29q1.46,0,1.46-.88t-1.46-1q-2.78-.22-2.78-2.42t2.78-2.34a9.26,9.26,0,0,1,2.42.37l-0.37,1.39a6.8,6.8,0,0,0-2.05-.29q-1.32,0-1.32.88t1.32,1q2.93,0.22,2.93,2.42T337.21,250a11.09,11.09,0,0,1-2.93-.37Z"/><path class="cls-2" d="M341.27,239h1.46v1.83h-1.46V239Zm0,2.93h1.46V250h-1.46v-8.06Z"/><path class="cls-2" d="M348.59,239.75l1.46-.37V250h-1.46V239.75Z"/><path class="cls-2" d="M351.52,245.61q0-3.66,3.3-3.66t3.3,3.66v0.73q0,3.66-3.3,3.66t-3.3-3.66v-0.73Zm1.46,0.73q0,2.2,1.83,2.2t1.83-2.2v-0.73q0-2.2-1.83-2.2t-1.83,2.2v0.73Z"/><path class="cls-2" d="M359.58,245.24q0-3.3,2.93-3.3a7.62,7.62,0,0,1,2.93.37v8.06a2.59,2.59,0,0,1-2.93,2.93,8.24,8.24,0,0,1-2.56-.37l0.37-1.46a5.19,5.19,0,0,0,2.2.37,1.29,1.29,0,0,0,1.46-1.46v-0.59a5.13,5.13,0,0,1-1.46.22q-2.93,0-2.93-3.3v-1.46Zm4.39-1.68q-0.37-.07-0.73-0.11a7.21,7.21,0,0,0-.73,0q-1.46,0-1.46,1.83v1.46q0,1.83,1.46,1.83a7.21,7.21,0,0,0,.73,0q0.36,0,.73-0.11v-4.83Z"/><path class="cls-2" d="M366.9,239h1.46v1.83H366.9V239Zm0,2.93h1.46V250H366.9v-8.06Z"/><path class="cls-2" d="M369.83,245.61q0-3.66,3.3-3.66a5.19,5.19,0,0,1,2.2.37L375,243.7a4.89,4.89,0,0,0-1.83-.29q-1.83,0-1.83,2.2v0.73q0,2.2,1.83,2.2a4.89,4.89,0,0,0,1.83-.29l0.37,1.39a5.19,5.19,0,0,1-2.2.37q-3.3,0-3.3-3.66v-0.73Z"/><path class="cls-2" d="M376.42,239h1.46v1.83h-1.46V239Zm0,2.93h1.46V250h-1.46v-8.06Z"/><path class="cls-2" d="M379.35,245.61q0-3.66,3.15-3.66t3,3.66q0,1.1-.37,1.1h-4.32q0,1.83,1.46,1.83a6.76,6.76,0,0,0,2.31-.32l0.28,1.35a5.6,5.6,0,0,1-2.59.43q-2.93,0-2.93-3.66v-0.73Zm4.69-.29q0-1.9-1.54-1.9t-1.68,1.9H384Z"/><path class="cls-2" d="M386.68,239.75l1.46-.37V250h-1.46V239.75Z"/><path class="cls-2" d="M394,242.31a7.72,7.72,0,0,1,2.93-.37,2.59,2.59,0,0,1,2.93,2.93V250H398.4v-5.13a1.29,1.29,0,0,0-1.46-1.46,7.21,7.21,0,0,0-.73,0q-0.36,0-.73.11V250H394v-7.69Z"/><path class="cls-2" d="M401.33,245.61q0-3.66,3.3-3.66t3.3,3.66v0.73q0,3.66-3.3,3.66t-3.3-3.66v-0.73Zm1.46,0.73q0,2.2,1.83,2.2t1.83-2.2v-0.73q0-2.2-1.83-2.2t-1.83,2.2v0.73Z"/><path class="cls-2" d="M409.38,242.31a7.72,7.72,0,0,1,2.93-.37,2.59,2.59,0,0,1,2.93,2.93V250h-1.46v-5.13a1.29,1.29,0,0,0-1.46-1.46,7.21,7.21,0,0,0-.73,0q-0.36,0-.73.11V250h-1.46v-7.69Z"/><path class="cls-2" d="M421.1,242.31a7.72,7.72,0,0,1,2.93-.37,2.59,2.59,0,0,1,1.7.52,4.38,4.38,0,0,1,2.33-.52q2.56,0,2.56,2.93V250h-1.46v-5.13q0-1.46-1.1-1.46a3.34,3.34,0,0,0-1.46.37V250h-1.46v-5.13q0-1.46-1.1-1.46a7.21,7.21,0,0,0-.73,0q-0.36,0-.73.11V250H421.1v-7.69Z"/><path class="cls-2" d="M432.64,242.43a6.26,6.26,0,0,1,2.38-.48,2.59,2.59,0,0,1,2.93,2.93v4.39A4.24,4.24,0,0,1,435,250q-2.93,0-2.93-2.49t4.39-2.64a1.29,1.29,0,0,0-1.46-1.46,6.06,6.06,0,0,0-2,.33Zm3.84,3.91q-2.93,0-2.93,1.17t1.46,1a7.21,7.21,0,0,0,.73,0q0.36,0,.73-0.11v-2.05Z"/><path class="cls-2" d="M439.41,239h1.46v1.83h-1.46V239Zm0,2.93h1.46V250h-1.46v-8.06Z"/><path class="cls-2" d="M442.34,242.31a7.72,7.72,0,0,1,2.93-.37,2.59,2.59,0,0,1,2.93,2.93V250h-1.46v-5.13a1.29,1.29,0,0,0-1.46-1.46,7.21,7.21,0,0,0-.73,0q-0.36,0-.73.11V250h-1.46v-7.69Z"/><path class="cls-2" d="M450.76,239.75l1.46-.37v2.56h2.2v1.46h-2.2v3.66q0,1.46,1.1,1.46a2.62,2.62,0,0,0,1-.22l0.37,1.32a2.37,2.37,0,0,1-1.39.37q-2.56,0-2.56-2.93v-3.66h-1.1v-1.46h1.1v-2.2Z"/><path class="cls-2" d="M455.89,245.61q0-3.66,3.15-3.66t3,3.66q0,1.1-.37,1.1h-4.32q0,1.83,1.46,1.83a6.76,6.76,0,0,0,2.31-.32l0.28,1.35a5.6,5.6,0,0,1-2.59.43q-2.93,0-2.93-3.66v-0.73Zm4.69-.29q0-1.9-1.54-1.9t-1.68,1.9h3.22Z"/><path class="cls-2" d="M463.22,242.31a7.72,7.72,0,0,1,2.93-.37,2.59,2.59,0,0,1,2.93,2.93V250h-1.46v-5.13a1.29,1.29,0,0,0-1.46-1.46,7.21,7.21,0,0,0-.73,0q-0.36,0-.73.11V250h-1.46v-7.69Z"/><path class="cls-2" d="M470.54,241.94H472v5.13a1.29,1.29,0,0,0,1.46,1.46,7.21,7.21,0,0,0,.73,0q0.36,0,.73-0.11v-6.45h1.46v7.32a4.24,4.24,0,0,1-2.93.73,2.59,2.59,0,0,1-2.93-2.93v-5.13Z"/><path class="cls-2" d="M478.74,237.92a5.63,5.63,0,0,1,1.14,1.3,8,8,0,0,1,.8,1.64,10.37,10.37,0,0,1,.47,1.92,14.54,14.54,0,0,1,0,4.21,10.27,10.27,0,0,1-.47,1.91,8,8,0,0,1-.8,1.64,5.63,5.63,0,0,1-1.14,1.3l-0.88-.73a4.23,4.23,0,0,0,.8-1,7.26,7.26,0,0,0,.63-1.41,10.5,10.5,0,0,0,.41-1.75,14.79,14.79,0,0,0,0-4.1,10.51,10.51,0,0,0-.41-1.76,7.27,7.27,0,0,0-.63-1.41,4.23,4.23,0,0,0-.8-1Z"/></svg>