<?xml version="1.0" standalone="yes"?>

<svg version="1.1" viewBox="0.0 0.0 800.0 600.0" fill="none" stroke="none" stroke-linecap="square" stroke-miterlimit="10" xmlns="http://www.w3.org/2000/svg" xmlns:xlink="http://www.w3.org/1999/xlink"><clipPath id="p.0"><path d="m0 0l800.0 0l0 600.0l-800.0 0l0 -600.0z" clip-rule="nonzero"></path></clipPath><g clip-path="url(#p.0)"><path fill="#000000" fill-opacity="0.0" d="m0 0l800.0 0l0 600.0l-800.0 0z" fill-rule="nonzero"></path><path fill="#efefef" d="m462.4086 365.20108l0 0c-2.3140259 -15.568787 5.2834167 -30.980927 19.56845 -39.696503c14.285034 -8.715576 32.75238 -9.206055 47.565674 -1.2633057l0 0c5.2473145 -9.052338 14.85144 -15.302338 25.907349 -16.859528c11.055847 -1.55719 22.264954 1.7613525 30.236633 8.951843l0 0c4.4700317 -8.207428 13.24707 -13.721771 23.216492 -14.586243c9.969421 -0.86450195 19.720398 3.043213 25.792664 10.336487l0 0c8.075806 -8.69986 20.92456 -12.362854 32.986572 -9.403992c12.062073 2.9588623 21.170898 12.008118 23.38507 23.232147l0 0c9.894226 2.4707947 18.135864 8.751892 22.595642 17.220428c4.459717 8.468567 4.7000732 18.293823 0.6588745 26.937286l0 0c9.74292 11.60907 12.022034 27.078064 5.9868164 40.634186c-6.0352173 13.556091 -19.478027 23.16272 -35.31183 25.234772c-0.111572266 12.7229 -7.7331543 24.397278 -19.92694 30.523315c-12.193848 6.1260376 -27.055847 5.747162 -38.857544 -0.9906311c-5.0269165 15.237854 -19.175964 26.449738 -36.33423 28.791687c-17.158264 2.3419495 -34.249817 -4.605896 -43.89044 -17.841766c-11.817444 6.5240173 -25.997314 8.403351 -39.341034 5.214142c-13.3437195 -3.1892395 -24.727203 -11.178436 -31.582611 -22.165375l0 0c-12.075928 1.2937317 -23.751648 -4.4342346 -29.232574 -14.3411255c-5.480957 -9.906891 -3.6003418 -21.88379 4.708496 -29.986572l0 0c-10.772003 -5.8044434 -16.268555 -17.322418 -13.623383 -28.54773c2.6452026 -11.225311 12.832672 -19.614258 25.250092 -20.792358z" fill-rule="nonzero"></path><path fill="#000000" fill-opacity="0.0" d="m450.54318 415.14124l0 0c5.083374 2.7391357 10.955811 3.981659 16.828918 3.5607605m7.692505 40.767914c2.5256653 -0.27056885 5.0012817 -0.8435669 7.3630066 -1.7041931m63.55713 18.654724c-1.7764282 -2.4388428 -3.2636719 -5.0449524 -4.4365234 -7.773926m84.664246 -3.1764526l0 0c0.9164429 -2.7781067 1.5102539 -5.6373596 1.7714844 -8.53009m57.010803 -21.001526c0.11883545 -13.545502 -8.284729 -25.947876 -21.601013 -31.879974m50.92572 -33.98758c-2.1564941 4.612488 -5.4487305 8.704193 -9.618408 11.954224m-13.634094 -56.11313l0 0c0.36749268 1.8626404 0.5375366 3.7532654 0.5078125 5.6456604m-56.87848 -19.473236l0 0c-2.0145264 2.170166 -3.6741943 4.595337 -4.927368 7.1999207m-44.082214 -2.9511414l0 0c-1.0736084 1.9711609 -1.8752441 4.057007 -2.3865356 6.209442m-53.7583 1.6984253l0 0c3.1344604 1.6806946 6.0343018 3.7035522 8.635742 6.0242004m-75.76901 34.93582l0 0c0.3189392 2.1457825 0.822876 4.265106 1.5070801 6.3381653" fill-rule="nonzero"></path><path stroke="#000000" stroke-width="2.0" stroke-linejoin="round" stroke-linecap="butt" d="m462.4086 365.20108l0 0c-2.3140259 -15.568787 5.2834167 -30.980927 19.56845 -39.696503c14.285034 -8.715576 32.75238 -9.206055 47.565674 -1.2633057l0 0c5.2473145 -9.052338 14.85144 -15.302338 25.907349 -16.859528c11.055847 -1.55719 22.264954 1.7613525 30.236633 8.951843l0 0c4.4700317 -8.207428 13.24707 -13.721771 23.216492 -14.586243c9.969421 -0.86450195 19.720398 3.043213 25.792664 10.336487l0 0c8.075806 -8.69986 20.92456 -12.362854 32.986572 -9.403992c12.062073 2.9588623 21.170898 12.008118 23.38507 23.232147l0 0c9.894226 2.4707947 18.135864 8.751892 22.595642 17.220428c4.459717 8.468567 4.7000732 18.293823 0.6588745 26.937286l0 0c9.74292 11.60907 12.022034 27.078064 5.9868164 40.634186c-6.0352173 13.556091 -19.478027 23.16272 -35.31183 25.234772c-0.111572266 12.7229 -7.7331543 24.397278 -19.92694 30.523315c-12.193848 6.1260376 -27.055847 5.747162 -38.857544 -0.9906311c-5.0269165 15.237854 -19.175964 26.449738 -36.33423 28.791687c-17.158264 2.3419495 -34.249817 -4.605896 -43.89044 -17.841766c-11.817444 6.5240173 -25.997314 8.403351 -39.341034 5.214142c-13.3437195 -3.1892395 -24.727203 -11.178436 -31.582611 -22.165375l0 0c-12.075928 1.2937317 -23.751648 -4.4342346 -29.232574 -14.3411255c-5.480957 -9.906891 -3.6003418 -21.88379 4.708496 -29.986572l0 0c-10.772003 -5.8044434 -16.268555 -17.322418 -13.623383 -28.54773c2.6452026 -11.225311 12.832672 -19.614258 25.250092 -20.792358z" fill-rule="nonzero"></path><path stroke="#000000" stroke-width="2.0" stroke-linejoin="round" stroke-linecap="butt" d="m450.54318 415.14124l0 0c5.083374 2.7391357 10.955811 3.981659 16.828918 3.5607605m7.692505 40.767914c2.5256653 -0.27056885 5.0012817 -0.8435669 7.3630066 -1.7041931m63.55713 18.654724c-1.7764282 -2.4388428 -3.2636719 -5.0449524 -4.4365234 -7.773926m84.664246 -3.1764526l0 0c0.9164429 -2.7781067 1.5102539 -5.6373596 1.7714844 -8.53009m57.010803 -21.001526c0.11883545 -13.545502 -8.284729 -25.947876 -21.601013 -31.879974m50.92572 -33.98758c-2.1564941 4.612488 -5.4487305 8.704193 -9.618408 11.954224m-13.634094 -56.11313l0 0c0.36749268 1.8626404 0.5375366 3.7532654 0.5078125 5.6456604m-56.87848 -19.473236l0 0c-2.0145264 2.170166 -3.6741943 4.595337 -4.927368 7.1999207m-44.082214 -2.9511414l0 0c-1.0736084 1.9711609 -1.8752441 4.057007 -2.3865356 6.209442m-53.7583 1.6984253l0 0c3.1344604 1.6806946 6.0343018 3.7035522 8.635742 6.0242004m-75.76901 34.93582l0 0c0.3189392 2.1457825 0.822876 4.265106 1.5070801 6.3381653" fill-rule="nonzero"></path><path fill="#efefef" d="m452.9099 111.69846l0 0c-2.3140259 -15.568779 5.2834167 -30.980934 19.56845 -39.696503c14.285034 -8.715576 32.75241 -9.206055 47.565704 -1.2633057l0 0c5.2473145 -9.052334 14.85144 -15.302345 25.907288 -16.859531c11.055908 -1.5571823 22.264954 1.7613602 30.236694 8.951839l0 0c4.4700317 -8.207432 13.247009 -13.721775 23.216492 -14.586258c9.969421 -0.8644829 19.720337 3.0432434 25.792664 10.33651l0 0c8.075745 -8.699852 20.92456 -12.362854 32.986572 -9.403999c12.062012 2.9588547 21.170837 12.008125 23.38507 23.232147l0 0c9.894165 2.4707947 18.135864 8.751884 22.595581 17.220436c4.459778 8.468552 4.7000732 18.293816 0.65893555 26.937263l0 0c9.742859 11.6091 12.021973 27.07808 5.9867554 40.634186c-6.0351562 13.556122 -19.477966 23.16272 -35.311768 25.234787c-0.1116333 12.7229 -7.7331543 24.397278 -19.927002 30.52333c-12.193848 6.1260376 -27.055847 5.7471466 -38.857544 -0.99064636c-5.0268555 15.237869 -19.175903 26.449753 -36.334167 28.791687c-17.158325 2.3419495 -34.249817 -4.6058807 -43.890503 -17.841782c-11.817383 6.5240173 -25.997314 8.403381 -39.341003 5.214142c-13.3437195 -3.1892395 -24.727203 -11.178421 -31.582611 -22.16536l0 0c-12.075928 1.2937317 -23.751648 -4.4342194 -29.232574 -14.34111c-5.480957 -9.906906 -3.6003418 -21.88379 4.708496 -29.986588l0 0c-10.772003 -5.8044586 -16.268555 -17.322418 -13.623383 -28.54773c2.6452026 -11.225311 12.832672 -19.614273 25.250092 -20.792366z" fill-rule="nonzero"></path><path fill="#000000" fill-opacity="0.0" d="m441.0445 161.6386l0 0c5.083374 2.739151 10.955811 3.9816895 16.828918 3.560791m7.692505 40.7679c2.5256653 -0.2705841 5.0012817 -0.84358215 7.3630066 -1.7042084m63.5571 18.654724c-1.7763672 -2.4388275 -3.2636719 -5.044937 -4.4364624 -7.7739105m84.664185 -3.176468l0 0c0.9165039 -2.7780914 1.510315 -5.6373444 1.7714844 -8.53006m57.010864 -21.001541c0.118774414 -13.545486 -8.284729 -25.947876 -21.601074 -31.879974m50.92578 -33.98757c-2.1565552 4.6124954 -5.4487305 8.70417 -9.618469 11.954231m-13.634033 -56.113144l0 0c0.36743164 1.8626328 0.5374756 3.7532578 0.5078125 5.645668m-56.87848 -19.473251l0 0c-2.0145264 2.1701813 -3.6741943 4.595333 -4.927429 7.199936m-44.082214 -2.9511375l0 0c-1.0735474 1.9711571 -1.8752441 4.056988 -2.3865356 6.209423m-53.75824 1.6984329l0 0c3.1344604 1.680687 6.0343018 3.7035599 8.635742 6.0242004m-75.76904 34.93583l0 0c0.3189392 2.1457825 0.822876 4.265114 1.5070801 6.33815" fill-rule="nonzero"></path><path stroke="#000000" stroke-width="2.0" stroke-linejoin="round" stroke-linecap="butt" d="m452.9099 111.69846l0 0c-2.3140259 -15.568779 5.2834167 -30.980934 19.56845 -39.696503c14.285034 -8.715576 32.75241 -9.206055 47.565704 -1.2633057l0 0c5.2473145 -9.052334 14.85144 -15.302345 25.907288 -16.859531c11.055908 -1.5571823 22.264954 1.7613602 30.236694 8.951839l0 0c4.4700317 -8.207432 13.247009 -13.721775 23.216492 -14.586258c9.969421 -0.8644829 19.720337 3.0432434 25.792664 10.33651l0 0c8.075745 -8.699852 20.92456 -12.362854 32.986572 -9.403999c12.062012 2.9588547 21.170837 12.008125 23.38507 23.232147l0 0c9.894165 2.4707947 18.135864 8.751884 22.595581 17.220436c4.459778 8.468552 4.7000732 18.293816 0.65893555 26.937263l0 0c9.742859 11.6091 12.021973 27.07808 5.9867554 40.634186c-6.0351562 13.556122 -19.477966 23.16272 -35.311768 25.234787c-0.1116333 12.7229 -7.7331543 24.397278 -19.927002 30.52333c-12.193848 6.1260376 -27.055847 5.7471466 -38.857544 -0.99064636c-5.0268555 15.237869 -19.175903 26.449753 -36.334167 28.791687c-17.158325 2.3419495 -34.249817 -4.6058807 -43.890503 -17.841782c-11.817383 6.5240173 -25.997314 8.403381 -39.341003 5.214142c-13.3437195 -3.1892395 -24.727203 -11.178421 -31.582611 -22.16536l0 0c-12.075928 1.2937317 -23.751648 -4.4342194 -29.232574 -14.34111c-5.480957 -9.906906 -3.6003418 -21.88379 4.708496 -29.986588l0 0c-10.772003 -5.8044586 -16.268555 -17.322418 -13.623383 -28.54773c2.6452026 -11.225311 12.832672 -19.614273 25.250092 -20.792366z" fill-rule="nonzero"></path><path stroke="#000000" stroke-width="2.0" stroke-linejoin="round" stroke-linecap="butt" d="m441.0445 161.6386l0 0c5.083374 2.739151 10.955811 3.9816895 16.828918 3.560791m7.692505 40.7679c2.5256653 -0.2705841 5.0012817 -0.84358215 7.3630066 -1.7042084m63.5571 18.654724c-1.7763672 -2.4388275 -3.2636719 -5.044937 -4.4364624 -7.7739105m84.664185 -3.176468l0 0c0.9165039 -2.7780914 1.510315 -5.6373444 1.7714844 -8.53006m57.010864 -21.001541c0.118774414 -13.545486 -8.284729 -25.947876 -21.601074 -31.879974m50.92578 -33.98757c-2.1565552 4.6124954 -5.4487305 8.70417 -9.618469 11.954231m-13.634033 -56.113144l0 0c0.36743164 1.8626328 0.5374756 3.7532578 0.5078125 5.645668m-56.87848 -19.473251l0 0c-2.0145264 2.1701813 -3.6741943 4.595333 -4.927429 7.199936m-44.082214 -2.9511375l0 0c-1.0735474 1.9711571 -1.8752441 4.056988 -2.3865356 6.209423m-53.75824 1.6984329l0 0c3.1344604 1.680687 6.0343018 3.7035599 8.635742 6.0242004m-75.76904 34.93583l0 0c0.3189392 2.1457825 0.822876 4.265114 1.5070801 6.33815" fill-rule="nonzero"></path><path fill="#efefef" d="m100.90992 149.2011l0 0c-2.3140335 -15.568787 5.2834015 -30.980934 19.568443 -39.69651c14.285049 -8.715576 32.752396 -9.206055 47.56569 -1.2633057l0 0c5.2473145 -9.05233 14.851456 -15.302345 25.907318 -16.859528c11.055878 -1.5571823 22.264938 1.7613602 30.236664 8.951836l0 0c4.470047 -8.207428 13.247055 -13.721771 23.216476 -14.586258c9.969421 -0.86447906 19.720367 3.0432434 25.792664 10.33651l0 0c8.075806 -8.699852 20.92456 -12.362854 32.986603 -9.403999c12.062012 2.9588547 21.170868 12.008125 23.38507 23.232147l0 0c9.894196 2.4707947 18.135864 8.751884 22.595612 17.220436c4.459717 8.468544 4.7000732 18.293816 0.6588745 26.937263l0 0c9.74292 11.6091 12.022034 27.07808 5.9868164 40.634186c-6.0352173 13.556122 -19.478027 23.16272 -35.3118 25.234787c-0.11160278 12.7229 -7.7331543 24.397278 -19.927002 30.52333c-12.193817 6.1260223 -27.055817 5.7471466 -38.857513 -0.99064636c-5.0269165 15.237854 -19.17595 26.449738 -36.33423 28.791687c-17.158264 2.3419495 -34.249817 -4.605896 -43.890457 -17.841766c-11.817413 6.5240173 -25.99733 8.403351 -39.341034 5.214142c-13.343704 -3.1892395 -24.727203 -11.178436 -31.582603 -22.165375l0 0c-12.075905 1.2937317 -23.751648 -4.4342194 -29.232582 -14.34111c-5.480934 -9.906906 -3.6003113 -21.88379 4.7085266 -29.986588l0 0c-10.772026 -5.8044586 -16.268562 -17.322418 -13.623383 -28.54773c2.6451797 -11.225311 12.832672 -19.614273 25.250092 -20.792358z" fill-rule="nonzero"></path><path fill="#000000" fill-opacity="0.0" d="m89.0445 199.14122l0 0c5.083351 2.739151 10.955818 3.9816895 16.828918 3.560791m7.6924973 40.7679c2.52565 -0.2705841 5.0012665 -0.84358215 7.3630066 -1.7042084m63.5571 18.65474c-1.7763824 -2.4388428 -3.2636566 -5.0449524 -4.4364777 -7.773926m84.66423 -3.176468l0 0c0.9164734 -2.7780914 1.5102539 -5.6373444 1.7714844 -8.53006m57.010803 -21.001541c0.11883545 -13.545486 -8.2846985 -25.947876 -21.601013 -31.879974m50.92572 -33.98758c-2.1565247 4.612503 -5.4487 8.704178 -9.618439 11.954239m-13.634033 -56.113144l0 0c0.36743164 1.8626328 0.5375061 3.7532578 0.5078125 5.645668m-56.87851 -19.473251l0 0c-2.0144958 2.1701813 -3.6741943 4.5953293 -4.9273987 7.199936m-44.082214 -2.9511337l0 0c-1.0735474 1.9711533 -1.8752136 4.056984 -2.3865204 6.2094193m-53.758286 1.6984406l0 0c3.134491 1.6806793 6.034317 3.7035522 8.635773 6.024193m-75.769035 34.935837l0 0c0.31893158 2.1457825 0.82286835 4.265106 1.5070801 6.338135" fill-rule="nonzero"></path><path stroke="#000000" stroke-width="2.0" stroke-linejoin="round" stroke-linecap="butt" d="m100.90992 149.2011l0 0c-2.3140335 -15.568787 5.2834015 -30.980934 19.568443 -39.69651c14.285049 -8.715576 32.752396 -9.206055 47.56569 -1.2633057l0 0c5.2473145 -9.05233 14.851456 -15.302345 25.907318 -16.859528c11.055878 -1.5571823 22.264938 1.7613602 30.236664 8.951836l0 0c4.470047 -8.207428 13.247055 -13.721771 23.216476 -14.586258c9.969421 -0.86447906 19.720367 3.0432434 25.792664 10.33651l0 0c8.075806 -8.699852 20.92456 -12.362854 32.986603 -9.403999c12.062012 2.9588547 21.170868 12.008125 23.38507 23.232147l0 0c9.894196 2.4707947 18.135864 8.751884 22.595612 17.220436c4.459717 8.468544 4.7000732 18.293816 0.6588745 26.937263l0 0c9.74292 11.6091 12.022034 27.07808 5.9868164 40.634186c-6.0352173 13.556122 -19.478027 23.16272 -35.3118 25.234787c-0.11160278 12.7229 -7.7331543 24.397278 -19.927002 30.52333c-12.193817 6.1260223 -27.055817 5.7471466 -38.857513 -0.99064636c-5.0269165 15.237854 -19.17595 26.449738 -36.33423 28.791687c-17.158264 2.3419495 -34.249817 -4.605896 -43.890457 -17.841766c-11.817413 6.5240173 -25.99733 8.403351 -39.341034 5.214142c-13.343704 -3.1892395 -24.727203 -11.178436 -31.582603 -22.165375l0 0c-12.075905 1.2937317 -23.751648 -4.4342194 -29.232582 -14.34111c-5.480934 -9.906906 -3.6003113 -21.88379 4.7085266 -29.986588l0 0c-10.772026 -5.8044586 -16.268562 -17.322418 -13.623383 -28.54773c2.6451797 -11.225311 12.832672 -19.614273 25.250092 -20.792358z" fill-rule="nonzero"></path><path stroke="#000000" stroke-width="2.0" stroke-linejoin="round" stroke-linecap="butt" d="m89.0445 199.14122l0 0c5.083351 2.739151 10.955818 3.9816895 16.828918 3.560791m7.6924973 40.7679c2.52565 -0.2705841 5.0012665 -0.84358215 7.3630066 -1.7042084m63.5571 18.65474c-1.7763824 -2.4388428 -3.2636566 -5.0449524 -4.4364777 -7.773926m84.66423 -3.176468l0 0c0.9164734 -2.7780914 1.5102539 -5.6373444 1.7714844 -8.53006m57.010803 -21.001541c0.11883545 -13.545486 -8.2846985 -25.947876 -21.601013 -31.879974m50.92572 -33.98758c-2.1565247 4.612503 -5.4487 8.704178 -9.618439 11.954239m-13.634033 -56.113144l0 0c0.36743164 1.8626328 0.5375061 3.7532578 0.5078125 5.645668m-56.87851 -19.473251l0 0c-2.0144958 2.1701813 -3.6741943 4.5953293 -4.9273987 7.199936m-44.082214 -2.9511337l0 0c-1.0735474 1.9711533 -1.8752136 4.056984 -2.3865204 6.2094193m-53.758286 1.6984406l0 0c3.134491 1.6806793 6.034317 3.7035522 8.635773 6.024193m-75.769035 34.935837l0 0c0.31893158 2.1457825 0.82286835 4.265106 1.5070801 6.338135" fill-rule="nonzero"></path><path fill="#cfe2f3" d="m131.0 130.0l36.0 0l0 36.0l-36.0 0z" fill-rule="nonzero"></path><path stroke="#000000" stroke-width="2.0" stroke-linejoin="round" stroke-linecap="butt" d="m131.0 130.0l36.0 0l0 36.0l-36.0 0z" fill-rule="nonzero"></path><path fill="#000000" d="m139.96875 154.92l5.234375 -13.59375l1.9375 0l5.5625 13.59375l-2.046875 0l-1.59375 -4.125l-5.6875 0l-1.484375 4.125l-1.921875 0zm3.921875 -5.578125l4.609375 0l-1.40625 -3.78125q-0.65625 -1.703125 -0.96875 -2.8125q-0.265625 1.3125 -0.734375 2.59375l-1.5 4.0z" fill-rule="nonzero"></path><path fill="#cfe2f3" d="m144.0 190.0l36.0 0l0 36.0l-36.0 0z" fill-rule="nonzero"></path><path stroke="#000000" stroke-width="2.0" stroke-linejoin="round" stroke-linecap="butt" d="m144.0 190.0l36.0 0l0 36.0l-36.0 0z" fill-rule="nonzero"></path><path fill="#cfe2f3" d="m222.0 138.0l36.0 0l0 36.0l-36.0 0z" fill-rule="nonzero"></path><path stroke="#000000" stroke-width="2.0" stroke-linejoin="round" stroke-linecap="butt" d="m222.0 138.0l36.0 0l0 36.0l-36.0 0z" fill-rule="nonzero"></path><path fill="#cfe2f3" d="m237.0 240.50394l36.0 0l0 36.0l-36.0 0z" fill-rule="nonzero"></path><path stroke="#000000" stroke-width="2.0" stroke-linejoin="round" stroke-linecap="butt" d="m237.0 240.50394l36.0 0l0 36.0l-36.0 0z" fill-rule="nonzero"></path><path fill="#000000" d="m257.17188 260.65833l1.796875 0.453125q-0.5625 2.21875 -2.03125 3.390625q-1.46875 1.15625 -3.59375 1.15625q-2.203125 0 -3.578125 -0.890625q-1.375 -0.90625 -2.09375 -2.59375q-0.71875 -1.703125 -0.71875 -3.65625q0 -2.125 0.796875 -3.7031403q0.8125 -1.578125 2.3125 -2.390625q1.5 -0.828125 3.296875 -0.828125q2.046875 0 3.4375 1.046875q1.390625 1.03125 1.9375 2.90625l-1.765625 0.421875q-0.46875 -1.484375 -1.375 -2.15625q-0.90625 -0.6875 -2.265625 -0.6875q-1.5625 0 -2.625 0.75q-1.046875 0.75 -1.484375 2.03125q-0.421875 1.2656403 -0.421875 2.6093903q0 1.734375 0.5 3.03125q0.515625 1.28125 1.578125 1.921875q1.078125 0.640625 2.3125 0.640625q1.515625 0 2.5625 -0.859375q1.046875 -0.875 1.421875 -2.59375z" fill-rule="nonzero"></path><path fill="#cfe2f3" d="m333.0 182.0l36.0 0l0 36.0l-36.0 0z" fill-rule="nonzero"></path><path stroke="#000000" stroke-width="2.0" stroke-linejoin="round" stroke-linecap="butt" d="m333.0 182.0l36.0 0l0 36.0l-36.0 0z" fill-rule="nonzero"></path><path fill="#000000" d="m343.46875 206.92l0 -13.59375l4.6875 0q1.578125 0 2.421875 0.1875q1.15625 0.265625 1.984375 0.96875q1.078125 0.921875 1.609375 2.34375q0.53125 1.40625 0.53125 3.21875q0 1.546875 -0.359375 2.75q-0.359375 1.1875 -0.921875 1.984375q-0.5625 0.78125 -1.234375 1.234375q-0.671875 0.4375 -1.625 0.671875q-0.953125 0.234375 -2.1875 0.234375l-4.90625 0zm1.796875 -1.609375l2.90625 0q1.34375 0 2.109375 -0.25q0.765625 -0.25 1.21875 -0.703125q0.640625 -0.640625 1.0 -1.71875q0.359375 -1.078125 0.359375 -2.625q0 -2.125 -0.703125 -3.265625q-0.703125 -1.15625 -1.703125 -1.546875q-0.71875 -0.28125 -2.328125 -0.28125l-2.859375 0l0 10.390625z" fill-rule="nonzero"></path><path fill="#cfe2f3" d="m557.4934 349.00262l36.0 0l0 36.0l-36.0 0z" fill-rule="nonzero"></path><path stroke="#000000" stroke-width="2.0" stroke-linejoin="round" stroke-linecap="butt" d="m557.4934 349.00262l36.0 0l0 36.0l-36.0 0z" fill-rule="nonzero"></path><path fill="#cfe2f3" d="m509.0 401.0l36.0 0l0 36.0l-36.0 0z" fill-rule="nonzero"></path><path stroke="#000000" stroke-width="2.0" stroke-linejoin="round" stroke-linecap="butt" d="m509.0 401.0l36.0 0l0 36.0l-36.0 0z" fill-rule="nonzero"></path><path fill="#cfe2f3" d="m590.0 374.0l36.0 0l0 36.0l-36.0 0z" fill-rule="nonzero"></path><path stroke="#000000" stroke-width="2.0" stroke-linejoin="round" stroke-linecap="butt" d="m590.0 374.0l36.0 0l0 36.0l-36.0 0z" fill-rule="nonzero"></path><path fill="#000000" d="m600.3906 398.91998l0 -13.59375l5.109375 0q1.546875 0 2.484375 0.40625q0.953125 0.40625 1.484375 1.265625q0.53125 0.859375 0.53125 1.796875q0 0.875 -0.46875 1.65625q-0.46875 0.765625 -1.4375 1.234375q1.234375 0.359375 1.890625 1.234375q0.671875 0.875 0.671875 2.0625q0 0.953125 -0.40625 1.78125q-0.390625 0.8125 -0.984375 1.265625q-0.59375 0.4375 -1.5 0.671875q-0.890625 0.21875 -2.1875 0.21875l-5.1875 0zm1.796875 -7.890625l2.9375 0q1.203125 0 1.71875 -0.15625q0.6875 -0.203125 1.03125 -0.671875q0.359375 -0.46875 0.359375 -1.1875q0 -0.671875 -0.328125 -1.1875q-0.328125 -0.515625 -0.9375 -0.703125q-0.59375 -0.203125 -2.0625 -0.203125l-2.71875 0l0 4.109375zm0 6.28125l3.390625 0q0.875 0 1.21875 -0.0625q0.625 -0.109375 1.046875 -0.359375q0.421875 -0.265625 0.6875 -0.765625q0.265625 -0.5 0.265625 -1.140625q0 -0.765625 -0.390625 -1.328125q-0.390625 -0.5625 -1.078125 -0.78125q-0.6875 -0.234375 -1.984375 -0.234375l-3.15625 0l0 4.671875z" fill-rule="nonzero"></path><path fill="#cfe2f3" d="m562.0 126.0l36.0 0l0 36.0l-36.0 0z" fill-rule="nonzero"></path><path stroke="#000000" stroke-width="2.0" stroke-linejoin="round" stroke-linecap="butt" d="m562.0 126.0l36.0 0l0 36.0l-36.0 0z" fill-rule="nonzero"></path><path fill="#cfe2f3" d="m509.0 66.0l36.0 0l0 36.0l-36.0 0z" fill-rule="nonzero"></path><path stroke="#000000" stroke-width="2.0" stroke-linejoin="round" stroke-linecap="butt" d="m509.0 66.0l36.0 0l0 36.0l-36.0 0z" fill-rule="nonzero"></path><path fill="#cfe2f3" d="m621.0 138.0l36.0 0l0 36.0l-36.0 0z" fill-rule="nonzero"></path><path stroke="#000000" stroke-width="2.0" stroke-linejoin="round" stroke-linecap="butt" d="m621.0 138.0l36.0 0l0 36.0l-36.0 0z" fill-rule="nonzero"></path><path fill="#cfe2f3" d="m590.0 78.0l36.0 0l0 36.0l-36.0 0z" fill-rule="nonzero"></path><path stroke="#000000" stroke-width="2.0" stroke-linejoin="round" stroke-linecap="butt" d="m590.0 78.0l36.0 0l0 36.0l-36.0 0z" fill-rule="nonzero"></path><path fill="#cfe2f3" d="m421.5 130.0l36.0 0l0 36.0l-36.0 0z" fill-rule="nonzero"></path><path stroke="#000000" stroke-width="2.0" stroke-linejoin="round" stroke-linecap="butt" d="m421.5 130.0l36.0 0l0 36.0l-36.0 0z" fill-rule="nonzero"></path><path fill="#000000" d="m432.0 154.92l0 -13.59375l9.84375 0l0 1.59375l-8.046875 0l0 4.171875l7.53125 0l0 1.59375l-7.53125 0l0 4.625l8.359375 0l0 1.609375l-10.15625 0z" fill-rule="nonzero"></path><path fill="#cfe2f3" d="m574.0 213.5l36.0 0l0 36.0l-36.0 0z" fill-rule="nonzero"></path><path stroke="#000000" stroke-width="2.0" stroke-linejoin="round" stroke-linecap="butt" d="m574.0 213.5l36.0 0l0 36.0l-36.0 0z" fill-rule="nonzero"></path><path fill="#000000" d="m584.3906 238.42l0 -13.59375l1.796875 0l0 6.734375l6.765625 -6.734375l2.4375 0l-5.703125 5.5l5.953125 8.09375l-2.375 0l-4.84375 -6.890625l-2.234375 2.171875l0 4.71875l-1.796875 0z" fill-rule="nonzero"></path><path fill="#cfe2f3" d="m400.4987 232.0l36.0 0l0 36.0l-36.0 0z" fill-rule="nonzero"></path><path stroke="#000000" stroke-width="2.0" stroke-linejoin="round" stroke-linecap="butt" d="m400.4987 232.0l36.0 0l0 36.0l-36.0 0z" fill-rule="nonzero"></path><path fill="#000000" d="m411.0612 256.91998l0 -13.593735l9.171875 0l0 1.59375l-7.375 0l0 4.21875l6.375 0l0 1.609375l-6.375 0l0 6.1718597l-1.796875 0z" fill-rule="nonzero"></path><path fill="#cfe2f3" d="m458.4987 307.0l36.0 0l0 36.0l-36.0 0z" fill-rule="nonzero"></path><path stroke="#000000" stroke-width="2.0" stroke-linejoin="round" stroke-linecap="butt" d="m458.4987 307.0l36.0 0l0 36.0l-36.0 0z" fill-rule="nonzero"></path><path fill="#000000" d="m469.0143 331.91998l0 -13.59375l1.8125 0l0 5.578125l7.0625 0l0 -5.578125l1.796875 0l0 13.59375l-1.796875 0l0 -6.40625l-7.0625 0l0 6.40625l-1.8125 0z" fill-rule="nonzero"></path><path fill="#cfe2f3" d="m427.0 401.0l36.0 0l0 36.0l-36.0 0z" fill-rule="nonzero"></path><path stroke="#000000" stroke-width="2.0" stroke-linejoin="round" stroke-linecap="butt" d="m427.0 401.0l36.0 0l0 36.0l-36.0 0z" fill-rule="nonzero"></path><path fill="#000000" d="m437.76562 425.91998l0 -13.59375l1.8125 0l0 13.59375l-1.8125 0z" fill-rule="nonzero"></path><path fill="#000000" fill-opacity="0.0" d="m255.0 276.50394c0 71.24408 86.0 142.48819 172.0 142.48819" fill-rule="nonzero"></path><path stroke="#000000" stroke-width="2.0" stroke-linejoin="round" stroke-linecap="butt" d="m255.0 276.50394c0 71.24408 86.0 142.48819 172.0 142.48819" fill-rule="nonzero"></path><path fill="#000000" fill-opacity="0.0" d="m273.0 258.50394c31.874664 0 47.812286 -2.1259766 63.7493 -4.2519684c15.937012 -2.1259918 31.873383 -4.2519684 63.746765 -4.2519684" fill-rule="nonzero"></path><path stroke="#000000" stroke-width="2.0" stroke-linejoin="round" stroke-linecap="butt" d="m273.0 258.50394c31.874664 0 47.812286 -2.1259766 63.7493 -4.2519684c15.937012 -2.1259918 31.873383 -4.2519684 63.746765 -4.2519684" fill-rule="nonzero"></path><path fill="#000000" fill-opacity="0.0" d="m418.4987 268.0c0 75.49606 4.251953 150.99213 8.503937 150.99213" fill-rule="nonzero"></path><path stroke="#000000" stroke-width="2.0" stroke-linejoin="round" stroke-linecap="butt" d="m418.4987 268.0c0 75.49606 4.251953 150.99213 8.503937 150.99213" fill-rule="nonzero"></path><path fill="#000000" fill-opacity="0.0" d="m436.4987 250.0c20.0 0 40.0 28.503937 40.0 57.007874" fill-rule="nonzero"></path><path stroke="#000000" stroke-width="2.0" stroke-linejoin="round" stroke-linecap="butt" d="m436.4987 250.0c20.0 0 40.0 28.503937 40.0 57.007874" fill-rule="nonzero"></path><path fill="#000000" fill-opacity="0.0" d="m418.4987 232.0c0 -16.49997 5.251953 -24.747986 10.503937 -32.999954c5.2519836 -8.251968 10.503937 -16.507889 10.503937 -33.015793" fill-rule="nonzero"></path><path stroke="#000000" stroke-width="2.0" stroke-linejoin="round" stroke-linecap="butt" d="m418.4987 232.0c0 -16.49997 5.251953 -24.747986 10.503937 -32.999954c5.2519836 -8.251968 10.503937 -16.507889 10.503937 -33.015793" fill-rule="nonzero"></path><path fill="#000000" fill-opacity="0.0" d="m421.5 148.0c-13.124939 0 -19.68689 13.0 -26.249878 26.0c-6.5629883 13.0 -13.127014 26.0 -26.254059 26.0" fill-rule="nonzero"></path><path stroke="#000000" stroke-width="2.0" stroke-linejoin="round" stroke-linecap="butt" d="m421.5 148.0c-13.124939 0 -19.68689 13.0 -26.249878 26.0c-6.5629883 13.0 -13.127014 26.0 -26.254059 26.0" fill-rule="nonzero"></path><path fill="#000000" fill-opacity="0.0" d="m592.0 249.5c0 14.375092 -28.874023 21.561188 -57.748047 28.750153c-28.873993 7.188965 -57.748016 14.380829 -57.748016 28.761658" fill-rule="nonzero"></path><path stroke="#000000" stroke-width="2.0" stroke-linejoin="round" stroke-linecap="butt" d="m592.0 249.5c0 14.375092 -28.874023 21.561188 -57.748047 28.750153c-28.873993 7.188965 -57.748016 14.380829 -57.748016 28.761658" fill-rule="nonzero"></path></g></svg>

